%TF.GenerationSoftware,KiCad,Pcbnew,7.0.9-7.0.9~ubuntu22.04.1*%
%TF.CreationDate,2024-01-11T12:11:02+01:00*%
%TF.ProjectId,circuit,63697263-7569-4742-9e6b-696361645f70,rev?*%
%TF.SameCoordinates,Original*%
%TF.FileFunction,Copper,L1,Top*%
%TF.FilePolarity,Positive*%
%FSLAX46Y46*%
G04 Gerber Fmt 4.6, Leading zero omitted, Abs format (unit mm)*
G04 Created by KiCad (PCBNEW 7.0.9-7.0.9~ubuntu22.04.1) date 2024-01-11 12:11:02*
%MOMM*%
%LPD*%
G01*
G04 APERTURE LIST*
G04 Aperture macros list*
%AMRoundRect*
0 Rectangle with rounded corners*
0 $1 Rounding radius*
0 $2 $3 $4 $5 $6 $7 $8 $9 X,Y pos of 4 corners*
0 Add a 4 corners polygon primitive as box body*
4,1,4,$2,$3,$4,$5,$6,$7,$8,$9,$2,$3,0*
0 Add four circle primitives for the rounded corners*
1,1,$1+$1,$2,$3*
1,1,$1+$1,$4,$5*
1,1,$1+$1,$6,$7*
1,1,$1+$1,$8,$9*
0 Add four rect primitives between the rounded corners*
20,1,$1+$1,$2,$3,$4,$5,0*
20,1,$1+$1,$4,$5,$6,$7,0*
20,1,$1+$1,$6,$7,$8,$9,0*
20,1,$1+$1,$8,$9,$2,$3,0*%
G04 Aperture macros list end*
%TA.AperFunction,ComponentPad*%
%ADD10C,1.600000*%
%TD*%
%TA.AperFunction,ComponentPad*%
%ADD11O,1.600000X1.600000*%
%TD*%
%TA.AperFunction,ComponentPad*%
%ADD12R,1.600000X1.600000*%
%TD*%
%TA.AperFunction,ComponentPad*%
%ADD13R,1.300000X1.300000*%
%TD*%
%TA.AperFunction,ComponentPad*%
%ADD14C,1.300000*%
%TD*%
%TA.AperFunction,ComponentPad*%
%ADD15R,2.000000X1.905000*%
%TD*%
%TA.AperFunction,ComponentPad*%
%ADD16O,2.000000X1.905000*%
%TD*%
%TA.AperFunction,ComponentPad*%
%ADD17RoundRect,0.250000X-1.400000X0.650000X-1.400000X-0.650000X1.400000X-0.650000X1.400000X0.650000X0*%
%TD*%
%TA.AperFunction,ComponentPad*%
%ADD18O,3.300000X1.800000*%
%TD*%
%TA.AperFunction,ComponentPad*%
%ADD19R,1.700000X1.700000*%
%TD*%
%TA.AperFunction,ComponentPad*%
%ADD20O,1.700000X1.700000*%
%TD*%
%TA.AperFunction,ComponentPad*%
%ADD21RoundRect,1.500000X-1.500000X-1.500000X1.500000X-1.500000X1.500000X1.500000X-1.500000X1.500000X0*%
%TD*%
%TA.AperFunction,ComponentPad*%
%ADD22C,6.000000*%
%TD*%
%TA.AperFunction,ComponentPad*%
%ADD23O,2.200000X3.500000*%
%TD*%
%TA.AperFunction,ComponentPad*%
%ADD24R,1.500000X2.500000*%
%TD*%
%TA.AperFunction,ComponentPad*%
%ADD25O,1.500000X2.500000*%
%TD*%
%TA.AperFunction,ComponentPad*%
%ADD26RoundRect,0.250000X1.400000X-0.650000X1.400000X0.650000X-1.400000X0.650000X-1.400000X-0.650000X0*%
%TD*%
%TA.AperFunction,ViaPad*%
%ADD27C,0.800000*%
%TD*%
%TA.AperFunction,Conductor*%
%ADD28C,1.000000*%
%TD*%
G04 APERTURE END LIST*
D10*
%TO.P,R7,1*%
%TO.N,/ESP Power*%
X111760000Y-50800000D03*
D11*
%TO.P,R7,2*%
%TO.N,Net-(U5-ADJ)*%
X111760000Y-66040000D03*
%TD*%
D10*
%TO.P,R14,1*%
%TO.N,Net-(U3-ADJ)*%
X81280000Y-66040000D03*
D11*
%TO.P,R14,2*%
%TO.N,GND*%
X96520000Y-66040000D03*
%TD*%
D10*
%TO.P,R3,1*%
%TO.N,/ESP Power*%
X157480000Y-127000000D03*
D11*
%TO.P,R3,2*%
%TO.N,Net-(D1-A)*%
X172720000Y-127000000D03*
%TD*%
D10*
%TO.P,R8,1*%
%TO.N,Net-(U5-ADJ)*%
X106680000Y-50800000D03*
D11*
%TO.P,R8,2*%
%TO.N,GND*%
X106680000Y-66040000D03*
%TD*%
D10*
%TO.P,R5,1*%
%TO.N,Net-(Q1-B)*%
X157480000Y-119380000D03*
D11*
%TO.P,R5,2*%
%TO.N,Net-(U1-32)*%
X172720000Y-119380000D03*
%TD*%
D10*
%TO.P,R1,1*%
%TO.N,/MotorDrive*%
X81280000Y-96520000D03*
D11*
%TO.P,R1,2*%
%TO.N,Net-(U4-ADJ)*%
X96520000Y-96520000D03*
%TD*%
D12*
%TO.P,U2,1,EN1\u002C2*%
%TO.N,Net-(Q4-C)*%
X109220000Y-109220000D03*
D11*
%TO.P,U2,2,1A*%
%TO.N,Net-(U1-32)*%
X109220000Y-111760000D03*
%TO.P,U2,3,1Y*%
%TO.N,Net-(M1-+)*%
X109220000Y-114300000D03*
%TO.P,U2,4,GND*%
%TO.N,GND*%
X109220000Y-116840000D03*
%TO.P,U2,5,GND*%
X109220000Y-119380000D03*
%TO.P,U2,6,2Y*%
%TO.N,Net-(M1--)*%
X109220000Y-121920000D03*
%TO.P,U2,7,2A*%
%TO.N,Net-(U1-5)*%
X109220000Y-124460000D03*
%TO.P,U2,8,VCC2*%
%TO.N,/MotorDrive*%
X109220000Y-127000000D03*
%TO.P,U2,9,EN3\u002C4*%
%TO.N,unconnected-(U2-EN3\u002C4-Pad9)*%
X116840000Y-127000000D03*
%TO.P,U2,10,3A*%
%TO.N,unconnected-(U2-3A-Pad10)*%
X116840000Y-124460000D03*
%TO.P,U2,11,3Y*%
%TO.N,unconnected-(U2-3Y-Pad11)*%
X116840000Y-121920000D03*
%TO.P,U2,12,GND*%
%TO.N,GND*%
X116840000Y-119380000D03*
%TO.P,U2,13,GND*%
X116840000Y-116840000D03*
%TO.P,U2,14,4Y*%
%TO.N,unconnected-(U2-4Y-Pad14)*%
X116840000Y-114300000D03*
%TO.P,U2,15,4A*%
%TO.N,unconnected-(U2-4A-Pad15)*%
X116840000Y-111760000D03*
%TO.P,U2,16,VCC1*%
%TO.N,/DriverPower*%
X116840000Y-109220000D03*
%TD*%
D10*
%TO.P,R10,1*%
%TO.N,Net-(J1-SDA)*%
X187960000Y-96520000D03*
D11*
%TO.P,R10,2*%
%TO.N,/ESP Power*%
X172720000Y-96520000D03*
%TD*%
D10*
%TO.P,R12,1*%
%TO.N,Net-(U1-18)*%
X109220000Y-91440000D03*
D11*
%TO.P,R12,2*%
%TO.N,Net-(Q4-B)*%
X109220000Y-76200000D03*
%TD*%
D13*
%TO.P,Q4,1,B*%
%TO.N,Net-(Q4-B)*%
X109220000Y-99060000D03*
D14*
%TO.P,Q4,2,C*%
%TO.N,Net-(Q4-C)*%
X110490000Y-97790000D03*
%TO.P,Q4,3,E*%
%TO.N,GND*%
X111760000Y-99060000D03*
%TD*%
D15*
%TO.P,U4,1,ADJ*%
%TO.N,Net-(U4-ADJ)*%
X82210000Y-104140000D03*
D16*
%TO.P,U4,2,VO*%
%TO.N,/MotorDrive*%
X82210000Y-106680000D03*
%TO.P,U4,3,VI*%
%TO.N,Net-(SW2A-B)*%
X82210000Y-109220000D03*
%TD*%
D17*
%TO.P,M1,1,+*%
%TO.N,Net-(M1-+)*%
X91440000Y-116920000D03*
X83240000Y-116920000D03*
D18*
%TO.P,M1,2,-*%
%TO.N,Net-(M1--)*%
X91440000Y-121920000D03*
X83240000Y-121920000D03*
%TD*%
D10*
%TO.P,R13,1*%
%TO.N,/DriverPower*%
X81280000Y-71120000D03*
D11*
%TO.P,R13,2*%
%TO.N,Net-(U3-ADJ)*%
X96520000Y-71120000D03*
%TD*%
D19*
%TO.P,J3,1,Vcc*%
%TO.N,/ESP Power*%
X175965000Y-69860000D03*
D20*
%TO.P,J3,2,Trig*%
%TO.N,Net-(J3-Trig)*%
X175965000Y-72400000D03*
%TO.P,J3,3,Echo*%
%TO.N,Net-(J3-Echo)*%
X175965000Y-74940000D03*
%TO.P,J3,4,Grnd*%
%TO.N,GND*%
X175965000Y-77480000D03*
%TD*%
D10*
%TO.P,R2,1*%
%TO.N,Net-(U4-ADJ)*%
X96520000Y-91440000D03*
D11*
%TO.P,R2,2*%
%TO.N,GND*%
X81280000Y-91440000D03*
%TD*%
D15*
%TO.P,U3,1,ADJ*%
%TO.N,Net-(U3-ADJ)*%
X82210000Y-78740000D03*
D16*
%TO.P,U3,2,VO*%
%TO.N,/DriverPower*%
X82210000Y-81280000D03*
%TO.P,U3,3,VI*%
%TO.N,/MotorDrive*%
X82210000Y-83820000D03*
%TD*%
D13*
%TO.P,Q1,1,B*%
%TO.N,Net-(Q1-B)*%
X165100000Y-139700000D03*
D14*
%TO.P,Q1,2,C*%
%TO.N,Net-(D1-K)*%
X163830000Y-138430000D03*
%TO.P,Q1,3,E*%
%TO.N,GND*%
X165100000Y-137160000D03*
%TD*%
D15*
%TO.P,U5,1,ADJ*%
%TO.N,Net-(U5-ADJ)*%
X82210000Y-53340000D03*
D16*
%TO.P,U5,2,VO*%
%TO.N,/ESP Power*%
X82210000Y-55880000D03*
%TO.P,U5,3,VI*%
%TO.N,Net-(SW2A-B)*%
X82210000Y-58420000D03*
%TD*%
D21*
%TO.P,BT1,1,+*%
%TO.N,Net-(BT1-+)*%
X85300000Y-43180000D03*
D22*
%TO.P,BT1,2,-*%
%TO.N,GND*%
X92500000Y-43180000D03*
%TD*%
D20*
%TO.P,U1,1,GND*%
%TO.N,unconnected-(U1-GND-Pad1)*%
X152400000Y-139700000D03*
D19*
%TO.P,U1,2,3V3*%
%TO.N,Net-(J1-VCC)*%
X127000000Y-91440000D03*
D20*
%TO.P,U1,3,VP*%
%TO.N,unconnected-(U1-VP-Pad3)*%
X127000000Y-96520000D03*
%TO.P,U1,4,VN*%
%TO.N,unconnected-(U1-VN-Pad4)*%
X127000000Y-99060000D03*
%TO.P,U1,5,34*%
%TO.N,unconnected-(U1-34-Pad5)*%
X127000000Y-101600000D03*
%TO.P,U1,6,35*%
%TO.N,Net-(J3-Echo)*%
X127000000Y-104140000D03*
%TO.P,U1,7,32*%
%TO.N,Net-(U1-32)*%
X127000000Y-106680000D03*
%TO.P,U1,8,33*%
%TO.N,Net-(M2-PWM)*%
X127000000Y-109220000D03*
%TO.P,U1,9,25*%
%TO.N,unconnected-(U1-25-Pad9)*%
X127000000Y-111760000D03*
%TO.P,U1,10,26*%
%TO.N,unconnected-(U1-26-Pad10)*%
X127000000Y-114300000D03*
%TO.P,U1,11,27*%
%TO.N,unconnected-(U1-27-Pad11)*%
X127000000Y-116840000D03*
%TO.P,U1,12,14*%
%TO.N,unconnected-(U1-14-Pad12)*%
X127000000Y-119380000D03*
%TO.P,U1,13,12*%
%TO.N,unconnected-(U1-12-Pad13)*%
X127000000Y-121920000D03*
%TO.P,U1,14,GND*%
%TO.N,unconnected-(U1-GND-Pad14)*%
X127000000Y-124460000D03*
%TO.P,U1,15,13*%
%TO.N,unconnected-(U1-13-Pad15)*%
X127000000Y-127000000D03*
%TO.P,U1,16,SD2*%
%TO.N,unconnected-(U1-SD2-Pad16)*%
X127000000Y-129540000D03*
%TO.P,U1,17,SD3*%
%TO.N,unconnected-(U1-SD3-Pad17)*%
X127000000Y-132080000D03*
%TO.P,U1,18,CMD*%
%TO.N,unconnected-(U1-CMD-Pad18)*%
X127000000Y-134620000D03*
%TO.P,U1,19,VCC*%
%TO.N,/ESP Power*%
X127000000Y-137160000D03*
%TO.P,U1,20,VCC*%
%TO.N,unconnected-(U1-VCC-Pad20)*%
X127000000Y-139700000D03*
%TO.P,U1,21,CLK*%
%TO.N,unconnected-(U1-CLK-Pad21)*%
X152400000Y-137160000D03*
%TO.P,U1,22,SD0*%
%TO.N,unconnected-(U1-SD0-Pad22)*%
X152400000Y-134620000D03*
%TO.P,U1,23,SD1*%
%TO.N,unconnected-(U1-SD1-Pad23)*%
X152400000Y-132080000D03*
%TO.P,U1,24,15*%
%TO.N,unconnected-(U1-15-Pad24)*%
X152400000Y-129540000D03*
%TO.P,U1,25,2*%
%TO.N,unconnected-(U1-2-Pad25)*%
X152400000Y-127000000D03*
%TO.P,U1,26,0*%
%TO.N,unconnected-(U1-0-Pad26)*%
X152400000Y-124460000D03*
%TO.P,U1,27,4*%
%TO.N,unconnected-(U1-4-Pad27)*%
X152400000Y-121920000D03*
%TO.P,U1,28,GND*%
%TO.N,unconnected-(U1-GND-Pad28)*%
X152400000Y-119380000D03*
%TO.P,U1,29,GND*%
%TO.N,GND*%
X152400000Y-116840000D03*
%TO.P,U1,30,5*%
%TO.N,Net-(U1-5)*%
X152400000Y-114300000D03*
%TO.P,U1,31,18*%
%TO.N,Net-(U1-18)*%
X152400000Y-111760000D03*
%TO.P,U1,32,19*%
%TO.N,Net-(J1-INT)*%
X152400000Y-109220000D03*
%TO.P,U1,33,GND*%
%TO.N,unconnected-(U1-GND-Pad33)*%
X152400000Y-106680000D03*
%TO.P,U1,34,21*%
%TO.N,Net-(J1-SDA)*%
X152400000Y-104140000D03*
%TO.P,U1,35,RX*%
%TO.N,unconnected-(U1-RX-Pad35)*%
X152400000Y-101600000D03*
%TO.P,U1,36,TX*%
%TO.N,unconnected-(U1-TX-Pad36)*%
X152400000Y-99060000D03*
%TO.P,U1,37,22*%
%TO.N,Net-(J1-SCL)*%
X152400000Y-96520000D03*
%TO.P,U1,38,23*%
%TO.N,Net-(J3-Trig)*%
X152400000Y-93980000D03*
D19*
%TO.P,U1,39,GND*%
%TO.N,unconnected-(U1-GND-Pad39)*%
X152400000Y-91440000D03*
D20*
%TO.P,U1,40,EN*%
%TO.N,unconnected-(U1-EN-Pad40)*%
X127000000Y-93980000D03*
%TD*%
D17*
%TO.P,D3,1,K*%
%TO.N,Net-(D3-K)*%
X91440000Y-132160000D03*
X83240000Y-132160000D03*
D18*
%TO.P,D3,2,A*%
%TO.N,Net-(D3-A)*%
X91440000Y-137160000D03*
X83240000Y-137160000D03*
%TD*%
D23*
%TO.P,SW2,*%
%TO.N,*%
X111320000Y-43180000D03*
X103120000Y-43180000D03*
D24*
%TO.P,SW2,1,A*%
%TO.N,Net-(BT1-+)*%
X109220000Y-43180000D03*
D25*
%TO.P,SW2,2,B*%
%TO.N,Net-(SW2A-B)*%
X107220000Y-43180000D03*
%TO.P,SW2,3,C*%
%TO.N,unconnected-(SW2A-C-Pad3)*%
X105220000Y-43180000D03*
%TD*%
D19*
%TO.P,M2,1,PWM*%
%TO.N,Net-(M2-PWM)*%
X181045000Y-119395000D03*
D20*
%TO.P,M2,2,+*%
%TO.N,/ESP Power*%
X181045000Y-121935000D03*
%TO.P,M2,3,-*%
%TO.N,GND*%
X181045000Y-124475000D03*
%TD*%
D19*
%TO.P,J1,1,VCC*%
%TO.N,Net-(J1-VCC)*%
X147320000Y-43180000D03*
D20*
%TO.P,J1,2,GND*%
%TO.N,GND*%
X144780000Y-43180000D03*
%TO.P,J1,3,SCL*%
%TO.N,Net-(J1-SCL)*%
X142240000Y-43180000D03*
%TO.P,J1,4,SDA*%
%TO.N,Net-(J1-SDA)*%
X139700000Y-43180000D03*
%TO.P,J1,5,XDA*%
%TO.N,unconnected-(J1-XDA-Pad5)*%
X137160000Y-43180000D03*
%TO.P,J1,6,XCL*%
%TO.N,unconnected-(J1-XCL-Pad6)*%
X134620000Y-43180000D03*
%TO.P,J1,7,ADC*%
%TO.N,unconnected-(J1-ADC-Pad7)*%
X132080000Y-43180000D03*
%TO.P,J1,8,INT*%
%TO.N,Net-(J1-INT)*%
X129540000Y-43180000D03*
%TD*%
D10*
%TO.P,R11,1*%
%TO.N,Net-(Q4-C)*%
X114300000Y-91440000D03*
D11*
%TO.P,R11,2*%
%TO.N,Net-(J1-VCC)*%
X114300000Y-76200000D03*
%TD*%
D10*
%TO.P,R4,1*%
%TO.N,/ESP Power*%
X114300000Y-142240000D03*
D11*
%TO.P,R4,2*%
%TO.N,Net-(D3-A)*%
X99060000Y-142240000D03*
%TD*%
D13*
%TO.P,Q2,1,B*%
%TO.N,Net-(Q2-B)*%
X99060000Y-132080000D03*
D14*
%TO.P,Q2,2,C*%
%TO.N,Net-(D3-K)*%
X100330000Y-130810000D03*
%TO.P,Q2,3,E*%
%TO.N,GND*%
X101600000Y-132080000D03*
%TD*%
D10*
%TO.P,R9,1*%
%TO.N,Net-(J1-SCL)*%
X187960000Y-88900000D03*
D11*
%TO.P,R9,2*%
%TO.N,/ESP Power*%
X172720000Y-88900000D03*
%TD*%
D26*
%TO.P,D1,1,K*%
%TO.N,Net-(D1-K)*%
X181642500Y-140560000D03*
X189842500Y-140560000D03*
D18*
%TO.P,D1,2,A*%
%TO.N,Net-(D1-A)*%
X181642500Y-135560000D03*
X189842500Y-135560000D03*
%TD*%
D10*
%TO.P,R6,1*%
%TO.N,Net-(Q2-B)*%
X106680000Y-137160000D03*
D11*
%TO.P,R6,2*%
%TO.N,Net-(U1-5)*%
X121920000Y-137160000D03*
%TD*%
D19*
%TO.P,J2,1,VIN*%
%TO.N,Net-(J1-VCC)*%
X175260000Y-48260000D03*
D20*
%TO.P,J2,2,GND*%
%TO.N,GND*%
X175260000Y-50800000D03*
%TO.P,J2,3,SCL*%
%TO.N,Net-(J1-SCL)*%
X175260000Y-53340000D03*
%TO.P,J2,4,SDA*%
%TO.N,Net-(J1-SDA)*%
X175260000Y-55880000D03*
%TO.P,J2,5,GPIO1*%
%TO.N,unconnected-(J2-GPIO1-Pad5)*%
X175260000Y-58420000D03*
%TO.P,J2,6,XSHUT*%
%TO.N,unconnected-(J2-XSHUT-Pad6)*%
X175260000Y-60960000D03*
%TD*%
D27*
%TO.N,Net-(Q4-C)*%
X112844000Y-106655500D03*
%TO.N,Net-(U1-32)*%
X112749400Y-110179800D03*
%TO.N,Net-(J1-VCC)*%
X117005500Y-74203200D03*
%TO.N,Net-(Q1-B)*%
X167157800Y-131535000D03*
%TD*%
D28*
%TO.N,Net-(Q4-C)*%
X109220000Y-109220000D02*
X110720300Y-109220000D01*
X112844000Y-106655500D02*
X110720300Y-108779200D01*
X110720300Y-108779200D02*
X110720300Y-109220000D01*
%TO.N,Net-(U1-32)*%
X109220000Y-111760000D02*
X111169200Y-111760000D01*
X111169200Y-111760000D02*
X112749400Y-110179800D01*
%TO.N,Net-(M1-+)*%
X83240000Y-116920000D02*
X91440000Y-116920000D01*
%TO.N,GND*%
X111845900Y-98974100D02*
X111760000Y-99060000D01*
X171206500Y-132763200D02*
X165100000Y-132763200D01*
X81280000Y-89939700D02*
X81280000Y-91440000D01*
X106680000Y-67540300D02*
X111845900Y-72706200D01*
X89662000Y-66040000D02*
X78232000Y-77470000D01*
X106680000Y-66790100D02*
X106680000Y-67540300D01*
X78232000Y-86891700D02*
X81280000Y-89939700D01*
X179494700Y-124475000D02*
X171206500Y-132763200D01*
X144780000Y-45974000D02*
X144780000Y-43180000D01*
X165100000Y-129540000D02*
X165100000Y-132763200D01*
X96520000Y-66040000D02*
X98020300Y-66040000D01*
X149606000Y-46990000D02*
X145796000Y-46990000D01*
X152400000Y-116840000D02*
X165100000Y-129540000D01*
X98770400Y-66790100D02*
X98020300Y-66040000D01*
X153416000Y-50800000D02*
X149606000Y-46990000D01*
X165100000Y-132763200D02*
X165100000Y-137160000D01*
X78232000Y-77470000D02*
X78232000Y-86891700D01*
X96520000Y-66040000D02*
X89662000Y-66040000D01*
X106680000Y-66040000D02*
X106680000Y-66790100D01*
X111845900Y-72706200D02*
X111845900Y-98974100D01*
X181045000Y-124475000D02*
X179494700Y-124475000D01*
X145796000Y-46990000D02*
X144780000Y-45974000D01*
X175260000Y-50800000D02*
X153416000Y-50800000D01*
X106680000Y-66790100D02*
X98770400Y-66790100D01*
%TO.N,/MotorDrive*%
X81534000Y-127000000D02*
X78232000Y-123698000D01*
X78232000Y-123698000D02*
X78232000Y-107950000D01*
X109220000Y-127000000D02*
X81534000Y-127000000D01*
X79502000Y-106680000D02*
X82210000Y-106680000D01*
X78232000Y-107950000D02*
X79502000Y-106680000D01*
%TO.N,Net-(M1--)*%
X83240000Y-121920000D02*
X91440000Y-121920000D01*
X91440000Y-121920000D02*
X109220000Y-121920000D01*
%TO.N,Net-(U1-5)*%
X148082000Y-114300000D02*
X152400000Y-114300000D01*
X123420300Y-137160000D02*
X123420300Y-143510000D01*
X121920000Y-137160000D02*
X123420300Y-137160000D01*
X129286000Y-143510000D02*
X139828700Y-132967300D01*
X148082000Y-118618000D02*
X148082000Y-114300000D01*
X123420300Y-143510000D02*
X129286000Y-143510000D01*
X139828700Y-132967300D02*
X139828700Y-126871300D01*
X139828700Y-126871300D02*
X148082000Y-118618000D01*
%TO.N,/DriverPower*%
X102616000Y-91186000D02*
X92710000Y-81280000D01*
X116840000Y-107719700D02*
X114575500Y-105455200D01*
X116840000Y-109220000D02*
X116840000Y-107719700D01*
X92710000Y-81280000D02*
X82210000Y-81280000D01*
X102616000Y-99314000D02*
X102616000Y-91186000D01*
X114575500Y-105455200D02*
X108757200Y-105455200D01*
X108757200Y-105455200D02*
X102616000Y-99314000D01*
%TO.N,Net-(U4-ADJ)*%
X87399700Y-104140000D02*
X95019700Y-96520000D01*
X96520000Y-96520000D02*
X95019700Y-96520000D01*
X82210000Y-104140000D02*
X87399700Y-104140000D01*
%TO.N,/ESP Power*%
X172720000Y-87399700D02*
X172720000Y-88900000D01*
X157480000Y-127000000D02*
X157480000Y-142488100D01*
X130820000Y-69860000D02*
X175965000Y-69860000D01*
X82210000Y-55880000D02*
X79756000Y-55880000D01*
X99822000Y-62738000D02*
X111760000Y-50800000D01*
X178816000Y-81303700D02*
X172720000Y-87399700D01*
X81280000Y-62738000D02*
X99822000Y-62738000D01*
X154934100Y-145034000D02*
X117094000Y-145034000D01*
X157480000Y-142488100D02*
X154934100Y-145034000D01*
X79756000Y-55880000D02*
X77089000Y-58547000D01*
X175965000Y-69860000D02*
X178318000Y-69860000D01*
X178318000Y-69860000D02*
X178816000Y-70358000D01*
X178816000Y-70358000D02*
X178816000Y-81303700D01*
X117094000Y-145034000D02*
X114300000Y-142240000D01*
X111760000Y-50800000D02*
X130820000Y-69860000D01*
X77089000Y-58547000D02*
X81280000Y-62738000D01*
%TO.N,Net-(BT1-+)*%
X85300000Y-43180000D02*
X89005400Y-39474600D01*
X89005400Y-39474600D02*
X107464900Y-39474600D01*
X109220000Y-43180000D02*
X109220000Y-41229700D01*
X107464900Y-39474600D02*
X109220000Y-41229700D01*
%TO.N,Net-(D1-K)*%
X163749600Y-138510400D02*
X163830000Y-138430000D01*
X189842500Y-140560000D02*
X181642500Y-140560000D01*
X160782000Y-138684000D02*
X160782000Y-141732000D01*
X160782000Y-141732000D02*
X161036000Y-141986000D01*
X161036000Y-141986000D02*
X180216500Y-141986000D01*
X163830000Y-138430000D02*
X161036000Y-138430000D01*
X180216500Y-141986000D02*
X181642500Y-140560000D01*
X161036000Y-138430000D02*
X160782000Y-138684000D01*
%TO.N,Net-(D1-A)*%
X189842500Y-135560000D02*
X181642500Y-135560000D01*
%TO.N,Net-(D3-K)*%
X83240000Y-132160000D02*
X91440000Y-132160000D01*
X100330000Y-129032000D02*
X100330000Y-130810000D01*
X91440000Y-132160000D02*
X94568000Y-129032000D01*
X94568000Y-129032000D02*
X100330000Y-129032000D01*
%TO.N,Net-(D3-A)*%
X99060000Y-142240000D02*
X97559700Y-142240000D01*
X93790300Y-137160000D02*
X93790300Y-138470600D01*
X93790300Y-138470600D02*
X97559700Y-142240000D01*
X91440000Y-137160000D02*
X93790300Y-137160000D01*
X83240000Y-137160000D02*
X91440000Y-137160000D01*
%TO.N,Net-(J1-VCC)*%
X114300000Y-76200000D02*
X115800300Y-76200000D01*
X175260000Y-48260000D02*
X153950300Y-48260000D01*
X147320000Y-43180000D02*
X148870300Y-43180000D01*
X117005500Y-74203200D02*
X115800300Y-75408400D01*
X153950300Y-48260000D02*
X148870300Y-43180000D01*
X115800300Y-75408400D02*
X115800300Y-76200000D01*
%TO.N,Net-(J1-SCL)*%
X184404000Y-92456000D02*
X187960000Y-88900000D01*
X151892000Y-53340000D02*
X148082000Y-49530000D01*
X153950300Y-96520000D02*
X158014300Y-92456000D01*
X175260000Y-53340000D02*
X151892000Y-53340000D01*
X158014300Y-92456000D02*
X184404000Y-92456000D01*
X144272000Y-49530000D02*
X142240000Y-47498000D01*
X148082000Y-49530000D02*
X144272000Y-49530000D01*
X142240000Y-47498000D02*
X142240000Y-43180000D01*
X152400000Y-96520000D02*
X153950300Y-96520000D01*
%TO.N,Net-(J1-SDA)*%
X187960000Y-96520000D02*
X180340000Y-104140000D01*
X175260000Y-55880000D02*
X178308000Y-55880000D01*
X139700000Y-43180000D02*
X139700000Y-48514000D01*
X143256000Y-52070000D02*
X148336000Y-52070000D01*
X148336000Y-52070000D02*
X152146000Y-55880000D01*
X152146000Y-55880000D02*
X175260000Y-55880000D01*
X139700000Y-48514000D02*
X143256000Y-52070000D01*
X189499600Y-94980400D02*
X187960000Y-96520000D01*
X189499600Y-67071600D02*
X189499600Y-94980400D01*
X178308000Y-55880000D02*
X189499600Y-67071600D01*
X180340000Y-104140000D02*
X152400000Y-104140000D01*
%TO.N,Net-(J3-Echo)*%
X175965000Y-74940000D02*
X157750300Y-74940000D01*
X127000000Y-104140000D02*
X128550300Y-104140000D01*
X157750300Y-74940000D02*
X128550300Y-104140000D01*
%TO.N,Net-(Q1-B)*%
X167157800Y-131535000D02*
X167157800Y-129057800D01*
X167157800Y-129057800D02*
X157480000Y-119380000D01*
%TO.N,Net-(Q2-B)*%
X99060000Y-132080000D02*
X99060000Y-135890000D01*
X99060000Y-135890000D02*
X100330000Y-137160000D01*
X100330000Y-137160000D02*
X106680000Y-137160000D01*
%TO.N,Net-(SW2A-B)*%
X87376000Y-58420000D02*
X82210000Y-58420000D01*
X107220000Y-46990000D02*
X98806000Y-46990000D01*
X107220000Y-43180000D02*
X107220000Y-46990000D01*
X98806000Y-46990000D02*
X87376000Y-58420000D01*
%TD*%
M02*
