M48
; DRILL file {KiCad 7.0.9-7.0.9~ubuntu22.04.1} date Thu 11 Jan 2024 12:10:53 PM CET
; FORMAT={-:-/ absolute / inch / decimal}
; #@! TF.CreationDate,2024-01-11T12:10:53+01:00
; #@! TF.GenerationSoftware,Kicad,Pcbnew,7.0.9-7.0.9~ubuntu22.04.1
; #@! TF.FileFunction,Plated,1,2,PTH
FMAT,2
INCH
; #@! TA.AperFunction,Plated,PTH,ViaDrill
T1C0.0157
; #@! TA.AperFunction,Plated,PTH,ComponentDrill
T2C0.0295
; #@! TA.AperFunction,Plated,PTH,ComponentDrill
T3C0.0315
; #@! TA.AperFunction,Plated,PTH,ComponentDrill
T4C0.0394
; #@! TA.AperFunction,Plated,PTH,ComponentDrill
T5C0.0433
; #@! TA.AperFunction,Plated,PTH,ComponentDrill
T6C0.0591
; #@! TA.AperFunction,Plated,PTH,ComponentDrill
T7C0.1772
%
G90
G05
T1
X4.439Y-4.3378
X4.4427Y-4.199
X4.6065Y-2.9214
X6.581Y-5.1785
T2
X3.9Y-5.2
X3.95Y-5.15
X4.0Y-5.2
X4.3Y-3.9
X4.35Y-3.85
X4.4Y-3.9
X6.45Y-5.45
X6.5Y-5.4
X6.5Y-5.5
T3
X3.2Y-2.6
X3.2Y-2.8
X3.2Y-3.6
X3.2Y-3.8
X3.8Y-2.6
X3.8Y-2.8
X3.8Y-3.6
X3.8Y-3.8
X3.9Y-5.6
X4.1425Y-1.7
X4.2Y-2.0
X4.2Y-2.6
X4.2Y-5.4
X4.2213Y-1.7
X4.3Y-1.7
X4.3Y-3.0
X4.3Y-3.6
X4.3Y-4.3
X4.3Y-4.4
X4.3Y-4.5
X4.3Y-4.6
X4.3Y-4.7
X4.3Y-4.8
X4.3Y-4.9
X4.3Y-5.0
X4.4Y-2.0
X4.4Y-2.6
X4.5Y-3.0
X4.5Y-3.6
X4.5Y-5.6
X4.6Y-4.3
X4.6Y-4.4
X4.6Y-4.5
X4.6Y-4.6
X4.6Y-4.7
X4.6Y-4.8
X4.6Y-4.9
X4.6Y-5.0
X4.8Y-5.4
X6.2Y-4.7
X6.2Y-5.0
X6.8Y-3.5
X6.8Y-3.8
X6.8Y-4.7
X6.8Y-5.0
X7.4Y-3.5
X7.4Y-3.8
T4
X5.0Y-3.6
X5.0Y-3.7
X5.0Y-3.8
X5.0Y-3.9
X5.0Y-4.0
X5.0Y-4.1
X5.0Y-4.2
X5.0Y-4.3
X5.0Y-4.4
X5.0Y-4.5
X5.0Y-4.6
X5.0Y-4.7
X5.0Y-4.8
X5.0Y-4.9
X5.0Y-5.0
X5.0Y-5.1
X5.0Y-5.2
X5.0Y-5.3
X5.0Y-5.4
X5.0Y-5.5
X5.1Y-1.7
X5.2Y-1.7
X5.3Y-1.7
X5.4Y-1.7
X5.5Y-1.7
X5.6Y-1.7
X5.7Y-1.7
X5.8Y-1.7
X6.0Y-3.6
X6.0Y-3.7
X6.0Y-3.8
X6.0Y-3.9
X6.0Y-4.0
X6.0Y-4.1
X6.0Y-4.2
X6.0Y-4.3
X6.0Y-4.4
X6.0Y-4.5
X6.0Y-4.6
X6.0Y-4.7
X6.0Y-4.8
X6.0Y-4.9
X6.0Y-5.0
X6.0Y-5.1
X6.0Y-5.2
X6.0Y-5.3
X6.0Y-5.4
X6.0Y-5.5
X6.9Y-1.9
X6.9Y-2.0
X6.9Y-2.1
X6.9Y-2.2
X6.9Y-2.3
X6.9Y-2.4
X6.9278Y-2.7504
X6.9278Y-2.8504
X6.9278Y-2.9504
X6.9278Y-3.0504
X7.1278Y-4.7006
X7.1278Y-4.8006
X7.1278Y-4.9006
T5
X3.2366Y-2.1
X3.2366Y-2.2
X3.2366Y-2.3
X3.2366Y-3.1
X3.2366Y-3.2
X3.2366Y-3.3
X3.2366Y-4.1
X3.2366Y-4.2
X3.2366Y-4.3
X3.2772Y-4.6031
X3.2772Y-4.8
X3.2772Y-5.2031
X3.2772Y-5.4
X3.6Y-4.6031
X3.6Y-4.8
X3.6Y-5.2031
X3.6Y-5.4
X7.1513Y-5.337
X7.1513Y-5.5339
X7.4741Y-5.337
X7.4741Y-5.5339
T6
X4.0598Y-1.7
X4.3827Y-1.7
T7
X3.3583Y-1.7
X3.6417Y-1.7
T0
M30
