%TF.GenerationSoftware,KiCad,Pcbnew,7.0.9-7.0.9~ubuntu22.04.1*%
%TF.CreationDate,2024-01-11T12:10:56+01:00*%
%TF.ProjectId,circuit,63697263-7569-4742-9e6b-696361645f70,rev?*%
%TF.SameCoordinates,Original*%
%TF.FileFunction,Drillmap*%
%TF.FilePolarity,Positive*%
%FSLAX45Y45*%
G04 Gerber Fmt 4.5, Leading zero omitted, Abs format (unit mm)*
G04 Created by KiCad (PCBNEW 7.0.9-7.0.9~ubuntu22.04.1) date 2024-01-11 12:10:56*
%MOMM*%
%LPD*%
G01*
G04 APERTURE LIST*
%ADD10C,0.150000*%
%ADD11C,0.100000*%
%ADD12C,0.200000*%
%ADD13C,0.350000*%
G04 APERTURE END LIST*
D10*
X19558000Y-3716000D02*
X7558000Y-3716000D01*
X19558000Y-5842000D02*
X19558000Y-14716000D01*
X19558000Y-5842000D02*
X19558000Y-3716000D01*
D11*
X14833600Y-5516800D02*
G75*
G03*
X14833600Y-5516800I-152400J0D01*
G01*
D10*
X7558000Y-3716000D02*
X7558000Y-14716000D01*
X19558000Y-14716000D02*
X7558000Y-14716000D01*
D11*
X13182600Y-5516800D02*
G75*
G03*
X13182600Y-5516800I-152400J0D01*
G01*
D12*
D13*
X9712000Y-5413000D02*
X10062000Y-5763000D01*
X10062000Y-5413000D02*
X9712000Y-5763000D01*
X9712000Y-7953000D02*
X10062000Y-8303000D01*
X10062000Y-7953000D02*
X9712000Y-8303000D01*
X9712000Y-10493000D02*
X10062000Y-10843000D01*
X10062000Y-10493000D02*
X9712000Y-10843000D01*
D12*
X7811277Y-15034984D02*
X7811277Y-14834984D01*
X7811277Y-14834984D02*
X7858896Y-14834984D01*
X7858896Y-14834984D02*
X7887467Y-14844508D01*
X7887467Y-14844508D02*
X7906515Y-14863555D01*
X7906515Y-14863555D02*
X7916039Y-14882603D01*
X7916039Y-14882603D02*
X7925562Y-14920698D01*
X7925562Y-14920698D02*
X7925562Y-14949269D01*
X7925562Y-14949269D02*
X7916039Y-14987365D01*
X7916039Y-14987365D02*
X7906515Y-15006412D01*
X7906515Y-15006412D02*
X7887467Y-15025460D01*
X7887467Y-15025460D02*
X7858896Y-15034984D01*
X7858896Y-15034984D02*
X7811277Y-15034984D01*
X8011277Y-15034984D02*
X8011277Y-14901650D01*
X8011277Y-14939746D02*
X8020801Y-14920698D01*
X8020801Y-14920698D02*
X8030324Y-14911174D01*
X8030324Y-14911174D02*
X8049372Y-14901650D01*
X8049372Y-14901650D02*
X8068420Y-14901650D01*
X8135086Y-15034984D02*
X8135086Y-14901650D01*
X8135086Y-14834984D02*
X8125562Y-14844508D01*
X8125562Y-14844508D02*
X8135086Y-14854031D01*
X8135086Y-14854031D02*
X8144610Y-14844508D01*
X8144610Y-14844508D02*
X8135086Y-14834984D01*
X8135086Y-14834984D02*
X8135086Y-14854031D01*
X8258896Y-15034984D02*
X8239848Y-15025460D01*
X8239848Y-15025460D02*
X8230324Y-15006412D01*
X8230324Y-15006412D02*
X8230324Y-14834984D01*
X8363658Y-15034984D02*
X8344610Y-15025460D01*
X8344610Y-15025460D02*
X8335086Y-15006412D01*
X8335086Y-15006412D02*
X8335086Y-14834984D01*
X8592229Y-15034984D02*
X8592229Y-14834984D01*
X8592229Y-14834984D02*
X8658896Y-14977841D01*
X8658896Y-14977841D02*
X8725563Y-14834984D01*
X8725563Y-14834984D02*
X8725563Y-15034984D01*
X8906515Y-15034984D02*
X8906515Y-14930222D01*
X8906515Y-14930222D02*
X8896991Y-14911174D01*
X8896991Y-14911174D02*
X8877944Y-14901650D01*
X8877944Y-14901650D02*
X8839848Y-14901650D01*
X8839848Y-14901650D02*
X8820801Y-14911174D01*
X8906515Y-15025460D02*
X8887467Y-15034984D01*
X8887467Y-15034984D02*
X8839848Y-15034984D01*
X8839848Y-15034984D02*
X8820801Y-15025460D01*
X8820801Y-15025460D02*
X8811277Y-15006412D01*
X8811277Y-15006412D02*
X8811277Y-14987365D01*
X8811277Y-14987365D02*
X8820801Y-14968317D01*
X8820801Y-14968317D02*
X8839848Y-14958793D01*
X8839848Y-14958793D02*
X8887467Y-14958793D01*
X8887467Y-14958793D02*
X8906515Y-14949269D01*
X9001753Y-14901650D02*
X9001753Y-15101650D01*
X9001753Y-14911174D02*
X9020801Y-14901650D01*
X9020801Y-14901650D02*
X9058896Y-14901650D01*
X9058896Y-14901650D02*
X9077944Y-14911174D01*
X9077944Y-14911174D02*
X9087467Y-14920698D01*
X9087467Y-14920698D02*
X9096991Y-14939746D01*
X9096991Y-14939746D02*
X9096991Y-14996888D01*
X9096991Y-14996888D02*
X9087467Y-15015936D01*
X9087467Y-15015936D02*
X9077944Y-15025460D01*
X9077944Y-15025460D02*
X9058896Y-15034984D01*
X9058896Y-15034984D02*
X9020801Y-15034984D01*
X9020801Y-15034984D02*
X9001753Y-15025460D01*
X9182705Y-15015936D02*
X9192229Y-15025460D01*
X9192229Y-15025460D02*
X9182705Y-15034984D01*
X9182705Y-15034984D02*
X9173182Y-15025460D01*
X9173182Y-15025460D02*
X9182705Y-15015936D01*
X9182705Y-15015936D02*
X9182705Y-15034984D01*
X9182705Y-14911174D02*
X9192229Y-14920698D01*
X9192229Y-14920698D02*
X9182705Y-14930222D01*
X9182705Y-14930222D02*
X9173182Y-14920698D01*
X9173182Y-14920698D02*
X9182705Y-14911174D01*
X9182705Y-14911174D02*
X9182705Y-14930222D01*
X7350500Y-15263500D02*
X7550500Y-15463500D01*
X7550500Y-15263500D02*
X7350500Y-15463500D01*
X7792229Y-15254984D02*
X7916039Y-15254984D01*
X7916039Y-15254984D02*
X7849372Y-15331174D01*
X7849372Y-15331174D02*
X7877943Y-15331174D01*
X7877943Y-15331174D02*
X7896991Y-15340698D01*
X7896991Y-15340698D02*
X7906515Y-15350222D01*
X7906515Y-15350222D02*
X7916039Y-15369269D01*
X7916039Y-15369269D02*
X7916039Y-15416888D01*
X7916039Y-15416888D02*
X7906515Y-15435936D01*
X7906515Y-15435936D02*
X7896991Y-15445460D01*
X7896991Y-15445460D02*
X7877943Y-15454984D01*
X7877943Y-15454984D02*
X7820801Y-15454984D01*
X7820801Y-15454984D02*
X7801753Y-15445460D01*
X7801753Y-15445460D02*
X7792229Y-15435936D01*
X8001753Y-15435936D02*
X8011277Y-15445460D01*
X8011277Y-15445460D02*
X8001753Y-15454984D01*
X8001753Y-15454984D02*
X7992229Y-15445460D01*
X7992229Y-15445460D02*
X8001753Y-15435936D01*
X8001753Y-15435936D02*
X8001753Y-15454984D01*
X8192229Y-15254984D02*
X8096991Y-15254984D01*
X8096991Y-15254984D02*
X8087467Y-15350222D01*
X8087467Y-15350222D02*
X8096991Y-15340698D01*
X8096991Y-15340698D02*
X8116039Y-15331174D01*
X8116039Y-15331174D02*
X8163658Y-15331174D01*
X8163658Y-15331174D02*
X8182705Y-15340698D01*
X8182705Y-15340698D02*
X8192229Y-15350222D01*
X8192229Y-15350222D02*
X8201753Y-15369269D01*
X8201753Y-15369269D02*
X8201753Y-15416888D01*
X8201753Y-15416888D02*
X8192229Y-15435936D01*
X8192229Y-15435936D02*
X8182705Y-15445460D01*
X8182705Y-15445460D02*
X8163658Y-15454984D01*
X8163658Y-15454984D02*
X8116039Y-15454984D01*
X8116039Y-15454984D02*
X8096991Y-15445460D01*
X8096991Y-15445460D02*
X8087467Y-15435936D01*
X8325562Y-15254984D02*
X8344610Y-15254984D01*
X8344610Y-15254984D02*
X8363658Y-15264508D01*
X8363658Y-15264508D02*
X8373182Y-15274031D01*
X8373182Y-15274031D02*
X8382705Y-15293079D01*
X8382705Y-15293079D02*
X8392229Y-15331174D01*
X8392229Y-15331174D02*
X8392229Y-15378793D01*
X8392229Y-15378793D02*
X8382705Y-15416888D01*
X8382705Y-15416888D02*
X8373182Y-15435936D01*
X8373182Y-15435936D02*
X8363658Y-15445460D01*
X8363658Y-15445460D02*
X8344610Y-15454984D01*
X8344610Y-15454984D02*
X8325562Y-15454984D01*
X8325562Y-15454984D02*
X8306515Y-15445460D01*
X8306515Y-15445460D02*
X8296991Y-15435936D01*
X8296991Y-15435936D02*
X8287467Y-15416888D01*
X8287467Y-15416888D02*
X8277943Y-15378793D01*
X8277943Y-15378793D02*
X8277943Y-15331174D01*
X8277943Y-15331174D02*
X8287467Y-15293079D01*
X8287467Y-15293079D02*
X8296991Y-15274031D01*
X8296991Y-15274031D02*
X8306515Y-15264508D01*
X8306515Y-15264508D02*
X8325562Y-15254984D01*
X8516039Y-15254984D02*
X8535086Y-15254984D01*
X8535086Y-15254984D02*
X8554134Y-15264508D01*
X8554134Y-15264508D02*
X8563658Y-15274031D01*
X8563658Y-15274031D02*
X8573182Y-15293079D01*
X8573182Y-15293079D02*
X8582705Y-15331174D01*
X8582705Y-15331174D02*
X8582705Y-15378793D01*
X8582705Y-15378793D02*
X8573182Y-15416888D01*
X8573182Y-15416888D02*
X8563658Y-15435936D01*
X8563658Y-15435936D02*
X8554134Y-15445460D01*
X8554134Y-15445460D02*
X8535086Y-15454984D01*
X8535086Y-15454984D02*
X8516039Y-15454984D01*
X8516039Y-15454984D02*
X8496991Y-15445460D01*
X8496991Y-15445460D02*
X8487467Y-15435936D01*
X8487467Y-15435936D02*
X8477944Y-15416888D01*
X8477944Y-15416888D02*
X8468420Y-15378793D01*
X8468420Y-15378793D02*
X8468420Y-15331174D01*
X8468420Y-15331174D02*
X8477944Y-15293079D01*
X8477944Y-15293079D02*
X8487467Y-15274031D01*
X8487467Y-15274031D02*
X8496991Y-15264508D01*
X8496991Y-15264508D02*
X8516039Y-15254984D01*
X8668420Y-15454984D02*
X8668420Y-15321650D01*
X8668420Y-15340698D02*
X8677944Y-15331174D01*
X8677944Y-15331174D02*
X8696991Y-15321650D01*
X8696991Y-15321650D02*
X8725563Y-15321650D01*
X8725563Y-15321650D02*
X8744610Y-15331174D01*
X8744610Y-15331174D02*
X8754134Y-15350222D01*
X8754134Y-15350222D02*
X8754134Y-15454984D01*
X8754134Y-15350222D02*
X8763658Y-15331174D01*
X8763658Y-15331174D02*
X8782705Y-15321650D01*
X8782705Y-15321650D02*
X8811277Y-15321650D01*
X8811277Y-15321650D02*
X8830325Y-15331174D01*
X8830325Y-15331174D02*
X8839848Y-15350222D01*
X8839848Y-15350222D02*
X8839848Y-15454984D01*
X8935086Y-15454984D02*
X8935086Y-15321650D01*
X8935086Y-15340698D02*
X8944610Y-15331174D01*
X8944610Y-15331174D02*
X8963658Y-15321650D01*
X8963658Y-15321650D02*
X8992229Y-15321650D01*
X8992229Y-15321650D02*
X9011277Y-15331174D01*
X9011277Y-15331174D02*
X9020801Y-15350222D01*
X9020801Y-15350222D02*
X9020801Y-15454984D01*
X9020801Y-15350222D02*
X9030325Y-15331174D01*
X9030325Y-15331174D02*
X9049372Y-15321650D01*
X9049372Y-15321650D02*
X9077944Y-15321650D01*
X9077944Y-15321650D02*
X9096991Y-15331174D01*
X9096991Y-15331174D02*
X9106515Y-15350222D01*
X9106515Y-15350222D02*
X9106515Y-15454984D01*
X9496991Y-15245460D02*
X9325563Y-15502603D01*
X9754134Y-15254984D02*
X9773182Y-15254984D01*
X9773182Y-15254984D02*
X9792229Y-15264508D01*
X9792229Y-15264508D02*
X9801753Y-15274031D01*
X9801753Y-15274031D02*
X9811277Y-15293079D01*
X9811277Y-15293079D02*
X9820801Y-15331174D01*
X9820801Y-15331174D02*
X9820801Y-15378793D01*
X9820801Y-15378793D02*
X9811277Y-15416888D01*
X9811277Y-15416888D02*
X9801753Y-15435936D01*
X9801753Y-15435936D02*
X9792229Y-15445460D01*
X9792229Y-15445460D02*
X9773182Y-15454984D01*
X9773182Y-15454984D02*
X9754134Y-15454984D01*
X9754134Y-15454984D02*
X9735087Y-15445460D01*
X9735087Y-15445460D02*
X9725563Y-15435936D01*
X9725563Y-15435936D02*
X9716039Y-15416888D01*
X9716039Y-15416888D02*
X9706515Y-15378793D01*
X9706515Y-15378793D02*
X9706515Y-15331174D01*
X9706515Y-15331174D02*
X9716039Y-15293079D01*
X9716039Y-15293079D02*
X9725563Y-15274031D01*
X9725563Y-15274031D02*
X9735087Y-15264508D01*
X9735087Y-15264508D02*
X9754134Y-15254984D01*
X9906515Y-15435936D02*
X9916039Y-15445460D01*
X9916039Y-15445460D02*
X9906515Y-15454984D01*
X9906515Y-15454984D02*
X9896991Y-15445460D01*
X9896991Y-15445460D02*
X9906515Y-15435936D01*
X9906515Y-15435936D02*
X9906515Y-15454984D01*
X10106515Y-15454984D02*
X9992229Y-15454984D01*
X10049372Y-15454984D02*
X10049372Y-15254984D01*
X10049372Y-15254984D02*
X10030325Y-15283555D01*
X10030325Y-15283555D02*
X10011277Y-15302603D01*
X10011277Y-15302603D02*
X9992229Y-15312127D01*
X10173182Y-15254984D02*
X10296991Y-15254984D01*
X10296991Y-15254984D02*
X10230325Y-15331174D01*
X10230325Y-15331174D02*
X10258896Y-15331174D01*
X10258896Y-15331174D02*
X10277944Y-15340698D01*
X10277944Y-15340698D02*
X10287468Y-15350222D01*
X10287468Y-15350222D02*
X10296991Y-15369269D01*
X10296991Y-15369269D02*
X10296991Y-15416888D01*
X10296991Y-15416888D02*
X10287468Y-15435936D01*
X10287468Y-15435936D02*
X10277944Y-15445460D01*
X10277944Y-15445460D02*
X10258896Y-15454984D01*
X10258896Y-15454984D02*
X10201753Y-15454984D01*
X10201753Y-15454984D02*
X10182706Y-15445460D01*
X10182706Y-15445460D02*
X10173182Y-15435936D01*
X10363658Y-15254984D02*
X10496991Y-15254984D01*
X10496991Y-15254984D02*
X10411277Y-15454984D01*
X10601753Y-15340698D02*
X10582706Y-15331174D01*
X10582706Y-15331174D02*
X10573182Y-15321650D01*
X10573182Y-15321650D02*
X10563658Y-15302603D01*
X10563658Y-15302603D02*
X10563658Y-15293079D01*
X10563658Y-15293079D02*
X10573182Y-15274031D01*
X10573182Y-15274031D02*
X10582706Y-15264508D01*
X10582706Y-15264508D02*
X10601753Y-15254984D01*
X10601753Y-15254984D02*
X10639849Y-15254984D01*
X10639849Y-15254984D02*
X10658896Y-15264508D01*
X10658896Y-15264508D02*
X10668420Y-15274031D01*
X10668420Y-15274031D02*
X10677944Y-15293079D01*
X10677944Y-15293079D02*
X10677944Y-15302603D01*
X10677944Y-15302603D02*
X10668420Y-15321650D01*
X10668420Y-15321650D02*
X10658896Y-15331174D01*
X10658896Y-15331174D02*
X10639849Y-15340698D01*
X10639849Y-15340698D02*
X10601753Y-15340698D01*
X10601753Y-15340698D02*
X10582706Y-15350222D01*
X10582706Y-15350222D02*
X10573182Y-15359746D01*
X10573182Y-15359746D02*
X10563658Y-15378793D01*
X10563658Y-15378793D02*
X10563658Y-15416888D01*
X10563658Y-15416888D02*
X10573182Y-15435936D01*
X10573182Y-15435936D02*
X10582706Y-15445460D01*
X10582706Y-15445460D02*
X10601753Y-15454984D01*
X10601753Y-15454984D02*
X10639849Y-15454984D01*
X10639849Y-15454984D02*
X10658896Y-15445460D01*
X10658896Y-15445460D02*
X10668420Y-15435936D01*
X10668420Y-15435936D02*
X10677944Y-15416888D01*
X10677944Y-15416888D02*
X10677944Y-15378793D01*
X10677944Y-15378793D02*
X10668420Y-15359746D01*
X10668420Y-15359746D02*
X10658896Y-15350222D01*
X10658896Y-15350222D02*
X10639849Y-15340698D01*
X10754134Y-15254984D02*
X10754134Y-15293079D01*
X10830325Y-15254984D02*
X10830325Y-15293079D01*
X11125563Y-15531174D02*
X11116039Y-15521650D01*
X11116039Y-15521650D02*
X11096991Y-15493079D01*
X11096991Y-15493079D02*
X11087468Y-15474031D01*
X11087468Y-15474031D02*
X11077944Y-15445460D01*
X11077944Y-15445460D02*
X11068420Y-15397841D01*
X11068420Y-15397841D02*
X11068420Y-15359746D01*
X11068420Y-15359746D02*
X11077944Y-15312127D01*
X11077944Y-15312127D02*
X11087468Y-15283555D01*
X11087468Y-15283555D02*
X11096991Y-15264508D01*
X11096991Y-15264508D02*
X11116039Y-15235936D01*
X11116039Y-15235936D02*
X11125563Y-15226412D01*
X11182706Y-15254984D02*
X11306515Y-15254984D01*
X11306515Y-15254984D02*
X11239848Y-15331174D01*
X11239848Y-15331174D02*
X11268420Y-15331174D01*
X11268420Y-15331174D02*
X11287468Y-15340698D01*
X11287468Y-15340698D02*
X11296991Y-15350222D01*
X11296991Y-15350222D02*
X11306515Y-15369269D01*
X11306515Y-15369269D02*
X11306515Y-15416888D01*
X11306515Y-15416888D02*
X11296991Y-15435936D01*
X11296991Y-15435936D02*
X11287468Y-15445460D01*
X11287468Y-15445460D02*
X11268420Y-15454984D01*
X11268420Y-15454984D02*
X11211277Y-15454984D01*
X11211277Y-15454984D02*
X11192229Y-15445460D01*
X11192229Y-15445460D02*
X11182706Y-15435936D01*
X11544610Y-15454984D02*
X11544610Y-15254984D01*
X11630325Y-15454984D02*
X11630325Y-15350222D01*
X11630325Y-15350222D02*
X11620801Y-15331174D01*
X11620801Y-15331174D02*
X11601753Y-15321650D01*
X11601753Y-15321650D02*
X11573182Y-15321650D01*
X11573182Y-15321650D02*
X11554134Y-15331174D01*
X11554134Y-15331174D02*
X11544610Y-15340698D01*
X11754134Y-15454984D02*
X11735087Y-15445460D01*
X11735087Y-15445460D02*
X11725563Y-15435936D01*
X11725563Y-15435936D02*
X11716039Y-15416888D01*
X11716039Y-15416888D02*
X11716039Y-15359746D01*
X11716039Y-15359746D02*
X11725563Y-15340698D01*
X11725563Y-15340698D02*
X11735087Y-15331174D01*
X11735087Y-15331174D02*
X11754134Y-15321650D01*
X11754134Y-15321650D02*
X11782706Y-15321650D01*
X11782706Y-15321650D02*
X11801753Y-15331174D01*
X11801753Y-15331174D02*
X11811277Y-15340698D01*
X11811277Y-15340698D02*
X11820801Y-15359746D01*
X11820801Y-15359746D02*
X11820801Y-15416888D01*
X11820801Y-15416888D02*
X11811277Y-15435936D01*
X11811277Y-15435936D02*
X11801753Y-15445460D01*
X11801753Y-15445460D02*
X11782706Y-15454984D01*
X11782706Y-15454984D02*
X11754134Y-15454984D01*
X11935087Y-15454984D02*
X11916039Y-15445460D01*
X11916039Y-15445460D02*
X11906515Y-15426412D01*
X11906515Y-15426412D02*
X11906515Y-15254984D01*
X12087468Y-15445460D02*
X12068420Y-15454984D01*
X12068420Y-15454984D02*
X12030325Y-15454984D01*
X12030325Y-15454984D02*
X12011277Y-15445460D01*
X12011277Y-15445460D02*
X12001753Y-15426412D01*
X12001753Y-15426412D02*
X12001753Y-15350222D01*
X12001753Y-15350222D02*
X12011277Y-15331174D01*
X12011277Y-15331174D02*
X12030325Y-15321650D01*
X12030325Y-15321650D02*
X12068420Y-15321650D01*
X12068420Y-15321650D02*
X12087468Y-15331174D01*
X12087468Y-15331174D02*
X12096991Y-15350222D01*
X12096991Y-15350222D02*
X12096991Y-15369269D01*
X12096991Y-15369269D02*
X12001753Y-15388317D01*
X12173182Y-15445460D02*
X12192230Y-15454984D01*
X12192230Y-15454984D02*
X12230325Y-15454984D01*
X12230325Y-15454984D02*
X12249372Y-15445460D01*
X12249372Y-15445460D02*
X12258896Y-15426412D01*
X12258896Y-15426412D02*
X12258896Y-15416888D01*
X12258896Y-15416888D02*
X12249372Y-15397841D01*
X12249372Y-15397841D02*
X12230325Y-15388317D01*
X12230325Y-15388317D02*
X12201753Y-15388317D01*
X12201753Y-15388317D02*
X12182706Y-15378793D01*
X12182706Y-15378793D02*
X12173182Y-15359746D01*
X12173182Y-15359746D02*
X12173182Y-15350222D01*
X12173182Y-15350222D02*
X12182706Y-15331174D01*
X12182706Y-15331174D02*
X12201753Y-15321650D01*
X12201753Y-15321650D02*
X12230325Y-15321650D01*
X12230325Y-15321650D02*
X12249372Y-15331174D01*
X12325563Y-15531174D02*
X12335087Y-15521650D01*
X12335087Y-15521650D02*
X12354134Y-15493079D01*
X12354134Y-15493079D02*
X12363658Y-15474031D01*
X12363658Y-15474031D02*
X12373182Y-15445460D01*
X12373182Y-15445460D02*
X12382706Y-15397841D01*
X12382706Y-15397841D02*
X12382706Y-15359746D01*
X12382706Y-15359746D02*
X12373182Y-15312127D01*
X12373182Y-15312127D02*
X12363658Y-15283555D01*
X12363658Y-15283555D02*
X12354134Y-15264508D01*
X12354134Y-15264508D02*
X12335087Y-15235936D01*
X12335087Y-15235936D02*
X12325563Y-15226412D01*
X12687468Y-15531174D02*
X12677944Y-15521650D01*
X12677944Y-15521650D02*
X12658896Y-15493079D01*
X12658896Y-15493079D02*
X12649372Y-15474031D01*
X12649372Y-15474031D02*
X12639849Y-15445460D01*
X12639849Y-15445460D02*
X12630325Y-15397841D01*
X12630325Y-15397841D02*
X12630325Y-15359746D01*
X12630325Y-15359746D02*
X12639849Y-15312127D01*
X12639849Y-15312127D02*
X12649372Y-15283555D01*
X12649372Y-15283555D02*
X12658896Y-15264508D01*
X12658896Y-15264508D02*
X12677944Y-15235936D01*
X12677944Y-15235936D02*
X12687468Y-15226412D01*
X12763658Y-15321650D02*
X12763658Y-15454984D01*
X12763658Y-15340698D02*
X12773182Y-15331174D01*
X12773182Y-15331174D02*
X12792230Y-15321650D01*
X12792230Y-15321650D02*
X12820801Y-15321650D01*
X12820801Y-15321650D02*
X12839849Y-15331174D01*
X12839849Y-15331174D02*
X12849372Y-15350222D01*
X12849372Y-15350222D02*
X12849372Y-15454984D01*
X12973182Y-15454984D02*
X12954134Y-15445460D01*
X12954134Y-15445460D02*
X12944611Y-15435936D01*
X12944611Y-15435936D02*
X12935087Y-15416888D01*
X12935087Y-15416888D02*
X12935087Y-15359746D01*
X12935087Y-15359746D02*
X12944611Y-15340698D01*
X12944611Y-15340698D02*
X12954134Y-15331174D01*
X12954134Y-15331174D02*
X12973182Y-15321650D01*
X12973182Y-15321650D02*
X13001753Y-15321650D01*
X13001753Y-15321650D02*
X13020801Y-15331174D01*
X13020801Y-15331174D02*
X13030325Y-15340698D01*
X13030325Y-15340698D02*
X13039849Y-15359746D01*
X13039849Y-15359746D02*
X13039849Y-15416888D01*
X13039849Y-15416888D02*
X13030325Y-15435936D01*
X13030325Y-15435936D02*
X13020801Y-15445460D01*
X13020801Y-15445460D02*
X13001753Y-15454984D01*
X13001753Y-15454984D02*
X12973182Y-15454984D01*
X13096992Y-15321650D02*
X13173182Y-15321650D01*
X13125563Y-15254984D02*
X13125563Y-15426412D01*
X13125563Y-15426412D02*
X13135087Y-15445460D01*
X13135087Y-15445460D02*
X13154134Y-15454984D01*
X13154134Y-15454984D02*
X13173182Y-15454984D01*
X13392230Y-15321650D02*
X13392230Y-15521650D01*
X13392230Y-15331174D02*
X13411277Y-15321650D01*
X13411277Y-15321650D02*
X13449373Y-15321650D01*
X13449373Y-15321650D02*
X13468420Y-15331174D01*
X13468420Y-15331174D02*
X13477944Y-15340698D01*
X13477944Y-15340698D02*
X13487468Y-15359746D01*
X13487468Y-15359746D02*
X13487468Y-15416888D01*
X13487468Y-15416888D02*
X13477944Y-15435936D01*
X13477944Y-15435936D02*
X13468420Y-15445460D01*
X13468420Y-15445460D02*
X13449373Y-15454984D01*
X13449373Y-15454984D02*
X13411277Y-15454984D01*
X13411277Y-15454984D02*
X13392230Y-15445460D01*
X13601753Y-15454984D02*
X13582706Y-15445460D01*
X13582706Y-15445460D02*
X13573182Y-15426412D01*
X13573182Y-15426412D02*
X13573182Y-15254984D01*
X13763658Y-15454984D02*
X13763658Y-15350222D01*
X13763658Y-15350222D02*
X13754134Y-15331174D01*
X13754134Y-15331174D02*
X13735087Y-15321650D01*
X13735087Y-15321650D02*
X13696992Y-15321650D01*
X13696992Y-15321650D02*
X13677944Y-15331174D01*
X13763658Y-15445460D02*
X13744611Y-15454984D01*
X13744611Y-15454984D02*
X13696992Y-15454984D01*
X13696992Y-15454984D02*
X13677944Y-15445460D01*
X13677944Y-15445460D02*
X13668420Y-15426412D01*
X13668420Y-15426412D02*
X13668420Y-15407365D01*
X13668420Y-15407365D02*
X13677944Y-15388317D01*
X13677944Y-15388317D02*
X13696992Y-15378793D01*
X13696992Y-15378793D02*
X13744611Y-15378793D01*
X13744611Y-15378793D02*
X13763658Y-15369269D01*
X13830325Y-15321650D02*
X13906515Y-15321650D01*
X13858896Y-15254984D02*
X13858896Y-15426412D01*
X13858896Y-15426412D02*
X13868420Y-15445460D01*
X13868420Y-15445460D02*
X13887468Y-15454984D01*
X13887468Y-15454984D02*
X13906515Y-15454984D01*
X14049373Y-15445460D02*
X14030325Y-15454984D01*
X14030325Y-15454984D02*
X13992230Y-15454984D01*
X13992230Y-15454984D02*
X13973182Y-15445460D01*
X13973182Y-15445460D02*
X13963658Y-15426412D01*
X13963658Y-15426412D02*
X13963658Y-15350222D01*
X13963658Y-15350222D02*
X13973182Y-15331174D01*
X13973182Y-15331174D02*
X13992230Y-15321650D01*
X13992230Y-15321650D02*
X14030325Y-15321650D01*
X14030325Y-15321650D02*
X14049373Y-15331174D01*
X14049373Y-15331174D02*
X14058896Y-15350222D01*
X14058896Y-15350222D02*
X14058896Y-15369269D01*
X14058896Y-15369269D02*
X13963658Y-15388317D01*
X14230325Y-15454984D02*
X14230325Y-15254984D01*
X14230325Y-15445460D02*
X14211277Y-15454984D01*
X14211277Y-15454984D02*
X14173182Y-15454984D01*
X14173182Y-15454984D02*
X14154134Y-15445460D01*
X14154134Y-15445460D02*
X14144611Y-15435936D01*
X14144611Y-15435936D02*
X14135087Y-15416888D01*
X14135087Y-15416888D02*
X14135087Y-15359746D01*
X14135087Y-15359746D02*
X14144611Y-15340698D01*
X14144611Y-15340698D02*
X14154134Y-15331174D01*
X14154134Y-15331174D02*
X14173182Y-15321650D01*
X14173182Y-15321650D02*
X14211277Y-15321650D01*
X14211277Y-15321650D02*
X14230325Y-15331174D01*
X14306515Y-15531174D02*
X14316039Y-15521650D01*
X14316039Y-15521650D02*
X14335087Y-15493079D01*
X14335087Y-15493079D02*
X14344611Y-15474031D01*
X14344611Y-15474031D02*
X14354134Y-15445460D01*
X14354134Y-15445460D02*
X14363658Y-15397841D01*
X14363658Y-15397841D02*
X14363658Y-15359746D01*
X14363658Y-15359746D02*
X14354134Y-15312127D01*
X14354134Y-15312127D02*
X14344611Y-15283555D01*
X14344611Y-15283555D02*
X14335087Y-15264508D01*
X14335087Y-15264508D02*
X14316039Y-15235936D01*
X14316039Y-15235936D02*
X14306515Y-15226412D01*
M02*
