%TF.GenerationSoftware,KiCad,Pcbnew,7.0.9-7.0.9~ubuntu22.04.1*%
%TF.CreationDate,2024-01-11T12:10:56+01:00*%
%TF.ProjectId,circuit,63697263-7569-4742-9e6b-696361645f70,rev?*%
%TF.SameCoordinates,Original*%
%TF.FileFunction,Drillmap*%
%TF.FilePolarity,Positive*%
%FSLAX45Y45*%
G04 Gerber Fmt 4.5, Leading zero omitted, Abs format (unit mm)*
G04 Created by KiCad (PCBNEW 7.0.9-7.0.9~ubuntu22.04.1) date 2024-01-11 12:10:56*
%MOMM*%
%LPD*%
G01*
G04 APERTURE LIST*
%ADD10C,0.150000*%
%ADD11C,0.100000*%
%ADD12C,0.200000*%
%ADD13C,0.110000*%
%ADD14C,0.450000*%
G04 APERTURE END LIST*
D10*
X19558000Y-3716000D02*
X7558000Y-3716000D01*
X19558000Y-5842000D02*
X19558000Y-14716000D01*
X19558000Y-5842000D02*
X19558000Y-3716000D01*
D11*
X14833600Y-5516800D02*
G75*
G03*
X14833600Y-5516800I-152400J0D01*
G01*
D10*
X7558000Y-3716000D02*
X7558000Y-14716000D01*
X19558000Y-14716000D02*
X7558000Y-14716000D01*
D11*
X13182600Y-5516800D02*
G75*
G03*
X13182600Y-5516800I-152400J0D01*
G01*
D12*
D11*
X11254940Y-10997980D02*
X11294940Y-11037980D01*
X11294940Y-10997980D02*
X11254940Y-11037980D01*
X11264400Y-10645550D02*
X11304400Y-10685550D01*
X11304400Y-10645550D02*
X11264400Y-10685550D01*
X11680550Y-7400320D02*
X11720550Y-7440320D01*
X11720550Y-7400320D02*
X11680550Y-7440320D01*
X16695780Y-13133500D02*
X16735780Y-13173500D01*
X16735780Y-13133500D02*
X16695780Y-13173500D01*
X9943500Y-13208000D02*
G75*
G03*
X9943500Y-13208000I-37500J0D01*
G01*
X10070500Y-13081000D02*
G75*
G03*
X10070500Y-13081000I-37500J0D01*
G01*
X10197500Y-13208000D02*
G75*
G03*
X10197500Y-13208000I-37500J0D01*
G01*
X10959500Y-9906000D02*
G75*
G03*
X10959500Y-9906000I-37500J0D01*
G01*
X11086500Y-9779000D02*
G75*
G03*
X11086500Y-9779000I-37500J0D01*
G01*
X11213500Y-9906000D02*
G75*
G03*
X11213500Y-9906000I-37500J0D01*
G01*
X16420500Y-13843000D02*
G75*
G03*
X16420500Y-13843000I-37500J0D01*
G01*
X16547500Y-13716000D02*
G75*
G03*
X16547500Y-13716000I-37500J0D01*
G01*
X16547500Y-13970000D02*
G75*
G03*
X16547500Y-13970000I-37500J0D01*
G01*
X8128000Y-6564000D02*
X8128000Y-6644000D01*
X8088000Y-6604000D02*
X8168000Y-6604000D01*
X8128000Y-7072000D02*
X8128000Y-7152000D01*
X8088000Y-7112000D02*
X8168000Y-7112000D01*
X8128000Y-9104000D02*
X8128000Y-9184000D01*
X8088000Y-9144000D02*
X8168000Y-9144000D01*
X8128000Y-9612000D02*
X8128000Y-9692000D01*
X8088000Y-9652000D02*
X8168000Y-9652000D01*
X9652000Y-6564000D02*
X9652000Y-6644000D01*
X9612000Y-6604000D02*
X9692000Y-6604000D01*
X9652000Y-7072000D02*
X9652000Y-7152000D01*
X9612000Y-7112000D02*
X9692000Y-7112000D01*
X9652000Y-9104000D02*
X9652000Y-9184000D01*
X9612000Y-9144000D02*
X9692000Y-9144000D01*
X9652000Y-9612000D02*
X9652000Y-9692000D01*
X9612000Y-9652000D02*
X9692000Y-9652000D01*
X9906000Y-14184000D02*
X9906000Y-14264000D01*
X9866000Y-14224000D02*
X9946000Y-14224000D01*
X10522000Y-4278000D02*
X10522000Y-4358000D01*
X10482000Y-4318000D02*
X10562000Y-4318000D01*
X10668000Y-5040000D02*
X10668000Y-5120000D01*
X10628000Y-5080000D02*
X10708000Y-5080000D01*
X10668000Y-6564000D02*
X10668000Y-6644000D01*
X10628000Y-6604000D02*
X10708000Y-6604000D01*
X10668000Y-13676000D02*
X10668000Y-13756000D01*
X10628000Y-13716000D02*
X10708000Y-13716000D01*
X10722000Y-4278000D02*
X10722000Y-4358000D01*
X10682000Y-4318000D02*
X10762000Y-4318000D01*
X10922000Y-4278000D02*
X10922000Y-4358000D01*
X10882000Y-4318000D02*
X10962000Y-4318000D01*
X10922000Y-7580000D02*
X10922000Y-7660000D01*
X10882000Y-7620000D02*
X10962000Y-7620000D01*
X10922000Y-9104000D02*
X10922000Y-9184000D01*
X10882000Y-9144000D02*
X10962000Y-9144000D01*
X10922000Y-10882000D02*
X10922000Y-10962000D01*
X10882000Y-10922000D02*
X10962000Y-10922000D01*
X10922000Y-11136000D02*
X10922000Y-11216000D01*
X10882000Y-11176000D02*
X10962000Y-11176000D01*
X10922000Y-11390000D02*
X10922000Y-11470000D01*
X10882000Y-11430000D02*
X10962000Y-11430000D01*
X10922000Y-11644000D02*
X10922000Y-11724000D01*
X10882000Y-11684000D02*
X10962000Y-11684000D01*
X10922000Y-11898000D02*
X10922000Y-11978000D01*
X10882000Y-11938000D02*
X10962000Y-11938000D01*
X10922000Y-12152000D02*
X10922000Y-12232000D01*
X10882000Y-12192000D02*
X10962000Y-12192000D01*
X10922000Y-12406000D02*
X10922000Y-12486000D01*
X10882000Y-12446000D02*
X10962000Y-12446000D01*
X10922000Y-12660000D02*
X10922000Y-12740000D01*
X10882000Y-12700000D02*
X10962000Y-12700000D01*
X11176000Y-5040000D02*
X11176000Y-5120000D01*
X11136000Y-5080000D02*
X11216000Y-5080000D01*
X11176000Y-6564000D02*
X11176000Y-6644000D01*
X11136000Y-6604000D02*
X11216000Y-6604000D01*
X11430000Y-7580000D02*
X11430000Y-7660000D01*
X11390000Y-7620000D02*
X11470000Y-7620000D01*
X11430000Y-9104000D02*
X11430000Y-9184000D01*
X11390000Y-9144000D02*
X11470000Y-9144000D01*
X11430000Y-14184000D02*
X11430000Y-14264000D01*
X11390000Y-14224000D02*
X11470000Y-14224000D01*
X11684000Y-10882000D02*
X11684000Y-10962000D01*
X11644000Y-10922000D02*
X11724000Y-10922000D01*
X11684000Y-11136000D02*
X11684000Y-11216000D01*
X11644000Y-11176000D02*
X11724000Y-11176000D01*
X11684000Y-11390000D02*
X11684000Y-11470000D01*
X11644000Y-11430000D02*
X11724000Y-11430000D01*
X11684000Y-11644000D02*
X11684000Y-11724000D01*
X11644000Y-11684000D02*
X11724000Y-11684000D01*
X11684000Y-11898000D02*
X11684000Y-11978000D01*
X11644000Y-11938000D02*
X11724000Y-11938000D01*
X11684000Y-12152000D02*
X11684000Y-12232000D01*
X11644000Y-12192000D02*
X11724000Y-12192000D01*
X11684000Y-12406000D02*
X11684000Y-12486000D01*
X11644000Y-12446000D02*
X11724000Y-12446000D01*
X11684000Y-12660000D02*
X11684000Y-12740000D01*
X11644000Y-12700000D02*
X11724000Y-12700000D01*
X12192000Y-13676000D02*
X12192000Y-13756000D01*
X12152000Y-13716000D02*
X12232000Y-13716000D01*
X15748000Y-11898000D02*
X15748000Y-11978000D01*
X15708000Y-11938000D02*
X15788000Y-11938000D01*
X15748000Y-12660000D02*
X15748000Y-12740000D01*
X15708000Y-12700000D02*
X15788000Y-12700000D01*
X17272000Y-8850000D02*
X17272000Y-8930000D01*
X17232000Y-8890000D02*
X17312000Y-8890000D01*
X17272000Y-9612000D02*
X17272000Y-9692000D01*
X17232000Y-9652000D02*
X17312000Y-9652000D01*
X17272000Y-11898000D02*
X17272000Y-11978000D01*
X17232000Y-11938000D02*
X17312000Y-11938000D01*
X17272000Y-12660000D02*
X17272000Y-12740000D01*
X17232000Y-12700000D02*
X17312000Y-12700000D01*
X18796000Y-8850000D02*
X18796000Y-8930000D01*
X18756000Y-8890000D02*
X18836000Y-8890000D01*
X18796000Y-9612000D02*
X18796000Y-9692000D01*
X18756000Y-9652000D02*
X18836000Y-9652000D01*
X12735356Y-9179356D02*
X12735356Y-9108644D01*
X12664644Y-9108644D01*
X12664644Y-9179356D01*
X12735356Y-9179356D01*
X12735356Y-9433356D02*
X12735356Y-9362644D01*
X12664644Y-9362644D01*
X12664644Y-9433356D01*
X12735356Y-9433356D01*
X12735356Y-9687356D02*
X12735356Y-9616644D01*
X12664644Y-9616644D01*
X12664644Y-9687356D01*
X12735356Y-9687356D01*
X12735356Y-9941356D02*
X12735356Y-9870644D01*
X12664644Y-9870644D01*
X12664644Y-9941356D01*
X12735356Y-9941356D01*
X12735356Y-10195356D02*
X12735356Y-10124644D01*
X12664644Y-10124644D01*
X12664644Y-10195356D01*
X12735356Y-10195356D01*
X12735356Y-10449356D02*
X12735356Y-10378644D01*
X12664644Y-10378644D01*
X12664644Y-10449356D01*
X12735356Y-10449356D01*
X12735356Y-10703356D02*
X12735356Y-10632644D01*
X12664644Y-10632644D01*
X12664644Y-10703356D01*
X12735356Y-10703356D01*
X12735356Y-10957356D02*
X12735356Y-10886644D01*
X12664644Y-10886644D01*
X12664644Y-10957356D01*
X12735356Y-10957356D01*
X12735356Y-11211356D02*
X12735356Y-11140644D01*
X12664644Y-11140644D01*
X12664644Y-11211356D01*
X12735356Y-11211356D01*
X12735356Y-11465356D02*
X12735356Y-11394644D01*
X12664644Y-11394644D01*
X12664644Y-11465356D01*
X12735356Y-11465356D01*
X12735356Y-11719356D02*
X12735356Y-11648644D01*
X12664644Y-11648644D01*
X12664644Y-11719356D01*
X12735356Y-11719356D01*
X12735356Y-11973356D02*
X12735356Y-11902644D01*
X12664644Y-11902644D01*
X12664644Y-11973356D01*
X12735356Y-11973356D01*
X12735356Y-12227356D02*
X12735356Y-12156644D01*
X12664644Y-12156644D01*
X12664644Y-12227356D01*
X12735356Y-12227356D01*
X12735356Y-12481356D02*
X12735356Y-12410644D01*
X12664644Y-12410644D01*
X12664644Y-12481356D01*
X12735356Y-12481356D01*
X12735356Y-12735356D02*
X12735356Y-12664644D01*
X12664644Y-12664644D01*
X12664644Y-12735356D01*
X12735356Y-12735356D01*
X12735356Y-12989356D02*
X12735356Y-12918644D01*
X12664644Y-12918644D01*
X12664644Y-12989356D01*
X12735356Y-12989356D01*
X12735356Y-13243356D02*
X12735356Y-13172644D01*
X12664644Y-13172644D01*
X12664644Y-13243356D01*
X12735356Y-13243356D01*
X12735356Y-13497356D02*
X12735356Y-13426644D01*
X12664644Y-13426644D01*
X12664644Y-13497356D01*
X12735356Y-13497356D01*
X12735356Y-13751356D02*
X12735356Y-13680644D01*
X12664644Y-13680644D01*
X12664644Y-13751356D01*
X12735356Y-13751356D01*
X12735356Y-14005356D02*
X12735356Y-13934644D01*
X12664644Y-13934644D01*
X12664644Y-14005356D01*
X12735356Y-14005356D01*
X12989356Y-4353356D02*
X12989356Y-4282644D01*
X12918644Y-4282644D01*
X12918644Y-4353356D01*
X12989356Y-4353356D01*
X13243356Y-4353356D02*
X13243356Y-4282644D01*
X13172644Y-4282644D01*
X13172644Y-4353356D01*
X13243356Y-4353356D01*
X13497356Y-4353356D02*
X13497356Y-4282644D01*
X13426644Y-4282644D01*
X13426644Y-4353356D01*
X13497356Y-4353356D01*
X13751356Y-4353356D02*
X13751356Y-4282644D01*
X13680644Y-4282644D01*
X13680644Y-4353356D01*
X13751356Y-4353356D01*
X14005356Y-4353356D02*
X14005356Y-4282644D01*
X13934644Y-4282644D01*
X13934644Y-4353356D01*
X14005356Y-4353356D01*
X14259356Y-4353356D02*
X14259356Y-4282644D01*
X14188644Y-4282644D01*
X14188644Y-4353356D01*
X14259356Y-4353356D01*
X14513356Y-4353356D02*
X14513356Y-4282644D01*
X14442644Y-4282644D01*
X14442644Y-4353356D01*
X14513356Y-4353356D01*
X14767356Y-4353356D02*
X14767356Y-4282644D01*
X14696644Y-4282644D01*
X14696644Y-4353356D01*
X14767356Y-4353356D01*
X15275356Y-9179356D02*
X15275356Y-9108644D01*
X15204644Y-9108644D01*
X15204644Y-9179356D01*
X15275356Y-9179356D01*
X15275356Y-9433356D02*
X15275356Y-9362644D01*
X15204644Y-9362644D01*
X15204644Y-9433356D01*
X15275356Y-9433356D01*
X15275356Y-9687356D02*
X15275356Y-9616644D01*
X15204644Y-9616644D01*
X15204644Y-9687356D01*
X15275356Y-9687356D01*
X15275356Y-9941356D02*
X15275356Y-9870644D01*
X15204644Y-9870644D01*
X15204644Y-9941356D01*
X15275356Y-9941356D01*
X15275356Y-10195356D02*
X15275356Y-10124644D01*
X15204644Y-10124644D01*
X15204644Y-10195356D01*
X15275356Y-10195356D01*
X15275356Y-10449356D02*
X15275356Y-10378644D01*
X15204644Y-10378644D01*
X15204644Y-10449356D01*
X15275356Y-10449356D01*
X15275356Y-10703356D02*
X15275356Y-10632644D01*
X15204644Y-10632644D01*
X15204644Y-10703356D01*
X15275356Y-10703356D01*
X15275356Y-10957356D02*
X15275356Y-10886644D01*
X15204644Y-10886644D01*
X15204644Y-10957356D01*
X15275356Y-10957356D01*
X15275356Y-11211356D02*
X15275356Y-11140644D01*
X15204644Y-11140644D01*
X15204644Y-11211356D01*
X15275356Y-11211356D01*
X15275356Y-11465356D02*
X15275356Y-11394644D01*
X15204644Y-11394644D01*
X15204644Y-11465356D01*
X15275356Y-11465356D01*
X15275356Y-11719356D02*
X15275356Y-11648644D01*
X15204644Y-11648644D01*
X15204644Y-11719356D01*
X15275356Y-11719356D01*
X15275356Y-11973356D02*
X15275356Y-11902644D01*
X15204644Y-11902644D01*
X15204644Y-11973356D01*
X15275356Y-11973356D01*
X15275356Y-12227356D02*
X15275356Y-12156644D01*
X15204644Y-12156644D01*
X15204644Y-12227356D01*
X15275356Y-12227356D01*
X15275356Y-12481356D02*
X15275356Y-12410644D01*
X15204644Y-12410644D01*
X15204644Y-12481356D01*
X15275356Y-12481356D01*
X15275356Y-12735356D02*
X15275356Y-12664644D01*
X15204644Y-12664644D01*
X15204644Y-12735356D01*
X15275356Y-12735356D01*
X15275356Y-12989356D02*
X15275356Y-12918644D01*
X15204644Y-12918644D01*
X15204644Y-12989356D01*
X15275356Y-12989356D01*
X15275356Y-13243356D02*
X15275356Y-13172644D01*
X15204644Y-13172644D01*
X15204644Y-13243356D01*
X15275356Y-13243356D01*
X15275356Y-13497356D02*
X15275356Y-13426644D01*
X15204644Y-13426644D01*
X15204644Y-13497356D01*
X15275356Y-13497356D01*
X15275356Y-13751356D02*
X15275356Y-13680644D01*
X15204644Y-13680644D01*
X15204644Y-13751356D01*
X15275356Y-13751356D01*
X15275356Y-14005356D02*
X15275356Y-13934644D01*
X15204644Y-13934644D01*
X15204644Y-14005356D01*
X15275356Y-14005356D01*
X17561356Y-4861356D02*
X17561356Y-4790644D01*
X17490644Y-4790644D01*
X17490644Y-4861356D01*
X17561356Y-4861356D01*
X17561356Y-5115356D02*
X17561356Y-5044644D01*
X17490644Y-5044644D01*
X17490644Y-5115356D01*
X17561356Y-5115356D01*
X17561356Y-5369356D02*
X17561356Y-5298644D01*
X17490644Y-5298644D01*
X17490644Y-5369356D01*
X17561356Y-5369356D01*
X17561356Y-5623356D02*
X17561356Y-5552644D01*
X17490644Y-5552644D01*
X17490644Y-5623356D01*
X17561356Y-5623356D01*
X17561356Y-5877356D02*
X17561356Y-5806644D01*
X17490644Y-5806644D01*
X17490644Y-5877356D01*
X17561356Y-5877356D01*
X17561356Y-6131356D02*
X17561356Y-6060644D01*
X17490644Y-6060644D01*
X17490644Y-6131356D01*
X17561356Y-6131356D01*
X17631856Y-7021356D02*
X17631856Y-6950644D01*
X17561144Y-6950644D01*
X17561144Y-7021356D01*
X17631856Y-7021356D01*
X17631856Y-7275356D02*
X17631856Y-7204644D01*
X17561144Y-7204644D01*
X17561144Y-7275356D01*
X17631856Y-7275356D01*
X17631856Y-7529356D02*
X17631856Y-7458644D01*
X17561144Y-7458644D01*
X17561144Y-7529356D01*
X17631856Y-7529356D01*
X17631856Y-7783356D02*
X17631856Y-7712644D01*
X17561144Y-7712644D01*
X17561144Y-7783356D01*
X17631856Y-7783356D01*
X18139856Y-11974856D02*
X18139856Y-11904144D01*
X18069144Y-11904144D01*
X18069144Y-11974856D01*
X18139856Y-11974856D01*
X18139856Y-12228856D02*
X18139856Y-12158144D01*
X18069144Y-12158144D01*
X18069144Y-12228856D01*
X18139856Y-12228856D01*
X18139856Y-12482856D02*
X18139856Y-12412144D01*
X18069144Y-12412144D01*
X18069144Y-12482856D01*
X18139856Y-12482856D01*
D13*
X8221000Y-5389000D02*
X8276000Y-5334000D01*
X8221000Y-5279000D01*
X8166000Y-5334000D01*
X8221000Y-5389000D01*
X8221000Y-5643000D02*
X8276000Y-5588000D01*
X8221000Y-5533000D01*
X8166000Y-5588000D01*
X8221000Y-5643000D01*
X8221000Y-5897000D02*
X8276000Y-5842000D01*
X8221000Y-5787000D01*
X8166000Y-5842000D01*
X8221000Y-5897000D01*
X8221000Y-7929000D02*
X8276000Y-7874000D01*
X8221000Y-7819000D01*
X8166000Y-7874000D01*
X8221000Y-7929000D01*
X8221000Y-8183000D02*
X8276000Y-8128000D01*
X8221000Y-8073000D01*
X8166000Y-8128000D01*
X8221000Y-8183000D01*
X8221000Y-8437000D02*
X8276000Y-8382000D01*
X8221000Y-8327000D01*
X8166000Y-8382000D01*
X8221000Y-8437000D01*
X8221000Y-10469000D02*
X8276000Y-10414000D01*
X8221000Y-10359000D01*
X8166000Y-10414000D01*
X8221000Y-10469000D01*
X8221000Y-10723000D02*
X8276000Y-10668000D01*
X8221000Y-10613000D01*
X8166000Y-10668000D01*
X8221000Y-10723000D01*
X8221000Y-10977000D02*
X8276000Y-10922000D01*
X8221000Y-10867000D01*
X8166000Y-10922000D01*
X8221000Y-10977000D01*
X8324000Y-11747000D02*
X8379000Y-11692000D01*
X8324000Y-11637000D01*
X8269000Y-11692000D01*
X8324000Y-11747000D01*
X8324000Y-12247000D02*
X8379000Y-12192000D01*
X8324000Y-12137000D01*
X8269000Y-12192000D01*
X8324000Y-12247000D01*
X8324000Y-13271000D02*
X8379000Y-13216000D01*
X8324000Y-13161000D01*
X8269000Y-13216000D01*
X8324000Y-13271000D01*
X8324000Y-13771000D02*
X8379000Y-13716000D01*
X8324000Y-13661000D01*
X8269000Y-13716000D01*
X8324000Y-13771000D01*
X9144000Y-11747000D02*
X9199000Y-11692000D01*
X9144000Y-11637000D01*
X9089000Y-11692000D01*
X9144000Y-11747000D01*
X9144000Y-12247000D02*
X9199000Y-12192000D01*
X9144000Y-12137000D01*
X9089000Y-12192000D01*
X9144000Y-12247000D01*
X9144000Y-13271000D02*
X9199000Y-13216000D01*
X9144000Y-13161000D01*
X9089000Y-13216000D01*
X9144000Y-13271000D01*
X9144000Y-13771000D02*
X9199000Y-13716000D01*
X9144000Y-13661000D01*
X9089000Y-13716000D01*
X9144000Y-13771000D01*
X18164250Y-13611000D02*
X18219250Y-13556000D01*
X18164250Y-13501000D01*
X18109250Y-13556000D01*
X18164250Y-13611000D01*
X18164250Y-14111000D02*
X18219250Y-14056000D01*
X18164250Y-14001000D01*
X18109250Y-14056000D01*
X18164250Y-14111000D01*
X18984250Y-13611000D02*
X19039250Y-13556000D01*
X18984250Y-13501000D01*
X18929250Y-13556000D01*
X18984250Y-13611000D01*
X18984250Y-14111000D02*
X19039250Y-14056000D01*
X18984250Y-14001000D01*
X18929250Y-14056000D01*
X18984250Y-14111000D01*
D10*
X10237000Y-4243000D02*
X10387000Y-4393000D01*
X10387000Y-4243000D02*
X10237000Y-4393000D01*
X10387000Y-4318000D02*
G75*
G03*
X10387000Y-4318000I-75000J0D01*
G01*
X11057000Y-4243000D02*
X11207000Y-4393000D01*
X11207000Y-4243000D02*
X11057000Y-4393000D01*
X11207000Y-4318000D02*
G75*
G03*
X11207000Y-4318000I-75000J0D01*
G01*
D14*
X8305000Y-4093000D02*
X8755000Y-4543000D01*
X8755000Y-4093000D02*
X8305000Y-4543000D01*
X8530000Y-4093000D02*
X8530000Y-4543000D01*
X8305000Y-4318000D02*
X8755000Y-4318000D01*
X9025000Y-4093000D02*
X9475000Y-4543000D01*
X9475000Y-4093000D02*
X9025000Y-4543000D01*
X9250000Y-4093000D02*
X9250000Y-4543000D01*
X9025000Y-4318000D02*
X9475000Y-4318000D01*
D12*
X7811277Y-15034984D02*
X7811277Y-14834984D01*
X7811277Y-14834984D02*
X7858896Y-14834984D01*
X7858896Y-14834984D02*
X7887467Y-14844508D01*
X7887467Y-14844508D02*
X7906515Y-14863555D01*
X7906515Y-14863555D02*
X7916039Y-14882603D01*
X7916039Y-14882603D02*
X7925562Y-14920698D01*
X7925562Y-14920698D02*
X7925562Y-14949269D01*
X7925562Y-14949269D02*
X7916039Y-14987365D01*
X7916039Y-14987365D02*
X7906515Y-15006412D01*
X7906515Y-15006412D02*
X7887467Y-15025460D01*
X7887467Y-15025460D02*
X7858896Y-15034984D01*
X7858896Y-15034984D02*
X7811277Y-15034984D01*
X8011277Y-15034984D02*
X8011277Y-14901650D01*
X8011277Y-14939746D02*
X8020801Y-14920698D01*
X8020801Y-14920698D02*
X8030324Y-14911174D01*
X8030324Y-14911174D02*
X8049372Y-14901650D01*
X8049372Y-14901650D02*
X8068420Y-14901650D01*
X8135086Y-15034984D02*
X8135086Y-14901650D01*
X8135086Y-14834984D02*
X8125562Y-14844508D01*
X8125562Y-14844508D02*
X8135086Y-14854031D01*
X8135086Y-14854031D02*
X8144610Y-14844508D01*
X8144610Y-14844508D02*
X8135086Y-14834984D01*
X8135086Y-14834984D02*
X8135086Y-14854031D01*
X8258896Y-15034984D02*
X8239848Y-15025460D01*
X8239848Y-15025460D02*
X8230324Y-15006412D01*
X8230324Y-15006412D02*
X8230324Y-14834984D01*
X8363658Y-15034984D02*
X8344610Y-15025460D01*
X8344610Y-15025460D02*
X8335086Y-15006412D01*
X8335086Y-15006412D02*
X8335086Y-14834984D01*
X8592229Y-15034984D02*
X8592229Y-14834984D01*
X8592229Y-14834984D02*
X8658896Y-14977841D01*
X8658896Y-14977841D02*
X8725563Y-14834984D01*
X8725563Y-14834984D02*
X8725563Y-15034984D01*
X8906515Y-15034984D02*
X8906515Y-14930222D01*
X8906515Y-14930222D02*
X8896991Y-14911174D01*
X8896991Y-14911174D02*
X8877944Y-14901650D01*
X8877944Y-14901650D02*
X8839848Y-14901650D01*
X8839848Y-14901650D02*
X8820801Y-14911174D01*
X8906515Y-15025460D02*
X8887467Y-15034984D01*
X8887467Y-15034984D02*
X8839848Y-15034984D01*
X8839848Y-15034984D02*
X8820801Y-15025460D01*
X8820801Y-15025460D02*
X8811277Y-15006412D01*
X8811277Y-15006412D02*
X8811277Y-14987365D01*
X8811277Y-14987365D02*
X8820801Y-14968317D01*
X8820801Y-14968317D02*
X8839848Y-14958793D01*
X8839848Y-14958793D02*
X8887467Y-14958793D01*
X8887467Y-14958793D02*
X8906515Y-14949269D01*
X9001753Y-14901650D02*
X9001753Y-15101650D01*
X9001753Y-14911174D02*
X9020801Y-14901650D01*
X9020801Y-14901650D02*
X9058896Y-14901650D01*
X9058896Y-14901650D02*
X9077944Y-14911174D01*
X9077944Y-14911174D02*
X9087467Y-14920698D01*
X9087467Y-14920698D02*
X9096991Y-14939746D01*
X9096991Y-14939746D02*
X9096991Y-14996888D01*
X9096991Y-14996888D02*
X9087467Y-15015936D01*
X9087467Y-15015936D02*
X9077944Y-15025460D01*
X9077944Y-15025460D02*
X9058896Y-15034984D01*
X9058896Y-15034984D02*
X9020801Y-15034984D01*
X9020801Y-15034984D02*
X9001753Y-15025460D01*
X9182705Y-15015936D02*
X9192229Y-15025460D01*
X9192229Y-15025460D02*
X9182705Y-15034984D01*
X9182705Y-15034984D02*
X9173182Y-15025460D01*
X9173182Y-15025460D02*
X9182705Y-15015936D01*
X9182705Y-15015936D02*
X9182705Y-15034984D01*
X9182705Y-14911174D02*
X9192229Y-14920698D01*
X9192229Y-14920698D02*
X9182705Y-14930222D01*
X9182705Y-14930222D02*
X9173182Y-14920698D01*
X9173182Y-14920698D02*
X9182705Y-14911174D01*
X9182705Y-14911174D02*
X9182705Y-14930222D01*
D11*
X7510500Y-15343500D02*
X7550500Y-15383500D01*
X7550500Y-15343500D02*
X7510500Y-15383500D01*
D12*
X7849372Y-15254984D02*
X7868420Y-15254984D01*
X7868420Y-15254984D02*
X7887467Y-15264508D01*
X7887467Y-15264508D02*
X7896991Y-15274031D01*
X7896991Y-15274031D02*
X7906515Y-15293079D01*
X7906515Y-15293079D02*
X7916039Y-15331174D01*
X7916039Y-15331174D02*
X7916039Y-15378793D01*
X7916039Y-15378793D02*
X7906515Y-15416888D01*
X7906515Y-15416888D02*
X7896991Y-15435936D01*
X7896991Y-15435936D02*
X7887467Y-15445460D01*
X7887467Y-15445460D02*
X7868420Y-15454984D01*
X7868420Y-15454984D02*
X7849372Y-15454984D01*
X7849372Y-15454984D02*
X7830324Y-15445460D01*
X7830324Y-15445460D02*
X7820801Y-15435936D01*
X7820801Y-15435936D02*
X7811277Y-15416888D01*
X7811277Y-15416888D02*
X7801753Y-15378793D01*
X7801753Y-15378793D02*
X7801753Y-15331174D01*
X7801753Y-15331174D02*
X7811277Y-15293079D01*
X7811277Y-15293079D02*
X7820801Y-15274031D01*
X7820801Y-15274031D02*
X7830324Y-15264508D01*
X7830324Y-15264508D02*
X7849372Y-15254984D01*
X8001753Y-15435936D02*
X8011277Y-15445460D01*
X8011277Y-15445460D02*
X8001753Y-15454984D01*
X8001753Y-15454984D02*
X7992229Y-15445460D01*
X7992229Y-15445460D02*
X8001753Y-15435936D01*
X8001753Y-15435936D02*
X8001753Y-15454984D01*
X8182705Y-15321650D02*
X8182705Y-15454984D01*
X8135086Y-15245460D02*
X8087467Y-15388317D01*
X8087467Y-15388317D02*
X8211277Y-15388317D01*
X8325562Y-15254984D02*
X8344610Y-15254984D01*
X8344610Y-15254984D02*
X8363658Y-15264508D01*
X8363658Y-15264508D02*
X8373182Y-15274031D01*
X8373182Y-15274031D02*
X8382705Y-15293079D01*
X8382705Y-15293079D02*
X8392229Y-15331174D01*
X8392229Y-15331174D02*
X8392229Y-15378793D01*
X8392229Y-15378793D02*
X8382705Y-15416888D01*
X8382705Y-15416888D02*
X8373182Y-15435936D01*
X8373182Y-15435936D02*
X8363658Y-15445460D01*
X8363658Y-15445460D02*
X8344610Y-15454984D01*
X8344610Y-15454984D02*
X8325562Y-15454984D01*
X8325562Y-15454984D02*
X8306515Y-15445460D01*
X8306515Y-15445460D02*
X8296991Y-15435936D01*
X8296991Y-15435936D02*
X8287467Y-15416888D01*
X8287467Y-15416888D02*
X8277943Y-15378793D01*
X8277943Y-15378793D02*
X8277943Y-15331174D01*
X8277943Y-15331174D02*
X8287467Y-15293079D01*
X8287467Y-15293079D02*
X8296991Y-15274031D01*
X8296991Y-15274031D02*
X8306515Y-15264508D01*
X8306515Y-15264508D02*
X8325562Y-15254984D01*
X8516039Y-15254984D02*
X8535086Y-15254984D01*
X8535086Y-15254984D02*
X8554134Y-15264508D01*
X8554134Y-15264508D02*
X8563658Y-15274031D01*
X8563658Y-15274031D02*
X8573182Y-15293079D01*
X8573182Y-15293079D02*
X8582705Y-15331174D01*
X8582705Y-15331174D02*
X8582705Y-15378793D01*
X8582705Y-15378793D02*
X8573182Y-15416888D01*
X8573182Y-15416888D02*
X8563658Y-15435936D01*
X8563658Y-15435936D02*
X8554134Y-15445460D01*
X8554134Y-15445460D02*
X8535086Y-15454984D01*
X8535086Y-15454984D02*
X8516039Y-15454984D01*
X8516039Y-15454984D02*
X8496991Y-15445460D01*
X8496991Y-15445460D02*
X8487467Y-15435936D01*
X8487467Y-15435936D02*
X8477944Y-15416888D01*
X8477944Y-15416888D02*
X8468420Y-15378793D01*
X8468420Y-15378793D02*
X8468420Y-15331174D01*
X8468420Y-15331174D02*
X8477944Y-15293079D01*
X8477944Y-15293079D02*
X8487467Y-15274031D01*
X8487467Y-15274031D02*
X8496991Y-15264508D01*
X8496991Y-15264508D02*
X8516039Y-15254984D01*
X8668420Y-15454984D02*
X8668420Y-15321650D01*
X8668420Y-15340698D02*
X8677944Y-15331174D01*
X8677944Y-15331174D02*
X8696991Y-15321650D01*
X8696991Y-15321650D02*
X8725563Y-15321650D01*
X8725563Y-15321650D02*
X8744610Y-15331174D01*
X8744610Y-15331174D02*
X8754134Y-15350222D01*
X8754134Y-15350222D02*
X8754134Y-15454984D01*
X8754134Y-15350222D02*
X8763658Y-15331174D01*
X8763658Y-15331174D02*
X8782705Y-15321650D01*
X8782705Y-15321650D02*
X8811277Y-15321650D01*
X8811277Y-15321650D02*
X8830325Y-15331174D01*
X8830325Y-15331174D02*
X8839848Y-15350222D01*
X8839848Y-15350222D02*
X8839848Y-15454984D01*
X8935086Y-15454984D02*
X8935086Y-15321650D01*
X8935086Y-15340698D02*
X8944610Y-15331174D01*
X8944610Y-15331174D02*
X8963658Y-15321650D01*
X8963658Y-15321650D02*
X8992229Y-15321650D01*
X8992229Y-15321650D02*
X9011277Y-15331174D01*
X9011277Y-15331174D02*
X9020801Y-15350222D01*
X9020801Y-15350222D02*
X9020801Y-15454984D01*
X9020801Y-15350222D02*
X9030325Y-15331174D01*
X9030325Y-15331174D02*
X9049372Y-15321650D01*
X9049372Y-15321650D02*
X9077944Y-15321650D01*
X9077944Y-15321650D02*
X9096991Y-15331174D01*
X9096991Y-15331174D02*
X9106515Y-15350222D01*
X9106515Y-15350222D02*
X9106515Y-15454984D01*
X9496991Y-15245460D02*
X9325563Y-15502603D01*
X9754134Y-15254984D02*
X9773182Y-15254984D01*
X9773182Y-15254984D02*
X9792229Y-15264508D01*
X9792229Y-15264508D02*
X9801753Y-15274031D01*
X9801753Y-15274031D02*
X9811277Y-15293079D01*
X9811277Y-15293079D02*
X9820801Y-15331174D01*
X9820801Y-15331174D02*
X9820801Y-15378793D01*
X9820801Y-15378793D02*
X9811277Y-15416888D01*
X9811277Y-15416888D02*
X9801753Y-15435936D01*
X9801753Y-15435936D02*
X9792229Y-15445460D01*
X9792229Y-15445460D02*
X9773182Y-15454984D01*
X9773182Y-15454984D02*
X9754134Y-15454984D01*
X9754134Y-15454984D02*
X9735087Y-15445460D01*
X9735087Y-15445460D02*
X9725563Y-15435936D01*
X9725563Y-15435936D02*
X9716039Y-15416888D01*
X9716039Y-15416888D02*
X9706515Y-15378793D01*
X9706515Y-15378793D02*
X9706515Y-15331174D01*
X9706515Y-15331174D02*
X9716039Y-15293079D01*
X9716039Y-15293079D02*
X9725563Y-15274031D01*
X9725563Y-15274031D02*
X9735087Y-15264508D01*
X9735087Y-15264508D02*
X9754134Y-15254984D01*
X9906515Y-15435936D02*
X9916039Y-15445460D01*
X9916039Y-15445460D02*
X9906515Y-15454984D01*
X9906515Y-15454984D02*
X9896991Y-15445460D01*
X9896991Y-15445460D02*
X9906515Y-15435936D01*
X9906515Y-15435936D02*
X9906515Y-15454984D01*
X10039848Y-15254984D02*
X10058896Y-15254984D01*
X10058896Y-15254984D02*
X10077944Y-15264508D01*
X10077944Y-15264508D02*
X10087468Y-15274031D01*
X10087468Y-15274031D02*
X10096991Y-15293079D01*
X10096991Y-15293079D02*
X10106515Y-15331174D01*
X10106515Y-15331174D02*
X10106515Y-15378793D01*
X10106515Y-15378793D02*
X10096991Y-15416888D01*
X10096991Y-15416888D02*
X10087468Y-15435936D01*
X10087468Y-15435936D02*
X10077944Y-15445460D01*
X10077944Y-15445460D02*
X10058896Y-15454984D01*
X10058896Y-15454984D02*
X10039848Y-15454984D01*
X10039848Y-15454984D02*
X10020801Y-15445460D01*
X10020801Y-15445460D02*
X10011277Y-15435936D01*
X10011277Y-15435936D02*
X10001753Y-15416888D01*
X10001753Y-15416888D02*
X9992229Y-15378793D01*
X9992229Y-15378793D02*
X9992229Y-15331174D01*
X9992229Y-15331174D02*
X10001753Y-15293079D01*
X10001753Y-15293079D02*
X10011277Y-15274031D01*
X10011277Y-15274031D02*
X10020801Y-15264508D01*
X10020801Y-15264508D02*
X10039848Y-15254984D01*
X10296991Y-15454984D02*
X10182706Y-15454984D01*
X10239848Y-15454984D02*
X10239848Y-15254984D01*
X10239848Y-15254984D02*
X10220801Y-15283555D01*
X10220801Y-15283555D02*
X10201753Y-15302603D01*
X10201753Y-15302603D02*
X10182706Y-15312127D01*
X10477944Y-15254984D02*
X10382706Y-15254984D01*
X10382706Y-15254984D02*
X10373182Y-15350222D01*
X10373182Y-15350222D02*
X10382706Y-15340698D01*
X10382706Y-15340698D02*
X10401753Y-15331174D01*
X10401753Y-15331174D02*
X10449372Y-15331174D01*
X10449372Y-15331174D02*
X10468420Y-15340698D01*
X10468420Y-15340698D02*
X10477944Y-15350222D01*
X10477944Y-15350222D02*
X10487468Y-15369269D01*
X10487468Y-15369269D02*
X10487468Y-15416888D01*
X10487468Y-15416888D02*
X10477944Y-15435936D01*
X10477944Y-15435936D02*
X10468420Y-15445460D01*
X10468420Y-15445460D02*
X10449372Y-15454984D01*
X10449372Y-15454984D02*
X10401753Y-15454984D01*
X10401753Y-15454984D02*
X10382706Y-15445460D01*
X10382706Y-15445460D02*
X10373182Y-15435936D01*
X10554134Y-15254984D02*
X10687468Y-15254984D01*
X10687468Y-15254984D02*
X10601753Y-15454984D01*
X10754134Y-15254984D02*
X10754134Y-15293079D01*
X10830325Y-15254984D02*
X10830325Y-15293079D01*
X11125563Y-15531174D02*
X11116039Y-15521650D01*
X11116039Y-15521650D02*
X11096991Y-15493079D01*
X11096991Y-15493079D02*
X11087468Y-15474031D01*
X11087468Y-15474031D02*
X11077944Y-15445460D01*
X11077944Y-15445460D02*
X11068420Y-15397841D01*
X11068420Y-15397841D02*
X11068420Y-15359746D01*
X11068420Y-15359746D02*
X11077944Y-15312127D01*
X11077944Y-15312127D02*
X11087468Y-15283555D01*
X11087468Y-15283555D02*
X11096991Y-15264508D01*
X11096991Y-15264508D02*
X11116039Y-15235936D01*
X11116039Y-15235936D02*
X11125563Y-15226412D01*
X11287468Y-15321650D02*
X11287468Y-15454984D01*
X11239848Y-15245460D02*
X11192229Y-15388317D01*
X11192229Y-15388317D02*
X11316039Y-15388317D01*
X11544610Y-15454984D02*
X11544610Y-15254984D01*
X11630325Y-15454984D02*
X11630325Y-15350222D01*
X11630325Y-15350222D02*
X11620801Y-15331174D01*
X11620801Y-15331174D02*
X11601753Y-15321650D01*
X11601753Y-15321650D02*
X11573182Y-15321650D01*
X11573182Y-15321650D02*
X11554134Y-15331174D01*
X11554134Y-15331174D02*
X11544610Y-15340698D01*
X11754134Y-15454984D02*
X11735087Y-15445460D01*
X11735087Y-15445460D02*
X11725563Y-15435936D01*
X11725563Y-15435936D02*
X11716039Y-15416888D01*
X11716039Y-15416888D02*
X11716039Y-15359746D01*
X11716039Y-15359746D02*
X11725563Y-15340698D01*
X11725563Y-15340698D02*
X11735087Y-15331174D01*
X11735087Y-15331174D02*
X11754134Y-15321650D01*
X11754134Y-15321650D02*
X11782706Y-15321650D01*
X11782706Y-15321650D02*
X11801753Y-15331174D01*
X11801753Y-15331174D02*
X11811277Y-15340698D01*
X11811277Y-15340698D02*
X11820801Y-15359746D01*
X11820801Y-15359746D02*
X11820801Y-15416888D01*
X11820801Y-15416888D02*
X11811277Y-15435936D01*
X11811277Y-15435936D02*
X11801753Y-15445460D01*
X11801753Y-15445460D02*
X11782706Y-15454984D01*
X11782706Y-15454984D02*
X11754134Y-15454984D01*
X11935087Y-15454984D02*
X11916039Y-15445460D01*
X11916039Y-15445460D02*
X11906515Y-15426412D01*
X11906515Y-15426412D02*
X11906515Y-15254984D01*
X12087468Y-15445460D02*
X12068420Y-15454984D01*
X12068420Y-15454984D02*
X12030325Y-15454984D01*
X12030325Y-15454984D02*
X12011277Y-15445460D01*
X12011277Y-15445460D02*
X12001753Y-15426412D01*
X12001753Y-15426412D02*
X12001753Y-15350222D01*
X12001753Y-15350222D02*
X12011277Y-15331174D01*
X12011277Y-15331174D02*
X12030325Y-15321650D01*
X12030325Y-15321650D02*
X12068420Y-15321650D01*
X12068420Y-15321650D02*
X12087468Y-15331174D01*
X12087468Y-15331174D02*
X12096991Y-15350222D01*
X12096991Y-15350222D02*
X12096991Y-15369269D01*
X12096991Y-15369269D02*
X12001753Y-15388317D01*
X12173182Y-15445460D02*
X12192230Y-15454984D01*
X12192230Y-15454984D02*
X12230325Y-15454984D01*
X12230325Y-15454984D02*
X12249372Y-15445460D01*
X12249372Y-15445460D02*
X12258896Y-15426412D01*
X12258896Y-15426412D02*
X12258896Y-15416888D01*
X12258896Y-15416888D02*
X12249372Y-15397841D01*
X12249372Y-15397841D02*
X12230325Y-15388317D01*
X12230325Y-15388317D02*
X12201753Y-15388317D01*
X12201753Y-15388317D02*
X12182706Y-15378793D01*
X12182706Y-15378793D02*
X12173182Y-15359746D01*
X12173182Y-15359746D02*
X12173182Y-15350222D01*
X12173182Y-15350222D02*
X12182706Y-15331174D01*
X12182706Y-15331174D02*
X12201753Y-15321650D01*
X12201753Y-15321650D02*
X12230325Y-15321650D01*
X12230325Y-15321650D02*
X12249372Y-15331174D01*
X12325563Y-15531174D02*
X12335087Y-15521650D01*
X12335087Y-15521650D02*
X12354134Y-15493079D01*
X12354134Y-15493079D02*
X12363658Y-15474031D01*
X12363658Y-15474031D02*
X12373182Y-15445460D01*
X12373182Y-15445460D02*
X12382706Y-15397841D01*
X12382706Y-15397841D02*
X12382706Y-15359746D01*
X12382706Y-15359746D02*
X12373182Y-15312127D01*
X12373182Y-15312127D02*
X12363658Y-15283555D01*
X12363658Y-15283555D02*
X12354134Y-15264508D01*
X12354134Y-15264508D02*
X12335087Y-15235936D01*
X12335087Y-15235936D02*
X12325563Y-15226412D01*
D11*
X7550500Y-15627500D02*
G75*
G03*
X7550500Y-15627500I-37500J0D01*
G01*
D12*
X7849372Y-15518984D02*
X7868420Y-15518984D01*
X7868420Y-15518984D02*
X7887467Y-15528508D01*
X7887467Y-15528508D02*
X7896991Y-15538031D01*
X7896991Y-15538031D02*
X7906515Y-15557079D01*
X7906515Y-15557079D02*
X7916039Y-15595174D01*
X7916039Y-15595174D02*
X7916039Y-15642793D01*
X7916039Y-15642793D02*
X7906515Y-15680888D01*
X7906515Y-15680888D02*
X7896991Y-15699936D01*
X7896991Y-15699936D02*
X7887467Y-15709460D01*
X7887467Y-15709460D02*
X7868420Y-15718984D01*
X7868420Y-15718984D02*
X7849372Y-15718984D01*
X7849372Y-15718984D02*
X7830324Y-15709460D01*
X7830324Y-15709460D02*
X7820801Y-15699936D01*
X7820801Y-15699936D02*
X7811277Y-15680888D01*
X7811277Y-15680888D02*
X7801753Y-15642793D01*
X7801753Y-15642793D02*
X7801753Y-15595174D01*
X7801753Y-15595174D02*
X7811277Y-15557079D01*
X7811277Y-15557079D02*
X7820801Y-15538031D01*
X7820801Y-15538031D02*
X7830324Y-15528508D01*
X7830324Y-15528508D02*
X7849372Y-15518984D01*
X8001753Y-15699936D02*
X8011277Y-15709460D01*
X8011277Y-15709460D02*
X8001753Y-15718984D01*
X8001753Y-15718984D02*
X7992229Y-15709460D01*
X7992229Y-15709460D02*
X8001753Y-15699936D01*
X8001753Y-15699936D02*
X8001753Y-15718984D01*
X8077943Y-15518984D02*
X8211277Y-15518984D01*
X8211277Y-15518984D02*
X8125562Y-15718984D01*
X8382705Y-15518984D02*
X8287467Y-15518984D01*
X8287467Y-15518984D02*
X8277943Y-15614222D01*
X8277943Y-15614222D02*
X8287467Y-15604698D01*
X8287467Y-15604698D02*
X8306515Y-15595174D01*
X8306515Y-15595174D02*
X8354134Y-15595174D01*
X8354134Y-15595174D02*
X8373182Y-15604698D01*
X8373182Y-15604698D02*
X8382705Y-15614222D01*
X8382705Y-15614222D02*
X8392229Y-15633269D01*
X8392229Y-15633269D02*
X8392229Y-15680888D01*
X8392229Y-15680888D02*
X8382705Y-15699936D01*
X8382705Y-15699936D02*
X8373182Y-15709460D01*
X8373182Y-15709460D02*
X8354134Y-15718984D01*
X8354134Y-15718984D02*
X8306515Y-15718984D01*
X8306515Y-15718984D02*
X8287467Y-15709460D01*
X8287467Y-15709460D02*
X8277943Y-15699936D01*
X8516039Y-15518984D02*
X8535086Y-15518984D01*
X8535086Y-15518984D02*
X8554134Y-15528508D01*
X8554134Y-15528508D02*
X8563658Y-15538031D01*
X8563658Y-15538031D02*
X8573182Y-15557079D01*
X8573182Y-15557079D02*
X8582705Y-15595174D01*
X8582705Y-15595174D02*
X8582705Y-15642793D01*
X8582705Y-15642793D02*
X8573182Y-15680888D01*
X8573182Y-15680888D02*
X8563658Y-15699936D01*
X8563658Y-15699936D02*
X8554134Y-15709460D01*
X8554134Y-15709460D02*
X8535086Y-15718984D01*
X8535086Y-15718984D02*
X8516039Y-15718984D01*
X8516039Y-15718984D02*
X8496991Y-15709460D01*
X8496991Y-15709460D02*
X8487467Y-15699936D01*
X8487467Y-15699936D02*
X8477944Y-15680888D01*
X8477944Y-15680888D02*
X8468420Y-15642793D01*
X8468420Y-15642793D02*
X8468420Y-15595174D01*
X8468420Y-15595174D02*
X8477944Y-15557079D01*
X8477944Y-15557079D02*
X8487467Y-15538031D01*
X8487467Y-15538031D02*
X8496991Y-15528508D01*
X8496991Y-15528508D02*
X8516039Y-15518984D01*
X8668420Y-15718984D02*
X8668420Y-15585650D01*
X8668420Y-15604698D02*
X8677944Y-15595174D01*
X8677944Y-15595174D02*
X8696991Y-15585650D01*
X8696991Y-15585650D02*
X8725563Y-15585650D01*
X8725563Y-15585650D02*
X8744610Y-15595174D01*
X8744610Y-15595174D02*
X8754134Y-15614222D01*
X8754134Y-15614222D02*
X8754134Y-15718984D01*
X8754134Y-15614222D02*
X8763658Y-15595174D01*
X8763658Y-15595174D02*
X8782705Y-15585650D01*
X8782705Y-15585650D02*
X8811277Y-15585650D01*
X8811277Y-15585650D02*
X8830325Y-15595174D01*
X8830325Y-15595174D02*
X8839848Y-15614222D01*
X8839848Y-15614222D02*
X8839848Y-15718984D01*
X8935086Y-15718984D02*
X8935086Y-15585650D01*
X8935086Y-15604698D02*
X8944610Y-15595174D01*
X8944610Y-15595174D02*
X8963658Y-15585650D01*
X8963658Y-15585650D02*
X8992229Y-15585650D01*
X8992229Y-15585650D02*
X9011277Y-15595174D01*
X9011277Y-15595174D02*
X9020801Y-15614222D01*
X9020801Y-15614222D02*
X9020801Y-15718984D01*
X9020801Y-15614222D02*
X9030325Y-15595174D01*
X9030325Y-15595174D02*
X9049372Y-15585650D01*
X9049372Y-15585650D02*
X9077944Y-15585650D01*
X9077944Y-15585650D02*
X9096991Y-15595174D01*
X9096991Y-15595174D02*
X9106515Y-15614222D01*
X9106515Y-15614222D02*
X9106515Y-15718984D01*
X9496991Y-15509460D02*
X9325563Y-15766603D01*
X9754134Y-15518984D02*
X9773182Y-15518984D01*
X9773182Y-15518984D02*
X9792229Y-15528508D01*
X9792229Y-15528508D02*
X9801753Y-15538031D01*
X9801753Y-15538031D02*
X9811277Y-15557079D01*
X9811277Y-15557079D02*
X9820801Y-15595174D01*
X9820801Y-15595174D02*
X9820801Y-15642793D01*
X9820801Y-15642793D02*
X9811277Y-15680888D01*
X9811277Y-15680888D02*
X9801753Y-15699936D01*
X9801753Y-15699936D02*
X9792229Y-15709460D01*
X9792229Y-15709460D02*
X9773182Y-15718984D01*
X9773182Y-15718984D02*
X9754134Y-15718984D01*
X9754134Y-15718984D02*
X9735087Y-15709460D01*
X9735087Y-15709460D02*
X9725563Y-15699936D01*
X9725563Y-15699936D02*
X9716039Y-15680888D01*
X9716039Y-15680888D02*
X9706515Y-15642793D01*
X9706515Y-15642793D02*
X9706515Y-15595174D01*
X9706515Y-15595174D02*
X9716039Y-15557079D01*
X9716039Y-15557079D02*
X9725563Y-15538031D01*
X9725563Y-15538031D02*
X9735087Y-15528508D01*
X9735087Y-15528508D02*
X9754134Y-15518984D01*
X9906515Y-15699936D02*
X9916039Y-15709460D01*
X9916039Y-15709460D02*
X9906515Y-15718984D01*
X9906515Y-15718984D02*
X9896991Y-15709460D01*
X9896991Y-15709460D02*
X9906515Y-15699936D01*
X9906515Y-15699936D02*
X9906515Y-15718984D01*
X10039848Y-15518984D02*
X10058896Y-15518984D01*
X10058896Y-15518984D02*
X10077944Y-15528508D01*
X10077944Y-15528508D02*
X10087468Y-15538031D01*
X10087468Y-15538031D02*
X10096991Y-15557079D01*
X10096991Y-15557079D02*
X10106515Y-15595174D01*
X10106515Y-15595174D02*
X10106515Y-15642793D01*
X10106515Y-15642793D02*
X10096991Y-15680888D01*
X10096991Y-15680888D02*
X10087468Y-15699936D01*
X10087468Y-15699936D02*
X10077944Y-15709460D01*
X10077944Y-15709460D02*
X10058896Y-15718984D01*
X10058896Y-15718984D02*
X10039848Y-15718984D01*
X10039848Y-15718984D02*
X10020801Y-15709460D01*
X10020801Y-15709460D02*
X10011277Y-15699936D01*
X10011277Y-15699936D02*
X10001753Y-15680888D01*
X10001753Y-15680888D02*
X9992229Y-15642793D01*
X9992229Y-15642793D02*
X9992229Y-15595174D01*
X9992229Y-15595174D02*
X10001753Y-15557079D01*
X10001753Y-15557079D02*
X10011277Y-15538031D01*
X10011277Y-15538031D02*
X10020801Y-15528508D01*
X10020801Y-15528508D02*
X10039848Y-15518984D01*
X10182706Y-15538031D02*
X10192229Y-15528508D01*
X10192229Y-15528508D02*
X10211277Y-15518984D01*
X10211277Y-15518984D02*
X10258896Y-15518984D01*
X10258896Y-15518984D02*
X10277944Y-15528508D01*
X10277944Y-15528508D02*
X10287468Y-15538031D01*
X10287468Y-15538031D02*
X10296991Y-15557079D01*
X10296991Y-15557079D02*
X10296991Y-15576127D01*
X10296991Y-15576127D02*
X10287468Y-15604698D01*
X10287468Y-15604698D02*
X10173182Y-15718984D01*
X10173182Y-15718984D02*
X10296991Y-15718984D01*
X10392229Y-15718984D02*
X10430325Y-15718984D01*
X10430325Y-15718984D02*
X10449372Y-15709460D01*
X10449372Y-15709460D02*
X10458896Y-15699936D01*
X10458896Y-15699936D02*
X10477944Y-15671365D01*
X10477944Y-15671365D02*
X10487468Y-15633269D01*
X10487468Y-15633269D02*
X10487468Y-15557079D01*
X10487468Y-15557079D02*
X10477944Y-15538031D01*
X10477944Y-15538031D02*
X10468420Y-15528508D01*
X10468420Y-15528508D02*
X10449372Y-15518984D01*
X10449372Y-15518984D02*
X10411277Y-15518984D01*
X10411277Y-15518984D02*
X10392229Y-15528508D01*
X10392229Y-15528508D02*
X10382706Y-15538031D01*
X10382706Y-15538031D02*
X10373182Y-15557079D01*
X10373182Y-15557079D02*
X10373182Y-15604698D01*
X10373182Y-15604698D02*
X10382706Y-15623746D01*
X10382706Y-15623746D02*
X10392229Y-15633269D01*
X10392229Y-15633269D02*
X10411277Y-15642793D01*
X10411277Y-15642793D02*
X10449372Y-15642793D01*
X10449372Y-15642793D02*
X10468420Y-15633269D01*
X10468420Y-15633269D02*
X10477944Y-15623746D01*
X10477944Y-15623746D02*
X10487468Y-15604698D01*
X10668420Y-15518984D02*
X10573182Y-15518984D01*
X10573182Y-15518984D02*
X10563658Y-15614222D01*
X10563658Y-15614222D02*
X10573182Y-15604698D01*
X10573182Y-15604698D02*
X10592229Y-15595174D01*
X10592229Y-15595174D02*
X10639849Y-15595174D01*
X10639849Y-15595174D02*
X10658896Y-15604698D01*
X10658896Y-15604698D02*
X10668420Y-15614222D01*
X10668420Y-15614222D02*
X10677944Y-15633269D01*
X10677944Y-15633269D02*
X10677944Y-15680888D01*
X10677944Y-15680888D02*
X10668420Y-15699936D01*
X10668420Y-15699936D02*
X10658896Y-15709460D01*
X10658896Y-15709460D02*
X10639849Y-15718984D01*
X10639849Y-15718984D02*
X10592229Y-15718984D01*
X10592229Y-15718984D02*
X10573182Y-15709460D01*
X10573182Y-15709460D02*
X10563658Y-15699936D01*
X10754134Y-15518984D02*
X10754134Y-15557079D01*
X10830325Y-15518984D02*
X10830325Y-15557079D01*
X11125563Y-15795174D02*
X11116039Y-15785650D01*
X11116039Y-15785650D02*
X11096991Y-15757079D01*
X11096991Y-15757079D02*
X11087468Y-15738031D01*
X11087468Y-15738031D02*
X11077944Y-15709460D01*
X11077944Y-15709460D02*
X11068420Y-15661841D01*
X11068420Y-15661841D02*
X11068420Y-15623746D01*
X11068420Y-15623746D02*
X11077944Y-15576127D01*
X11077944Y-15576127D02*
X11087468Y-15547555D01*
X11087468Y-15547555D02*
X11096991Y-15528508D01*
X11096991Y-15528508D02*
X11116039Y-15499936D01*
X11116039Y-15499936D02*
X11125563Y-15490412D01*
X11211277Y-15718984D02*
X11249372Y-15718984D01*
X11249372Y-15718984D02*
X11268420Y-15709460D01*
X11268420Y-15709460D02*
X11277944Y-15699936D01*
X11277944Y-15699936D02*
X11296991Y-15671365D01*
X11296991Y-15671365D02*
X11306515Y-15633269D01*
X11306515Y-15633269D02*
X11306515Y-15557079D01*
X11306515Y-15557079D02*
X11296991Y-15538031D01*
X11296991Y-15538031D02*
X11287468Y-15528508D01*
X11287468Y-15528508D02*
X11268420Y-15518984D01*
X11268420Y-15518984D02*
X11230325Y-15518984D01*
X11230325Y-15518984D02*
X11211277Y-15528508D01*
X11211277Y-15528508D02*
X11201753Y-15538031D01*
X11201753Y-15538031D02*
X11192229Y-15557079D01*
X11192229Y-15557079D02*
X11192229Y-15604698D01*
X11192229Y-15604698D02*
X11201753Y-15623746D01*
X11201753Y-15623746D02*
X11211277Y-15633269D01*
X11211277Y-15633269D02*
X11230325Y-15642793D01*
X11230325Y-15642793D02*
X11268420Y-15642793D01*
X11268420Y-15642793D02*
X11287468Y-15633269D01*
X11287468Y-15633269D02*
X11296991Y-15623746D01*
X11296991Y-15623746D02*
X11306515Y-15604698D01*
X11544610Y-15718984D02*
X11544610Y-15518984D01*
X11630325Y-15718984D02*
X11630325Y-15614222D01*
X11630325Y-15614222D02*
X11620801Y-15595174D01*
X11620801Y-15595174D02*
X11601753Y-15585650D01*
X11601753Y-15585650D02*
X11573182Y-15585650D01*
X11573182Y-15585650D02*
X11554134Y-15595174D01*
X11554134Y-15595174D02*
X11544610Y-15604698D01*
X11754134Y-15718984D02*
X11735087Y-15709460D01*
X11735087Y-15709460D02*
X11725563Y-15699936D01*
X11725563Y-15699936D02*
X11716039Y-15680888D01*
X11716039Y-15680888D02*
X11716039Y-15623746D01*
X11716039Y-15623746D02*
X11725563Y-15604698D01*
X11725563Y-15604698D02*
X11735087Y-15595174D01*
X11735087Y-15595174D02*
X11754134Y-15585650D01*
X11754134Y-15585650D02*
X11782706Y-15585650D01*
X11782706Y-15585650D02*
X11801753Y-15595174D01*
X11801753Y-15595174D02*
X11811277Y-15604698D01*
X11811277Y-15604698D02*
X11820801Y-15623746D01*
X11820801Y-15623746D02*
X11820801Y-15680888D01*
X11820801Y-15680888D02*
X11811277Y-15699936D01*
X11811277Y-15699936D02*
X11801753Y-15709460D01*
X11801753Y-15709460D02*
X11782706Y-15718984D01*
X11782706Y-15718984D02*
X11754134Y-15718984D01*
X11935087Y-15718984D02*
X11916039Y-15709460D01*
X11916039Y-15709460D02*
X11906515Y-15690412D01*
X11906515Y-15690412D02*
X11906515Y-15518984D01*
X12087468Y-15709460D02*
X12068420Y-15718984D01*
X12068420Y-15718984D02*
X12030325Y-15718984D01*
X12030325Y-15718984D02*
X12011277Y-15709460D01*
X12011277Y-15709460D02*
X12001753Y-15690412D01*
X12001753Y-15690412D02*
X12001753Y-15614222D01*
X12001753Y-15614222D02*
X12011277Y-15595174D01*
X12011277Y-15595174D02*
X12030325Y-15585650D01*
X12030325Y-15585650D02*
X12068420Y-15585650D01*
X12068420Y-15585650D02*
X12087468Y-15595174D01*
X12087468Y-15595174D02*
X12096991Y-15614222D01*
X12096991Y-15614222D02*
X12096991Y-15633269D01*
X12096991Y-15633269D02*
X12001753Y-15652317D01*
X12173182Y-15709460D02*
X12192230Y-15718984D01*
X12192230Y-15718984D02*
X12230325Y-15718984D01*
X12230325Y-15718984D02*
X12249372Y-15709460D01*
X12249372Y-15709460D02*
X12258896Y-15690412D01*
X12258896Y-15690412D02*
X12258896Y-15680888D01*
X12258896Y-15680888D02*
X12249372Y-15661841D01*
X12249372Y-15661841D02*
X12230325Y-15652317D01*
X12230325Y-15652317D02*
X12201753Y-15652317D01*
X12201753Y-15652317D02*
X12182706Y-15642793D01*
X12182706Y-15642793D02*
X12173182Y-15623746D01*
X12173182Y-15623746D02*
X12173182Y-15614222D01*
X12173182Y-15614222D02*
X12182706Y-15595174D01*
X12182706Y-15595174D02*
X12201753Y-15585650D01*
X12201753Y-15585650D02*
X12230325Y-15585650D01*
X12230325Y-15585650D02*
X12249372Y-15595174D01*
X12325563Y-15795174D02*
X12335087Y-15785650D01*
X12335087Y-15785650D02*
X12354134Y-15757079D01*
X12354134Y-15757079D02*
X12363658Y-15738031D01*
X12363658Y-15738031D02*
X12373182Y-15709460D01*
X12373182Y-15709460D02*
X12382706Y-15661841D01*
X12382706Y-15661841D02*
X12382706Y-15623746D01*
X12382706Y-15623746D02*
X12373182Y-15576127D01*
X12373182Y-15576127D02*
X12363658Y-15547555D01*
X12363658Y-15547555D02*
X12354134Y-15528508D01*
X12354134Y-15528508D02*
X12335087Y-15499936D01*
X12335087Y-15499936D02*
X12325563Y-15490412D01*
D11*
X7510500Y-15851500D02*
X7510500Y-15931500D01*
X7470500Y-15891500D02*
X7550500Y-15891500D01*
D12*
X7849372Y-15782984D02*
X7868420Y-15782984D01*
X7868420Y-15782984D02*
X7887467Y-15792508D01*
X7887467Y-15792508D02*
X7896991Y-15802031D01*
X7896991Y-15802031D02*
X7906515Y-15821079D01*
X7906515Y-15821079D02*
X7916039Y-15859174D01*
X7916039Y-15859174D02*
X7916039Y-15906793D01*
X7916039Y-15906793D02*
X7906515Y-15944888D01*
X7906515Y-15944888D02*
X7896991Y-15963936D01*
X7896991Y-15963936D02*
X7887467Y-15973460D01*
X7887467Y-15973460D02*
X7868420Y-15982984D01*
X7868420Y-15982984D02*
X7849372Y-15982984D01*
X7849372Y-15982984D02*
X7830324Y-15973460D01*
X7830324Y-15973460D02*
X7820801Y-15963936D01*
X7820801Y-15963936D02*
X7811277Y-15944888D01*
X7811277Y-15944888D02*
X7801753Y-15906793D01*
X7801753Y-15906793D02*
X7801753Y-15859174D01*
X7801753Y-15859174D02*
X7811277Y-15821079D01*
X7811277Y-15821079D02*
X7820801Y-15802031D01*
X7820801Y-15802031D02*
X7830324Y-15792508D01*
X7830324Y-15792508D02*
X7849372Y-15782984D01*
X8001753Y-15963936D02*
X8011277Y-15973460D01*
X8011277Y-15973460D02*
X8001753Y-15982984D01*
X8001753Y-15982984D02*
X7992229Y-15973460D01*
X7992229Y-15973460D02*
X8001753Y-15963936D01*
X8001753Y-15963936D02*
X8001753Y-15982984D01*
X8125562Y-15868698D02*
X8106515Y-15859174D01*
X8106515Y-15859174D02*
X8096991Y-15849650D01*
X8096991Y-15849650D02*
X8087467Y-15830603D01*
X8087467Y-15830603D02*
X8087467Y-15821079D01*
X8087467Y-15821079D02*
X8096991Y-15802031D01*
X8096991Y-15802031D02*
X8106515Y-15792508D01*
X8106515Y-15792508D02*
X8125562Y-15782984D01*
X8125562Y-15782984D02*
X8163658Y-15782984D01*
X8163658Y-15782984D02*
X8182705Y-15792508D01*
X8182705Y-15792508D02*
X8192229Y-15802031D01*
X8192229Y-15802031D02*
X8201753Y-15821079D01*
X8201753Y-15821079D02*
X8201753Y-15830603D01*
X8201753Y-15830603D02*
X8192229Y-15849650D01*
X8192229Y-15849650D02*
X8182705Y-15859174D01*
X8182705Y-15859174D02*
X8163658Y-15868698D01*
X8163658Y-15868698D02*
X8125562Y-15868698D01*
X8125562Y-15868698D02*
X8106515Y-15878222D01*
X8106515Y-15878222D02*
X8096991Y-15887746D01*
X8096991Y-15887746D02*
X8087467Y-15906793D01*
X8087467Y-15906793D02*
X8087467Y-15944888D01*
X8087467Y-15944888D02*
X8096991Y-15963936D01*
X8096991Y-15963936D02*
X8106515Y-15973460D01*
X8106515Y-15973460D02*
X8125562Y-15982984D01*
X8125562Y-15982984D02*
X8163658Y-15982984D01*
X8163658Y-15982984D02*
X8182705Y-15973460D01*
X8182705Y-15973460D02*
X8192229Y-15963936D01*
X8192229Y-15963936D02*
X8201753Y-15944888D01*
X8201753Y-15944888D02*
X8201753Y-15906793D01*
X8201753Y-15906793D02*
X8192229Y-15887746D01*
X8192229Y-15887746D02*
X8182705Y-15878222D01*
X8182705Y-15878222D02*
X8163658Y-15868698D01*
X8325562Y-15782984D02*
X8344610Y-15782984D01*
X8344610Y-15782984D02*
X8363658Y-15792508D01*
X8363658Y-15792508D02*
X8373182Y-15802031D01*
X8373182Y-15802031D02*
X8382705Y-15821079D01*
X8382705Y-15821079D02*
X8392229Y-15859174D01*
X8392229Y-15859174D02*
X8392229Y-15906793D01*
X8392229Y-15906793D02*
X8382705Y-15944888D01*
X8382705Y-15944888D02*
X8373182Y-15963936D01*
X8373182Y-15963936D02*
X8363658Y-15973460D01*
X8363658Y-15973460D02*
X8344610Y-15982984D01*
X8344610Y-15982984D02*
X8325562Y-15982984D01*
X8325562Y-15982984D02*
X8306515Y-15973460D01*
X8306515Y-15973460D02*
X8296991Y-15963936D01*
X8296991Y-15963936D02*
X8287467Y-15944888D01*
X8287467Y-15944888D02*
X8277943Y-15906793D01*
X8277943Y-15906793D02*
X8277943Y-15859174D01*
X8277943Y-15859174D02*
X8287467Y-15821079D01*
X8287467Y-15821079D02*
X8296991Y-15802031D01*
X8296991Y-15802031D02*
X8306515Y-15792508D01*
X8306515Y-15792508D02*
X8325562Y-15782984D01*
X8516039Y-15782984D02*
X8535086Y-15782984D01*
X8535086Y-15782984D02*
X8554134Y-15792508D01*
X8554134Y-15792508D02*
X8563658Y-15802031D01*
X8563658Y-15802031D02*
X8573182Y-15821079D01*
X8573182Y-15821079D02*
X8582705Y-15859174D01*
X8582705Y-15859174D02*
X8582705Y-15906793D01*
X8582705Y-15906793D02*
X8573182Y-15944888D01*
X8573182Y-15944888D02*
X8563658Y-15963936D01*
X8563658Y-15963936D02*
X8554134Y-15973460D01*
X8554134Y-15973460D02*
X8535086Y-15982984D01*
X8535086Y-15982984D02*
X8516039Y-15982984D01*
X8516039Y-15982984D02*
X8496991Y-15973460D01*
X8496991Y-15973460D02*
X8487467Y-15963936D01*
X8487467Y-15963936D02*
X8477944Y-15944888D01*
X8477944Y-15944888D02*
X8468420Y-15906793D01*
X8468420Y-15906793D02*
X8468420Y-15859174D01*
X8468420Y-15859174D02*
X8477944Y-15821079D01*
X8477944Y-15821079D02*
X8487467Y-15802031D01*
X8487467Y-15802031D02*
X8496991Y-15792508D01*
X8496991Y-15792508D02*
X8516039Y-15782984D01*
X8668420Y-15982984D02*
X8668420Y-15849650D01*
X8668420Y-15868698D02*
X8677944Y-15859174D01*
X8677944Y-15859174D02*
X8696991Y-15849650D01*
X8696991Y-15849650D02*
X8725563Y-15849650D01*
X8725563Y-15849650D02*
X8744610Y-15859174D01*
X8744610Y-15859174D02*
X8754134Y-15878222D01*
X8754134Y-15878222D02*
X8754134Y-15982984D01*
X8754134Y-15878222D02*
X8763658Y-15859174D01*
X8763658Y-15859174D02*
X8782705Y-15849650D01*
X8782705Y-15849650D02*
X8811277Y-15849650D01*
X8811277Y-15849650D02*
X8830325Y-15859174D01*
X8830325Y-15859174D02*
X8839848Y-15878222D01*
X8839848Y-15878222D02*
X8839848Y-15982984D01*
X8935086Y-15982984D02*
X8935086Y-15849650D01*
X8935086Y-15868698D02*
X8944610Y-15859174D01*
X8944610Y-15859174D02*
X8963658Y-15849650D01*
X8963658Y-15849650D02*
X8992229Y-15849650D01*
X8992229Y-15849650D02*
X9011277Y-15859174D01*
X9011277Y-15859174D02*
X9020801Y-15878222D01*
X9020801Y-15878222D02*
X9020801Y-15982984D01*
X9020801Y-15878222D02*
X9030325Y-15859174D01*
X9030325Y-15859174D02*
X9049372Y-15849650D01*
X9049372Y-15849650D02*
X9077944Y-15849650D01*
X9077944Y-15849650D02*
X9096991Y-15859174D01*
X9096991Y-15859174D02*
X9106515Y-15878222D01*
X9106515Y-15878222D02*
X9106515Y-15982984D01*
X9496991Y-15773460D02*
X9325563Y-16030603D01*
X9754134Y-15782984D02*
X9773182Y-15782984D01*
X9773182Y-15782984D02*
X9792229Y-15792508D01*
X9792229Y-15792508D02*
X9801753Y-15802031D01*
X9801753Y-15802031D02*
X9811277Y-15821079D01*
X9811277Y-15821079D02*
X9820801Y-15859174D01*
X9820801Y-15859174D02*
X9820801Y-15906793D01*
X9820801Y-15906793D02*
X9811277Y-15944888D01*
X9811277Y-15944888D02*
X9801753Y-15963936D01*
X9801753Y-15963936D02*
X9792229Y-15973460D01*
X9792229Y-15973460D02*
X9773182Y-15982984D01*
X9773182Y-15982984D02*
X9754134Y-15982984D01*
X9754134Y-15982984D02*
X9735087Y-15973460D01*
X9735087Y-15973460D02*
X9725563Y-15963936D01*
X9725563Y-15963936D02*
X9716039Y-15944888D01*
X9716039Y-15944888D02*
X9706515Y-15906793D01*
X9706515Y-15906793D02*
X9706515Y-15859174D01*
X9706515Y-15859174D02*
X9716039Y-15821079D01*
X9716039Y-15821079D02*
X9725563Y-15802031D01*
X9725563Y-15802031D02*
X9735087Y-15792508D01*
X9735087Y-15792508D02*
X9754134Y-15782984D01*
X9906515Y-15963936D02*
X9916039Y-15973460D01*
X9916039Y-15973460D02*
X9906515Y-15982984D01*
X9906515Y-15982984D02*
X9896991Y-15973460D01*
X9896991Y-15973460D02*
X9906515Y-15963936D01*
X9906515Y-15963936D02*
X9906515Y-15982984D01*
X10039848Y-15782984D02*
X10058896Y-15782984D01*
X10058896Y-15782984D02*
X10077944Y-15792508D01*
X10077944Y-15792508D02*
X10087468Y-15802031D01*
X10087468Y-15802031D02*
X10096991Y-15821079D01*
X10096991Y-15821079D02*
X10106515Y-15859174D01*
X10106515Y-15859174D02*
X10106515Y-15906793D01*
X10106515Y-15906793D02*
X10096991Y-15944888D01*
X10096991Y-15944888D02*
X10087468Y-15963936D01*
X10087468Y-15963936D02*
X10077944Y-15973460D01*
X10077944Y-15973460D02*
X10058896Y-15982984D01*
X10058896Y-15982984D02*
X10039848Y-15982984D01*
X10039848Y-15982984D02*
X10020801Y-15973460D01*
X10020801Y-15973460D02*
X10011277Y-15963936D01*
X10011277Y-15963936D02*
X10001753Y-15944888D01*
X10001753Y-15944888D02*
X9992229Y-15906793D01*
X9992229Y-15906793D02*
X9992229Y-15859174D01*
X9992229Y-15859174D02*
X10001753Y-15821079D01*
X10001753Y-15821079D02*
X10011277Y-15802031D01*
X10011277Y-15802031D02*
X10020801Y-15792508D01*
X10020801Y-15792508D02*
X10039848Y-15782984D01*
X10173182Y-15782984D02*
X10296991Y-15782984D01*
X10296991Y-15782984D02*
X10230325Y-15859174D01*
X10230325Y-15859174D02*
X10258896Y-15859174D01*
X10258896Y-15859174D02*
X10277944Y-15868698D01*
X10277944Y-15868698D02*
X10287468Y-15878222D01*
X10287468Y-15878222D02*
X10296991Y-15897269D01*
X10296991Y-15897269D02*
X10296991Y-15944888D01*
X10296991Y-15944888D02*
X10287468Y-15963936D01*
X10287468Y-15963936D02*
X10277944Y-15973460D01*
X10277944Y-15973460D02*
X10258896Y-15982984D01*
X10258896Y-15982984D02*
X10201753Y-15982984D01*
X10201753Y-15982984D02*
X10182706Y-15973460D01*
X10182706Y-15973460D02*
X10173182Y-15963936D01*
X10487468Y-15982984D02*
X10373182Y-15982984D01*
X10430325Y-15982984D02*
X10430325Y-15782984D01*
X10430325Y-15782984D02*
X10411277Y-15811555D01*
X10411277Y-15811555D02*
X10392229Y-15830603D01*
X10392229Y-15830603D02*
X10373182Y-15840127D01*
X10668420Y-15782984D02*
X10573182Y-15782984D01*
X10573182Y-15782984D02*
X10563658Y-15878222D01*
X10563658Y-15878222D02*
X10573182Y-15868698D01*
X10573182Y-15868698D02*
X10592229Y-15859174D01*
X10592229Y-15859174D02*
X10639849Y-15859174D01*
X10639849Y-15859174D02*
X10658896Y-15868698D01*
X10658896Y-15868698D02*
X10668420Y-15878222D01*
X10668420Y-15878222D02*
X10677944Y-15897269D01*
X10677944Y-15897269D02*
X10677944Y-15944888D01*
X10677944Y-15944888D02*
X10668420Y-15963936D01*
X10668420Y-15963936D02*
X10658896Y-15973460D01*
X10658896Y-15973460D02*
X10639849Y-15982984D01*
X10639849Y-15982984D02*
X10592229Y-15982984D01*
X10592229Y-15982984D02*
X10573182Y-15973460D01*
X10573182Y-15973460D02*
X10563658Y-15963936D01*
X10754134Y-15782984D02*
X10754134Y-15821079D01*
X10830325Y-15782984D02*
X10830325Y-15821079D01*
X11125563Y-16059174D02*
X11116039Y-16049650D01*
X11116039Y-16049650D02*
X11096991Y-16021079D01*
X11096991Y-16021079D02*
X11087468Y-16002031D01*
X11087468Y-16002031D02*
X11077944Y-15973460D01*
X11077944Y-15973460D02*
X11068420Y-15925841D01*
X11068420Y-15925841D02*
X11068420Y-15887746D01*
X11068420Y-15887746D02*
X11077944Y-15840127D01*
X11077944Y-15840127D02*
X11087468Y-15811555D01*
X11087468Y-15811555D02*
X11096991Y-15792508D01*
X11096991Y-15792508D02*
X11116039Y-15763936D01*
X11116039Y-15763936D02*
X11125563Y-15754412D01*
X11287468Y-15849650D02*
X11287468Y-15982984D01*
X11239848Y-15773460D02*
X11192229Y-15916317D01*
X11192229Y-15916317D02*
X11316039Y-15916317D01*
X11373182Y-15782984D02*
X11506515Y-15782984D01*
X11506515Y-15782984D02*
X11420801Y-15982984D01*
X11735087Y-15982984D02*
X11735087Y-15782984D01*
X11820801Y-15982984D02*
X11820801Y-15878222D01*
X11820801Y-15878222D02*
X11811277Y-15859174D01*
X11811277Y-15859174D02*
X11792230Y-15849650D01*
X11792230Y-15849650D02*
X11763658Y-15849650D01*
X11763658Y-15849650D02*
X11744610Y-15859174D01*
X11744610Y-15859174D02*
X11735087Y-15868698D01*
X11944610Y-15982984D02*
X11925563Y-15973460D01*
X11925563Y-15973460D02*
X11916039Y-15963936D01*
X11916039Y-15963936D02*
X11906515Y-15944888D01*
X11906515Y-15944888D02*
X11906515Y-15887746D01*
X11906515Y-15887746D02*
X11916039Y-15868698D01*
X11916039Y-15868698D02*
X11925563Y-15859174D01*
X11925563Y-15859174D02*
X11944610Y-15849650D01*
X11944610Y-15849650D02*
X11973182Y-15849650D01*
X11973182Y-15849650D02*
X11992230Y-15859174D01*
X11992230Y-15859174D02*
X12001753Y-15868698D01*
X12001753Y-15868698D02*
X12011277Y-15887746D01*
X12011277Y-15887746D02*
X12011277Y-15944888D01*
X12011277Y-15944888D02*
X12001753Y-15963936D01*
X12001753Y-15963936D02*
X11992230Y-15973460D01*
X11992230Y-15973460D02*
X11973182Y-15982984D01*
X11973182Y-15982984D02*
X11944610Y-15982984D01*
X12125563Y-15982984D02*
X12106515Y-15973460D01*
X12106515Y-15973460D02*
X12096991Y-15954412D01*
X12096991Y-15954412D02*
X12096991Y-15782984D01*
X12277944Y-15973460D02*
X12258896Y-15982984D01*
X12258896Y-15982984D02*
X12220801Y-15982984D01*
X12220801Y-15982984D02*
X12201753Y-15973460D01*
X12201753Y-15973460D02*
X12192230Y-15954412D01*
X12192230Y-15954412D02*
X12192230Y-15878222D01*
X12192230Y-15878222D02*
X12201753Y-15859174D01*
X12201753Y-15859174D02*
X12220801Y-15849650D01*
X12220801Y-15849650D02*
X12258896Y-15849650D01*
X12258896Y-15849650D02*
X12277944Y-15859174D01*
X12277944Y-15859174D02*
X12287468Y-15878222D01*
X12287468Y-15878222D02*
X12287468Y-15897269D01*
X12287468Y-15897269D02*
X12192230Y-15916317D01*
X12363658Y-15973460D02*
X12382706Y-15982984D01*
X12382706Y-15982984D02*
X12420801Y-15982984D01*
X12420801Y-15982984D02*
X12439849Y-15973460D01*
X12439849Y-15973460D02*
X12449372Y-15954412D01*
X12449372Y-15954412D02*
X12449372Y-15944888D01*
X12449372Y-15944888D02*
X12439849Y-15925841D01*
X12439849Y-15925841D02*
X12420801Y-15916317D01*
X12420801Y-15916317D02*
X12392230Y-15916317D01*
X12392230Y-15916317D02*
X12373182Y-15906793D01*
X12373182Y-15906793D02*
X12363658Y-15887746D01*
X12363658Y-15887746D02*
X12363658Y-15878222D01*
X12363658Y-15878222D02*
X12373182Y-15859174D01*
X12373182Y-15859174D02*
X12392230Y-15849650D01*
X12392230Y-15849650D02*
X12420801Y-15849650D01*
X12420801Y-15849650D02*
X12439849Y-15859174D01*
X12516039Y-16059174D02*
X12525563Y-16049650D01*
X12525563Y-16049650D02*
X12544611Y-16021079D01*
X12544611Y-16021079D02*
X12554134Y-16002031D01*
X12554134Y-16002031D02*
X12563658Y-15973460D01*
X12563658Y-15973460D02*
X12573182Y-15925841D01*
X12573182Y-15925841D02*
X12573182Y-15887746D01*
X12573182Y-15887746D02*
X12563658Y-15840127D01*
X12563658Y-15840127D02*
X12554134Y-15811555D01*
X12554134Y-15811555D02*
X12544611Y-15792508D01*
X12544611Y-15792508D02*
X12525563Y-15763936D01*
X12525563Y-15763936D02*
X12516039Y-15754412D01*
D11*
X7535856Y-16190856D02*
X7535856Y-16120144D01*
X7465144Y-16120144D01*
X7465144Y-16190856D01*
X7535856Y-16190856D01*
D12*
X7916039Y-16246984D02*
X7801753Y-16246984D01*
X7858896Y-16246984D02*
X7858896Y-16046984D01*
X7858896Y-16046984D02*
X7839848Y-16075555D01*
X7839848Y-16075555D02*
X7820801Y-16094603D01*
X7820801Y-16094603D02*
X7801753Y-16104127D01*
X8001753Y-16227936D02*
X8011277Y-16237460D01*
X8011277Y-16237460D02*
X8001753Y-16246984D01*
X8001753Y-16246984D02*
X7992229Y-16237460D01*
X7992229Y-16237460D02*
X8001753Y-16227936D01*
X8001753Y-16227936D02*
X8001753Y-16246984D01*
X8135086Y-16046984D02*
X8154134Y-16046984D01*
X8154134Y-16046984D02*
X8173182Y-16056508D01*
X8173182Y-16056508D02*
X8182705Y-16066031D01*
X8182705Y-16066031D02*
X8192229Y-16085079D01*
X8192229Y-16085079D02*
X8201753Y-16123174D01*
X8201753Y-16123174D02*
X8201753Y-16170793D01*
X8201753Y-16170793D02*
X8192229Y-16208888D01*
X8192229Y-16208888D02*
X8182705Y-16227936D01*
X8182705Y-16227936D02*
X8173182Y-16237460D01*
X8173182Y-16237460D02*
X8154134Y-16246984D01*
X8154134Y-16246984D02*
X8135086Y-16246984D01*
X8135086Y-16246984D02*
X8116039Y-16237460D01*
X8116039Y-16237460D02*
X8106515Y-16227936D01*
X8106515Y-16227936D02*
X8096991Y-16208888D01*
X8096991Y-16208888D02*
X8087467Y-16170793D01*
X8087467Y-16170793D02*
X8087467Y-16123174D01*
X8087467Y-16123174D02*
X8096991Y-16085079D01*
X8096991Y-16085079D02*
X8106515Y-16066031D01*
X8106515Y-16066031D02*
X8116039Y-16056508D01*
X8116039Y-16056508D02*
X8135086Y-16046984D01*
X8325562Y-16046984D02*
X8344610Y-16046984D01*
X8344610Y-16046984D02*
X8363658Y-16056508D01*
X8363658Y-16056508D02*
X8373182Y-16066031D01*
X8373182Y-16066031D02*
X8382705Y-16085079D01*
X8382705Y-16085079D02*
X8392229Y-16123174D01*
X8392229Y-16123174D02*
X8392229Y-16170793D01*
X8392229Y-16170793D02*
X8382705Y-16208888D01*
X8382705Y-16208888D02*
X8373182Y-16227936D01*
X8373182Y-16227936D02*
X8363658Y-16237460D01*
X8363658Y-16237460D02*
X8344610Y-16246984D01*
X8344610Y-16246984D02*
X8325562Y-16246984D01*
X8325562Y-16246984D02*
X8306515Y-16237460D01*
X8306515Y-16237460D02*
X8296991Y-16227936D01*
X8296991Y-16227936D02*
X8287467Y-16208888D01*
X8287467Y-16208888D02*
X8277943Y-16170793D01*
X8277943Y-16170793D02*
X8277943Y-16123174D01*
X8277943Y-16123174D02*
X8287467Y-16085079D01*
X8287467Y-16085079D02*
X8296991Y-16066031D01*
X8296991Y-16066031D02*
X8306515Y-16056508D01*
X8306515Y-16056508D02*
X8325562Y-16046984D01*
X8516039Y-16046984D02*
X8535086Y-16046984D01*
X8535086Y-16046984D02*
X8554134Y-16056508D01*
X8554134Y-16056508D02*
X8563658Y-16066031D01*
X8563658Y-16066031D02*
X8573182Y-16085079D01*
X8573182Y-16085079D02*
X8582705Y-16123174D01*
X8582705Y-16123174D02*
X8582705Y-16170793D01*
X8582705Y-16170793D02*
X8573182Y-16208888D01*
X8573182Y-16208888D02*
X8563658Y-16227936D01*
X8563658Y-16227936D02*
X8554134Y-16237460D01*
X8554134Y-16237460D02*
X8535086Y-16246984D01*
X8535086Y-16246984D02*
X8516039Y-16246984D01*
X8516039Y-16246984D02*
X8496991Y-16237460D01*
X8496991Y-16237460D02*
X8487467Y-16227936D01*
X8487467Y-16227936D02*
X8477944Y-16208888D01*
X8477944Y-16208888D02*
X8468420Y-16170793D01*
X8468420Y-16170793D02*
X8468420Y-16123174D01*
X8468420Y-16123174D02*
X8477944Y-16085079D01*
X8477944Y-16085079D02*
X8487467Y-16066031D01*
X8487467Y-16066031D02*
X8496991Y-16056508D01*
X8496991Y-16056508D02*
X8516039Y-16046984D01*
X8668420Y-16246984D02*
X8668420Y-16113650D01*
X8668420Y-16132698D02*
X8677944Y-16123174D01*
X8677944Y-16123174D02*
X8696991Y-16113650D01*
X8696991Y-16113650D02*
X8725563Y-16113650D01*
X8725563Y-16113650D02*
X8744610Y-16123174D01*
X8744610Y-16123174D02*
X8754134Y-16142222D01*
X8754134Y-16142222D02*
X8754134Y-16246984D01*
X8754134Y-16142222D02*
X8763658Y-16123174D01*
X8763658Y-16123174D02*
X8782705Y-16113650D01*
X8782705Y-16113650D02*
X8811277Y-16113650D01*
X8811277Y-16113650D02*
X8830325Y-16123174D01*
X8830325Y-16123174D02*
X8839848Y-16142222D01*
X8839848Y-16142222D02*
X8839848Y-16246984D01*
X8935086Y-16246984D02*
X8935086Y-16113650D01*
X8935086Y-16132698D02*
X8944610Y-16123174D01*
X8944610Y-16123174D02*
X8963658Y-16113650D01*
X8963658Y-16113650D02*
X8992229Y-16113650D01*
X8992229Y-16113650D02*
X9011277Y-16123174D01*
X9011277Y-16123174D02*
X9020801Y-16142222D01*
X9020801Y-16142222D02*
X9020801Y-16246984D01*
X9020801Y-16142222D02*
X9030325Y-16123174D01*
X9030325Y-16123174D02*
X9049372Y-16113650D01*
X9049372Y-16113650D02*
X9077944Y-16113650D01*
X9077944Y-16113650D02*
X9096991Y-16123174D01*
X9096991Y-16123174D02*
X9106515Y-16142222D01*
X9106515Y-16142222D02*
X9106515Y-16246984D01*
X9496991Y-16037460D02*
X9325563Y-16294603D01*
X9754134Y-16046984D02*
X9773182Y-16046984D01*
X9773182Y-16046984D02*
X9792229Y-16056508D01*
X9792229Y-16056508D02*
X9801753Y-16066031D01*
X9801753Y-16066031D02*
X9811277Y-16085079D01*
X9811277Y-16085079D02*
X9820801Y-16123174D01*
X9820801Y-16123174D02*
X9820801Y-16170793D01*
X9820801Y-16170793D02*
X9811277Y-16208888D01*
X9811277Y-16208888D02*
X9801753Y-16227936D01*
X9801753Y-16227936D02*
X9792229Y-16237460D01*
X9792229Y-16237460D02*
X9773182Y-16246984D01*
X9773182Y-16246984D02*
X9754134Y-16246984D01*
X9754134Y-16246984D02*
X9735087Y-16237460D01*
X9735087Y-16237460D02*
X9725563Y-16227936D01*
X9725563Y-16227936D02*
X9716039Y-16208888D01*
X9716039Y-16208888D02*
X9706515Y-16170793D01*
X9706515Y-16170793D02*
X9706515Y-16123174D01*
X9706515Y-16123174D02*
X9716039Y-16085079D01*
X9716039Y-16085079D02*
X9725563Y-16066031D01*
X9725563Y-16066031D02*
X9735087Y-16056508D01*
X9735087Y-16056508D02*
X9754134Y-16046984D01*
X9906515Y-16227936D02*
X9916039Y-16237460D01*
X9916039Y-16237460D02*
X9906515Y-16246984D01*
X9906515Y-16246984D02*
X9896991Y-16237460D01*
X9896991Y-16237460D02*
X9906515Y-16227936D01*
X9906515Y-16227936D02*
X9906515Y-16246984D01*
X10039848Y-16046984D02*
X10058896Y-16046984D01*
X10058896Y-16046984D02*
X10077944Y-16056508D01*
X10077944Y-16056508D02*
X10087468Y-16066031D01*
X10087468Y-16066031D02*
X10096991Y-16085079D01*
X10096991Y-16085079D02*
X10106515Y-16123174D01*
X10106515Y-16123174D02*
X10106515Y-16170793D01*
X10106515Y-16170793D02*
X10096991Y-16208888D01*
X10096991Y-16208888D02*
X10087468Y-16227936D01*
X10087468Y-16227936D02*
X10077944Y-16237460D01*
X10077944Y-16237460D02*
X10058896Y-16246984D01*
X10058896Y-16246984D02*
X10039848Y-16246984D01*
X10039848Y-16246984D02*
X10020801Y-16237460D01*
X10020801Y-16237460D02*
X10011277Y-16227936D01*
X10011277Y-16227936D02*
X10001753Y-16208888D01*
X10001753Y-16208888D02*
X9992229Y-16170793D01*
X9992229Y-16170793D02*
X9992229Y-16123174D01*
X9992229Y-16123174D02*
X10001753Y-16085079D01*
X10001753Y-16085079D02*
X10011277Y-16066031D01*
X10011277Y-16066031D02*
X10020801Y-16056508D01*
X10020801Y-16056508D02*
X10039848Y-16046984D01*
X10173182Y-16046984D02*
X10296991Y-16046984D01*
X10296991Y-16046984D02*
X10230325Y-16123174D01*
X10230325Y-16123174D02*
X10258896Y-16123174D01*
X10258896Y-16123174D02*
X10277944Y-16132698D01*
X10277944Y-16132698D02*
X10287468Y-16142222D01*
X10287468Y-16142222D02*
X10296991Y-16161269D01*
X10296991Y-16161269D02*
X10296991Y-16208888D01*
X10296991Y-16208888D02*
X10287468Y-16227936D01*
X10287468Y-16227936D02*
X10277944Y-16237460D01*
X10277944Y-16237460D02*
X10258896Y-16246984D01*
X10258896Y-16246984D02*
X10201753Y-16246984D01*
X10201753Y-16246984D02*
X10182706Y-16237460D01*
X10182706Y-16237460D02*
X10173182Y-16227936D01*
X10392229Y-16246984D02*
X10430325Y-16246984D01*
X10430325Y-16246984D02*
X10449372Y-16237460D01*
X10449372Y-16237460D02*
X10458896Y-16227936D01*
X10458896Y-16227936D02*
X10477944Y-16199365D01*
X10477944Y-16199365D02*
X10487468Y-16161269D01*
X10487468Y-16161269D02*
X10487468Y-16085079D01*
X10487468Y-16085079D02*
X10477944Y-16066031D01*
X10477944Y-16066031D02*
X10468420Y-16056508D01*
X10468420Y-16056508D02*
X10449372Y-16046984D01*
X10449372Y-16046984D02*
X10411277Y-16046984D01*
X10411277Y-16046984D02*
X10392229Y-16056508D01*
X10392229Y-16056508D02*
X10382706Y-16066031D01*
X10382706Y-16066031D02*
X10373182Y-16085079D01*
X10373182Y-16085079D02*
X10373182Y-16132698D01*
X10373182Y-16132698D02*
X10382706Y-16151746D01*
X10382706Y-16151746D02*
X10392229Y-16161269D01*
X10392229Y-16161269D02*
X10411277Y-16170793D01*
X10411277Y-16170793D02*
X10449372Y-16170793D01*
X10449372Y-16170793D02*
X10468420Y-16161269D01*
X10468420Y-16161269D02*
X10477944Y-16151746D01*
X10477944Y-16151746D02*
X10487468Y-16132698D01*
X10658896Y-16113650D02*
X10658896Y-16246984D01*
X10611277Y-16037460D02*
X10563658Y-16180317D01*
X10563658Y-16180317D02*
X10687468Y-16180317D01*
X10754134Y-16046984D02*
X10754134Y-16085079D01*
X10830325Y-16046984D02*
X10830325Y-16085079D01*
X11125563Y-16323174D02*
X11116039Y-16313650D01*
X11116039Y-16313650D02*
X11096991Y-16285079D01*
X11096991Y-16285079D02*
X11087468Y-16266031D01*
X11087468Y-16266031D02*
X11077944Y-16237460D01*
X11077944Y-16237460D02*
X11068420Y-16189841D01*
X11068420Y-16189841D02*
X11068420Y-16151746D01*
X11068420Y-16151746D02*
X11077944Y-16104127D01*
X11077944Y-16104127D02*
X11087468Y-16075555D01*
X11087468Y-16075555D02*
X11096991Y-16056508D01*
X11096991Y-16056508D02*
X11116039Y-16027936D01*
X11116039Y-16027936D02*
X11125563Y-16018412D01*
X11287468Y-16046984D02*
X11249372Y-16046984D01*
X11249372Y-16046984D02*
X11230325Y-16056508D01*
X11230325Y-16056508D02*
X11220801Y-16066031D01*
X11220801Y-16066031D02*
X11201753Y-16094603D01*
X11201753Y-16094603D02*
X11192229Y-16132698D01*
X11192229Y-16132698D02*
X11192229Y-16208888D01*
X11192229Y-16208888D02*
X11201753Y-16227936D01*
X11201753Y-16227936D02*
X11211277Y-16237460D01*
X11211277Y-16237460D02*
X11230325Y-16246984D01*
X11230325Y-16246984D02*
X11268420Y-16246984D01*
X11268420Y-16246984D02*
X11287468Y-16237460D01*
X11287468Y-16237460D02*
X11296991Y-16227936D01*
X11296991Y-16227936D02*
X11306515Y-16208888D01*
X11306515Y-16208888D02*
X11306515Y-16161269D01*
X11306515Y-16161269D02*
X11296991Y-16142222D01*
X11296991Y-16142222D02*
X11287468Y-16132698D01*
X11287468Y-16132698D02*
X11268420Y-16123174D01*
X11268420Y-16123174D02*
X11230325Y-16123174D01*
X11230325Y-16123174D02*
X11211277Y-16132698D01*
X11211277Y-16132698D02*
X11201753Y-16142222D01*
X11201753Y-16142222D02*
X11192229Y-16161269D01*
X11496991Y-16246984D02*
X11382706Y-16246984D01*
X11439848Y-16246984D02*
X11439848Y-16046984D01*
X11439848Y-16046984D02*
X11420801Y-16075555D01*
X11420801Y-16075555D02*
X11401753Y-16094603D01*
X11401753Y-16094603D02*
X11382706Y-16104127D01*
X11735087Y-16246984D02*
X11735087Y-16046984D01*
X11820801Y-16246984D02*
X11820801Y-16142222D01*
X11820801Y-16142222D02*
X11811277Y-16123174D01*
X11811277Y-16123174D02*
X11792230Y-16113650D01*
X11792230Y-16113650D02*
X11763658Y-16113650D01*
X11763658Y-16113650D02*
X11744610Y-16123174D01*
X11744610Y-16123174D02*
X11735087Y-16132698D01*
X11944610Y-16246984D02*
X11925563Y-16237460D01*
X11925563Y-16237460D02*
X11916039Y-16227936D01*
X11916039Y-16227936D02*
X11906515Y-16208888D01*
X11906515Y-16208888D02*
X11906515Y-16151746D01*
X11906515Y-16151746D02*
X11916039Y-16132698D01*
X11916039Y-16132698D02*
X11925563Y-16123174D01*
X11925563Y-16123174D02*
X11944610Y-16113650D01*
X11944610Y-16113650D02*
X11973182Y-16113650D01*
X11973182Y-16113650D02*
X11992230Y-16123174D01*
X11992230Y-16123174D02*
X12001753Y-16132698D01*
X12001753Y-16132698D02*
X12011277Y-16151746D01*
X12011277Y-16151746D02*
X12011277Y-16208888D01*
X12011277Y-16208888D02*
X12001753Y-16227936D01*
X12001753Y-16227936D02*
X11992230Y-16237460D01*
X11992230Y-16237460D02*
X11973182Y-16246984D01*
X11973182Y-16246984D02*
X11944610Y-16246984D01*
X12125563Y-16246984D02*
X12106515Y-16237460D01*
X12106515Y-16237460D02*
X12096991Y-16218412D01*
X12096991Y-16218412D02*
X12096991Y-16046984D01*
X12277944Y-16237460D02*
X12258896Y-16246984D01*
X12258896Y-16246984D02*
X12220801Y-16246984D01*
X12220801Y-16246984D02*
X12201753Y-16237460D01*
X12201753Y-16237460D02*
X12192230Y-16218412D01*
X12192230Y-16218412D02*
X12192230Y-16142222D01*
X12192230Y-16142222D02*
X12201753Y-16123174D01*
X12201753Y-16123174D02*
X12220801Y-16113650D01*
X12220801Y-16113650D02*
X12258896Y-16113650D01*
X12258896Y-16113650D02*
X12277944Y-16123174D01*
X12277944Y-16123174D02*
X12287468Y-16142222D01*
X12287468Y-16142222D02*
X12287468Y-16161269D01*
X12287468Y-16161269D02*
X12192230Y-16180317D01*
X12363658Y-16237460D02*
X12382706Y-16246984D01*
X12382706Y-16246984D02*
X12420801Y-16246984D01*
X12420801Y-16246984D02*
X12439849Y-16237460D01*
X12439849Y-16237460D02*
X12449372Y-16218412D01*
X12449372Y-16218412D02*
X12449372Y-16208888D01*
X12449372Y-16208888D02*
X12439849Y-16189841D01*
X12439849Y-16189841D02*
X12420801Y-16180317D01*
X12420801Y-16180317D02*
X12392230Y-16180317D01*
X12392230Y-16180317D02*
X12373182Y-16170793D01*
X12373182Y-16170793D02*
X12363658Y-16151746D01*
X12363658Y-16151746D02*
X12363658Y-16142222D01*
X12363658Y-16142222D02*
X12373182Y-16123174D01*
X12373182Y-16123174D02*
X12392230Y-16113650D01*
X12392230Y-16113650D02*
X12420801Y-16113650D01*
X12420801Y-16113650D02*
X12439849Y-16123174D01*
X12516039Y-16323174D02*
X12525563Y-16313650D01*
X12525563Y-16313650D02*
X12544611Y-16285079D01*
X12544611Y-16285079D02*
X12554134Y-16266031D01*
X12554134Y-16266031D02*
X12563658Y-16237460D01*
X12563658Y-16237460D02*
X12573182Y-16189841D01*
X12573182Y-16189841D02*
X12573182Y-16151746D01*
X12573182Y-16151746D02*
X12563658Y-16104127D01*
X12563658Y-16104127D02*
X12554134Y-16075555D01*
X12554134Y-16075555D02*
X12544611Y-16056508D01*
X12544611Y-16056508D02*
X12525563Y-16027936D01*
X12525563Y-16027936D02*
X12516039Y-16018412D01*
D13*
X7495500Y-16474500D02*
X7550500Y-16419500D01*
X7495500Y-16364500D01*
X7440500Y-16419500D01*
X7495500Y-16474500D01*
D12*
X7916039Y-16510984D02*
X7801753Y-16510984D01*
X7858896Y-16510984D02*
X7858896Y-16310984D01*
X7858896Y-16310984D02*
X7839848Y-16339555D01*
X7839848Y-16339555D02*
X7820801Y-16358603D01*
X7820801Y-16358603D02*
X7801753Y-16368127D01*
X8001753Y-16491936D02*
X8011277Y-16501460D01*
X8011277Y-16501460D02*
X8001753Y-16510984D01*
X8001753Y-16510984D02*
X7992229Y-16501460D01*
X7992229Y-16501460D02*
X8001753Y-16491936D01*
X8001753Y-16491936D02*
X8001753Y-16510984D01*
X8201753Y-16510984D02*
X8087467Y-16510984D01*
X8144610Y-16510984D02*
X8144610Y-16310984D01*
X8144610Y-16310984D02*
X8125562Y-16339555D01*
X8125562Y-16339555D02*
X8106515Y-16358603D01*
X8106515Y-16358603D02*
X8087467Y-16368127D01*
X8325562Y-16310984D02*
X8344610Y-16310984D01*
X8344610Y-16310984D02*
X8363658Y-16320508D01*
X8363658Y-16320508D02*
X8373182Y-16330031D01*
X8373182Y-16330031D02*
X8382705Y-16349079D01*
X8382705Y-16349079D02*
X8392229Y-16387174D01*
X8392229Y-16387174D02*
X8392229Y-16434793D01*
X8392229Y-16434793D02*
X8382705Y-16472888D01*
X8382705Y-16472888D02*
X8373182Y-16491936D01*
X8373182Y-16491936D02*
X8363658Y-16501460D01*
X8363658Y-16501460D02*
X8344610Y-16510984D01*
X8344610Y-16510984D02*
X8325562Y-16510984D01*
X8325562Y-16510984D02*
X8306515Y-16501460D01*
X8306515Y-16501460D02*
X8296991Y-16491936D01*
X8296991Y-16491936D02*
X8287467Y-16472888D01*
X8287467Y-16472888D02*
X8277943Y-16434793D01*
X8277943Y-16434793D02*
X8277943Y-16387174D01*
X8277943Y-16387174D02*
X8287467Y-16349079D01*
X8287467Y-16349079D02*
X8296991Y-16330031D01*
X8296991Y-16330031D02*
X8306515Y-16320508D01*
X8306515Y-16320508D02*
X8325562Y-16310984D01*
X8516039Y-16310984D02*
X8535086Y-16310984D01*
X8535086Y-16310984D02*
X8554134Y-16320508D01*
X8554134Y-16320508D02*
X8563658Y-16330031D01*
X8563658Y-16330031D02*
X8573182Y-16349079D01*
X8573182Y-16349079D02*
X8582705Y-16387174D01*
X8582705Y-16387174D02*
X8582705Y-16434793D01*
X8582705Y-16434793D02*
X8573182Y-16472888D01*
X8573182Y-16472888D02*
X8563658Y-16491936D01*
X8563658Y-16491936D02*
X8554134Y-16501460D01*
X8554134Y-16501460D02*
X8535086Y-16510984D01*
X8535086Y-16510984D02*
X8516039Y-16510984D01*
X8516039Y-16510984D02*
X8496991Y-16501460D01*
X8496991Y-16501460D02*
X8487467Y-16491936D01*
X8487467Y-16491936D02*
X8477944Y-16472888D01*
X8477944Y-16472888D02*
X8468420Y-16434793D01*
X8468420Y-16434793D02*
X8468420Y-16387174D01*
X8468420Y-16387174D02*
X8477944Y-16349079D01*
X8477944Y-16349079D02*
X8487467Y-16330031D01*
X8487467Y-16330031D02*
X8496991Y-16320508D01*
X8496991Y-16320508D02*
X8516039Y-16310984D01*
X8668420Y-16510984D02*
X8668420Y-16377650D01*
X8668420Y-16396698D02*
X8677944Y-16387174D01*
X8677944Y-16387174D02*
X8696991Y-16377650D01*
X8696991Y-16377650D02*
X8725563Y-16377650D01*
X8725563Y-16377650D02*
X8744610Y-16387174D01*
X8744610Y-16387174D02*
X8754134Y-16406222D01*
X8754134Y-16406222D02*
X8754134Y-16510984D01*
X8754134Y-16406222D02*
X8763658Y-16387174D01*
X8763658Y-16387174D02*
X8782705Y-16377650D01*
X8782705Y-16377650D02*
X8811277Y-16377650D01*
X8811277Y-16377650D02*
X8830325Y-16387174D01*
X8830325Y-16387174D02*
X8839848Y-16406222D01*
X8839848Y-16406222D02*
X8839848Y-16510984D01*
X8935086Y-16510984D02*
X8935086Y-16377650D01*
X8935086Y-16396698D02*
X8944610Y-16387174D01*
X8944610Y-16387174D02*
X8963658Y-16377650D01*
X8963658Y-16377650D02*
X8992229Y-16377650D01*
X8992229Y-16377650D02*
X9011277Y-16387174D01*
X9011277Y-16387174D02*
X9020801Y-16406222D01*
X9020801Y-16406222D02*
X9020801Y-16510984D01*
X9020801Y-16406222D02*
X9030325Y-16387174D01*
X9030325Y-16387174D02*
X9049372Y-16377650D01*
X9049372Y-16377650D02*
X9077944Y-16377650D01*
X9077944Y-16377650D02*
X9096991Y-16387174D01*
X9096991Y-16387174D02*
X9106515Y-16406222D01*
X9106515Y-16406222D02*
X9106515Y-16510984D01*
X9496991Y-16301460D02*
X9325563Y-16558603D01*
X9754134Y-16310984D02*
X9773182Y-16310984D01*
X9773182Y-16310984D02*
X9792229Y-16320508D01*
X9792229Y-16320508D02*
X9801753Y-16330031D01*
X9801753Y-16330031D02*
X9811277Y-16349079D01*
X9811277Y-16349079D02*
X9820801Y-16387174D01*
X9820801Y-16387174D02*
X9820801Y-16434793D01*
X9820801Y-16434793D02*
X9811277Y-16472888D01*
X9811277Y-16472888D02*
X9801753Y-16491936D01*
X9801753Y-16491936D02*
X9792229Y-16501460D01*
X9792229Y-16501460D02*
X9773182Y-16510984D01*
X9773182Y-16510984D02*
X9754134Y-16510984D01*
X9754134Y-16510984D02*
X9735087Y-16501460D01*
X9735087Y-16501460D02*
X9725563Y-16491936D01*
X9725563Y-16491936D02*
X9716039Y-16472888D01*
X9716039Y-16472888D02*
X9706515Y-16434793D01*
X9706515Y-16434793D02*
X9706515Y-16387174D01*
X9706515Y-16387174D02*
X9716039Y-16349079D01*
X9716039Y-16349079D02*
X9725563Y-16330031D01*
X9725563Y-16330031D02*
X9735087Y-16320508D01*
X9735087Y-16320508D02*
X9754134Y-16310984D01*
X9906515Y-16491936D02*
X9916039Y-16501460D01*
X9916039Y-16501460D02*
X9906515Y-16510984D01*
X9906515Y-16510984D02*
X9896991Y-16501460D01*
X9896991Y-16501460D02*
X9906515Y-16491936D01*
X9906515Y-16491936D02*
X9906515Y-16510984D01*
X10039848Y-16310984D02*
X10058896Y-16310984D01*
X10058896Y-16310984D02*
X10077944Y-16320508D01*
X10077944Y-16320508D02*
X10087468Y-16330031D01*
X10087468Y-16330031D02*
X10096991Y-16349079D01*
X10096991Y-16349079D02*
X10106515Y-16387174D01*
X10106515Y-16387174D02*
X10106515Y-16434793D01*
X10106515Y-16434793D02*
X10096991Y-16472888D01*
X10096991Y-16472888D02*
X10087468Y-16491936D01*
X10087468Y-16491936D02*
X10077944Y-16501460D01*
X10077944Y-16501460D02*
X10058896Y-16510984D01*
X10058896Y-16510984D02*
X10039848Y-16510984D01*
X10039848Y-16510984D02*
X10020801Y-16501460D01*
X10020801Y-16501460D02*
X10011277Y-16491936D01*
X10011277Y-16491936D02*
X10001753Y-16472888D01*
X10001753Y-16472888D02*
X9992229Y-16434793D01*
X9992229Y-16434793D02*
X9992229Y-16387174D01*
X9992229Y-16387174D02*
X10001753Y-16349079D01*
X10001753Y-16349079D02*
X10011277Y-16330031D01*
X10011277Y-16330031D02*
X10020801Y-16320508D01*
X10020801Y-16320508D02*
X10039848Y-16310984D01*
X10277944Y-16377650D02*
X10277944Y-16510984D01*
X10230325Y-16301460D02*
X10182706Y-16444317D01*
X10182706Y-16444317D02*
X10306515Y-16444317D01*
X10363658Y-16310984D02*
X10487468Y-16310984D01*
X10487468Y-16310984D02*
X10420801Y-16387174D01*
X10420801Y-16387174D02*
X10449372Y-16387174D01*
X10449372Y-16387174D02*
X10468420Y-16396698D01*
X10468420Y-16396698D02*
X10477944Y-16406222D01*
X10477944Y-16406222D02*
X10487468Y-16425269D01*
X10487468Y-16425269D02*
X10487468Y-16472888D01*
X10487468Y-16472888D02*
X10477944Y-16491936D01*
X10477944Y-16491936D02*
X10468420Y-16501460D01*
X10468420Y-16501460D02*
X10449372Y-16510984D01*
X10449372Y-16510984D02*
X10392229Y-16510984D01*
X10392229Y-16510984D02*
X10373182Y-16501460D01*
X10373182Y-16501460D02*
X10363658Y-16491936D01*
X10554134Y-16310984D02*
X10677944Y-16310984D01*
X10677944Y-16310984D02*
X10611277Y-16387174D01*
X10611277Y-16387174D02*
X10639849Y-16387174D01*
X10639849Y-16387174D02*
X10658896Y-16396698D01*
X10658896Y-16396698D02*
X10668420Y-16406222D01*
X10668420Y-16406222D02*
X10677944Y-16425269D01*
X10677944Y-16425269D02*
X10677944Y-16472888D01*
X10677944Y-16472888D02*
X10668420Y-16491936D01*
X10668420Y-16491936D02*
X10658896Y-16501460D01*
X10658896Y-16501460D02*
X10639849Y-16510984D01*
X10639849Y-16510984D02*
X10582706Y-16510984D01*
X10582706Y-16510984D02*
X10563658Y-16501460D01*
X10563658Y-16501460D02*
X10554134Y-16491936D01*
X10754134Y-16310984D02*
X10754134Y-16349079D01*
X10830325Y-16310984D02*
X10830325Y-16349079D01*
X11125563Y-16587174D02*
X11116039Y-16577650D01*
X11116039Y-16577650D02*
X11096991Y-16549079D01*
X11096991Y-16549079D02*
X11087468Y-16530031D01*
X11087468Y-16530031D02*
X11077944Y-16501460D01*
X11077944Y-16501460D02*
X11068420Y-16453841D01*
X11068420Y-16453841D02*
X11068420Y-16415746D01*
X11068420Y-16415746D02*
X11077944Y-16368127D01*
X11077944Y-16368127D02*
X11087468Y-16339555D01*
X11087468Y-16339555D02*
X11096991Y-16320508D01*
X11096991Y-16320508D02*
X11116039Y-16291936D01*
X11116039Y-16291936D02*
X11125563Y-16282412D01*
X11192229Y-16330031D02*
X11201753Y-16320508D01*
X11201753Y-16320508D02*
X11220801Y-16310984D01*
X11220801Y-16310984D02*
X11268420Y-16310984D01*
X11268420Y-16310984D02*
X11287468Y-16320508D01*
X11287468Y-16320508D02*
X11296991Y-16330031D01*
X11296991Y-16330031D02*
X11306515Y-16349079D01*
X11306515Y-16349079D02*
X11306515Y-16368127D01*
X11306515Y-16368127D02*
X11296991Y-16396698D01*
X11296991Y-16396698D02*
X11182706Y-16510984D01*
X11182706Y-16510984D02*
X11306515Y-16510984D01*
X11496991Y-16510984D02*
X11382706Y-16510984D01*
X11439848Y-16510984D02*
X11439848Y-16310984D01*
X11439848Y-16310984D02*
X11420801Y-16339555D01*
X11420801Y-16339555D02*
X11401753Y-16358603D01*
X11401753Y-16358603D02*
X11382706Y-16368127D01*
X11735087Y-16510984D02*
X11735087Y-16310984D01*
X11820801Y-16510984D02*
X11820801Y-16406222D01*
X11820801Y-16406222D02*
X11811277Y-16387174D01*
X11811277Y-16387174D02*
X11792230Y-16377650D01*
X11792230Y-16377650D02*
X11763658Y-16377650D01*
X11763658Y-16377650D02*
X11744610Y-16387174D01*
X11744610Y-16387174D02*
X11735087Y-16396698D01*
X11944610Y-16510984D02*
X11925563Y-16501460D01*
X11925563Y-16501460D02*
X11916039Y-16491936D01*
X11916039Y-16491936D02*
X11906515Y-16472888D01*
X11906515Y-16472888D02*
X11906515Y-16415746D01*
X11906515Y-16415746D02*
X11916039Y-16396698D01*
X11916039Y-16396698D02*
X11925563Y-16387174D01*
X11925563Y-16387174D02*
X11944610Y-16377650D01*
X11944610Y-16377650D02*
X11973182Y-16377650D01*
X11973182Y-16377650D02*
X11992230Y-16387174D01*
X11992230Y-16387174D02*
X12001753Y-16396698D01*
X12001753Y-16396698D02*
X12011277Y-16415746D01*
X12011277Y-16415746D02*
X12011277Y-16472888D01*
X12011277Y-16472888D02*
X12001753Y-16491936D01*
X12001753Y-16491936D02*
X11992230Y-16501460D01*
X11992230Y-16501460D02*
X11973182Y-16510984D01*
X11973182Y-16510984D02*
X11944610Y-16510984D01*
X12125563Y-16510984D02*
X12106515Y-16501460D01*
X12106515Y-16501460D02*
X12096991Y-16482412D01*
X12096991Y-16482412D02*
X12096991Y-16310984D01*
X12277944Y-16501460D02*
X12258896Y-16510984D01*
X12258896Y-16510984D02*
X12220801Y-16510984D01*
X12220801Y-16510984D02*
X12201753Y-16501460D01*
X12201753Y-16501460D02*
X12192230Y-16482412D01*
X12192230Y-16482412D02*
X12192230Y-16406222D01*
X12192230Y-16406222D02*
X12201753Y-16387174D01*
X12201753Y-16387174D02*
X12220801Y-16377650D01*
X12220801Y-16377650D02*
X12258896Y-16377650D01*
X12258896Y-16377650D02*
X12277944Y-16387174D01*
X12277944Y-16387174D02*
X12287468Y-16406222D01*
X12287468Y-16406222D02*
X12287468Y-16425269D01*
X12287468Y-16425269D02*
X12192230Y-16444317D01*
X12363658Y-16501460D02*
X12382706Y-16510984D01*
X12382706Y-16510984D02*
X12420801Y-16510984D01*
X12420801Y-16510984D02*
X12439849Y-16501460D01*
X12439849Y-16501460D02*
X12449372Y-16482412D01*
X12449372Y-16482412D02*
X12449372Y-16472888D01*
X12449372Y-16472888D02*
X12439849Y-16453841D01*
X12439849Y-16453841D02*
X12420801Y-16444317D01*
X12420801Y-16444317D02*
X12392230Y-16444317D01*
X12392230Y-16444317D02*
X12373182Y-16434793D01*
X12373182Y-16434793D02*
X12363658Y-16415746D01*
X12363658Y-16415746D02*
X12363658Y-16406222D01*
X12363658Y-16406222D02*
X12373182Y-16387174D01*
X12373182Y-16387174D02*
X12392230Y-16377650D01*
X12392230Y-16377650D02*
X12420801Y-16377650D01*
X12420801Y-16377650D02*
X12439849Y-16387174D01*
X12516039Y-16587174D02*
X12525563Y-16577650D01*
X12525563Y-16577650D02*
X12544611Y-16549079D01*
X12544611Y-16549079D02*
X12554134Y-16530031D01*
X12554134Y-16530031D02*
X12563658Y-16501460D01*
X12563658Y-16501460D02*
X12573182Y-16453841D01*
X12573182Y-16453841D02*
X12573182Y-16415746D01*
X12573182Y-16415746D02*
X12563658Y-16368127D01*
X12563658Y-16368127D02*
X12554134Y-16339555D01*
X12554134Y-16339555D02*
X12544611Y-16320508D01*
X12544611Y-16320508D02*
X12525563Y-16291936D01*
X12525563Y-16291936D02*
X12516039Y-16282412D01*
D10*
X7400500Y-16608500D02*
X7550500Y-16758500D01*
X7550500Y-16608500D02*
X7400500Y-16758500D01*
X7550500Y-16683500D02*
G75*
G03*
X7550500Y-16683500I-75000J0D01*
G01*
D12*
X7916039Y-16774984D02*
X7801753Y-16774984D01*
X7858896Y-16774984D02*
X7858896Y-16574984D01*
X7858896Y-16574984D02*
X7839848Y-16603555D01*
X7839848Y-16603555D02*
X7820801Y-16622603D01*
X7820801Y-16622603D02*
X7801753Y-16632127D01*
X8001753Y-16755936D02*
X8011277Y-16765460D01*
X8011277Y-16765460D02*
X8001753Y-16774984D01*
X8001753Y-16774984D02*
X7992229Y-16765460D01*
X7992229Y-16765460D02*
X8001753Y-16755936D01*
X8001753Y-16755936D02*
X8001753Y-16774984D01*
X8192229Y-16574984D02*
X8096991Y-16574984D01*
X8096991Y-16574984D02*
X8087467Y-16670222D01*
X8087467Y-16670222D02*
X8096991Y-16660698D01*
X8096991Y-16660698D02*
X8116039Y-16651174D01*
X8116039Y-16651174D02*
X8163658Y-16651174D01*
X8163658Y-16651174D02*
X8182705Y-16660698D01*
X8182705Y-16660698D02*
X8192229Y-16670222D01*
X8192229Y-16670222D02*
X8201753Y-16689269D01*
X8201753Y-16689269D02*
X8201753Y-16736888D01*
X8201753Y-16736888D02*
X8192229Y-16755936D01*
X8192229Y-16755936D02*
X8182705Y-16765460D01*
X8182705Y-16765460D02*
X8163658Y-16774984D01*
X8163658Y-16774984D02*
X8116039Y-16774984D01*
X8116039Y-16774984D02*
X8096991Y-16765460D01*
X8096991Y-16765460D02*
X8087467Y-16755936D01*
X8325562Y-16574984D02*
X8344610Y-16574984D01*
X8344610Y-16574984D02*
X8363658Y-16584508D01*
X8363658Y-16584508D02*
X8373182Y-16594031D01*
X8373182Y-16594031D02*
X8382705Y-16613079D01*
X8382705Y-16613079D02*
X8392229Y-16651174D01*
X8392229Y-16651174D02*
X8392229Y-16698793D01*
X8392229Y-16698793D02*
X8382705Y-16736888D01*
X8382705Y-16736888D02*
X8373182Y-16755936D01*
X8373182Y-16755936D02*
X8363658Y-16765460D01*
X8363658Y-16765460D02*
X8344610Y-16774984D01*
X8344610Y-16774984D02*
X8325562Y-16774984D01*
X8325562Y-16774984D02*
X8306515Y-16765460D01*
X8306515Y-16765460D02*
X8296991Y-16755936D01*
X8296991Y-16755936D02*
X8287467Y-16736888D01*
X8287467Y-16736888D02*
X8277943Y-16698793D01*
X8277943Y-16698793D02*
X8277943Y-16651174D01*
X8277943Y-16651174D02*
X8287467Y-16613079D01*
X8287467Y-16613079D02*
X8296991Y-16594031D01*
X8296991Y-16594031D02*
X8306515Y-16584508D01*
X8306515Y-16584508D02*
X8325562Y-16574984D01*
X8516039Y-16574984D02*
X8535086Y-16574984D01*
X8535086Y-16574984D02*
X8554134Y-16584508D01*
X8554134Y-16584508D02*
X8563658Y-16594031D01*
X8563658Y-16594031D02*
X8573182Y-16613079D01*
X8573182Y-16613079D02*
X8582705Y-16651174D01*
X8582705Y-16651174D02*
X8582705Y-16698793D01*
X8582705Y-16698793D02*
X8573182Y-16736888D01*
X8573182Y-16736888D02*
X8563658Y-16755936D01*
X8563658Y-16755936D02*
X8554134Y-16765460D01*
X8554134Y-16765460D02*
X8535086Y-16774984D01*
X8535086Y-16774984D02*
X8516039Y-16774984D01*
X8516039Y-16774984D02*
X8496991Y-16765460D01*
X8496991Y-16765460D02*
X8487467Y-16755936D01*
X8487467Y-16755936D02*
X8477944Y-16736888D01*
X8477944Y-16736888D02*
X8468420Y-16698793D01*
X8468420Y-16698793D02*
X8468420Y-16651174D01*
X8468420Y-16651174D02*
X8477944Y-16613079D01*
X8477944Y-16613079D02*
X8487467Y-16594031D01*
X8487467Y-16594031D02*
X8496991Y-16584508D01*
X8496991Y-16584508D02*
X8516039Y-16574984D01*
X8668420Y-16774984D02*
X8668420Y-16641650D01*
X8668420Y-16660698D02*
X8677944Y-16651174D01*
X8677944Y-16651174D02*
X8696991Y-16641650D01*
X8696991Y-16641650D02*
X8725563Y-16641650D01*
X8725563Y-16641650D02*
X8744610Y-16651174D01*
X8744610Y-16651174D02*
X8754134Y-16670222D01*
X8754134Y-16670222D02*
X8754134Y-16774984D01*
X8754134Y-16670222D02*
X8763658Y-16651174D01*
X8763658Y-16651174D02*
X8782705Y-16641650D01*
X8782705Y-16641650D02*
X8811277Y-16641650D01*
X8811277Y-16641650D02*
X8830325Y-16651174D01*
X8830325Y-16651174D02*
X8839848Y-16670222D01*
X8839848Y-16670222D02*
X8839848Y-16774984D01*
X8935086Y-16774984D02*
X8935086Y-16641650D01*
X8935086Y-16660698D02*
X8944610Y-16651174D01*
X8944610Y-16651174D02*
X8963658Y-16641650D01*
X8963658Y-16641650D02*
X8992229Y-16641650D01*
X8992229Y-16641650D02*
X9011277Y-16651174D01*
X9011277Y-16651174D02*
X9020801Y-16670222D01*
X9020801Y-16670222D02*
X9020801Y-16774984D01*
X9020801Y-16670222D02*
X9030325Y-16651174D01*
X9030325Y-16651174D02*
X9049372Y-16641650D01*
X9049372Y-16641650D02*
X9077944Y-16641650D01*
X9077944Y-16641650D02*
X9096991Y-16651174D01*
X9096991Y-16651174D02*
X9106515Y-16670222D01*
X9106515Y-16670222D02*
X9106515Y-16774984D01*
X9496991Y-16565460D02*
X9325563Y-16822603D01*
X9754134Y-16574984D02*
X9773182Y-16574984D01*
X9773182Y-16574984D02*
X9792229Y-16584508D01*
X9792229Y-16584508D02*
X9801753Y-16594031D01*
X9801753Y-16594031D02*
X9811277Y-16613079D01*
X9811277Y-16613079D02*
X9820801Y-16651174D01*
X9820801Y-16651174D02*
X9820801Y-16698793D01*
X9820801Y-16698793D02*
X9811277Y-16736888D01*
X9811277Y-16736888D02*
X9801753Y-16755936D01*
X9801753Y-16755936D02*
X9792229Y-16765460D01*
X9792229Y-16765460D02*
X9773182Y-16774984D01*
X9773182Y-16774984D02*
X9754134Y-16774984D01*
X9754134Y-16774984D02*
X9735087Y-16765460D01*
X9735087Y-16765460D02*
X9725563Y-16755936D01*
X9725563Y-16755936D02*
X9716039Y-16736888D01*
X9716039Y-16736888D02*
X9706515Y-16698793D01*
X9706515Y-16698793D02*
X9706515Y-16651174D01*
X9706515Y-16651174D02*
X9716039Y-16613079D01*
X9716039Y-16613079D02*
X9725563Y-16594031D01*
X9725563Y-16594031D02*
X9735087Y-16584508D01*
X9735087Y-16584508D02*
X9754134Y-16574984D01*
X9906515Y-16755936D02*
X9916039Y-16765460D01*
X9916039Y-16765460D02*
X9906515Y-16774984D01*
X9906515Y-16774984D02*
X9896991Y-16765460D01*
X9896991Y-16765460D02*
X9906515Y-16755936D01*
X9906515Y-16755936D02*
X9906515Y-16774984D01*
X10039848Y-16574984D02*
X10058896Y-16574984D01*
X10058896Y-16574984D02*
X10077944Y-16584508D01*
X10077944Y-16584508D02*
X10087468Y-16594031D01*
X10087468Y-16594031D02*
X10096991Y-16613079D01*
X10096991Y-16613079D02*
X10106515Y-16651174D01*
X10106515Y-16651174D02*
X10106515Y-16698793D01*
X10106515Y-16698793D02*
X10096991Y-16736888D01*
X10096991Y-16736888D02*
X10087468Y-16755936D01*
X10087468Y-16755936D02*
X10077944Y-16765460D01*
X10077944Y-16765460D02*
X10058896Y-16774984D01*
X10058896Y-16774984D02*
X10039848Y-16774984D01*
X10039848Y-16774984D02*
X10020801Y-16765460D01*
X10020801Y-16765460D02*
X10011277Y-16755936D01*
X10011277Y-16755936D02*
X10001753Y-16736888D01*
X10001753Y-16736888D02*
X9992229Y-16698793D01*
X9992229Y-16698793D02*
X9992229Y-16651174D01*
X9992229Y-16651174D02*
X10001753Y-16613079D01*
X10001753Y-16613079D02*
X10011277Y-16594031D01*
X10011277Y-16594031D02*
X10020801Y-16584508D01*
X10020801Y-16584508D02*
X10039848Y-16574984D01*
X10287468Y-16574984D02*
X10192229Y-16574984D01*
X10192229Y-16574984D02*
X10182706Y-16670222D01*
X10182706Y-16670222D02*
X10192229Y-16660698D01*
X10192229Y-16660698D02*
X10211277Y-16651174D01*
X10211277Y-16651174D02*
X10258896Y-16651174D01*
X10258896Y-16651174D02*
X10277944Y-16660698D01*
X10277944Y-16660698D02*
X10287468Y-16670222D01*
X10287468Y-16670222D02*
X10296991Y-16689269D01*
X10296991Y-16689269D02*
X10296991Y-16736888D01*
X10296991Y-16736888D02*
X10287468Y-16755936D01*
X10287468Y-16755936D02*
X10277944Y-16765460D01*
X10277944Y-16765460D02*
X10258896Y-16774984D01*
X10258896Y-16774984D02*
X10211277Y-16774984D01*
X10211277Y-16774984D02*
X10192229Y-16765460D01*
X10192229Y-16765460D02*
X10182706Y-16755936D01*
X10392229Y-16774984D02*
X10430325Y-16774984D01*
X10430325Y-16774984D02*
X10449372Y-16765460D01*
X10449372Y-16765460D02*
X10458896Y-16755936D01*
X10458896Y-16755936D02*
X10477944Y-16727365D01*
X10477944Y-16727365D02*
X10487468Y-16689269D01*
X10487468Y-16689269D02*
X10487468Y-16613079D01*
X10487468Y-16613079D02*
X10477944Y-16594031D01*
X10477944Y-16594031D02*
X10468420Y-16584508D01*
X10468420Y-16584508D02*
X10449372Y-16574984D01*
X10449372Y-16574984D02*
X10411277Y-16574984D01*
X10411277Y-16574984D02*
X10392229Y-16584508D01*
X10392229Y-16584508D02*
X10382706Y-16594031D01*
X10382706Y-16594031D02*
X10373182Y-16613079D01*
X10373182Y-16613079D02*
X10373182Y-16660698D01*
X10373182Y-16660698D02*
X10382706Y-16679746D01*
X10382706Y-16679746D02*
X10392229Y-16689269D01*
X10392229Y-16689269D02*
X10411277Y-16698793D01*
X10411277Y-16698793D02*
X10449372Y-16698793D01*
X10449372Y-16698793D02*
X10468420Y-16689269D01*
X10468420Y-16689269D02*
X10477944Y-16679746D01*
X10477944Y-16679746D02*
X10487468Y-16660698D01*
X10677944Y-16774984D02*
X10563658Y-16774984D01*
X10620801Y-16774984D02*
X10620801Y-16574984D01*
X10620801Y-16574984D02*
X10601753Y-16603555D01*
X10601753Y-16603555D02*
X10582706Y-16622603D01*
X10582706Y-16622603D02*
X10563658Y-16632127D01*
X10754134Y-16574984D02*
X10754134Y-16613079D01*
X10830325Y-16574984D02*
X10830325Y-16613079D01*
X11125563Y-16851174D02*
X11116039Y-16841650D01*
X11116039Y-16841650D02*
X11096991Y-16813079D01*
X11096991Y-16813079D02*
X11087468Y-16794031D01*
X11087468Y-16794031D02*
X11077944Y-16765460D01*
X11077944Y-16765460D02*
X11068420Y-16717841D01*
X11068420Y-16717841D02*
X11068420Y-16679746D01*
X11068420Y-16679746D02*
X11077944Y-16632127D01*
X11077944Y-16632127D02*
X11087468Y-16603555D01*
X11087468Y-16603555D02*
X11096991Y-16584508D01*
X11096991Y-16584508D02*
X11116039Y-16555936D01*
X11116039Y-16555936D02*
X11125563Y-16546412D01*
X11192229Y-16594031D02*
X11201753Y-16584508D01*
X11201753Y-16584508D02*
X11220801Y-16574984D01*
X11220801Y-16574984D02*
X11268420Y-16574984D01*
X11268420Y-16574984D02*
X11287468Y-16584508D01*
X11287468Y-16584508D02*
X11296991Y-16594031D01*
X11296991Y-16594031D02*
X11306515Y-16613079D01*
X11306515Y-16613079D02*
X11306515Y-16632127D01*
X11306515Y-16632127D02*
X11296991Y-16660698D01*
X11296991Y-16660698D02*
X11182706Y-16774984D01*
X11182706Y-16774984D02*
X11306515Y-16774984D01*
X11544610Y-16774984D02*
X11544610Y-16574984D01*
X11630325Y-16774984D02*
X11630325Y-16670222D01*
X11630325Y-16670222D02*
X11620801Y-16651174D01*
X11620801Y-16651174D02*
X11601753Y-16641650D01*
X11601753Y-16641650D02*
X11573182Y-16641650D01*
X11573182Y-16641650D02*
X11554134Y-16651174D01*
X11554134Y-16651174D02*
X11544610Y-16660698D01*
X11754134Y-16774984D02*
X11735087Y-16765460D01*
X11735087Y-16765460D02*
X11725563Y-16755936D01*
X11725563Y-16755936D02*
X11716039Y-16736888D01*
X11716039Y-16736888D02*
X11716039Y-16679746D01*
X11716039Y-16679746D02*
X11725563Y-16660698D01*
X11725563Y-16660698D02*
X11735087Y-16651174D01*
X11735087Y-16651174D02*
X11754134Y-16641650D01*
X11754134Y-16641650D02*
X11782706Y-16641650D01*
X11782706Y-16641650D02*
X11801753Y-16651174D01*
X11801753Y-16651174D02*
X11811277Y-16660698D01*
X11811277Y-16660698D02*
X11820801Y-16679746D01*
X11820801Y-16679746D02*
X11820801Y-16736888D01*
X11820801Y-16736888D02*
X11811277Y-16755936D01*
X11811277Y-16755936D02*
X11801753Y-16765460D01*
X11801753Y-16765460D02*
X11782706Y-16774984D01*
X11782706Y-16774984D02*
X11754134Y-16774984D01*
X11935087Y-16774984D02*
X11916039Y-16765460D01*
X11916039Y-16765460D02*
X11906515Y-16746412D01*
X11906515Y-16746412D02*
X11906515Y-16574984D01*
X12087468Y-16765460D02*
X12068420Y-16774984D01*
X12068420Y-16774984D02*
X12030325Y-16774984D01*
X12030325Y-16774984D02*
X12011277Y-16765460D01*
X12011277Y-16765460D02*
X12001753Y-16746412D01*
X12001753Y-16746412D02*
X12001753Y-16670222D01*
X12001753Y-16670222D02*
X12011277Y-16651174D01*
X12011277Y-16651174D02*
X12030325Y-16641650D01*
X12030325Y-16641650D02*
X12068420Y-16641650D01*
X12068420Y-16641650D02*
X12087468Y-16651174D01*
X12087468Y-16651174D02*
X12096991Y-16670222D01*
X12096991Y-16670222D02*
X12096991Y-16689269D01*
X12096991Y-16689269D02*
X12001753Y-16708317D01*
X12173182Y-16765460D02*
X12192230Y-16774984D01*
X12192230Y-16774984D02*
X12230325Y-16774984D01*
X12230325Y-16774984D02*
X12249372Y-16765460D01*
X12249372Y-16765460D02*
X12258896Y-16746412D01*
X12258896Y-16746412D02*
X12258896Y-16736888D01*
X12258896Y-16736888D02*
X12249372Y-16717841D01*
X12249372Y-16717841D02*
X12230325Y-16708317D01*
X12230325Y-16708317D02*
X12201753Y-16708317D01*
X12201753Y-16708317D02*
X12182706Y-16698793D01*
X12182706Y-16698793D02*
X12173182Y-16679746D01*
X12173182Y-16679746D02*
X12173182Y-16670222D01*
X12173182Y-16670222D02*
X12182706Y-16651174D01*
X12182706Y-16651174D02*
X12201753Y-16641650D01*
X12201753Y-16641650D02*
X12230325Y-16641650D01*
X12230325Y-16641650D02*
X12249372Y-16651174D01*
X12325563Y-16851174D02*
X12335087Y-16841650D01*
X12335087Y-16841650D02*
X12354134Y-16813079D01*
X12354134Y-16813079D02*
X12363658Y-16794031D01*
X12363658Y-16794031D02*
X12373182Y-16765460D01*
X12373182Y-16765460D02*
X12382706Y-16717841D01*
X12382706Y-16717841D02*
X12382706Y-16679746D01*
X12382706Y-16679746D02*
X12373182Y-16632127D01*
X12373182Y-16632127D02*
X12363658Y-16603555D01*
X12363658Y-16603555D02*
X12354134Y-16584508D01*
X12354134Y-16584508D02*
X12335087Y-16555936D01*
X12335087Y-16555936D02*
X12325563Y-16546412D01*
X7350500Y-16853500D02*
X7550500Y-17053500D01*
X7550500Y-16853500D02*
X7350500Y-17053500D01*
X7450500Y-16853500D02*
X7450500Y-17053500D01*
X7350500Y-16953500D02*
X7550500Y-16953500D01*
X7896991Y-16911650D02*
X7896991Y-17044984D01*
X7849372Y-16835460D02*
X7801753Y-16978317D01*
X7801753Y-16978317D02*
X7925562Y-16978317D01*
X8001753Y-17025936D02*
X8011277Y-17035460D01*
X8011277Y-17035460D02*
X8001753Y-17044984D01*
X8001753Y-17044984D02*
X7992229Y-17035460D01*
X7992229Y-17035460D02*
X8001753Y-17025936D01*
X8001753Y-17025936D02*
X8001753Y-17044984D01*
X8192229Y-16844984D02*
X8096991Y-16844984D01*
X8096991Y-16844984D02*
X8087467Y-16940222D01*
X8087467Y-16940222D02*
X8096991Y-16930698D01*
X8096991Y-16930698D02*
X8116039Y-16921174D01*
X8116039Y-16921174D02*
X8163658Y-16921174D01*
X8163658Y-16921174D02*
X8182705Y-16930698D01*
X8182705Y-16930698D02*
X8192229Y-16940222D01*
X8192229Y-16940222D02*
X8201753Y-16959270D01*
X8201753Y-16959270D02*
X8201753Y-17006889D01*
X8201753Y-17006889D02*
X8192229Y-17025936D01*
X8192229Y-17025936D02*
X8182705Y-17035460D01*
X8182705Y-17035460D02*
X8163658Y-17044984D01*
X8163658Y-17044984D02*
X8116039Y-17044984D01*
X8116039Y-17044984D02*
X8096991Y-17035460D01*
X8096991Y-17035460D02*
X8087467Y-17025936D01*
X8325562Y-16844984D02*
X8344610Y-16844984D01*
X8344610Y-16844984D02*
X8363658Y-16854508D01*
X8363658Y-16854508D02*
X8373182Y-16864031D01*
X8373182Y-16864031D02*
X8382705Y-16883079D01*
X8382705Y-16883079D02*
X8392229Y-16921174D01*
X8392229Y-16921174D02*
X8392229Y-16968793D01*
X8392229Y-16968793D02*
X8382705Y-17006889D01*
X8382705Y-17006889D02*
X8373182Y-17025936D01*
X8373182Y-17025936D02*
X8363658Y-17035460D01*
X8363658Y-17035460D02*
X8344610Y-17044984D01*
X8344610Y-17044984D02*
X8325562Y-17044984D01*
X8325562Y-17044984D02*
X8306515Y-17035460D01*
X8306515Y-17035460D02*
X8296991Y-17025936D01*
X8296991Y-17025936D02*
X8287467Y-17006889D01*
X8287467Y-17006889D02*
X8277943Y-16968793D01*
X8277943Y-16968793D02*
X8277943Y-16921174D01*
X8277943Y-16921174D02*
X8287467Y-16883079D01*
X8287467Y-16883079D02*
X8296991Y-16864031D01*
X8296991Y-16864031D02*
X8306515Y-16854508D01*
X8306515Y-16854508D02*
X8325562Y-16844984D01*
X8516039Y-16844984D02*
X8535086Y-16844984D01*
X8535086Y-16844984D02*
X8554134Y-16854508D01*
X8554134Y-16854508D02*
X8563658Y-16864031D01*
X8563658Y-16864031D02*
X8573182Y-16883079D01*
X8573182Y-16883079D02*
X8582705Y-16921174D01*
X8582705Y-16921174D02*
X8582705Y-16968793D01*
X8582705Y-16968793D02*
X8573182Y-17006889D01*
X8573182Y-17006889D02*
X8563658Y-17025936D01*
X8563658Y-17025936D02*
X8554134Y-17035460D01*
X8554134Y-17035460D02*
X8535086Y-17044984D01*
X8535086Y-17044984D02*
X8516039Y-17044984D01*
X8516039Y-17044984D02*
X8496991Y-17035460D01*
X8496991Y-17035460D02*
X8487467Y-17025936D01*
X8487467Y-17025936D02*
X8477944Y-17006889D01*
X8477944Y-17006889D02*
X8468420Y-16968793D01*
X8468420Y-16968793D02*
X8468420Y-16921174D01*
X8468420Y-16921174D02*
X8477944Y-16883079D01*
X8477944Y-16883079D02*
X8487467Y-16864031D01*
X8487467Y-16864031D02*
X8496991Y-16854508D01*
X8496991Y-16854508D02*
X8516039Y-16844984D01*
X8668420Y-17044984D02*
X8668420Y-16911650D01*
X8668420Y-16930698D02*
X8677944Y-16921174D01*
X8677944Y-16921174D02*
X8696991Y-16911650D01*
X8696991Y-16911650D02*
X8725563Y-16911650D01*
X8725563Y-16911650D02*
X8744610Y-16921174D01*
X8744610Y-16921174D02*
X8754134Y-16940222D01*
X8754134Y-16940222D02*
X8754134Y-17044984D01*
X8754134Y-16940222D02*
X8763658Y-16921174D01*
X8763658Y-16921174D02*
X8782705Y-16911650D01*
X8782705Y-16911650D02*
X8811277Y-16911650D01*
X8811277Y-16911650D02*
X8830325Y-16921174D01*
X8830325Y-16921174D02*
X8839848Y-16940222D01*
X8839848Y-16940222D02*
X8839848Y-17044984D01*
X8935086Y-17044984D02*
X8935086Y-16911650D01*
X8935086Y-16930698D02*
X8944610Y-16921174D01*
X8944610Y-16921174D02*
X8963658Y-16911650D01*
X8963658Y-16911650D02*
X8992229Y-16911650D01*
X8992229Y-16911650D02*
X9011277Y-16921174D01*
X9011277Y-16921174D02*
X9020801Y-16940222D01*
X9020801Y-16940222D02*
X9020801Y-17044984D01*
X9020801Y-16940222D02*
X9030325Y-16921174D01*
X9030325Y-16921174D02*
X9049372Y-16911650D01*
X9049372Y-16911650D02*
X9077944Y-16911650D01*
X9077944Y-16911650D02*
X9096991Y-16921174D01*
X9096991Y-16921174D02*
X9106515Y-16940222D01*
X9106515Y-16940222D02*
X9106515Y-17044984D01*
X9496991Y-16835460D02*
X9325563Y-17092603D01*
X9754134Y-16844984D02*
X9773182Y-16844984D01*
X9773182Y-16844984D02*
X9792229Y-16854508D01*
X9792229Y-16854508D02*
X9801753Y-16864031D01*
X9801753Y-16864031D02*
X9811277Y-16883079D01*
X9811277Y-16883079D02*
X9820801Y-16921174D01*
X9820801Y-16921174D02*
X9820801Y-16968793D01*
X9820801Y-16968793D02*
X9811277Y-17006889D01*
X9811277Y-17006889D02*
X9801753Y-17025936D01*
X9801753Y-17025936D02*
X9792229Y-17035460D01*
X9792229Y-17035460D02*
X9773182Y-17044984D01*
X9773182Y-17044984D02*
X9754134Y-17044984D01*
X9754134Y-17044984D02*
X9735087Y-17035460D01*
X9735087Y-17035460D02*
X9725563Y-17025936D01*
X9725563Y-17025936D02*
X9716039Y-17006889D01*
X9716039Y-17006889D02*
X9706515Y-16968793D01*
X9706515Y-16968793D02*
X9706515Y-16921174D01*
X9706515Y-16921174D02*
X9716039Y-16883079D01*
X9716039Y-16883079D02*
X9725563Y-16864031D01*
X9725563Y-16864031D02*
X9735087Y-16854508D01*
X9735087Y-16854508D02*
X9754134Y-16844984D01*
X9906515Y-17025936D02*
X9916039Y-17035460D01*
X9916039Y-17035460D02*
X9906515Y-17044984D01*
X9906515Y-17044984D02*
X9896991Y-17035460D01*
X9896991Y-17035460D02*
X9906515Y-17025936D01*
X9906515Y-17025936D02*
X9906515Y-17044984D01*
X10106515Y-17044984D02*
X9992229Y-17044984D01*
X10049372Y-17044984D02*
X10049372Y-16844984D01*
X10049372Y-16844984D02*
X10030325Y-16873555D01*
X10030325Y-16873555D02*
X10011277Y-16892603D01*
X10011277Y-16892603D02*
X9992229Y-16902127D01*
X10173182Y-16844984D02*
X10306515Y-16844984D01*
X10306515Y-16844984D02*
X10220801Y-17044984D01*
X10363658Y-16844984D02*
X10496991Y-16844984D01*
X10496991Y-16844984D02*
X10411277Y-17044984D01*
X10563658Y-16864031D02*
X10573182Y-16854508D01*
X10573182Y-16854508D02*
X10592229Y-16844984D01*
X10592229Y-16844984D02*
X10639849Y-16844984D01*
X10639849Y-16844984D02*
X10658896Y-16854508D01*
X10658896Y-16854508D02*
X10668420Y-16864031D01*
X10668420Y-16864031D02*
X10677944Y-16883079D01*
X10677944Y-16883079D02*
X10677944Y-16902127D01*
X10677944Y-16902127D02*
X10668420Y-16930698D01*
X10668420Y-16930698D02*
X10554134Y-17044984D01*
X10554134Y-17044984D02*
X10677944Y-17044984D01*
X10754134Y-16844984D02*
X10754134Y-16883079D01*
X10830325Y-16844984D02*
X10830325Y-16883079D01*
X11125563Y-17121174D02*
X11116039Y-17111650D01*
X11116039Y-17111650D02*
X11096991Y-17083079D01*
X11096991Y-17083079D02*
X11087468Y-17064031D01*
X11087468Y-17064031D02*
X11077944Y-17035460D01*
X11077944Y-17035460D02*
X11068420Y-16987841D01*
X11068420Y-16987841D02*
X11068420Y-16949746D01*
X11068420Y-16949746D02*
X11077944Y-16902127D01*
X11077944Y-16902127D02*
X11087468Y-16873555D01*
X11087468Y-16873555D02*
X11096991Y-16854508D01*
X11096991Y-16854508D02*
X11116039Y-16825936D01*
X11116039Y-16825936D02*
X11125563Y-16816412D01*
X11192229Y-16864031D02*
X11201753Y-16854508D01*
X11201753Y-16854508D02*
X11220801Y-16844984D01*
X11220801Y-16844984D02*
X11268420Y-16844984D01*
X11268420Y-16844984D02*
X11287468Y-16854508D01*
X11287468Y-16854508D02*
X11296991Y-16864031D01*
X11296991Y-16864031D02*
X11306515Y-16883079D01*
X11306515Y-16883079D02*
X11306515Y-16902127D01*
X11306515Y-16902127D02*
X11296991Y-16930698D01*
X11296991Y-16930698D02*
X11182706Y-17044984D01*
X11182706Y-17044984D02*
X11306515Y-17044984D01*
X11544610Y-17044984D02*
X11544610Y-16844984D01*
X11630325Y-17044984D02*
X11630325Y-16940222D01*
X11630325Y-16940222D02*
X11620801Y-16921174D01*
X11620801Y-16921174D02*
X11601753Y-16911650D01*
X11601753Y-16911650D02*
X11573182Y-16911650D01*
X11573182Y-16911650D02*
X11554134Y-16921174D01*
X11554134Y-16921174D02*
X11544610Y-16930698D01*
X11754134Y-17044984D02*
X11735087Y-17035460D01*
X11735087Y-17035460D02*
X11725563Y-17025936D01*
X11725563Y-17025936D02*
X11716039Y-17006889D01*
X11716039Y-17006889D02*
X11716039Y-16949746D01*
X11716039Y-16949746D02*
X11725563Y-16930698D01*
X11725563Y-16930698D02*
X11735087Y-16921174D01*
X11735087Y-16921174D02*
X11754134Y-16911650D01*
X11754134Y-16911650D02*
X11782706Y-16911650D01*
X11782706Y-16911650D02*
X11801753Y-16921174D01*
X11801753Y-16921174D02*
X11811277Y-16930698D01*
X11811277Y-16930698D02*
X11820801Y-16949746D01*
X11820801Y-16949746D02*
X11820801Y-17006889D01*
X11820801Y-17006889D02*
X11811277Y-17025936D01*
X11811277Y-17025936D02*
X11801753Y-17035460D01*
X11801753Y-17035460D02*
X11782706Y-17044984D01*
X11782706Y-17044984D02*
X11754134Y-17044984D01*
X11935087Y-17044984D02*
X11916039Y-17035460D01*
X11916039Y-17035460D02*
X11906515Y-17016412D01*
X11906515Y-17016412D02*
X11906515Y-16844984D01*
X12087468Y-17035460D02*
X12068420Y-17044984D01*
X12068420Y-17044984D02*
X12030325Y-17044984D01*
X12030325Y-17044984D02*
X12011277Y-17035460D01*
X12011277Y-17035460D02*
X12001753Y-17016412D01*
X12001753Y-17016412D02*
X12001753Y-16940222D01*
X12001753Y-16940222D02*
X12011277Y-16921174D01*
X12011277Y-16921174D02*
X12030325Y-16911650D01*
X12030325Y-16911650D02*
X12068420Y-16911650D01*
X12068420Y-16911650D02*
X12087468Y-16921174D01*
X12087468Y-16921174D02*
X12096991Y-16940222D01*
X12096991Y-16940222D02*
X12096991Y-16959270D01*
X12096991Y-16959270D02*
X12001753Y-16978317D01*
X12173182Y-17035460D02*
X12192230Y-17044984D01*
X12192230Y-17044984D02*
X12230325Y-17044984D01*
X12230325Y-17044984D02*
X12249372Y-17035460D01*
X12249372Y-17035460D02*
X12258896Y-17016412D01*
X12258896Y-17016412D02*
X12258896Y-17006889D01*
X12258896Y-17006889D02*
X12249372Y-16987841D01*
X12249372Y-16987841D02*
X12230325Y-16978317D01*
X12230325Y-16978317D02*
X12201753Y-16978317D01*
X12201753Y-16978317D02*
X12182706Y-16968793D01*
X12182706Y-16968793D02*
X12173182Y-16949746D01*
X12173182Y-16949746D02*
X12173182Y-16940222D01*
X12173182Y-16940222D02*
X12182706Y-16921174D01*
X12182706Y-16921174D02*
X12201753Y-16911650D01*
X12201753Y-16911650D02*
X12230325Y-16911650D01*
X12230325Y-16911650D02*
X12249372Y-16921174D01*
X12325563Y-17121174D02*
X12335087Y-17111650D01*
X12335087Y-17111650D02*
X12354134Y-17083079D01*
X12354134Y-17083079D02*
X12363658Y-17064031D01*
X12363658Y-17064031D02*
X12373182Y-17035460D01*
X12373182Y-17035460D02*
X12382706Y-16987841D01*
X12382706Y-16987841D02*
X12382706Y-16949746D01*
X12382706Y-16949746D02*
X12373182Y-16902127D01*
X12373182Y-16902127D02*
X12363658Y-16873555D01*
X12363658Y-16873555D02*
X12354134Y-16854508D01*
X12354134Y-16854508D02*
X12335087Y-16825936D01*
X12335087Y-16825936D02*
X12325563Y-16816412D01*
M02*
