%TF.GenerationSoftware,KiCad,Pcbnew,7.0.9-7.0.9~ubuntu22.04.1*%
%TF.CreationDate,2024-01-11T12:11:02+01:00*%
%TF.ProjectId,circuit,63697263-7569-4742-9e6b-696361645f70,rev?*%
%TF.SameCoordinates,Original*%
%TF.FileFunction,AssemblyDrawing,Top*%
%FSLAX46Y46*%
G04 Gerber Fmt 4.6, Leading zero omitted, Abs format (unit mm)*
G04 Created by KiCad (PCBNEW 7.0.9-7.0.9~ubuntu22.04.1) date 2024-01-11 12:11:02*
%MOMM*%
%LPD*%
G01*
G04 APERTURE LIST*
%ADD10C,0.150000*%
%ADD11C,0.100000*%
%ADD12C,0.120000*%
G04 APERTURE END LIST*
D10*
X108844819Y-59229523D02*
X108844819Y-58610476D01*
X108844819Y-58610476D02*
X109225771Y-58943809D01*
X109225771Y-58943809D02*
X109225771Y-58800952D01*
X109225771Y-58800952D02*
X109273390Y-58705714D01*
X109273390Y-58705714D02*
X109321009Y-58658095D01*
X109321009Y-58658095D02*
X109416247Y-58610476D01*
X109416247Y-58610476D02*
X109654342Y-58610476D01*
X109654342Y-58610476D02*
X109749580Y-58658095D01*
X109749580Y-58658095D02*
X109797200Y-58705714D01*
X109797200Y-58705714D02*
X109844819Y-58800952D01*
X109844819Y-58800952D02*
X109844819Y-59086666D01*
X109844819Y-59086666D02*
X109797200Y-59181904D01*
X109797200Y-59181904D02*
X109749580Y-59229523D01*
X109844819Y-58134285D02*
X109844819Y-57943809D01*
X109844819Y-57943809D02*
X109797200Y-57848571D01*
X109797200Y-57848571D02*
X109749580Y-57800952D01*
X109749580Y-57800952D02*
X109606723Y-57705714D01*
X109606723Y-57705714D02*
X109416247Y-57658095D01*
X109416247Y-57658095D02*
X109035295Y-57658095D01*
X109035295Y-57658095D02*
X108940057Y-57705714D01*
X108940057Y-57705714D02*
X108892438Y-57753333D01*
X108892438Y-57753333D02*
X108844819Y-57848571D01*
X108844819Y-57848571D02*
X108844819Y-58039047D01*
X108844819Y-58039047D02*
X108892438Y-58134285D01*
X108892438Y-58134285D02*
X108940057Y-58181904D01*
X108940057Y-58181904D02*
X109035295Y-58229523D01*
X109035295Y-58229523D02*
X109273390Y-58229523D01*
X109273390Y-58229523D02*
X109368628Y-58181904D01*
X109368628Y-58181904D02*
X109416247Y-58134285D01*
X109416247Y-58134285D02*
X109463866Y-58039047D01*
X109463866Y-58039047D02*
X109463866Y-57848571D01*
X109463866Y-57848571D02*
X109416247Y-57753333D01*
X109416247Y-57753333D02*
X109368628Y-57705714D01*
X109368628Y-57705714D02*
X109273390Y-57658095D01*
X112214819Y-58586666D02*
X111738628Y-58919999D01*
X112214819Y-59158094D02*
X111214819Y-59158094D01*
X111214819Y-59158094D02*
X111214819Y-58777142D01*
X111214819Y-58777142D02*
X111262438Y-58681904D01*
X111262438Y-58681904D02*
X111310057Y-58634285D01*
X111310057Y-58634285D02*
X111405295Y-58586666D01*
X111405295Y-58586666D02*
X111548152Y-58586666D01*
X111548152Y-58586666D02*
X111643390Y-58634285D01*
X111643390Y-58634285D02*
X111691009Y-58681904D01*
X111691009Y-58681904D02*
X111738628Y-58777142D01*
X111738628Y-58777142D02*
X111738628Y-59158094D01*
X111214819Y-58253332D02*
X111214819Y-57586666D01*
X111214819Y-57586666D02*
X112214819Y-58015237D01*
X88185714Y-67864819D02*
X87709524Y-67864819D01*
X87709524Y-67864819D02*
X87661905Y-68341009D01*
X87661905Y-68341009D02*
X87709524Y-68293390D01*
X87709524Y-68293390D02*
X87804762Y-68245771D01*
X87804762Y-68245771D02*
X88042857Y-68245771D01*
X88042857Y-68245771D02*
X88138095Y-68293390D01*
X88138095Y-68293390D02*
X88185714Y-68341009D01*
X88185714Y-68341009D02*
X88233333Y-68436247D01*
X88233333Y-68436247D02*
X88233333Y-68674342D01*
X88233333Y-68674342D02*
X88185714Y-68769580D01*
X88185714Y-68769580D02*
X88138095Y-68817200D01*
X88138095Y-68817200D02*
X88042857Y-68864819D01*
X88042857Y-68864819D02*
X87804762Y-68864819D01*
X87804762Y-68864819D02*
X87709524Y-68817200D01*
X87709524Y-68817200D02*
X87661905Y-68769580D01*
X89185714Y-68864819D02*
X88614286Y-68864819D01*
X88900000Y-68864819D02*
X88900000Y-67864819D01*
X88900000Y-67864819D02*
X88804762Y-68007676D01*
X88804762Y-68007676D02*
X88709524Y-68102914D01*
X88709524Y-68102914D02*
X88614286Y-68150533D01*
X89804762Y-67864819D02*
X89900000Y-67864819D01*
X89900000Y-67864819D02*
X89995238Y-67912438D01*
X89995238Y-67912438D02*
X90042857Y-67960057D01*
X90042857Y-67960057D02*
X90090476Y-68055295D01*
X90090476Y-68055295D02*
X90138095Y-68245771D01*
X90138095Y-68245771D02*
X90138095Y-68483866D01*
X90138095Y-68483866D02*
X90090476Y-68674342D01*
X90090476Y-68674342D02*
X90042857Y-68769580D01*
X90042857Y-68769580D02*
X89995238Y-68817200D01*
X89995238Y-68817200D02*
X89900000Y-68864819D01*
X89900000Y-68864819D02*
X89804762Y-68864819D01*
X89804762Y-68864819D02*
X89709524Y-68817200D01*
X89709524Y-68817200D02*
X89661905Y-68769580D01*
X89661905Y-68769580D02*
X89614286Y-68674342D01*
X89614286Y-68674342D02*
X89566667Y-68483866D01*
X89566667Y-68483866D02*
X89566667Y-68245771D01*
X89566667Y-68245771D02*
X89614286Y-68055295D01*
X89614286Y-68055295D02*
X89661905Y-67960057D01*
X89661905Y-67960057D02*
X89709524Y-67912438D01*
X89709524Y-67912438D02*
X89804762Y-67864819D01*
X88257142Y-66494819D02*
X87923809Y-66018628D01*
X87685714Y-66494819D02*
X87685714Y-65494819D01*
X87685714Y-65494819D02*
X88066666Y-65494819D01*
X88066666Y-65494819D02*
X88161904Y-65542438D01*
X88161904Y-65542438D02*
X88209523Y-65590057D01*
X88209523Y-65590057D02*
X88257142Y-65685295D01*
X88257142Y-65685295D02*
X88257142Y-65828152D01*
X88257142Y-65828152D02*
X88209523Y-65923390D01*
X88209523Y-65923390D02*
X88161904Y-65971009D01*
X88161904Y-65971009D02*
X88066666Y-66018628D01*
X88066666Y-66018628D02*
X87685714Y-66018628D01*
X89209523Y-66494819D02*
X88638095Y-66494819D01*
X88923809Y-66494819D02*
X88923809Y-65494819D01*
X88923809Y-65494819D02*
X88828571Y-65637676D01*
X88828571Y-65637676D02*
X88733333Y-65732914D01*
X88733333Y-65732914D02*
X88638095Y-65780533D01*
X90066666Y-65828152D02*
X90066666Y-66494819D01*
X89828571Y-65447200D02*
X89590476Y-66161485D01*
X89590476Y-66161485D02*
X90209523Y-66161485D01*
X163861905Y-128920057D02*
X163909524Y-128872438D01*
X163909524Y-128872438D02*
X164004762Y-128824819D01*
X164004762Y-128824819D02*
X164242857Y-128824819D01*
X164242857Y-128824819D02*
X164338095Y-128872438D01*
X164338095Y-128872438D02*
X164385714Y-128920057D01*
X164385714Y-128920057D02*
X164433333Y-129015295D01*
X164433333Y-129015295D02*
X164433333Y-129110533D01*
X164433333Y-129110533D02*
X164385714Y-129253390D01*
X164385714Y-129253390D02*
X163814286Y-129824819D01*
X163814286Y-129824819D02*
X164433333Y-129824819D01*
X164814286Y-128920057D02*
X164861905Y-128872438D01*
X164861905Y-128872438D02*
X164957143Y-128824819D01*
X164957143Y-128824819D02*
X165195238Y-128824819D01*
X165195238Y-128824819D02*
X165290476Y-128872438D01*
X165290476Y-128872438D02*
X165338095Y-128920057D01*
X165338095Y-128920057D02*
X165385714Y-129015295D01*
X165385714Y-129015295D02*
X165385714Y-129110533D01*
X165385714Y-129110533D02*
X165338095Y-129253390D01*
X165338095Y-129253390D02*
X164766667Y-129824819D01*
X164766667Y-129824819D02*
X165385714Y-129824819D01*
X166004762Y-128824819D02*
X166100000Y-128824819D01*
X166100000Y-128824819D02*
X166195238Y-128872438D01*
X166195238Y-128872438D02*
X166242857Y-128920057D01*
X166242857Y-128920057D02*
X166290476Y-129015295D01*
X166290476Y-129015295D02*
X166338095Y-129205771D01*
X166338095Y-129205771D02*
X166338095Y-129443866D01*
X166338095Y-129443866D02*
X166290476Y-129634342D01*
X166290476Y-129634342D02*
X166242857Y-129729580D01*
X166242857Y-129729580D02*
X166195238Y-129777200D01*
X166195238Y-129777200D02*
X166100000Y-129824819D01*
X166100000Y-129824819D02*
X166004762Y-129824819D01*
X166004762Y-129824819D02*
X165909524Y-129777200D01*
X165909524Y-129777200D02*
X165861905Y-129729580D01*
X165861905Y-129729580D02*
X165814286Y-129634342D01*
X165814286Y-129634342D02*
X165766667Y-129443866D01*
X165766667Y-129443866D02*
X165766667Y-129205771D01*
X165766667Y-129205771D02*
X165814286Y-129015295D01*
X165814286Y-129015295D02*
X165861905Y-128920057D01*
X165861905Y-128920057D02*
X165909524Y-128872438D01*
X165909524Y-128872438D02*
X166004762Y-128824819D01*
X164933333Y-127454819D02*
X164600000Y-126978628D01*
X164361905Y-127454819D02*
X164361905Y-126454819D01*
X164361905Y-126454819D02*
X164742857Y-126454819D01*
X164742857Y-126454819D02*
X164838095Y-126502438D01*
X164838095Y-126502438D02*
X164885714Y-126550057D01*
X164885714Y-126550057D02*
X164933333Y-126645295D01*
X164933333Y-126645295D02*
X164933333Y-126788152D01*
X164933333Y-126788152D02*
X164885714Y-126883390D01*
X164885714Y-126883390D02*
X164838095Y-126931009D01*
X164838095Y-126931009D02*
X164742857Y-126978628D01*
X164742857Y-126978628D02*
X164361905Y-126978628D01*
X165266667Y-126454819D02*
X165885714Y-126454819D01*
X165885714Y-126454819D02*
X165552381Y-126835771D01*
X165552381Y-126835771D02*
X165695238Y-126835771D01*
X165695238Y-126835771D02*
X165790476Y-126883390D01*
X165790476Y-126883390D02*
X165838095Y-126931009D01*
X165838095Y-126931009D02*
X165885714Y-127026247D01*
X165885714Y-127026247D02*
X165885714Y-127264342D01*
X165885714Y-127264342D02*
X165838095Y-127359580D01*
X165838095Y-127359580D02*
X165790476Y-127407200D01*
X165790476Y-127407200D02*
X165695238Y-127454819D01*
X165695238Y-127454819D02*
X165409524Y-127454819D01*
X165409524Y-127454819D02*
X165314286Y-127407200D01*
X165314286Y-127407200D02*
X165266667Y-127359580D01*
X104764819Y-59086666D02*
X104764819Y-59658094D01*
X104764819Y-59372380D02*
X103764819Y-59372380D01*
X103764819Y-59372380D02*
X103907676Y-59467618D01*
X103907676Y-59467618D02*
X104002914Y-59562856D01*
X104002914Y-59562856D02*
X104050533Y-59658094D01*
X103860057Y-58705713D02*
X103812438Y-58658094D01*
X103812438Y-58658094D02*
X103764819Y-58562856D01*
X103764819Y-58562856D02*
X103764819Y-58324761D01*
X103764819Y-58324761D02*
X103812438Y-58229523D01*
X103812438Y-58229523D02*
X103860057Y-58181904D01*
X103860057Y-58181904D02*
X103955295Y-58134285D01*
X103955295Y-58134285D02*
X104050533Y-58134285D01*
X104050533Y-58134285D02*
X104193390Y-58181904D01*
X104193390Y-58181904D02*
X104764819Y-58753332D01*
X104764819Y-58753332D02*
X104764819Y-58134285D01*
X103764819Y-57515237D02*
X103764819Y-57419999D01*
X103764819Y-57419999D02*
X103812438Y-57324761D01*
X103812438Y-57324761D02*
X103860057Y-57277142D01*
X103860057Y-57277142D02*
X103955295Y-57229523D01*
X103955295Y-57229523D02*
X104145771Y-57181904D01*
X104145771Y-57181904D02*
X104383866Y-57181904D01*
X104383866Y-57181904D02*
X104574342Y-57229523D01*
X104574342Y-57229523D02*
X104669580Y-57277142D01*
X104669580Y-57277142D02*
X104717200Y-57324761D01*
X104717200Y-57324761D02*
X104764819Y-57419999D01*
X104764819Y-57419999D02*
X104764819Y-57515237D01*
X104764819Y-57515237D02*
X104717200Y-57610475D01*
X104717200Y-57610475D02*
X104669580Y-57658094D01*
X104669580Y-57658094D02*
X104574342Y-57705713D01*
X104574342Y-57705713D02*
X104383866Y-57753332D01*
X104383866Y-57753332D02*
X104145771Y-57753332D01*
X104145771Y-57753332D02*
X103955295Y-57705713D01*
X103955295Y-57705713D02*
X103860057Y-57658094D01*
X103860057Y-57658094D02*
X103812438Y-57610475D01*
X103812438Y-57610475D02*
X103764819Y-57515237D01*
X107134819Y-58586666D02*
X106658628Y-58919999D01*
X107134819Y-59158094D02*
X106134819Y-59158094D01*
X106134819Y-59158094D02*
X106134819Y-58777142D01*
X106134819Y-58777142D02*
X106182438Y-58681904D01*
X106182438Y-58681904D02*
X106230057Y-58634285D01*
X106230057Y-58634285D02*
X106325295Y-58586666D01*
X106325295Y-58586666D02*
X106468152Y-58586666D01*
X106468152Y-58586666D02*
X106563390Y-58634285D01*
X106563390Y-58634285D02*
X106611009Y-58681904D01*
X106611009Y-58681904D02*
X106658628Y-58777142D01*
X106658628Y-58777142D02*
X106658628Y-59158094D01*
X106563390Y-58015237D02*
X106515771Y-58110475D01*
X106515771Y-58110475D02*
X106468152Y-58158094D01*
X106468152Y-58158094D02*
X106372914Y-58205713D01*
X106372914Y-58205713D02*
X106325295Y-58205713D01*
X106325295Y-58205713D02*
X106230057Y-58158094D01*
X106230057Y-58158094D02*
X106182438Y-58110475D01*
X106182438Y-58110475D02*
X106134819Y-58015237D01*
X106134819Y-58015237D02*
X106134819Y-57824761D01*
X106134819Y-57824761D02*
X106182438Y-57729523D01*
X106182438Y-57729523D02*
X106230057Y-57681904D01*
X106230057Y-57681904D02*
X106325295Y-57634285D01*
X106325295Y-57634285D02*
X106372914Y-57634285D01*
X106372914Y-57634285D02*
X106468152Y-57681904D01*
X106468152Y-57681904D02*
X106515771Y-57729523D01*
X106515771Y-57729523D02*
X106563390Y-57824761D01*
X106563390Y-57824761D02*
X106563390Y-58015237D01*
X106563390Y-58015237D02*
X106611009Y-58110475D01*
X106611009Y-58110475D02*
X106658628Y-58158094D01*
X106658628Y-58158094D02*
X106753866Y-58205713D01*
X106753866Y-58205713D02*
X106944342Y-58205713D01*
X106944342Y-58205713D02*
X107039580Y-58158094D01*
X107039580Y-58158094D02*
X107087200Y-58110475D01*
X107087200Y-58110475D02*
X107134819Y-58015237D01*
X107134819Y-58015237D02*
X107134819Y-57824761D01*
X107134819Y-57824761D02*
X107087200Y-57729523D01*
X107087200Y-57729523D02*
X107039580Y-57681904D01*
X107039580Y-57681904D02*
X106944342Y-57634285D01*
X106944342Y-57634285D02*
X106753866Y-57634285D01*
X106753866Y-57634285D02*
X106658628Y-57681904D01*
X106658628Y-57681904D02*
X106611009Y-57729523D01*
X106611009Y-57729523D02*
X106563390Y-57824761D01*
X164980952Y-122204819D02*
X164409524Y-122204819D01*
X164695238Y-122204819D02*
X164695238Y-121204819D01*
X164695238Y-121204819D02*
X164600000Y-121347676D01*
X164600000Y-121347676D02*
X164504762Y-121442914D01*
X164504762Y-121442914D02*
X164409524Y-121490533D01*
X165409524Y-122204819D02*
X165409524Y-121204819D01*
X165504762Y-121823866D02*
X165790476Y-122204819D01*
X165790476Y-121538152D02*
X165409524Y-121919104D01*
X164933333Y-119834819D02*
X164600000Y-119358628D01*
X164361905Y-119834819D02*
X164361905Y-118834819D01*
X164361905Y-118834819D02*
X164742857Y-118834819D01*
X164742857Y-118834819D02*
X164838095Y-118882438D01*
X164838095Y-118882438D02*
X164885714Y-118930057D01*
X164885714Y-118930057D02*
X164933333Y-119025295D01*
X164933333Y-119025295D02*
X164933333Y-119168152D01*
X164933333Y-119168152D02*
X164885714Y-119263390D01*
X164885714Y-119263390D02*
X164838095Y-119311009D01*
X164838095Y-119311009D02*
X164742857Y-119358628D01*
X164742857Y-119358628D02*
X164361905Y-119358628D01*
X165838095Y-118834819D02*
X165361905Y-118834819D01*
X165361905Y-118834819D02*
X165314286Y-119311009D01*
X165314286Y-119311009D02*
X165361905Y-119263390D01*
X165361905Y-119263390D02*
X165457143Y-119215771D01*
X165457143Y-119215771D02*
X165695238Y-119215771D01*
X165695238Y-119215771D02*
X165790476Y-119263390D01*
X165790476Y-119263390D02*
X165838095Y-119311009D01*
X165838095Y-119311009D02*
X165885714Y-119406247D01*
X165885714Y-119406247D02*
X165885714Y-119644342D01*
X165885714Y-119644342D02*
X165838095Y-119739580D01*
X165838095Y-119739580D02*
X165790476Y-119787200D01*
X165790476Y-119787200D02*
X165695238Y-119834819D01*
X165695238Y-119834819D02*
X165457143Y-119834819D01*
X165457143Y-119834819D02*
X165361905Y-119787200D01*
X165361905Y-119787200D02*
X165314286Y-119739580D01*
X87614286Y-98344819D02*
X88233333Y-98344819D01*
X88233333Y-98344819D02*
X87900000Y-98725771D01*
X87900000Y-98725771D02*
X88042857Y-98725771D01*
X88042857Y-98725771D02*
X88138095Y-98773390D01*
X88138095Y-98773390D02*
X88185714Y-98821009D01*
X88185714Y-98821009D02*
X88233333Y-98916247D01*
X88233333Y-98916247D02*
X88233333Y-99154342D01*
X88233333Y-99154342D02*
X88185714Y-99249580D01*
X88185714Y-99249580D02*
X88138095Y-99297200D01*
X88138095Y-99297200D02*
X88042857Y-99344819D01*
X88042857Y-99344819D02*
X87757143Y-99344819D01*
X87757143Y-99344819D02*
X87661905Y-99297200D01*
X87661905Y-99297200D02*
X87614286Y-99249580D01*
X88709524Y-99344819D02*
X88900000Y-99344819D01*
X88900000Y-99344819D02*
X88995238Y-99297200D01*
X88995238Y-99297200D02*
X89042857Y-99249580D01*
X89042857Y-99249580D02*
X89138095Y-99106723D01*
X89138095Y-99106723D02*
X89185714Y-98916247D01*
X89185714Y-98916247D02*
X89185714Y-98535295D01*
X89185714Y-98535295D02*
X89138095Y-98440057D01*
X89138095Y-98440057D02*
X89090476Y-98392438D01*
X89090476Y-98392438D02*
X88995238Y-98344819D01*
X88995238Y-98344819D02*
X88804762Y-98344819D01*
X88804762Y-98344819D02*
X88709524Y-98392438D01*
X88709524Y-98392438D02*
X88661905Y-98440057D01*
X88661905Y-98440057D02*
X88614286Y-98535295D01*
X88614286Y-98535295D02*
X88614286Y-98773390D01*
X88614286Y-98773390D02*
X88661905Y-98868628D01*
X88661905Y-98868628D02*
X88709524Y-98916247D01*
X88709524Y-98916247D02*
X88804762Y-98963866D01*
X88804762Y-98963866D02*
X88995238Y-98963866D01*
X88995238Y-98963866D02*
X89090476Y-98916247D01*
X89090476Y-98916247D02*
X89138095Y-98868628D01*
X89138095Y-98868628D02*
X89185714Y-98773390D01*
X89804762Y-98344819D02*
X89900000Y-98344819D01*
X89900000Y-98344819D02*
X89995238Y-98392438D01*
X89995238Y-98392438D02*
X90042857Y-98440057D01*
X90042857Y-98440057D02*
X90090476Y-98535295D01*
X90090476Y-98535295D02*
X90138095Y-98725771D01*
X90138095Y-98725771D02*
X90138095Y-98963866D01*
X90138095Y-98963866D02*
X90090476Y-99154342D01*
X90090476Y-99154342D02*
X90042857Y-99249580D01*
X90042857Y-99249580D02*
X89995238Y-99297200D01*
X89995238Y-99297200D02*
X89900000Y-99344819D01*
X89900000Y-99344819D02*
X89804762Y-99344819D01*
X89804762Y-99344819D02*
X89709524Y-99297200D01*
X89709524Y-99297200D02*
X89661905Y-99249580D01*
X89661905Y-99249580D02*
X89614286Y-99154342D01*
X89614286Y-99154342D02*
X89566667Y-98963866D01*
X89566667Y-98963866D02*
X89566667Y-98725771D01*
X89566667Y-98725771D02*
X89614286Y-98535295D01*
X89614286Y-98535295D02*
X89661905Y-98440057D01*
X89661905Y-98440057D02*
X89709524Y-98392438D01*
X89709524Y-98392438D02*
X89804762Y-98344819D01*
X88733333Y-96974819D02*
X88400000Y-96498628D01*
X88161905Y-96974819D02*
X88161905Y-95974819D01*
X88161905Y-95974819D02*
X88542857Y-95974819D01*
X88542857Y-95974819D02*
X88638095Y-96022438D01*
X88638095Y-96022438D02*
X88685714Y-96070057D01*
X88685714Y-96070057D02*
X88733333Y-96165295D01*
X88733333Y-96165295D02*
X88733333Y-96308152D01*
X88733333Y-96308152D02*
X88685714Y-96403390D01*
X88685714Y-96403390D02*
X88638095Y-96451009D01*
X88638095Y-96451009D02*
X88542857Y-96498628D01*
X88542857Y-96498628D02*
X88161905Y-96498628D01*
X89685714Y-96974819D02*
X89114286Y-96974819D01*
X89400000Y-96974819D02*
X89400000Y-95974819D01*
X89400000Y-95974819D02*
X89304762Y-96117676D01*
X89304762Y-96117676D02*
X89209524Y-96212914D01*
X89209524Y-96212914D02*
X89114286Y-96260533D01*
X111410952Y-129784819D02*
X110934762Y-129784819D01*
X110934762Y-129784819D02*
X110934762Y-128784819D01*
X111696667Y-128880057D02*
X111744286Y-128832438D01*
X111744286Y-128832438D02*
X111839524Y-128784819D01*
X111839524Y-128784819D02*
X112077619Y-128784819D01*
X112077619Y-128784819D02*
X112172857Y-128832438D01*
X112172857Y-128832438D02*
X112220476Y-128880057D01*
X112220476Y-128880057D02*
X112268095Y-128975295D01*
X112268095Y-128975295D02*
X112268095Y-129070533D01*
X112268095Y-129070533D02*
X112220476Y-129213390D01*
X112220476Y-129213390D02*
X111649048Y-129784819D01*
X111649048Y-129784819D02*
X112268095Y-129784819D01*
X112744286Y-129784819D02*
X112934762Y-129784819D01*
X112934762Y-129784819D02*
X113030000Y-129737200D01*
X113030000Y-129737200D02*
X113077619Y-129689580D01*
X113077619Y-129689580D02*
X113172857Y-129546723D01*
X113172857Y-129546723D02*
X113220476Y-129356247D01*
X113220476Y-129356247D02*
X113220476Y-128975295D01*
X113220476Y-128975295D02*
X113172857Y-128880057D01*
X113172857Y-128880057D02*
X113125238Y-128832438D01*
X113125238Y-128832438D02*
X113030000Y-128784819D01*
X113030000Y-128784819D02*
X112839524Y-128784819D01*
X112839524Y-128784819D02*
X112744286Y-128832438D01*
X112744286Y-128832438D02*
X112696667Y-128880057D01*
X112696667Y-128880057D02*
X112649048Y-128975295D01*
X112649048Y-128975295D02*
X112649048Y-129213390D01*
X112649048Y-129213390D02*
X112696667Y-129308628D01*
X112696667Y-129308628D02*
X112744286Y-129356247D01*
X112744286Y-129356247D02*
X112839524Y-129403866D01*
X112839524Y-129403866D02*
X113030000Y-129403866D01*
X113030000Y-129403866D02*
X113125238Y-129356247D01*
X113125238Y-129356247D02*
X113172857Y-129308628D01*
X113172857Y-129308628D02*
X113220476Y-129213390D01*
X113553810Y-128784819D02*
X114172857Y-128784819D01*
X114172857Y-128784819D02*
X113839524Y-129165771D01*
X113839524Y-129165771D02*
X113982381Y-129165771D01*
X113982381Y-129165771D02*
X114077619Y-129213390D01*
X114077619Y-129213390D02*
X114125238Y-129261009D01*
X114125238Y-129261009D02*
X114172857Y-129356247D01*
X114172857Y-129356247D02*
X114172857Y-129594342D01*
X114172857Y-129594342D02*
X114125238Y-129689580D01*
X114125238Y-129689580D02*
X114077619Y-129737200D01*
X114077619Y-129737200D02*
X113982381Y-129784819D01*
X113982381Y-129784819D02*
X113696667Y-129784819D01*
X113696667Y-129784819D02*
X113601429Y-129737200D01*
X113601429Y-129737200D02*
X113553810Y-129689580D01*
X114601429Y-129784819D02*
X114601429Y-128784819D01*
X114601429Y-128784819D02*
X114839524Y-128784819D01*
X114839524Y-128784819D02*
X114982381Y-128832438D01*
X114982381Y-128832438D02*
X115077619Y-128927676D01*
X115077619Y-128927676D02*
X115125238Y-129022914D01*
X115125238Y-129022914D02*
X115172857Y-129213390D01*
X115172857Y-129213390D02*
X115172857Y-129356247D01*
X115172857Y-129356247D02*
X115125238Y-129546723D01*
X115125238Y-129546723D02*
X115077619Y-129641961D01*
X115077619Y-129641961D02*
X114982381Y-129737200D01*
X114982381Y-129737200D02*
X114839524Y-129784819D01*
X114839524Y-129784819D02*
X114601429Y-129784819D01*
X112268095Y-117564819D02*
X112268095Y-118374342D01*
X112268095Y-118374342D02*
X112315714Y-118469580D01*
X112315714Y-118469580D02*
X112363333Y-118517200D01*
X112363333Y-118517200D02*
X112458571Y-118564819D01*
X112458571Y-118564819D02*
X112649047Y-118564819D01*
X112649047Y-118564819D02*
X112744285Y-118517200D01*
X112744285Y-118517200D02*
X112791904Y-118469580D01*
X112791904Y-118469580D02*
X112839523Y-118374342D01*
X112839523Y-118374342D02*
X112839523Y-117564819D01*
X113268095Y-117660057D02*
X113315714Y-117612438D01*
X113315714Y-117612438D02*
X113410952Y-117564819D01*
X113410952Y-117564819D02*
X113649047Y-117564819D01*
X113649047Y-117564819D02*
X113744285Y-117612438D01*
X113744285Y-117612438D02*
X113791904Y-117660057D01*
X113791904Y-117660057D02*
X113839523Y-117755295D01*
X113839523Y-117755295D02*
X113839523Y-117850533D01*
X113839523Y-117850533D02*
X113791904Y-117993390D01*
X113791904Y-117993390D02*
X113220476Y-118564819D01*
X113220476Y-118564819D02*
X113839523Y-118564819D01*
X179649523Y-93938152D02*
X179649523Y-94604819D01*
X179411428Y-93557200D02*
X179173333Y-94271485D01*
X179173333Y-94271485D02*
X179792380Y-94271485D01*
X180173333Y-94604819D02*
X180173333Y-93604819D01*
X180268571Y-94223866D02*
X180554285Y-94604819D01*
X180554285Y-93938152D02*
X180173333Y-94319104D01*
X180887619Y-93604819D02*
X181554285Y-93604819D01*
X181554285Y-93604819D02*
X181125714Y-94604819D01*
X179697142Y-96974819D02*
X179363809Y-96498628D01*
X179125714Y-96974819D02*
X179125714Y-95974819D01*
X179125714Y-95974819D02*
X179506666Y-95974819D01*
X179506666Y-95974819D02*
X179601904Y-96022438D01*
X179601904Y-96022438D02*
X179649523Y-96070057D01*
X179649523Y-96070057D02*
X179697142Y-96165295D01*
X179697142Y-96165295D02*
X179697142Y-96308152D01*
X179697142Y-96308152D02*
X179649523Y-96403390D01*
X179649523Y-96403390D02*
X179601904Y-96451009D01*
X179601904Y-96451009D02*
X179506666Y-96498628D01*
X179506666Y-96498628D02*
X179125714Y-96498628D01*
X180649523Y-96974819D02*
X180078095Y-96974819D01*
X180363809Y-96974819D02*
X180363809Y-95974819D01*
X180363809Y-95974819D02*
X180268571Y-96117676D01*
X180268571Y-96117676D02*
X180173333Y-96212914D01*
X180173333Y-96212914D02*
X180078095Y-96260533D01*
X181268571Y-95974819D02*
X181363809Y-95974819D01*
X181363809Y-95974819D02*
X181459047Y-96022438D01*
X181459047Y-96022438D02*
X181506666Y-96070057D01*
X181506666Y-96070057D02*
X181554285Y-96165295D01*
X181554285Y-96165295D02*
X181601904Y-96355771D01*
X181601904Y-96355771D02*
X181601904Y-96593866D01*
X181601904Y-96593866D02*
X181554285Y-96784342D01*
X181554285Y-96784342D02*
X181506666Y-96879580D01*
X181506666Y-96879580D02*
X181459047Y-96927200D01*
X181459047Y-96927200D02*
X181363809Y-96974819D01*
X181363809Y-96974819D02*
X181268571Y-96974819D01*
X181268571Y-96974819D02*
X181173333Y-96927200D01*
X181173333Y-96927200D02*
X181125714Y-96879580D01*
X181125714Y-96879580D02*
X181078095Y-96784342D01*
X181078095Y-96784342D02*
X181030476Y-96593866D01*
X181030476Y-96593866D02*
X181030476Y-96355771D01*
X181030476Y-96355771D02*
X181078095Y-96165295D01*
X181078095Y-96165295D02*
X181125714Y-96070057D01*
X181125714Y-96070057D02*
X181173333Y-96022438D01*
X181173333Y-96022438D02*
X181268571Y-95974819D01*
X112044819Y-84891428D02*
X112044819Y-85462856D01*
X112044819Y-85177142D02*
X111044819Y-85177142D01*
X111044819Y-85177142D02*
X111187676Y-85272380D01*
X111187676Y-85272380D02*
X111282914Y-85367618D01*
X111282914Y-85367618D02*
X111330533Y-85462856D01*
X111044819Y-84272380D02*
X111044819Y-84177142D01*
X111044819Y-84177142D02*
X111092438Y-84081904D01*
X111092438Y-84081904D02*
X111140057Y-84034285D01*
X111140057Y-84034285D02*
X111235295Y-83986666D01*
X111235295Y-83986666D02*
X111425771Y-83939047D01*
X111425771Y-83939047D02*
X111663866Y-83939047D01*
X111663866Y-83939047D02*
X111854342Y-83986666D01*
X111854342Y-83986666D02*
X111949580Y-84034285D01*
X111949580Y-84034285D02*
X111997200Y-84081904D01*
X111997200Y-84081904D02*
X112044819Y-84177142D01*
X112044819Y-84177142D02*
X112044819Y-84272380D01*
X112044819Y-84272380D02*
X111997200Y-84367618D01*
X111997200Y-84367618D02*
X111949580Y-84415237D01*
X111949580Y-84415237D02*
X111854342Y-84462856D01*
X111854342Y-84462856D02*
X111663866Y-84510475D01*
X111663866Y-84510475D02*
X111425771Y-84510475D01*
X111425771Y-84510475D02*
X111235295Y-84462856D01*
X111235295Y-84462856D02*
X111140057Y-84415237D01*
X111140057Y-84415237D02*
X111092438Y-84367618D01*
X111092438Y-84367618D02*
X111044819Y-84272380D01*
X111044819Y-83319999D02*
X111044819Y-83224761D01*
X111044819Y-83224761D02*
X111092438Y-83129523D01*
X111092438Y-83129523D02*
X111140057Y-83081904D01*
X111140057Y-83081904D02*
X111235295Y-83034285D01*
X111235295Y-83034285D02*
X111425771Y-82986666D01*
X111425771Y-82986666D02*
X111663866Y-82986666D01*
X111663866Y-82986666D02*
X111854342Y-83034285D01*
X111854342Y-83034285D02*
X111949580Y-83081904D01*
X111949580Y-83081904D02*
X111997200Y-83129523D01*
X111997200Y-83129523D02*
X112044819Y-83224761D01*
X112044819Y-83224761D02*
X112044819Y-83319999D01*
X112044819Y-83319999D02*
X111997200Y-83415237D01*
X111997200Y-83415237D02*
X111949580Y-83462856D01*
X111949580Y-83462856D02*
X111854342Y-83510475D01*
X111854342Y-83510475D02*
X111663866Y-83558094D01*
X111663866Y-83558094D02*
X111425771Y-83558094D01*
X111425771Y-83558094D02*
X111235295Y-83510475D01*
X111235295Y-83510475D02*
X111140057Y-83462856D01*
X111140057Y-83462856D02*
X111092438Y-83415237D01*
X111092438Y-83415237D02*
X111044819Y-83319999D01*
X112044819Y-82558094D02*
X111044819Y-82558094D01*
X111663866Y-82462856D02*
X112044819Y-82177142D01*
X111378152Y-82177142D02*
X111759104Y-82558094D01*
X109674819Y-84462857D02*
X109198628Y-84796190D01*
X109674819Y-85034285D02*
X108674819Y-85034285D01*
X108674819Y-85034285D02*
X108674819Y-84653333D01*
X108674819Y-84653333D02*
X108722438Y-84558095D01*
X108722438Y-84558095D02*
X108770057Y-84510476D01*
X108770057Y-84510476D02*
X108865295Y-84462857D01*
X108865295Y-84462857D02*
X109008152Y-84462857D01*
X109008152Y-84462857D02*
X109103390Y-84510476D01*
X109103390Y-84510476D02*
X109151009Y-84558095D01*
X109151009Y-84558095D02*
X109198628Y-84653333D01*
X109198628Y-84653333D02*
X109198628Y-85034285D01*
X109674819Y-83510476D02*
X109674819Y-84081904D01*
X109674819Y-83796190D02*
X108674819Y-83796190D01*
X108674819Y-83796190D02*
X108817676Y-83891428D01*
X108817676Y-83891428D02*
X108912914Y-83986666D01*
X108912914Y-83986666D02*
X108960533Y-84081904D01*
X108770057Y-83129523D02*
X108722438Y-83081904D01*
X108722438Y-83081904D02*
X108674819Y-82986666D01*
X108674819Y-82986666D02*
X108674819Y-82748571D01*
X108674819Y-82748571D02*
X108722438Y-82653333D01*
X108722438Y-82653333D02*
X108770057Y-82605714D01*
X108770057Y-82605714D02*
X108865295Y-82558095D01*
X108865295Y-82558095D02*
X108960533Y-82558095D01*
X108960533Y-82558095D02*
X109103390Y-82605714D01*
X109103390Y-82605714D02*
X109674819Y-83177142D01*
X109674819Y-83177142D02*
X109674819Y-82558095D01*
X109370952Y-102209580D02*
X109323333Y-102257200D01*
X109323333Y-102257200D02*
X109180476Y-102304819D01*
X109180476Y-102304819D02*
X109085238Y-102304819D01*
X109085238Y-102304819D02*
X108942381Y-102257200D01*
X108942381Y-102257200D02*
X108847143Y-102161961D01*
X108847143Y-102161961D02*
X108799524Y-102066723D01*
X108799524Y-102066723D02*
X108751905Y-101876247D01*
X108751905Y-101876247D02*
X108751905Y-101733390D01*
X108751905Y-101733390D02*
X108799524Y-101542914D01*
X108799524Y-101542914D02*
X108847143Y-101447676D01*
X108847143Y-101447676D02*
X108942381Y-101352438D01*
X108942381Y-101352438D02*
X109085238Y-101304819D01*
X109085238Y-101304819D02*
X109180476Y-101304819D01*
X109180476Y-101304819D02*
X109323333Y-101352438D01*
X109323333Y-101352438D02*
X109370952Y-101400057D01*
X109847143Y-102304819D02*
X110037619Y-102304819D01*
X110037619Y-102304819D02*
X110132857Y-102257200D01*
X110132857Y-102257200D02*
X110180476Y-102209580D01*
X110180476Y-102209580D02*
X110275714Y-102066723D01*
X110275714Y-102066723D02*
X110323333Y-101876247D01*
X110323333Y-101876247D02*
X110323333Y-101495295D01*
X110323333Y-101495295D02*
X110275714Y-101400057D01*
X110275714Y-101400057D02*
X110228095Y-101352438D01*
X110228095Y-101352438D02*
X110132857Y-101304819D01*
X110132857Y-101304819D02*
X109942381Y-101304819D01*
X109942381Y-101304819D02*
X109847143Y-101352438D01*
X109847143Y-101352438D02*
X109799524Y-101400057D01*
X109799524Y-101400057D02*
X109751905Y-101495295D01*
X109751905Y-101495295D02*
X109751905Y-101733390D01*
X109751905Y-101733390D02*
X109799524Y-101828628D01*
X109799524Y-101828628D02*
X109847143Y-101876247D01*
X109847143Y-101876247D02*
X109942381Y-101923866D01*
X109942381Y-101923866D02*
X110132857Y-101923866D01*
X110132857Y-101923866D02*
X110228095Y-101876247D01*
X110228095Y-101876247D02*
X110275714Y-101828628D01*
X110275714Y-101828628D02*
X110323333Y-101733390D01*
X111180476Y-101638152D02*
X111180476Y-102304819D01*
X110942381Y-101257200D02*
X110704286Y-101971485D01*
X110704286Y-101971485D02*
X111323333Y-101971485D01*
X112180476Y-101304819D02*
X111704286Y-101304819D01*
X111704286Y-101304819D02*
X111656667Y-101781009D01*
X111656667Y-101781009D02*
X111704286Y-101733390D01*
X111704286Y-101733390D02*
X111799524Y-101685771D01*
X111799524Y-101685771D02*
X112037619Y-101685771D01*
X112037619Y-101685771D02*
X112132857Y-101733390D01*
X112132857Y-101733390D02*
X112180476Y-101781009D01*
X112180476Y-101781009D02*
X112228095Y-101876247D01*
X112228095Y-101876247D02*
X112228095Y-102114342D01*
X112228095Y-102114342D02*
X112180476Y-102209580D01*
X112180476Y-102209580D02*
X112132857Y-102257200D01*
X112132857Y-102257200D02*
X112037619Y-102304819D01*
X112037619Y-102304819D02*
X111799524Y-102304819D01*
X111799524Y-102304819D02*
X111704286Y-102257200D01*
X111704286Y-102257200D02*
X111656667Y-102209580D01*
X110394761Y-99610057D02*
X110299523Y-99562438D01*
X110299523Y-99562438D02*
X110204285Y-99467200D01*
X110204285Y-99467200D02*
X110061428Y-99324342D01*
X110061428Y-99324342D02*
X109966190Y-99276723D01*
X109966190Y-99276723D02*
X109870952Y-99276723D01*
X109918571Y-99514819D02*
X109823333Y-99467200D01*
X109823333Y-99467200D02*
X109728095Y-99371961D01*
X109728095Y-99371961D02*
X109680476Y-99181485D01*
X109680476Y-99181485D02*
X109680476Y-98848152D01*
X109680476Y-98848152D02*
X109728095Y-98657676D01*
X109728095Y-98657676D02*
X109823333Y-98562438D01*
X109823333Y-98562438D02*
X109918571Y-98514819D01*
X109918571Y-98514819D02*
X110109047Y-98514819D01*
X110109047Y-98514819D02*
X110204285Y-98562438D01*
X110204285Y-98562438D02*
X110299523Y-98657676D01*
X110299523Y-98657676D02*
X110347142Y-98848152D01*
X110347142Y-98848152D02*
X110347142Y-99181485D01*
X110347142Y-99181485D02*
X110299523Y-99371961D01*
X110299523Y-99371961D02*
X110204285Y-99467200D01*
X110204285Y-99467200D02*
X110109047Y-99514819D01*
X110109047Y-99514819D02*
X109918571Y-99514819D01*
X111204285Y-98848152D02*
X111204285Y-99514819D01*
X110966190Y-98467200D02*
X110728095Y-99181485D01*
X110728095Y-99181485D02*
X111347142Y-99181485D01*
X80664819Y-111084762D02*
X80664819Y-111560952D01*
X80664819Y-111560952D02*
X79664819Y-111560952D01*
X80664819Y-110751428D02*
X79664819Y-110751428D01*
X79664819Y-110751428D02*
X80379104Y-110418095D01*
X80379104Y-110418095D02*
X79664819Y-110084762D01*
X79664819Y-110084762D02*
X80664819Y-110084762D01*
X79664819Y-109703809D02*
X79664819Y-109084762D01*
X79664819Y-109084762D02*
X80045771Y-109418095D01*
X80045771Y-109418095D02*
X80045771Y-109275238D01*
X80045771Y-109275238D02*
X80093390Y-109180000D01*
X80093390Y-109180000D02*
X80141009Y-109132381D01*
X80141009Y-109132381D02*
X80236247Y-109084762D01*
X80236247Y-109084762D02*
X80474342Y-109084762D01*
X80474342Y-109084762D02*
X80569580Y-109132381D01*
X80569580Y-109132381D02*
X80617200Y-109180000D01*
X80617200Y-109180000D02*
X80664819Y-109275238D01*
X80664819Y-109275238D02*
X80664819Y-109560952D01*
X80664819Y-109560952D02*
X80617200Y-109656190D01*
X80617200Y-109656190D02*
X80569580Y-109703809D01*
X79664819Y-108180000D02*
X79664819Y-108656190D01*
X79664819Y-108656190D02*
X80141009Y-108703809D01*
X80141009Y-108703809D02*
X80093390Y-108656190D01*
X80093390Y-108656190D02*
X80045771Y-108560952D01*
X80045771Y-108560952D02*
X80045771Y-108322857D01*
X80045771Y-108322857D02*
X80093390Y-108227619D01*
X80093390Y-108227619D02*
X80141009Y-108180000D01*
X80141009Y-108180000D02*
X80236247Y-108132381D01*
X80236247Y-108132381D02*
X80474342Y-108132381D01*
X80474342Y-108132381D02*
X80569580Y-108180000D01*
X80569580Y-108180000D02*
X80617200Y-108227619D01*
X80617200Y-108227619D02*
X80664819Y-108322857D01*
X80664819Y-108322857D02*
X80664819Y-108560952D01*
X80664819Y-108560952D02*
X80617200Y-108656190D01*
X80617200Y-108656190D02*
X80569580Y-108703809D01*
X79664819Y-107513333D02*
X79664819Y-107418095D01*
X79664819Y-107418095D02*
X79712438Y-107322857D01*
X79712438Y-107322857D02*
X79760057Y-107275238D01*
X79760057Y-107275238D02*
X79855295Y-107227619D01*
X79855295Y-107227619D02*
X80045771Y-107180000D01*
X80045771Y-107180000D02*
X80283866Y-107180000D01*
X80283866Y-107180000D02*
X80474342Y-107227619D01*
X80474342Y-107227619D02*
X80569580Y-107275238D01*
X80569580Y-107275238D02*
X80617200Y-107322857D01*
X80617200Y-107322857D02*
X80664819Y-107418095D01*
X80664819Y-107418095D02*
X80664819Y-107513333D01*
X80664819Y-107513333D02*
X80617200Y-107608571D01*
X80617200Y-107608571D02*
X80569580Y-107656190D01*
X80569580Y-107656190D02*
X80474342Y-107703809D01*
X80474342Y-107703809D02*
X80283866Y-107751428D01*
X80283866Y-107751428D02*
X80045771Y-107751428D01*
X80045771Y-107751428D02*
X79855295Y-107703809D01*
X79855295Y-107703809D02*
X79760057Y-107656190D01*
X79760057Y-107656190D02*
X79712438Y-107608571D01*
X79712438Y-107608571D02*
X79664819Y-107513333D01*
X80760057Y-106989524D02*
X80760057Y-106227619D01*
X79664819Y-106132380D02*
X79664819Y-105560952D01*
X80664819Y-105846666D02*
X79664819Y-105846666D01*
X79664819Y-105037142D02*
X79664819Y-104846666D01*
X79664819Y-104846666D02*
X79712438Y-104751428D01*
X79712438Y-104751428D02*
X79807676Y-104656190D01*
X79807676Y-104656190D02*
X79998152Y-104608571D01*
X79998152Y-104608571D02*
X80331485Y-104608571D01*
X80331485Y-104608571D02*
X80521961Y-104656190D01*
X80521961Y-104656190D02*
X80617200Y-104751428D01*
X80617200Y-104751428D02*
X80664819Y-104846666D01*
X80664819Y-104846666D02*
X80664819Y-105037142D01*
X80664819Y-105037142D02*
X80617200Y-105132380D01*
X80617200Y-105132380D02*
X80521961Y-105227618D01*
X80521961Y-105227618D02*
X80331485Y-105275237D01*
X80331485Y-105275237D02*
X79998152Y-105275237D01*
X79998152Y-105275237D02*
X79807676Y-105227618D01*
X79807676Y-105227618D02*
X79712438Y-105132380D01*
X79712438Y-105132380D02*
X79664819Y-105037142D01*
X79760057Y-104227618D02*
X79712438Y-104179999D01*
X79712438Y-104179999D02*
X79664819Y-104084761D01*
X79664819Y-104084761D02*
X79664819Y-103846666D01*
X79664819Y-103846666D02*
X79712438Y-103751428D01*
X79712438Y-103751428D02*
X79760057Y-103703809D01*
X79760057Y-103703809D02*
X79855295Y-103656190D01*
X79855295Y-103656190D02*
X79950533Y-103656190D01*
X79950533Y-103656190D02*
X80093390Y-103703809D01*
X80093390Y-103703809D02*
X80664819Y-104275237D01*
X80664819Y-104275237D02*
X80664819Y-103656190D01*
X79760057Y-103275237D02*
X79712438Y-103227618D01*
X79712438Y-103227618D02*
X79664819Y-103132380D01*
X79664819Y-103132380D02*
X79664819Y-102894285D01*
X79664819Y-102894285D02*
X79712438Y-102799047D01*
X79712438Y-102799047D02*
X79760057Y-102751428D01*
X79760057Y-102751428D02*
X79855295Y-102703809D01*
X79855295Y-102703809D02*
X79950533Y-102703809D01*
X79950533Y-102703809D02*
X80093390Y-102751428D01*
X80093390Y-102751428D02*
X80664819Y-103322856D01*
X80664819Y-103322856D02*
X80664819Y-102703809D01*
X79664819Y-102084761D02*
X79664819Y-101989523D01*
X79664819Y-101989523D02*
X79712438Y-101894285D01*
X79712438Y-101894285D02*
X79760057Y-101846666D01*
X79760057Y-101846666D02*
X79855295Y-101799047D01*
X79855295Y-101799047D02*
X80045771Y-101751428D01*
X80045771Y-101751428D02*
X80283866Y-101751428D01*
X80283866Y-101751428D02*
X80474342Y-101799047D01*
X80474342Y-101799047D02*
X80569580Y-101846666D01*
X80569580Y-101846666D02*
X80617200Y-101894285D01*
X80617200Y-101894285D02*
X80664819Y-101989523D01*
X80664819Y-101989523D02*
X80664819Y-102084761D01*
X80664819Y-102084761D02*
X80617200Y-102179999D01*
X80617200Y-102179999D02*
X80569580Y-102227618D01*
X80569580Y-102227618D02*
X80474342Y-102275237D01*
X80474342Y-102275237D02*
X80283866Y-102322856D01*
X80283866Y-102322856D02*
X80045771Y-102322856D01*
X80045771Y-102322856D02*
X79855295Y-102275237D01*
X79855295Y-102275237D02*
X79760057Y-102227618D01*
X79760057Y-102227618D02*
X79712438Y-102179999D01*
X79712438Y-102179999D02*
X79664819Y-102084761D01*
X102244819Y-107441904D02*
X103054342Y-107441904D01*
X103054342Y-107441904D02*
X103149580Y-107394285D01*
X103149580Y-107394285D02*
X103197200Y-107346666D01*
X103197200Y-107346666D02*
X103244819Y-107251428D01*
X103244819Y-107251428D02*
X103244819Y-107060952D01*
X103244819Y-107060952D02*
X103197200Y-106965714D01*
X103197200Y-106965714D02*
X103149580Y-106918095D01*
X103149580Y-106918095D02*
X103054342Y-106870476D01*
X103054342Y-106870476D02*
X102244819Y-106870476D01*
X102578152Y-105965714D02*
X103244819Y-105965714D01*
X102197200Y-106203809D02*
X102911485Y-106441904D01*
X102911485Y-106441904D02*
X102911485Y-105822857D01*
X79744819Y-123534285D02*
X78744819Y-123534285D01*
X78744819Y-123534285D02*
X79459104Y-123200952D01*
X79459104Y-123200952D02*
X78744819Y-122867619D01*
X78744819Y-122867619D02*
X79744819Y-122867619D01*
X79744819Y-122248571D02*
X79697200Y-122343809D01*
X79697200Y-122343809D02*
X79649580Y-122391428D01*
X79649580Y-122391428D02*
X79554342Y-122439047D01*
X79554342Y-122439047D02*
X79268628Y-122439047D01*
X79268628Y-122439047D02*
X79173390Y-122391428D01*
X79173390Y-122391428D02*
X79125771Y-122343809D01*
X79125771Y-122343809D02*
X79078152Y-122248571D01*
X79078152Y-122248571D02*
X79078152Y-122105714D01*
X79078152Y-122105714D02*
X79125771Y-122010476D01*
X79125771Y-122010476D02*
X79173390Y-121962857D01*
X79173390Y-121962857D02*
X79268628Y-121915238D01*
X79268628Y-121915238D02*
X79554342Y-121915238D01*
X79554342Y-121915238D02*
X79649580Y-121962857D01*
X79649580Y-121962857D02*
X79697200Y-122010476D01*
X79697200Y-122010476D02*
X79744819Y-122105714D01*
X79744819Y-122105714D02*
X79744819Y-122248571D01*
X79078152Y-121629523D02*
X79078152Y-121248571D01*
X78744819Y-121486666D02*
X79601961Y-121486666D01*
X79601961Y-121486666D02*
X79697200Y-121439047D01*
X79697200Y-121439047D02*
X79744819Y-121343809D01*
X79744819Y-121343809D02*
X79744819Y-121248571D01*
X79744819Y-120772380D02*
X79697200Y-120867618D01*
X79697200Y-120867618D02*
X79649580Y-120915237D01*
X79649580Y-120915237D02*
X79554342Y-120962856D01*
X79554342Y-120962856D02*
X79268628Y-120962856D01*
X79268628Y-120962856D02*
X79173390Y-120915237D01*
X79173390Y-120915237D02*
X79125771Y-120867618D01*
X79125771Y-120867618D02*
X79078152Y-120772380D01*
X79078152Y-120772380D02*
X79078152Y-120629523D01*
X79078152Y-120629523D02*
X79125771Y-120534285D01*
X79125771Y-120534285D02*
X79173390Y-120486666D01*
X79173390Y-120486666D02*
X79268628Y-120439047D01*
X79268628Y-120439047D02*
X79554342Y-120439047D01*
X79554342Y-120439047D02*
X79649580Y-120486666D01*
X79649580Y-120486666D02*
X79697200Y-120534285D01*
X79697200Y-120534285D02*
X79744819Y-120629523D01*
X79744819Y-120629523D02*
X79744819Y-120772380D01*
X79744819Y-120010475D02*
X79078152Y-120010475D01*
X79268628Y-120010475D02*
X79173390Y-119962856D01*
X79173390Y-119962856D02*
X79125771Y-119915237D01*
X79125771Y-119915237D02*
X79078152Y-119819999D01*
X79078152Y-119819999D02*
X79078152Y-119724761D01*
X79840057Y-119629523D02*
X79840057Y-118867618D01*
X79744819Y-118629522D02*
X78744819Y-118629522D01*
X78744819Y-118629522D02*
X78744819Y-118391427D01*
X78744819Y-118391427D02*
X78792438Y-118248570D01*
X78792438Y-118248570D02*
X78887676Y-118153332D01*
X78887676Y-118153332D02*
X78982914Y-118105713D01*
X78982914Y-118105713D02*
X79173390Y-118058094D01*
X79173390Y-118058094D02*
X79316247Y-118058094D01*
X79316247Y-118058094D02*
X79506723Y-118105713D01*
X79506723Y-118105713D02*
X79601961Y-118153332D01*
X79601961Y-118153332D02*
X79697200Y-118248570D01*
X79697200Y-118248570D02*
X79744819Y-118391427D01*
X79744819Y-118391427D02*
X79744819Y-118629522D01*
X79649580Y-117058094D02*
X79697200Y-117105713D01*
X79697200Y-117105713D02*
X79744819Y-117248570D01*
X79744819Y-117248570D02*
X79744819Y-117343808D01*
X79744819Y-117343808D02*
X79697200Y-117486665D01*
X79697200Y-117486665D02*
X79601961Y-117581903D01*
X79601961Y-117581903D02*
X79506723Y-117629522D01*
X79506723Y-117629522D02*
X79316247Y-117677141D01*
X79316247Y-117677141D02*
X79173390Y-117677141D01*
X79173390Y-117677141D02*
X78982914Y-117629522D01*
X78982914Y-117629522D02*
X78887676Y-117581903D01*
X78887676Y-117581903D02*
X78792438Y-117486665D01*
X78792438Y-117486665D02*
X78744819Y-117343808D01*
X78744819Y-117343808D02*
X78744819Y-117248570D01*
X78744819Y-117248570D02*
X78792438Y-117105713D01*
X78792438Y-117105713D02*
X78840057Y-117058094D01*
X93944819Y-121129523D02*
X92944819Y-121129523D01*
X92944819Y-121129523D02*
X93659104Y-120796190D01*
X93659104Y-120796190D02*
X92944819Y-120462857D01*
X92944819Y-120462857D02*
X93944819Y-120462857D01*
X93944819Y-119462857D02*
X93944819Y-120034285D01*
X93944819Y-119748571D02*
X92944819Y-119748571D01*
X92944819Y-119748571D02*
X93087676Y-119843809D01*
X93087676Y-119843809D02*
X93182914Y-119939047D01*
X93182914Y-119939047D02*
X93230533Y-120034285D01*
X88233333Y-73944819D02*
X87661905Y-73944819D01*
X87947619Y-73944819D02*
X87947619Y-72944819D01*
X87947619Y-72944819D02*
X87852381Y-73087676D01*
X87852381Y-73087676D02*
X87757143Y-73182914D01*
X87757143Y-73182914D02*
X87661905Y-73230533D01*
X88614286Y-73040057D02*
X88661905Y-72992438D01*
X88661905Y-72992438D02*
X88757143Y-72944819D01*
X88757143Y-72944819D02*
X88995238Y-72944819D01*
X88995238Y-72944819D02*
X89090476Y-72992438D01*
X89090476Y-72992438D02*
X89138095Y-73040057D01*
X89138095Y-73040057D02*
X89185714Y-73135295D01*
X89185714Y-73135295D02*
X89185714Y-73230533D01*
X89185714Y-73230533D02*
X89138095Y-73373390D01*
X89138095Y-73373390D02*
X88566667Y-73944819D01*
X88566667Y-73944819D02*
X89185714Y-73944819D01*
X89804762Y-72944819D02*
X89900000Y-72944819D01*
X89900000Y-72944819D02*
X89995238Y-72992438D01*
X89995238Y-72992438D02*
X90042857Y-73040057D01*
X90042857Y-73040057D02*
X90090476Y-73135295D01*
X90090476Y-73135295D02*
X90138095Y-73325771D01*
X90138095Y-73325771D02*
X90138095Y-73563866D01*
X90138095Y-73563866D02*
X90090476Y-73754342D01*
X90090476Y-73754342D02*
X90042857Y-73849580D01*
X90042857Y-73849580D02*
X89995238Y-73897200D01*
X89995238Y-73897200D02*
X89900000Y-73944819D01*
X89900000Y-73944819D02*
X89804762Y-73944819D01*
X89804762Y-73944819D02*
X89709524Y-73897200D01*
X89709524Y-73897200D02*
X89661905Y-73849580D01*
X89661905Y-73849580D02*
X89614286Y-73754342D01*
X89614286Y-73754342D02*
X89566667Y-73563866D01*
X89566667Y-73563866D02*
X89566667Y-73325771D01*
X89566667Y-73325771D02*
X89614286Y-73135295D01*
X89614286Y-73135295D02*
X89661905Y-73040057D01*
X89661905Y-73040057D02*
X89709524Y-72992438D01*
X89709524Y-72992438D02*
X89804762Y-72944819D01*
X88257142Y-71574819D02*
X87923809Y-71098628D01*
X87685714Y-71574819D02*
X87685714Y-70574819D01*
X87685714Y-70574819D02*
X88066666Y-70574819D01*
X88066666Y-70574819D02*
X88161904Y-70622438D01*
X88161904Y-70622438D02*
X88209523Y-70670057D01*
X88209523Y-70670057D02*
X88257142Y-70765295D01*
X88257142Y-70765295D02*
X88257142Y-70908152D01*
X88257142Y-70908152D02*
X88209523Y-71003390D01*
X88209523Y-71003390D02*
X88161904Y-71051009D01*
X88161904Y-71051009D02*
X88066666Y-71098628D01*
X88066666Y-71098628D02*
X87685714Y-71098628D01*
X89209523Y-71574819D02*
X88638095Y-71574819D01*
X88923809Y-71574819D02*
X88923809Y-70574819D01*
X88923809Y-70574819D02*
X88828571Y-70717676D01*
X88828571Y-70717676D02*
X88733333Y-70812914D01*
X88733333Y-70812914D02*
X88638095Y-70860533D01*
X89542857Y-70574819D02*
X90161904Y-70574819D01*
X90161904Y-70574819D02*
X89828571Y-70955771D01*
X89828571Y-70955771D02*
X89971428Y-70955771D01*
X89971428Y-70955771D02*
X90066666Y-71003390D01*
X90066666Y-71003390D02*
X90114285Y-71051009D01*
X90114285Y-71051009D02*
X90161904Y-71146247D01*
X90161904Y-71146247D02*
X90161904Y-71384342D01*
X90161904Y-71384342D02*
X90114285Y-71479580D01*
X90114285Y-71479580D02*
X90066666Y-71527200D01*
X90066666Y-71527200D02*
X89971428Y-71574819D01*
X89971428Y-71574819D02*
X89685714Y-71574819D01*
X89685714Y-71574819D02*
X89590476Y-71527200D01*
X89590476Y-71527200D02*
X89542857Y-71479580D01*
X175588094Y-80109580D02*
X175540475Y-80157200D01*
X175540475Y-80157200D02*
X175397618Y-80204819D01*
X175397618Y-80204819D02*
X175302380Y-80204819D01*
X175302380Y-80204819D02*
X175159523Y-80157200D01*
X175159523Y-80157200D02*
X175064285Y-80061961D01*
X175064285Y-80061961D02*
X175016666Y-79966723D01*
X175016666Y-79966723D02*
X174969047Y-79776247D01*
X174969047Y-79776247D02*
X174969047Y-79633390D01*
X174969047Y-79633390D02*
X175016666Y-79442914D01*
X175016666Y-79442914D02*
X175064285Y-79347676D01*
X175064285Y-79347676D02*
X175159523Y-79252438D01*
X175159523Y-79252438D02*
X175302380Y-79204819D01*
X175302380Y-79204819D02*
X175397618Y-79204819D01*
X175397618Y-79204819D02*
X175540475Y-79252438D01*
X175540475Y-79252438D02*
X175588094Y-79300057D01*
X176159523Y-80204819D02*
X176064285Y-80157200D01*
X176064285Y-80157200D02*
X176016666Y-80109580D01*
X176016666Y-80109580D02*
X175969047Y-80014342D01*
X175969047Y-80014342D02*
X175969047Y-79728628D01*
X175969047Y-79728628D02*
X176016666Y-79633390D01*
X176016666Y-79633390D02*
X176064285Y-79585771D01*
X176064285Y-79585771D02*
X176159523Y-79538152D01*
X176159523Y-79538152D02*
X176302380Y-79538152D01*
X176302380Y-79538152D02*
X176397618Y-79585771D01*
X176397618Y-79585771D02*
X176445237Y-79633390D01*
X176445237Y-79633390D02*
X176492856Y-79728628D01*
X176492856Y-79728628D02*
X176492856Y-80014342D01*
X176492856Y-80014342D02*
X176445237Y-80109580D01*
X176445237Y-80109580D02*
X176397618Y-80157200D01*
X176397618Y-80157200D02*
X176302380Y-80204819D01*
X176302380Y-80204819D02*
X176159523Y-80204819D01*
X176921428Y-79538152D02*
X176921428Y-80204819D01*
X176921428Y-79633390D02*
X176969047Y-79585771D01*
X176969047Y-79585771D02*
X177064285Y-79538152D01*
X177064285Y-79538152D02*
X177207142Y-79538152D01*
X177207142Y-79538152D02*
X177302380Y-79585771D01*
X177302380Y-79585771D02*
X177349999Y-79681009D01*
X177349999Y-79681009D02*
X177349999Y-80204819D01*
X177826190Y-79538152D02*
X177826190Y-80204819D01*
X177826190Y-79633390D02*
X177873809Y-79585771D01*
X177873809Y-79585771D02*
X177969047Y-79538152D01*
X177969047Y-79538152D02*
X178111904Y-79538152D01*
X178111904Y-79538152D02*
X178207142Y-79585771D01*
X178207142Y-79585771D02*
X178254761Y-79681009D01*
X178254761Y-79681009D02*
X178254761Y-80204819D01*
X178492857Y-80300057D02*
X179254761Y-80300057D01*
X179492857Y-80204819D02*
X179492857Y-79204819D01*
X179492857Y-79681009D02*
X180064285Y-79681009D01*
X180064285Y-80204819D02*
X180064285Y-79204819D01*
X181111904Y-80109580D02*
X181064285Y-80157200D01*
X181064285Y-80157200D02*
X180921428Y-80204819D01*
X180921428Y-80204819D02*
X180826190Y-80204819D01*
X180826190Y-80204819D02*
X180683333Y-80157200D01*
X180683333Y-80157200D02*
X180588095Y-80061961D01*
X180588095Y-80061961D02*
X180540476Y-79966723D01*
X180540476Y-79966723D02*
X180492857Y-79776247D01*
X180492857Y-79776247D02*
X180492857Y-79633390D01*
X180492857Y-79633390D02*
X180540476Y-79442914D01*
X180540476Y-79442914D02*
X180588095Y-79347676D01*
X180588095Y-79347676D02*
X180683333Y-79252438D01*
X180683333Y-79252438D02*
X180826190Y-79204819D01*
X180826190Y-79204819D02*
X180921428Y-79204819D01*
X180921428Y-79204819D02*
X181064285Y-79252438D01*
X181064285Y-79252438D02*
X181111904Y-79300057D01*
X181302381Y-80300057D02*
X182064285Y-80300057D01*
X182254762Y-80157200D02*
X182397619Y-80204819D01*
X182397619Y-80204819D02*
X182635714Y-80204819D01*
X182635714Y-80204819D02*
X182730952Y-80157200D01*
X182730952Y-80157200D02*
X182778571Y-80109580D01*
X182778571Y-80109580D02*
X182826190Y-80014342D01*
X182826190Y-80014342D02*
X182826190Y-79919104D01*
X182826190Y-79919104D02*
X182778571Y-79823866D01*
X182778571Y-79823866D02*
X182730952Y-79776247D01*
X182730952Y-79776247D02*
X182635714Y-79728628D01*
X182635714Y-79728628D02*
X182445238Y-79681009D01*
X182445238Y-79681009D02*
X182350000Y-79633390D01*
X182350000Y-79633390D02*
X182302381Y-79585771D01*
X182302381Y-79585771D02*
X182254762Y-79490533D01*
X182254762Y-79490533D02*
X182254762Y-79395295D01*
X182254762Y-79395295D02*
X182302381Y-79300057D01*
X182302381Y-79300057D02*
X182350000Y-79252438D01*
X182350000Y-79252438D02*
X182445238Y-79204819D01*
X182445238Y-79204819D02*
X182683333Y-79204819D01*
X182683333Y-79204819D02*
X182826190Y-79252438D01*
X183826190Y-80204819D02*
X183492857Y-79728628D01*
X183254762Y-80204819D02*
X183254762Y-79204819D01*
X183254762Y-79204819D02*
X183635714Y-79204819D01*
X183635714Y-79204819D02*
X183730952Y-79252438D01*
X183730952Y-79252438D02*
X183778571Y-79300057D01*
X183778571Y-79300057D02*
X183826190Y-79395295D01*
X183826190Y-79395295D02*
X183826190Y-79538152D01*
X183826190Y-79538152D02*
X183778571Y-79633390D01*
X183778571Y-79633390D02*
X183730952Y-79681009D01*
X183730952Y-79681009D02*
X183635714Y-79728628D01*
X183635714Y-79728628D02*
X183254762Y-79728628D01*
X184445238Y-79204819D02*
X184540476Y-79204819D01*
X184540476Y-79204819D02*
X184635714Y-79252438D01*
X184635714Y-79252438D02*
X184683333Y-79300057D01*
X184683333Y-79300057D02*
X184730952Y-79395295D01*
X184730952Y-79395295D02*
X184778571Y-79585771D01*
X184778571Y-79585771D02*
X184778571Y-79823866D01*
X184778571Y-79823866D02*
X184730952Y-80014342D01*
X184730952Y-80014342D02*
X184683333Y-80109580D01*
X184683333Y-80109580D02*
X184635714Y-80157200D01*
X184635714Y-80157200D02*
X184540476Y-80204819D01*
X184540476Y-80204819D02*
X184445238Y-80204819D01*
X184445238Y-80204819D02*
X184350000Y-80157200D01*
X184350000Y-80157200D02*
X184302381Y-80109580D01*
X184302381Y-80109580D02*
X184254762Y-80014342D01*
X184254762Y-80014342D02*
X184207143Y-79823866D01*
X184207143Y-79823866D02*
X184207143Y-79585771D01*
X184207143Y-79585771D02*
X184254762Y-79395295D01*
X184254762Y-79395295D02*
X184302381Y-79300057D01*
X184302381Y-79300057D02*
X184350000Y-79252438D01*
X184350000Y-79252438D02*
X184445238Y-79204819D01*
X185635714Y-79538152D02*
X185635714Y-80204819D01*
X185397619Y-79157200D02*
X185159524Y-79871485D01*
X185159524Y-79871485D02*
X185778571Y-79871485D01*
X178189819Y-74003333D02*
X178904104Y-74003333D01*
X178904104Y-74003333D02*
X179046961Y-74050952D01*
X179046961Y-74050952D02*
X179142200Y-74146190D01*
X179142200Y-74146190D02*
X179189819Y-74289047D01*
X179189819Y-74289047D02*
X179189819Y-74384285D01*
X178189819Y-73622380D02*
X178189819Y-73003333D01*
X178189819Y-73003333D02*
X178570771Y-73336666D01*
X178570771Y-73336666D02*
X178570771Y-73193809D01*
X178570771Y-73193809D02*
X178618390Y-73098571D01*
X178618390Y-73098571D02*
X178666009Y-73050952D01*
X178666009Y-73050952D02*
X178761247Y-73003333D01*
X178761247Y-73003333D02*
X178999342Y-73003333D01*
X178999342Y-73003333D02*
X179094580Y-73050952D01*
X179094580Y-73050952D02*
X179142200Y-73098571D01*
X179142200Y-73098571D02*
X179189819Y-73193809D01*
X179189819Y-73193809D02*
X179189819Y-73479523D01*
X179189819Y-73479523D02*
X179142200Y-73574761D01*
X179142200Y-73574761D02*
X179094580Y-73622380D01*
X88161905Y-88524819D02*
X88780952Y-88524819D01*
X88780952Y-88524819D02*
X88447619Y-88905771D01*
X88447619Y-88905771D02*
X88590476Y-88905771D01*
X88590476Y-88905771D02*
X88685714Y-88953390D01*
X88685714Y-88953390D02*
X88733333Y-89001009D01*
X88733333Y-89001009D02*
X88780952Y-89096247D01*
X88780952Y-89096247D02*
X88780952Y-89334342D01*
X88780952Y-89334342D02*
X88733333Y-89429580D01*
X88733333Y-89429580D02*
X88685714Y-89477200D01*
X88685714Y-89477200D02*
X88590476Y-89524819D01*
X88590476Y-89524819D02*
X88304762Y-89524819D01*
X88304762Y-89524819D02*
X88209524Y-89477200D01*
X88209524Y-89477200D02*
X88161905Y-89429580D01*
X89209524Y-89524819D02*
X89209524Y-88524819D01*
X89304762Y-89143866D02*
X89590476Y-89524819D01*
X89590476Y-88858152D02*
X89209524Y-89239104D01*
X88733333Y-91894819D02*
X88400000Y-91418628D01*
X88161905Y-91894819D02*
X88161905Y-90894819D01*
X88161905Y-90894819D02*
X88542857Y-90894819D01*
X88542857Y-90894819D02*
X88638095Y-90942438D01*
X88638095Y-90942438D02*
X88685714Y-90990057D01*
X88685714Y-90990057D02*
X88733333Y-91085295D01*
X88733333Y-91085295D02*
X88733333Y-91228152D01*
X88733333Y-91228152D02*
X88685714Y-91323390D01*
X88685714Y-91323390D02*
X88638095Y-91371009D01*
X88638095Y-91371009D02*
X88542857Y-91418628D01*
X88542857Y-91418628D02*
X88161905Y-91418628D01*
X89114286Y-90990057D02*
X89161905Y-90942438D01*
X89161905Y-90942438D02*
X89257143Y-90894819D01*
X89257143Y-90894819D02*
X89495238Y-90894819D01*
X89495238Y-90894819D02*
X89590476Y-90942438D01*
X89590476Y-90942438D02*
X89638095Y-90990057D01*
X89638095Y-90990057D02*
X89685714Y-91085295D01*
X89685714Y-91085295D02*
X89685714Y-91180533D01*
X89685714Y-91180533D02*
X89638095Y-91323390D01*
X89638095Y-91323390D02*
X89066667Y-91894819D01*
X89066667Y-91894819D02*
X89685714Y-91894819D01*
X80664819Y-85684762D02*
X80664819Y-86160952D01*
X80664819Y-86160952D02*
X79664819Y-86160952D01*
X80664819Y-85351428D02*
X79664819Y-85351428D01*
X79664819Y-85351428D02*
X80379104Y-85018095D01*
X80379104Y-85018095D02*
X79664819Y-84684762D01*
X79664819Y-84684762D02*
X80664819Y-84684762D01*
X79664819Y-84303809D02*
X79664819Y-83684762D01*
X79664819Y-83684762D02*
X80045771Y-84018095D01*
X80045771Y-84018095D02*
X80045771Y-83875238D01*
X80045771Y-83875238D02*
X80093390Y-83780000D01*
X80093390Y-83780000D02*
X80141009Y-83732381D01*
X80141009Y-83732381D02*
X80236247Y-83684762D01*
X80236247Y-83684762D02*
X80474342Y-83684762D01*
X80474342Y-83684762D02*
X80569580Y-83732381D01*
X80569580Y-83732381D02*
X80617200Y-83780000D01*
X80617200Y-83780000D02*
X80664819Y-83875238D01*
X80664819Y-83875238D02*
X80664819Y-84160952D01*
X80664819Y-84160952D02*
X80617200Y-84256190D01*
X80617200Y-84256190D02*
X80569580Y-84303809D01*
X79664819Y-82780000D02*
X79664819Y-83256190D01*
X79664819Y-83256190D02*
X80141009Y-83303809D01*
X80141009Y-83303809D02*
X80093390Y-83256190D01*
X80093390Y-83256190D02*
X80045771Y-83160952D01*
X80045771Y-83160952D02*
X80045771Y-82922857D01*
X80045771Y-82922857D02*
X80093390Y-82827619D01*
X80093390Y-82827619D02*
X80141009Y-82780000D01*
X80141009Y-82780000D02*
X80236247Y-82732381D01*
X80236247Y-82732381D02*
X80474342Y-82732381D01*
X80474342Y-82732381D02*
X80569580Y-82780000D01*
X80569580Y-82780000D02*
X80617200Y-82827619D01*
X80617200Y-82827619D02*
X80664819Y-82922857D01*
X80664819Y-82922857D02*
X80664819Y-83160952D01*
X80664819Y-83160952D02*
X80617200Y-83256190D01*
X80617200Y-83256190D02*
X80569580Y-83303809D01*
X79664819Y-82113333D02*
X79664819Y-82018095D01*
X79664819Y-82018095D02*
X79712438Y-81922857D01*
X79712438Y-81922857D02*
X79760057Y-81875238D01*
X79760057Y-81875238D02*
X79855295Y-81827619D01*
X79855295Y-81827619D02*
X80045771Y-81780000D01*
X80045771Y-81780000D02*
X80283866Y-81780000D01*
X80283866Y-81780000D02*
X80474342Y-81827619D01*
X80474342Y-81827619D02*
X80569580Y-81875238D01*
X80569580Y-81875238D02*
X80617200Y-81922857D01*
X80617200Y-81922857D02*
X80664819Y-82018095D01*
X80664819Y-82018095D02*
X80664819Y-82113333D01*
X80664819Y-82113333D02*
X80617200Y-82208571D01*
X80617200Y-82208571D02*
X80569580Y-82256190D01*
X80569580Y-82256190D02*
X80474342Y-82303809D01*
X80474342Y-82303809D02*
X80283866Y-82351428D01*
X80283866Y-82351428D02*
X80045771Y-82351428D01*
X80045771Y-82351428D02*
X79855295Y-82303809D01*
X79855295Y-82303809D02*
X79760057Y-82256190D01*
X79760057Y-82256190D02*
X79712438Y-82208571D01*
X79712438Y-82208571D02*
X79664819Y-82113333D01*
X80760057Y-81589524D02*
X80760057Y-80827619D01*
X79664819Y-80732380D02*
X79664819Y-80160952D01*
X80664819Y-80446666D02*
X79664819Y-80446666D01*
X79664819Y-79637142D02*
X79664819Y-79446666D01*
X79664819Y-79446666D02*
X79712438Y-79351428D01*
X79712438Y-79351428D02*
X79807676Y-79256190D01*
X79807676Y-79256190D02*
X79998152Y-79208571D01*
X79998152Y-79208571D02*
X80331485Y-79208571D01*
X80331485Y-79208571D02*
X80521961Y-79256190D01*
X80521961Y-79256190D02*
X80617200Y-79351428D01*
X80617200Y-79351428D02*
X80664819Y-79446666D01*
X80664819Y-79446666D02*
X80664819Y-79637142D01*
X80664819Y-79637142D02*
X80617200Y-79732380D01*
X80617200Y-79732380D02*
X80521961Y-79827618D01*
X80521961Y-79827618D02*
X80331485Y-79875237D01*
X80331485Y-79875237D02*
X79998152Y-79875237D01*
X79998152Y-79875237D02*
X79807676Y-79827618D01*
X79807676Y-79827618D02*
X79712438Y-79732380D01*
X79712438Y-79732380D02*
X79664819Y-79637142D01*
X79760057Y-78827618D02*
X79712438Y-78779999D01*
X79712438Y-78779999D02*
X79664819Y-78684761D01*
X79664819Y-78684761D02*
X79664819Y-78446666D01*
X79664819Y-78446666D02*
X79712438Y-78351428D01*
X79712438Y-78351428D02*
X79760057Y-78303809D01*
X79760057Y-78303809D02*
X79855295Y-78256190D01*
X79855295Y-78256190D02*
X79950533Y-78256190D01*
X79950533Y-78256190D02*
X80093390Y-78303809D01*
X80093390Y-78303809D02*
X80664819Y-78875237D01*
X80664819Y-78875237D02*
X80664819Y-78256190D01*
X79760057Y-77875237D02*
X79712438Y-77827618D01*
X79712438Y-77827618D02*
X79664819Y-77732380D01*
X79664819Y-77732380D02*
X79664819Y-77494285D01*
X79664819Y-77494285D02*
X79712438Y-77399047D01*
X79712438Y-77399047D02*
X79760057Y-77351428D01*
X79760057Y-77351428D02*
X79855295Y-77303809D01*
X79855295Y-77303809D02*
X79950533Y-77303809D01*
X79950533Y-77303809D02*
X80093390Y-77351428D01*
X80093390Y-77351428D02*
X80664819Y-77922856D01*
X80664819Y-77922856D02*
X80664819Y-77303809D01*
X79664819Y-76684761D02*
X79664819Y-76589523D01*
X79664819Y-76589523D02*
X79712438Y-76494285D01*
X79712438Y-76494285D02*
X79760057Y-76446666D01*
X79760057Y-76446666D02*
X79855295Y-76399047D01*
X79855295Y-76399047D02*
X80045771Y-76351428D01*
X80045771Y-76351428D02*
X80283866Y-76351428D01*
X80283866Y-76351428D02*
X80474342Y-76399047D01*
X80474342Y-76399047D02*
X80569580Y-76446666D01*
X80569580Y-76446666D02*
X80617200Y-76494285D01*
X80617200Y-76494285D02*
X80664819Y-76589523D01*
X80664819Y-76589523D02*
X80664819Y-76684761D01*
X80664819Y-76684761D02*
X80617200Y-76779999D01*
X80617200Y-76779999D02*
X80569580Y-76827618D01*
X80569580Y-76827618D02*
X80474342Y-76875237D01*
X80474342Y-76875237D02*
X80283866Y-76922856D01*
X80283866Y-76922856D02*
X80045771Y-76922856D01*
X80045771Y-76922856D02*
X79855295Y-76875237D01*
X79855295Y-76875237D02*
X79760057Y-76827618D01*
X79760057Y-76827618D02*
X79712438Y-76779999D01*
X79712438Y-76779999D02*
X79664819Y-76684761D01*
X102244819Y-82041904D02*
X103054342Y-82041904D01*
X103054342Y-82041904D02*
X103149580Y-81994285D01*
X103149580Y-81994285D02*
X103197200Y-81946666D01*
X103197200Y-81946666D02*
X103244819Y-81851428D01*
X103244819Y-81851428D02*
X103244819Y-81660952D01*
X103244819Y-81660952D02*
X103197200Y-81565714D01*
X103197200Y-81565714D02*
X103149580Y-81518095D01*
X103149580Y-81518095D02*
X103054342Y-81470476D01*
X103054342Y-81470476D02*
X102244819Y-81470476D01*
X102244819Y-81089523D02*
X102244819Y-80470476D01*
X102244819Y-80470476D02*
X102625771Y-80803809D01*
X102625771Y-80803809D02*
X102625771Y-80660952D01*
X102625771Y-80660952D02*
X102673390Y-80565714D01*
X102673390Y-80565714D02*
X102721009Y-80518095D01*
X102721009Y-80518095D02*
X102816247Y-80470476D01*
X102816247Y-80470476D02*
X103054342Y-80470476D01*
X103054342Y-80470476D02*
X103149580Y-80518095D01*
X103149580Y-80518095D02*
X103197200Y-80565714D01*
X103197200Y-80565714D02*
X103244819Y-80660952D01*
X103244819Y-80660952D02*
X103244819Y-80946666D01*
X103244819Y-80946666D02*
X103197200Y-81041904D01*
X103197200Y-81041904D02*
X103149580Y-81089523D01*
X168249580Y-139549047D02*
X168297200Y-139596666D01*
X168297200Y-139596666D02*
X168344819Y-139739523D01*
X168344819Y-139739523D02*
X168344819Y-139834761D01*
X168344819Y-139834761D02*
X168297200Y-139977618D01*
X168297200Y-139977618D02*
X168201961Y-140072856D01*
X168201961Y-140072856D02*
X168106723Y-140120475D01*
X168106723Y-140120475D02*
X167916247Y-140168094D01*
X167916247Y-140168094D02*
X167773390Y-140168094D01*
X167773390Y-140168094D02*
X167582914Y-140120475D01*
X167582914Y-140120475D02*
X167487676Y-140072856D01*
X167487676Y-140072856D02*
X167392438Y-139977618D01*
X167392438Y-139977618D02*
X167344819Y-139834761D01*
X167344819Y-139834761D02*
X167344819Y-139739523D01*
X167344819Y-139739523D02*
X167392438Y-139596666D01*
X167392438Y-139596666D02*
X167440057Y-139549047D01*
X168344819Y-139072856D02*
X168344819Y-138882380D01*
X168344819Y-138882380D02*
X168297200Y-138787142D01*
X168297200Y-138787142D02*
X168249580Y-138739523D01*
X168249580Y-138739523D02*
X168106723Y-138644285D01*
X168106723Y-138644285D02*
X167916247Y-138596666D01*
X167916247Y-138596666D02*
X167535295Y-138596666D01*
X167535295Y-138596666D02*
X167440057Y-138644285D01*
X167440057Y-138644285D02*
X167392438Y-138691904D01*
X167392438Y-138691904D02*
X167344819Y-138787142D01*
X167344819Y-138787142D02*
X167344819Y-138977618D01*
X167344819Y-138977618D02*
X167392438Y-139072856D01*
X167392438Y-139072856D02*
X167440057Y-139120475D01*
X167440057Y-139120475D02*
X167535295Y-139168094D01*
X167535295Y-139168094D02*
X167773390Y-139168094D01*
X167773390Y-139168094D02*
X167868628Y-139120475D01*
X167868628Y-139120475D02*
X167916247Y-139072856D01*
X167916247Y-139072856D02*
X167963866Y-138977618D01*
X167963866Y-138977618D02*
X167963866Y-138787142D01*
X167963866Y-138787142D02*
X167916247Y-138691904D01*
X167916247Y-138691904D02*
X167868628Y-138644285D01*
X167868628Y-138644285D02*
X167773390Y-138596666D01*
X167678152Y-137739523D02*
X168344819Y-137739523D01*
X167297200Y-137977618D02*
X168011485Y-138215713D01*
X168011485Y-138215713D02*
X168011485Y-137596666D01*
X167344819Y-136739523D02*
X167344819Y-137215713D01*
X167344819Y-137215713D02*
X167821009Y-137263332D01*
X167821009Y-137263332D02*
X167773390Y-137215713D01*
X167773390Y-137215713D02*
X167725771Y-137120475D01*
X167725771Y-137120475D02*
X167725771Y-136882380D01*
X167725771Y-136882380D02*
X167773390Y-136787142D01*
X167773390Y-136787142D02*
X167821009Y-136739523D01*
X167821009Y-136739523D02*
X167916247Y-136691904D01*
X167916247Y-136691904D02*
X168154342Y-136691904D01*
X168154342Y-136691904D02*
X168249580Y-136739523D01*
X168249580Y-136739523D02*
X168297200Y-136787142D01*
X168297200Y-136787142D02*
X168344819Y-136882380D01*
X168344819Y-136882380D02*
X168344819Y-137120475D01*
X168344819Y-137120475D02*
X168297200Y-137215713D01*
X168297200Y-137215713D02*
X168249580Y-137263332D01*
X165650057Y-138525238D02*
X165602438Y-138620476D01*
X165602438Y-138620476D02*
X165507200Y-138715714D01*
X165507200Y-138715714D02*
X165364342Y-138858571D01*
X165364342Y-138858571D02*
X165316723Y-138953809D01*
X165316723Y-138953809D02*
X165316723Y-139049047D01*
X165554819Y-139001428D02*
X165507200Y-139096666D01*
X165507200Y-139096666D02*
X165411961Y-139191904D01*
X165411961Y-139191904D02*
X165221485Y-139239523D01*
X165221485Y-139239523D02*
X164888152Y-139239523D01*
X164888152Y-139239523D02*
X164697676Y-139191904D01*
X164697676Y-139191904D02*
X164602438Y-139096666D01*
X164602438Y-139096666D02*
X164554819Y-139001428D01*
X164554819Y-139001428D02*
X164554819Y-138810952D01*
X164554819Y-138810952D02*
X164602438Y-138715714D01*
X164602438Y-138715714D02*
X164697676Y-138620476D01*
X164697676Y-138620476D02*
X164888152Y-138572857D01*
X164888152Y-138572857D02*
X165221485Y-138572857D01*
X165221485Y-138572857D02*
X165411961Y-138620476D01*
X165411961Y-138620476D02*
X165507200Y-138715714D01*
X165507200Y-138715714D02*
X165554819Y-138810952D01*
X165554819Y-138810952D02*
X165554819Y-139001428D01*
X165554819Y-137620476D02*
X165554819Y-138191904D01*
X165554819Y-137906190D02*
X164554819Y-137906190D01*
X164554819Y-137906190D02*
X164697676Y-138001428D01*
X164697676Y-138001428D02*
X164792914Y-138096666D01*
X164792914Y-138096666D02*
X164840533Y-138191904D01*
X80664819Y-60903809D02*
X80664819Y-61379999D01*
X80664819Y-61379999D02*
X79664819Y-61379999D01*
X80664819Y-60570475D02*
X79664819Y-60570475D01*
X79664819Y-60570475D02*
X80379104Y-60237142D01*
X80379104Y-60237142D02*
X79664819Y-59903809D01*
X79664819Y-59903809D02*
X80664819Y-59903809D01*
X79664819Y-59522856D02*
X79664819Y-58903809D01*
X79664819Y-58903809D02*
X80045771Y-59237142D01*
X80045771Y-59237142D02*
X80045771Y-59094285D01*
X80045771Y-59094285D02*
X80093390Y-58999047D01*
X80093390Y-58999047D02*
X80141009Y-58951428D01*
X80141009Y-58951428D02*
X80236247Y-58903809D01*
X80236247Y-58903809D02*
X80474342Y-58903809D01*
X80474342Y-58903809D02*
X80569580Y-58951428D01*
X80569580Y-58951428D02*
X80617200Y-58999047D01*
X80617200Y-58999047D02*
X80664819Y-59094285D01*
X80664819Y-59094285D02*
X80664819Y-59379999D01*
X80664819Y-59379999D02*
X80617200Y-59475237D01*
X80617200Y-59475237D02*
X80569580Y-59522856D01*
X80664819Y-57951428D02*
X80664819Y-58522856D01*
X80664819Y-58237142D02*
X79664819Y-58237142D01*
X79664819Y-58237142D02*
X79807676Y-58332380D01*
X79807676Y-58332380D02*
X79902914Y-58427618D01*
X79902914Y-58427618D02*
X79950533Y-58522856D01*
X79664819Y-57618094D02*
X79664819Y-56951428D01*
X79664819Y-56951428D02*
X80664819Y-57379999D01*
X80760057Y-56808571D02*
X80760057Y-56046666D01*
X79664819Y-55951427D02*
X79664819Y-55379999D01*
X80664819Y-55665713D02*
X79664819Y-55665713D01*
X79664819Y-54856189D02*
X79664819Y-54665713D01*
X79664819Y-54665713D02*
X79712438Y-54570475D01*
X79712438Y-54570475D02*
X79807676Y-54475237D01*
X79807676Y-54475237D02*
X79998152Y-54427618D01*
X79998152Y-54427618D02*
X80331485Y-54427618D01*
X80331485Y-54427618D02*
X80521961Y-54475237D01*
X80521961Y-54475237D02*
X80617200Y-54570475D01*
X80617200Y-54570475D02*
X80664819Y-54665713D01*
X80664819Y-54665713D02*
X80664819Y-54856189D01*
X80664819Y-54856189D02*
X80617200Y-54951427D01*
X80617200Y-54951427D02*
X80521961Y-55046665D01*
X80521961Y-55046665D02*
X80331485Y-55094284D01*
X80331485Y-55094284D02*
X79998152Y-55094284D01*
X79998152Y-55094284D02*
X79807676Y-55046665D01*
X79807676Y-55046665D02*
X79712438Y-54951427D01*
X79712438Y-54951427D02*
X79664819Y-54856189D01*
X80283866Y-53999046D02*
X80283866Y-53237142D01*
X79760057Y-52808570D02*
X79712438Y-52760951D01*
X79712438Y-52760951D02*
X79664819Y-52665713D01*
X79664819Y-52665713D02*
X79664819Y-52427618D01*
X79664819Y-52427618D02*
X79712438Y-52332380D01*
X79712438Y-52332380D02*
X79760057Y-52284761D01*
X79760057Y-52284761D02*
X79855295Y-52237142D01*
X79855295Y-52237142D02*
X79950533Y-52237142D01*
X79950533Y-52237142D02*
X80093390Y-52284761D01*
X80093390Y-52284761D02*
X80664819Y-52856189D01*
X80664819Y-52856189D02*
X80664819Y-52237142D01*
X79760057Y-51856189D02*
X79712438Y-51808570D01*
X79712438Y-51808570D02*
X79664819Y-51713332D01*
X79664819Y-51713332D02*
X79664819Y-51475237D01*
X79664819Y-51475237D02*
X79712438Y-51379999D01*
X79712438Y-51379999D02*
X79760057Y-51332380D01*
X79760057Y-51332380D02*
X79855295Y-51284761D01*
X79855295Y-51284761D02*
X79950533Y-51284761D01*
X79950533Y-51284761D02*
X80093390Y-51332380D01*
X80093390Y-51332380D02*
X80664819Y-51903808D01*
X80664819Y-51903808D02*
X80664819Y-51284761D01*
X79664819Y-50665713D02*
X79664819Y-50570475D01*
X79664819Y-50570475D02*
X79712438Y-50475237D01*
X79712438Y-50475237D02*
X79760057Y-50427618D01*
X79760057Y-50427618D02*
X79855295Y-50379999D01*
X79855295Y-50379999D02*
X80045771Y-50332380D01*
X80045771Y-50332380D02*
X80283866Y-50332380D01*
X80283866Y-50332380D02*
X80474342Y-50379999D01*
X80474342Y-50379999D02*
X80569580Y-50427618D01*
X80569580Y-50427618D02*
X80617200Y-50475237D01*
X80617200Y-50475237D02*
X80664819Y-50570475D01*
X80664819Y-50570475D02*
X80664819Y-50665713D01*
X80664819Y-50665713D02*
X80617200Y-50760951D01*
X80617200Y-50760951D02*
X80569580Y-50808570D01*
X80569580Y-50808570D02*
X80474342Y-50856189D01*
X80474342Y-50856189D02*
X80283866Y-50903808D01*
X80283866Y-50903808D02*
X80045771Y-50903808D01*
X80045771Y-50903808D02*
X79855295Y-50856189D01*
X79855295Y-50856189D02*
X79760057Y-50808570D01*
X79760057Y-50808570D02*
X79712438Y-50760951D01*
X79712438Y-50760951D02*
X79664819Y-50665713D01*
X102244819Y-56641904D02*
X103054342Y-56641904D01*
X103054342Y-56641904D02*
X103149580Y-56594285D01*
X103149580Y-56594285D02*
X103197200Y-56546666D01*
X103197200Y-56546666D02*
X103244819Y-56451428D01*
X103244819Y-56451428D02*
X103244819Y-56260952D01*
X103244819Y-56260952D02*
X103197200Y-56165714D01*
X103197200Y-56165714D02*
X103149580Y-56118095D01*
X103149580Y-56118095D02*
X103054342Y-56070476D01*
X103054342Y-56070476D02*
X102244819Y-56070476D01*
X102244819Y-55118095D02*
X102244819Y-55594285D01*
X102244819Y-55594285D02*
X102721009Y-55641904D01*
X102721009Y-55641904D02*
X102673390Y-55594285D01*
X102673390Y-55594285D02*
X102625771Y-55499047D01*
X102625771Y-55499047D02*
X102625771Y-55260952D01*
X102625771Y-55260952D02*
X102673390Y-55165714D01*
X102673390Y-55165714D02*
X102721009Y-55118095D01*
X102721009Y-55118095D02*
X102816247Y-55070476D01*
X102816247Y-55070476D02*
X103054342Y-55070476D01*
X103054342Y-55070476D02*
X103149580Y-55118095D01*
X103149580Y-55118095D02*
X103197200Y-55165714D01*
X103197200Y-55165714D02*
X103244819Y-55260952D01*
X103244819Y-55260952D02*
X103244819Y-55499047D01*
X103244819Y-55499047D02*
X103197200Y-55594285D01*
X103197200Y-55594285D02*
X103149580Y-55641904D01*
X84995236Y-48511009D02*
X85138093Y-48558628D01*
X85138093Y-48558628D02*
X85185712Y-48606247D01*
X85185712Y-48606247D02*
X85233331Y-48701485D01*
X85233331Y-48701485D02*
X85233331Y-48844342D01*
X85233331Y-48844342D02*
X85185712Y-48939580D01*
X85185712Y-48939580D02*
X85138093Y-48987200D01*
X85138093Y-48987200D02*
X85042855Y-49034819D01*
X85042855Y-49034819D02*
X84661903Y-49034819D01*
X84661903Y-49034819D02*
X84661903Y-48034819D01*
X84661903Y-48034819D02*
X84995236Y-48034819D01*
X84995236Y-48034819D02*
X85090474Y-48082438D01*
X85090474Y-48082438D02*
X85138093Y-48130057D01*
X85138093Y-48130057D02*
X85185712Y-48225295D01*
X85185712Y-48225295D02*
X85185712Y-48320533D01*
X85185712Y-48320533D02*
X85138093Y-48415771D01*
X85138093Y-48415771D02*
X85090474Y-48463390D01*
X85090474Y-48463390D02*
X84995236Y-48511009D01*
X84995236Y-48511009D02*
X84661903Y-48511009D01*
X86090474Y-49034819D02*
X86090474Y-48511009D01*
X86090474Y-48511009D02*
X86042855Y-48415771D01*
X86042855Y-48415771D02*
X85947617Y-48368152D01*
X85947617Y-48368152D02*
X85757141Y-48368152D01*
X85757141Y-48368152D02*
X85661903Y-48415771D01*
X86090474Y-48987200D02*
X85995236Y-49034819D01*
X85995236Y-49034819D02*
X85757141Y-49034819D01*
X85757141Y-49034819D02*
X85661903Y-48987200D01*
X85661903Y-48987200D02*
X85614284Y-48891961D01*
X85614284Y-48891961D02*
X85614284Y-48796723D01*
X85614284Y-48796723D02*
X85661903Y-48701485D01*
X85661903Y-48701485D02*
X85757141Y-48653866D01*
X85757141Y-48653866D02*
X85995236Y-48653866D01*
X85995236Y-48653866D02*
X86090474Y-48606247D01*
X86423808Y-48368152D02*
X86804760Y-48368152D01*
X86566665Y-48034819D02*
X86566665Y-48891961D01*
X86566665Y-48891961D02*
X86614284Y-48987200D01*
X86614284Y-48987200D02*
X86709522Y-49034819D01*
X86709522Y-49034819D02*
X86804760Y-49034819D01*
X86995237Y-48368152D02*
X87376189Y-48368152D01*
X87138094Y-48034819D02*
X87138094Y-48891961D01*
X87138094Y-48891961D02*
X87185713Y-48987200D01*
X87185713Y-48987200D02*
X87280951Y-49034819D01*
X87280951Y-49034819D02*
X87376189Y-49034819D01*
X88090475Y-48987200D02*
X87995237Y-49034819D01*
X87995237Y-49034819D02*
X87804761Y-49034819D01*
X87804761Y-49034819D02*
X87709523Y-48987200D01*
X87709523Y-48987200D02*
X87661904Y-48891961D01*
X87661904Y-48891961D02*
X87661904Y-48511009D01*
X87661904Y-48511009D02*
X87709523Y-48415771D01*
X87709523Y-48415771D02*
X87804761Y-48368152D01*
X87804761Y-48368152D02*
X87995237Y-48368152D01*
X87995237Y-48368152D02*
X88090475Y-48415771D01*
X88090475Y-48415771D02*
X88138094Y-48511009D01*
X88138094Y-48511009D02*
X88138094Y-48606247D01*
X88138094Y-48606247D02*
X87661904Y-48701485D01*
X88566666Y-49034819D02*
X88566666Y-48368152D01*
X88566666Y-48558628D02*
X88614285Y-48463390D01*
X88614285Y-48463390D02*
X88661904Y-48415771D01*
X88661904Y-48415771D02*
X88757142Y-48368152D01*
X88757142Y-48368152D02*
X88852380Y-48368152D01*
X89090476Y-48368152D02*
X89328571Y-49034819D01*
X89566666Y-48368152D02*
X89328571Y-49034819D01*
X89328571Y-49034819D02*
X89233333Y-49272914D01*
X89233333Y-49272914D02*
X89185714Y-49320533D01*
X89185714Y-49320533D02*
X89090476Y-49368152D01*
X89709524Y-49130057D02*
X90471428Y-49130057D01*
X91280952Y-48939580D02*
X91233333Y-48987200D01*
X91233333Y-48987200D02*
X91090476Y-49034819D01*
X91090476Y-49034819D02*
X90995238Y-49034819D01*
X90995238Y-49034819D02*
X90852381Y-48987200D01*
X90852381Y-48987200D02*
X90757143Y-48891961D01*
X90757143Y-48891961D02*
X90709524Y-48796723D01*
X90709524Y-48796723D02*
X90661905Y-48606247D01*
X90661905Y-48606247D02*
X90661905Y-48463390D01*
X90661905Y-48463390D02*
X90709524Y-48272914D01*
X90709524Y-48272914D02*
X90757143Y-48177676D01*
X90757143Y-48177676D02*
X90852381Y-48082438D01*
X90852381Y-48082438D02*
X90995238Y-48034819D01*
X90995238Y-48034819D02*
X91090476Y-48034819D01*
X91090476Y-48034819D02*
X91233333Y-48082438D01*
X91233333Y-48082438D02*
X91280952Y-48130057D01*
X92090476Y-48987200D02*
X91995238Y-49034819D01*
X91995238Y-49034819D02*
X91804762Y-49034819D01*
X91804762Y-49034819D02*
X91709524Y-48987200D01*
X91709524Y-48987200D02*
X91661905Y-48891961D01*
X91661905Y-48891961D02*
X91661905Y-48511009D01*
X91661905Y-48511009D02*
X91709524Y-48415771D01*
X91709524Y-48415771D02*
X91804762Y-48368152D01*
X91804762Y-48368152D02*
X91995238Y-48368152D01*
X91995238Y-48368152D02*
X92090476Y-48415771D01*
X92090476Y-48415771D02*
X92138095Y-48511009D01*
X92138095Y-48511009D02*
X92138095Y-48606247D01*
X92138095Y-48606247D02*
X91661905Y-48701485D01*
X92709524Y-49034819D02*
X92614286Y-48987200D01*
X92614286Y-48987200D02*
X92566667Y-48891961D01*
X92566667Y-48891961D02*
X92566667Y-48034819D01*
X93233334Y-49034819D02*
X93138096Y-48987200D01*
X93138096Y-48987200D02*
X93090477Y-48891961D01*
X93090477Y-48891961D02*
X93090477Y-48034819D01*
X88114285Y-43161009D02*
X88257142Y-43208628D01*
X88257142Y-43208628D02*
X88304761Y-43256247D01*
X88304761Y-43256247D02*
X88352380Y-43351485D01*
X88352380Y-43351485D02*
X88352380Y-43494342D01*
X88352380Y-43494342D02*
X88304761Y-43589580D01*
X88304761Y-43589580D02*
X88257142Y-43637200D01*
X88257142Y-43637200D02*
X88161904Y-43684819D01*
X88161904Y-43684819D02*
X87780952Y-43684819D01*
X87780952Y-43684819D02*
X87780952Y-42684819D01*
X87780952Y-42684819D02*
X88114285Y-42684819D01*
X88114285Y-42684819D02*
X88209523Y-42732438D01*
X88209523Y-42732438D02*
X88257142Y-42780057D01*
X88257142Y-42780057D02*
X88304761Y-42875295D01*
X88304761Y-42875295D02*
X88304761Y-42970533D01*
X88304761Y-42970533D02*
X88257142Y-43065771D01*
X88257142Y-43065771D02*
X88209523Y-43113390D01*
X88209523Y-43113390D02*
X88114285Y-43161009D01*
X88114285Y-43161009D02*
X87780952Y-43161009D01*
X88638095Y-42684819D02*
X89209523Y-42684819D01*
X88923809Y-43684819D02*
X88923809Y-42684819D01*
X90066666Y-43684819D02*
X89495238Y-43684819D01*
X89780952Y-43684819D02*
X89780952Y-42684819D01*
X89780952Y-42684819D02*
X89685714Y-42827676D01*
X89685714Y-42827676D02*
X89590476Y-42922914D01*
X89590476Y-42922914D02*
X89495238Y-42970533D01*
X118119047Y-142401009D02*
X117785714Y-142401009D01*
X117785714Y-142924819D02*
X117785714Y-141924819D01*
X117785714Y-141924819D02*
X118261904Y-141924819D01*
X118642857Y-142924819D02*
X118642857Y-142258152D01*
X118642857Y-142448628D02*
X118690476Y-142353390D01*
X118690476Y-142353390D02*
X118738095Y-142305771D01*
X118738095Y-142305771D02*
X118833333Y-142258152D01*
X118833333Y-142258152D02*
X118928571Y-142258152D01*
X119642857Y-142877200D02*
X119547619Y-142924819D01*
X119547619Y-142924819D02*
X119357143Y-142924819D01*
X119357143Y-142924819D02*
X119261905Y-142877200D01*
X119261905Y-142877200D02*
X119214286Y-142781961D01*
X119214286Y-142781961D02*
X119214286Y-142401009D01*
X119214286Y-142401009D02*
X119261905Y-142305771D01*
X119261905Y-142305771D02*
X119357143Y-142258152D01*
X119357143Y-142258152D02*
X119547619Y-142258152D01*
X119547619Y-142258152D02*
X119642857Y-142305771D01*
X119642857Y-142305771D02*
X119690476Y-142401009D01*
X119690476Y-142401009D02*
X119690476Y-142496247D01*
X119690476Y-142496247D02*
X119214286Y-142591485D01*
X120500000Y-142877200D02*
X120404762Y-142924819D01*
X120404762Y-142924819D02*
X120214286Y-142924819D01*
X120214286Y-142924819D02*
X120119048Y-142877200D01*
X120119048Y-142877200D02*
X120071429Y-142781961D01*
X120071429Y-142781961D02*
X120071429Y-142401009D01*
X120071429Y-142401009D02*
X120119048Y-142305771D01*
X120119048Y-142305771D02*
X120214286Y-142258152D01*
X120214286Y-142258152D02*
X120404762Y-142258152D01*
X120404762Y-142258152D02*
X120500000Y-142305771D01*
X120500000Y-142305771D02*
X120547619Y-142401009D01*
X120547619Y-142401009D02*
X120547619Y-142496247D01*
X120547619Y-142496247D02*
X120071429Y-142591485D01*
X120976191Y-142258152D02*
X120976191Y-142924819D01*
X120976191Y-142353390D02*
X121023810Y-142305771D01*
X121023810Y-142305771D02*
X121119048Y-142258152D01*
X121119048Y-142258152D02*
X121261905Y-142258152D01*
X121261905Y-142258152D02*
X121357143Y-142305771D01*
X121357143Y-142305771D02*
X121404762Y-142401009D01*
X121404762Y-142401009D02*
X121404762Y-142924819D01*
X122023810Y-142924819D02*
X121928572Y-142877200D01*
X121928572Y-142877200D02*
X121880953Y-142829580D01*
X121880953Y-142829580D02*
X121833334Y-142734342D01*
X121833334Y-142734342D02*
X121833334Y-142448628D01*
X121833334Y-142448628D02*
X121880953Y-142353390D01*
X121880953Y-142353390D02*
X121928572Y-142305771D01*
X121928572Y-142305771D02*
X122023810Y-142258152D01*
X122023810Y-142258152D02*
X122166667Y-142258152D01*
X122166667Y-142258152D02*
X122261905Y-142305771D01*
X122261905Y-142305771D02*
X122309524Y-142353390D01*
X122309524Y-142353390D02*
X122357143Y-142448628D01*
X122357143Y-142448628D02*
X122357143Y-142734342D01*
X122357143Y-142734342D02*
X122309524Y-142829580D01*
X122309524Y-142829580D02*
X122261905Y-142877200D01*
X122261905Y-142877200D02*
X122166667Y-142924819D01*
X122166667Y-142924819D02*
X122023810Y-142924819D01*
X122690477Y-142258152D02*
X122928572Y-142924819D01*
X122928572Y-142924819D02*
X123166667Y-142258152D01*
X123928572Y-142877200D02*
X123833334Y-142924819D01*
X123833334Y-142924819D02*
X123642858Y-142924819D01*
X123642858Y-142924819D02*
X123547620Y-142877200D01*
X123547620Y-142877200D02*
X123500001Y-142781961D01*
X123500001Y-142781961D02*
X123500001Y-142401009D01*
X123500001Y-142401009D02*
X123547620Y-142305771D01*
X123547620Y-142305771D02*
X123642858Y-142258152D01*
X123642858Y-142258152D02*
X123833334Y-142258152D01*
X123833334Y-142258152D02*
X123928572Y-142305771D01*
X123928572Y-142305771D02*
X123976191Y-142401009D01*
X123976191Y-142401009D02*
X123976191Y-142496247D01*
X123976191Y-142496247D02*
X123500001Y-142591485D01*
X124404763Y-142543866D02*
X125166668Y-142543866D01*
X125595239Y-142877200D02*
X125738096Y-142924819D01*
X125738096Y-142924819D02*
X125976191Y-142924819D01*
X125976191Y-142924819D02*
X126071429Y-142877200D01*
X126071429Y-142877200D02*
X126119048Y-142829580D01*
X126119048Y-142829580D02*
X126166667Y-142734342D01*
X126166667Y-142734342D02*
X126166667Y-142639104D01*
X126166667Y-142639104D02*
X126119048Y-142543866D01*
X126119048Y-142543866D02*
X126071429Y-142496247D01*
X126071429Y-142496247D02*
X125976191Y-142448628D01*
X125976191Y-142448628D02*
X125785715Y-142401009D01*
X125785715Y-142401009D02*
X125690477Y-142353390D01*
X125690477Y-142353390D02*
X125642858Y-142305771D01*
X125642858Y-142305771D02*
X125595239Y-142210533D01*
X125595239Y-142210533D02*
X125595239Y-142115295D01*
X125595239Y-142115295D02*
X125642858Y-142020057D01*
X125642858Y-142020057D02*
X125690477Y-141972438D01*
X125690477Y-141972438D02*
X125785715Y-141924819D01*
X125785715Y-141924819D02*
X126023810Y-141924819D01*
X126023810Y-141924819D02*
X126166667Y-141972438D01*
X126595239Y-142924819D02*
X126595239Y-141924819D01*
X126595239Y-141924819D02*
X126976191Y-141924819D01*
X126976191Y-141924819D02*
X127071429Y-141972438D01*
X127071429Y-141972438D02*
X127119048Y-142020057D01*
X127119048Y-142020057D02*
X127166667Y-142115295D01*
X127166667Y-142115295D02*
X127166667Y-142258152D01*
X127166667Y-142258152D02*
X127119048Y-142353390D01*
X127119048Y-142353390D02*
X127071429Y-142401009D01*
X127071429Y-142401009D02*
X126976191Y-142448628D01*
X126976191Y-142448628D02*
X126595239Y-142448628D01*
X127500001Y-141924819D02*
X128119048Y-141924819D01*
X128119048Y-141924819D02*
X127785715Y-142305771D01*
X127785715Y-142305771D02*
X127928572Y-142305771D01*
X127928572Y-142305771D02*
X128023810Y-142353390D01*
X128023810Y-142353390D02*
X128071429Y-142401009D01*
X128071429Y-142401009D02*
X128119048Y-142496247D01*
X128119048Y-142496247D02*
X128119048Y-142734342D01*
X128119048Y-142734342D02*
X128071429Y-142829580D01*
X128071429Y-142829580D02*
X128023810Y-142877200D01*
X128023810Y-142877200D02*
X127928572Y-142924819D01*
X127928572Y-142924819D02*
X127642858Y-142924819D01*
X127642858Y-142924819D02*
X127547620Y-142877200D01*
X127547620Y-142877200D02*
X127500001Y-142829580D01*
X128500001Y-142020057D02*
X128547620Y-141972438D01*
X128547620Y-141972438D02*
X128642858Y-141924819D01*
X128642858Y-141924819D02*
X128880953Y-141924819D01*
X128880953Y-141924819D02*
X128976191Y-141972438D01*
X128976191Y-141972438D02*
X129023810Y-142020057D01*
X129023810Y-142020057D02*
X129071429Y-142115295D01*
X129071429Y-142115295D02*
X129071429Y-142210533D01*
X129071429Y-142210533D02*
X129023810Y-142353390D01*
X129023810Y-142353390D02*
X128452382Y-142924819D01*
X128452382Y-142924819D02*
X129071429Y-142924819D01*
X129500001Y-142543866D02*
X130261906Y-142543866D01*
X130642858Y-141924819D02*
X130880953Y-142924819D01*
X130880953Y-142924819D02*
X131071429Y-142210533D01*
X131071429Y-142210533D02*
X131261905Y-142924819D01*
X131261905Y-142924819D02*
X131500001Y-141924819D01*
X132452381Y-142924819D02*
X132119048Y-142448628D01*
X131880953Y-142924819D02*
X131880953Y-141924819D01*
X131880953Y-141924819D02*
X132261905Y-141924819D01*
X132261905Y-141924819D02*
X132357143Y-141972438D01*
X132357143Y-141972438D02*
X132404762Y-142020057D01*
X132404762Y-142020057D02*
X132452381Y-142115295D01*
X132452381Y-142115295D02*
X132452381Y-142258152D01*
X132452381Y-142258152D02*
X132404762Y-142353390D01*
X132404762Y-142353390D02*
X132357143Y-142401009D01*
X132357143Y-142401009D02*
X132261905Y-142448628D01*
X132261905Y-142448628D02*
X131880953Y-142448628D01*
X133071429Y-141924819D02*
X133261905Y-141924819D01*
X133261905Y-141924819D02*
X133357143Y-141972438D01*
X133357143Y-141972438D02*
X133452381Y-142067676D01*
X133452381Y-142067676D02*
X133500000Y-142258152D01*
X133500000Y-142258152D02*
X133500000Y-142591485D01*
X133500000Y-142591485D02*
X133452381Y-142781961D01*
X133452381Y-142781961D02*
X133357143Y-142877200D01*
X133357143Y-142877200D02*
X133261905Y-142924819D01*
X133261905Y-142924819D02*
X133071429Y-142924819D01*
X133071429Y-142924819D02*
X132976191Y-142877200D01*
X132976191Y-142877200D02*
X132880953Y-142781961D01*
X132880953Y-142781961D02*
X132833334Y-142591485D01*
X132833334Y-142591485D02*
X132833334Y-142258152D01*
X132833334Y-142258152D02*
X132880953Y-142067676D01*
X132880953Y-142067676D02*
X132976191Y-141972438D01*
X132976191Y-141972438D02*
X133071429Y-141924819D01*
X133785715Y-141924819D02*
X134119048Y-142924819D01*
X134119048Y-142924819D02*
X134452381Y-141924819D01*
X134785715Y-142401009D02*
X135119048Y-142401009D01*
X135261905Y-142924819D02*
X134785715Y-142924819D01*
X134785715Y-142924819D02*
X134785715Y-141924819D01*
X134785715Y-141924819D02*
X135261905Y-141924819D01*
X136261905Y-142924819D02*
X135928572Y-142448628D01*
X135690477Y-142924819D02*
X135690477Y-141924819D01*
X135690477Y-141924819D02*
X136071429Y-141924819D01*
X136071429Y-141924819D02*
X136166667Y-141972438D01*
X136166667Y-141972438D02*
X136214286Y-142020057D01*
X136214286Y-142020057D02*
X136261905Y-142115295D01*
X136261905Y-142115295D02*
X136261905Y-142258152D01*
X136261905Y-142258152D02*
X136214286Y-142353390D01*
X136214286Y-142353390D02*
X136166667Y-142401009D01*
X136166667Y-142401009D02*
X136071429Y-142448628D01*
X136071429Y-142448628D02*
X135690477Y-142448628D01*
X151854819Y-116331904D02*
X152664342Y-116331904D01*
X152664342Y-116331904D02*
X152759580Y-116284285D01*
X152759580Y-116284285D02*
X152807200Y-116236666D01*
X152807200Y-116236666D02*
X152854819Y-116141428D01*
X152854819Y-116141428D02*
X152854819Y-115950952D01*
X152854819Y-115950952D02*
X152807200Y-115855714D01*
X152807200Y-115855714D02*
X152759580Y-115808095D01*
X152759580Y-115808095D02*
X152664342Y-115760476D01*
X152664342Y-115760476D02*
X151854819Y-115760476D01*
X152854819Y-114760476D02*
X152854819Y-115331904D01*
X152854819Y-115046190D02*
X151854819Y-115046190D01*
X151854819Y-115046190D02*
X151997676Y-115141428D01*
X151997676Y-115141428D02*
X152092914Y-115236666D01*
X152092914Y-115236666D02*
X152140533Y-115331904D01*
X126454819Y-116331904D02*
X127264342Y-116331904D01*
X127264342Y-116331904D02*
X127359580Y-116284285D01*
X127359580Y-116284285D02*
X127407200Y-116236666D01*
X127407200Y-116236666D02*
X127454819Y-116141428D01*
X127454819Y-116141428D02*
X127454819Y-115950952D01*
X127454819Y-115950952D02*
X127407200Y-115855714D01*
X127407200Y-115855714D02*
X127359580Y-115808095D01*
X127359580Y-115808095D02*
X127264342Y-115760476D01*
X127264342Y-115760476D02*
X126454819Y-115760476D01*
X127454819Y-114760476D02*
X127454819Y-115331904D01*
X127454819Y-115046190D02*
X126454819Y-115046190D01*
X126454819Y-115046190D02*
X126597676Y-115141428D01*
X126597676Y-115141428D02*
X126692914Y-115236666D01*
X126692914Y-115236666D02*
X126740533Y-115331904D01*
X79744819Y-136202857D02*
X79744819Y-136679047D01*
X79744819Y-136679047D02*
X78744819Y-136679047D01*
X79221009Y-135869523D02*
X79221009Y-135536190D01*
X79744819Y-135393333D02*
X79744819Y-135869523D01*
X79744819Y-135869523D02*
X78744819Y-135869523D01*
X78744819Y-135869523D02*
X78744819Y-135393333D01*
X79744819Y-134964761D02*
X78744819Y-134964761D01*
X78744819Y-134964761D02*
X78744819Y-134726666D01*
X78744819Y-134726666D02*
X78792438Y-134583809D01*
X78792438Y-134583809D02*
X78887676Y-134488571D01*
X78887676Y-134488571D02*
X78982914Y-134440952D01*
X78982914Y-134440952D02*
X79173390Y-134393333D01*
X79173390Y-134393333D02*
X79316247Y-134393333D01*
X79316247Y-134393333D02*
X79506723Y-134440952D01*
X79506723Y-134440952D02*
X79601961Y-134488571D01*
X79601961Y-134488571D02*
X79697200Y-134583809D01*
X79697200Y-134583809D02*
X79744819Y-134726666D01*
X79744819Y-134726666D02*
X79744819Y-134964761D01*
X93944819Y-136298094D02*
X92944819Y-136298094D01*
X92944819Y-136298094D02*
X92944819Y-136059999D01*
X92944819Y-136059999D02*
X92992438Y-135917142D01*
X92992438Y-135917142D02*
X93087676Y-135821904D01*
X93087676Y-135821904D02*
X93182914Y-135774285D01*
X93182914Y-135774285D02*
X93373390Y-135726666D01*
X93373390Y-135726666D02*
X93516247Y-135726666D01*
X93516247Y-135726666D02*
X93706723Y-135774285D01*
X93706723Y-135774285D02*
X93801961Y-135821904D01*
X93801961Y-135821904D02*
X93897200Y-135917142D01*
X93897200Y-135917142D02*
X93944819Y-136059999D01*
X93944819Y-136059999D02*
X93944819Y-136298094D01*
X92944819Y-135393332D02*
X92944819Y-134774285D01*
X92944819Y-134774285D02*
X93325771Y-135107618D01*
X93325771Y-135107618D02*
X93325771Y-134964761D01*
X93325771Y-134964761D02*
X93373390Y-134869523D01*
X93373390Y-134869523D02*
X93421009Y-134821904D01*
X93421009Y-134821904D02*
X93516247Y-134774285D01*
X93516247Y-134774285D02*
X93754342Y-134774285D01*
X93754342Y-134774285D02*
X93849580Y-134821904D01*
X93849580Y-134821904D02*
X93897200Y-134869523D01*
X93897200Y-134869523D02*
X93944819Y-134964761D01*
X93944819Y-134964761D02*
X93944819Y-135250475D01*
X93944819Y-135250475D02*
X93897200Y-135345713D01*
X93897200Y-135345713D02*
X93849580Y-135393332D01*
X102839047Y-40587200D02*
X102981904Y-40634819D01*
X102981904Y-40634819D02*
X103219999Y-40634819D01*
X103219999Y-40634819D02*
X103315237Y-40587200D01*
X103315237Y-40587200D02*
X103362856Y-40539580D01*
X103362856Y-40539580D02*
X103410475Y-40444342D01*
X103410475Y-40444342D02*
X103410475Y-40349104D01*
X103410475Y-40349104D02*
X103362856Y-40253866D01*
X103362856Y-40253866D02*
X103315237Y-40206247D01*
X103315237Y-40206247D02*
X103219999Y-40158628D01*
X103219999Y-40158628D02*
X103029523Y-40111009D01*
X103029523Y-40111009D02*
X102934285Y-40063390D01*
X102934285Y-40063390D02*
X102886666Y-40015771D01*
X102886666Y-40015771D02*
X102839047Y-39920533D01*
X102839047Y-39920533D02*
X102839047Y-39825295D01*
X102839047Y-39825295D02*
X102886666Y-39730057D01*
X102886666Y-39730057D02*
X102934285Y-39682438D01*
X102934285Y-39682438D02*
X103029523Y-39634819D01*
X103029523Y-39634819D02*
X103267618Y-39634819D01*
X103267618Y-39634819D02*
X103410475Y-39682438D01*
X103743809Y-39634819D02*
X103981904Y-40634819D01*
X103981904Y-40634819D02*
X104172380Y-39920533D01*
X104172380Y-39920533D02*
X104362856Y-40634819D01*
X104362856Y-40634819D02*
X104600952Y-39634819D01*
X104743809Y-40730057D02*
X105505713Y-40730057D01*
X105743809Y-40634819D02*
X105743809Y-39634819D01*
X105743809Y-39634819D02*
X105981904Y-39634819D01*
X105981904Y-39634819D02*
X106124761Y-39682438D01*
X106124761Y-39682438D02*
X106219999Y-39777676D01*
X106219999Y-39777676D02*
X106267618Y-39872914D01*
X106267618Y-39872914D02*
X106315237Y-40063390D01*
X106315237Y-40063390D02*
X106315237Y-40206247D01*
X106315237Y-40206247D02*
X106267618Y-40396723D01*
X106267618Y-40396723D02*
X106219999Y-40491961D01*
X106219999Y-40491961D02*
X106124761Y-40587200D01*
X106124761Y-40587200D02*
X105981904Y-40634819D01*
X105981904Y-40634819D02*
X105743809Y-40634819D01*
X106743809Y-40634819D02*
X106743809Y-39634819D01*
X106743809Y-39634819D02*
X107124761Y-39634819D01*
X107124761Y-39634819D02*
X107219999Y-39682438D01*
X107219999Y-39682438D02*
X107267618Y-39730057D01*
X107267618Y-39730057D02*
X107315237Y-39825295D01*
X107315237Y-39825295D02*
X107315237Y-39968152D01*
X107315237Y-39968152D02*
X107267618Y-40063390D01*
X107267618Y-40063390D02*
X107219999Y-40111009D01*
X107219999Y-40111009D02*
X107124761Y-40158628D01*
X107124761Y-40158628D02*
X106743809Y-40158628D01*
X107743809Y-40634819D02*
X107743809Y-39634819D01*
X107743809Y-39634819D02*
X107981904Y-39634819D01*
X107981904Y-39634819D02*
X108124761Y-39682438D01*
X108124761Y-39682438D02*
X108219999Y-39777676D01*
X108219999Y-39777676D02*
X108267618Y-39872914D01*
X108267618Y-39872914D02*
X108315237Y-40063390D01*
X108315237Y-40063390D02*
X108315237Y-40206247D01*
X108315237Y-40206247D02*
X108267618Y-40396723D01*
X108267618Y-40396723D02*
X108219999Y-40491961D01*
X108219999Y-40491961D02*
X108124761Y-40587200D01*
X108124761Y-40587200D02*
X107981904Y-40634819D01*
X107981904Y-40634819D02*
X107743809Y-40634819D01*
X108600952Y-39634819D02*
X109172380Y-39634819D01*
X108886666Y-40634819D02*
X108886666Y-39634819D01*
X109267619Y-40730057D02*
X110029523Y-40730057D01*
X110172381Y-40634819D02*
X110696190Y-39968152D01*
X110172381Y-39968152D02*
X110696190Y-40634819D01*
X111029524Y-39730057D02*
X111077143Y-39682438D01*
X111077143Y-39682438D02*
X111172381Y-39634819D01*
X111172381Y-39634819D02*
X111410476Y-39634819D01*
X111410476Y-39634819D02*
X111505714Y-39682438D01*
X111505714Y-39682438D02*
X111553333Y-39730057D01*
X111553333Y-39730057D02*
X111600952Y-39825295D01*
X111600952Y-39825295D02*
X111600952Y-39920533D01*
X111600952Y-39920533D02*
X111553333Y-40063390D01*
X111553333Y-40063390D02*
X110981905Y-40634819D01*
X110981905Y-40634819D02*
X111600952Y-40634819D01*
X103896667Y-46577200D02*
X104039524Y-46624819D01*
X104039524Y-46624819D02*
X104277619Y-46624819D01*
X104277619Y-46624819D02*
X104372857Y-46577200D01*
X104372857Y-46577200D02*
X104420476Y-46529580D01*
X104420476Y-46529580D02*
X104468095Y-46434342D01*
X104468095Y-46434342D02*
X104468095Y-46339104D01*
X104468095Y-46339104D02*
X104420476Y-46243866D01*
X104420476Y-46243866D02*
X104372857Y-46196247D01*
X104372857Y-46196247D02*
X104277619Y-46148628D01*
X104277619Y-46148628D02*
X104087143Y-46101009D01*
X104087143Y-46101009D02*
X103991905Y-46053390D01*
X103991905Y-46053390D02*
X103944286Y-46005771D01*
X103944286Y-46005771D02*
X103896667Y-45910533D01*
X103896667Y-45910533D02*
X103896667Y-45815295D01*
X103896667Y-45815295D02*
X103944286Y-45720057D01*
X103944286Y-45720057D02*
X103991905Y-45672438D01*
X103991905Y-45672438D02*
X104087143Y-45624819D01*
X104087143Y-45624819D02*
X104325238Y-45624819D01*
X104325238Y-45624819D02*
X104468095Y-45672438D01*
X104801429Y-45624819D02*
X105039524Y-46624819D01*
X105039524Y-46624819D02*
X105230000Y-45910533D01*
X105230000Y-45910533D02*
X105420476Y-46624819D01*
X105420476Y-46624819D02*
X105658572Y-45624819D01*
X105991905Y-45720057D02*
X106039524Y-45672438D01*
X106039524Y-45672438D02*
X106134762Y-45624819D01*
X106134762Y-45624819D02*
X106372857Y-45624819D01*
X106372857Y-45624819D02*
X106468095Y-45672438D01*
X106468095Y-45672438D02*
X106515714Y-45720057D01*
X106515714Y-45720057D02*
X106563333Y-45815295D01*
X106563333Y-45815295D02*
X106563333Y-45910533D01*
X106563333Y-45910533D02*
X106515714Y-46053390D01*
X106515714Y-46053390D02*
X105944286Y-46624819D01*
X105944286Y-46624819D02*
X106563333Y-46624819D01*
X181168094Y-127199819D02*
X181168094Y-126199819D01*
X181168094Y-126199819D02*
X181501427Y-126914104D01*
X181501427Y-126914104D02*
X181834760Y-126199819D01*
X181834760Y-126199819D02*
X181834760Y-127199819D01*
X182453808Y-127199819D02*
X182358570Y-127152200D01*
X182358570Y-127152200D02*
X182310951Y-127104580D01*
X182310951Y-127104580D02*
X182263332Y-127009342D01*
X182263332Y-127009342D02*
X182263332Y-126723628D01*
X182263332Y-126723628D02*
X182310951Y-126628390D01*
X182310951Y-126628390D02*
X182358570Y-126580771D01*
X182358570Y-126580771D02*
X182453808Y-126533152D01*
X182453808Y-126533152D02*
X182596665Y-126533152D01*
X182596665Y-126533152D02*
X182691903Y-126580771D01*
X182691903Y-126580771D02*
X182739522Y-126628390D01*
X182739522Y-126628390D02*
X182787141Y-126723628D01*
X182787141Y-126723628D02*
X182787141Y-127009342D01*
X182787141Y-127009342D02*
X182739522Y-127104580D01*
X182739522Y-127104580D02*
X182691903Y-127152200D01*
X182691903Y-127152200D02*
X182596665Y-127199819D01*
X182596665Y-127199819D02*
X182453808Y-127199819D01*
X183072856Y-126533152D02*
X183453808Y-126533152D01*
X183215713Y-126199819D02*
X183215713Y-127056961D01*
X183215713Y-127056961D02*
X183263332Y-127152200D01*
X183263332Y-127152200D02*
X183358570Y-127199819D01*
X183358570Y-127199819D02*
X183453808Y-127199819D01*
X183929999Y-127199819D02*
X183834761Y-127152200D01*
X183834761Y-127152200D02*
X183787142Y-127104580D01*
X183787142Y-127104580D02*
X183739523Y-127009342D01*
X183739523Y-127009342D02*
X183739523Y-126723628D01*
X183739523Y-126723628D02*
X183787142Y-126628390D01*
X183787142Y-126628390D02*
X183834761Y-126580771D01*
X183834761Y-126580771D02*
X183929999Y-126533152D01*
X183929999Y-126533152D02*
X184072856Y-126533152D01*
X184072856Y-126533152D02*
X184168094Y-126580771D01*
X184168094Y-126580771D02*
X184215713Y-126628390D01*
X184215713Y-126628390D02*
X184263332Y-126723628D01*
X184263332Y-126723628D02*
X184263332Y-127009342D01*
X184263332Y-127009342D02*
X184215713Y-127104580D01*
X184215713Y-127104580D02*
X184168094Y-127152200D01*
X184168094Y-127152200D02*
X184072856Y-127199819D01*
X184072856Y-127199819D02*
X183929999Y-127199819D01*
X184691904Y-127199819D02*
X184691904Y-126533152D01*
X184691904Y-126723628D02*
X184739523Y-126628390D01*
X184739523Y-126628390D02*
X184787142Y-126580771D01*
X184787142Y-126580771D02*
X184882380Y-126533152D01*
X184882380Y-126533152D02*
X184977618Y-126533152D01*
X185072857Y-127295057D02*
X185834761Y-127295057D01*
X186025238Y-127152200D02*
X186168095Y-127199819D01*
X186168095Y-127199819D02*
X186406190Y-127199819D01*
X186406190Y-127199819D02*
X186501428Y-127152200D01*
X186501428Y-127152200D02*
X186549047Y-127104580D01*
X186549047Y-127104580D02*
X186596666Y-127009342D01*
X186596666Y-127009342D02*
X186596666Y-126914104D01*
X186596666Y-126914104D02*
X186549047Y-126818866D01*
X186549047Y-126818866D02*
X186501428Y-126771247D01*
X186501428Y-126771247D02*
X186406190Y-126723628D01*
X186406190Y-126723628D02*
X186215714Y-126676009D01*
X186215714Y-126676009D02*
X186120476Y-126628390D01*
X186120476Y-126628390D02*
X186072857Y-126580771D01*
X186072857Y-126580771D02*
X186025238Y-126485533D01*
X186025238Y-126485533D02*
X186025238Y-126390295D01*
X186025238Y-126390295D02*
X186072857Y-126295057D01*
X186072857Y-126295057D02*
X186120476Y-126247438D01*
X186120476Y-126247438D02*
X186215714Y-126199819D01*
X186215714Y-126199819D02*
X186453809Y-126199819D01*
X186453809Y-126199819D02*
X186596666Y-126247438D01*
X187406190Y-127152200D02*
X187310952Y-127199819D01*
X187310952Y-127199819D02*
X187120476Y-127199819D01*
X187120476Y-127199819D02*
X187025238Y-127152200D01*
X187025238Y-127152200D02*
X186977619Y-127056961D01*
X186977619Y-127056961D02*
X186977619Y-126676009D01*
X186977619Y-126676009D02*
X187025238Y-126580771D01*
X187025238Y-126580771D02*
X187120476Y-126533152D01*
X187120476Y-126533152D02*
X187310952Y-126533152D01*
X187310952Y-126533152D02*
X187406190Y-126580771D01*
X187406190Y-126580771D02*
X187453809Y-126676009D01*
X187453809Y-126676009D02*
X187453809Y-126771247D01*
X187453809Y-126771247D02*
X186977619Y-126866485D01*
X187882381Y-127199819D02*
X187882381Y-126533152D01*
X187882381Y-126723628D02*
X187930000Y-126628390D01*
X187930000Y-126628390D02*
X187977619Y-126580771D01*
X187977619Y-126580771D02*
X188072857Y-126533152D01*
X188072857Y-126533152D02*
X188168095Y-126533152D01*
X188406191Y-126533152D02*
X188644286Y-127199819D01*
X188644286Y-127199819D02*
X188882381Y-126533152D01*
X189406191Y-127199819D02*
X189310953Y-127152200D01*
X189310953Y-127152200D02*
X189263334Y-127104580D01*
X189263334Y-127104580D02*
X189215715Y-127009342D01*
X189215715Y-127009342D02*
X189215715Y-126723628D01*
X189215715Y-126723628D02*
X189263334Y-126628390D01*
X189263334Y-126628390D02*
X189310953Y-126580771D01*
X189310953Y-126580771D02*
X189406191Y-126533152D01*
X189406191Y-126533152D02*
X189549048Y-126533152D01*
X189549048Y-126533152D02*
X189644286Y-126580771D01*
X189644286Y-126580771D02*
X189691905Y-126628390D01*
X189691905Y-126628390D02*
X189739524Y-126723628D01*
X189739524Y-126723628D02*
X189739524Y-127009342D01*
X189739524Y-127009342D02*
X189691905Y-127104580D01*
X189691905Y-127104580D02*
X189644286Y-127152200D01*
X189644286Y-127152200D02*
X189549048Y-127199819D01*
X189549048Y-127199819D02*
X189406191Y-127199819D01*
X184269819Y-122744523D02*
X183269819Y-122744523D01*
X183269819Y-122744523D02*
X183984104Y-122411190D01*
X183984104Y-122411190D02*
X183269819Y-122077857D01*
X183269819Y-122077857D02*
X184269819Y-122077857D01*
X183365057Y-121649285D02*
X183317438Y-121601666D01*
X183317438Y-121601666D02*
X183269819Y-121506428D01*
X183269819Y-121506428D02*
X183269819Y-121268333D01*
X183269819Y-121268333D02*
X183317438Y-121173095D01*
X183317438Y-121173095D02*
X183365057Y-121125476D01*
X183365057Y-121125476D02*
X183460295Y-121077857D01*
X183460295Y-121077857D02*
X183555533Y-121077857D01*
X183555533Y-121077857D02*
X183698390Y-121125476D01*
X183698390Y-121125476D02*
X184269819Y-121696904D01*
X184269819Y-121696904D02*
X184269819Y-121077857D01*
X127129580Y-49251429D02*
X127177200Y-49299048D01*
X127177200Y-49299048D02*
X127224819Y-49441905D01*
X127224819Y-49441905D02*
X127224819Y-49537143D01*
X127224819Y-49537143D02*
X127177200Y-49680000D01*
X127177200Y-49680000D02*
X127081961Y-49775238D01*
X127081961Y-49775238D02*
X126986723Y-49822857D01*
X126986723Y-49822857D02*
X126796247Y-49870476D01*
X126796247Y-49870476D02*
X126653390Y-49870476D01*
X126653390Y-49870476D02*
X126462914Y-49822857D01*
X126462914Y-49822857D02*
X126367676Y-49775238D01*
X126367676Y-49775238D02*
X126272438Y-49680000D01*
X126272438Y-49680000D02*
X126224819Y-49537143D01*
X126224819Y-49537143D02*
X126224819Y-49441905D01*
X126224819Y-49441905D02*
X126272438Y-49299048D01*
X126272438Y-49299048D02*
X126320057Y-49251429D01*
X127224819Y-48680000D02*
X127177200Y-48775238D01*
X127177200Y-48775238D02*
X127129580Y-48822857D01*
X127129580Y-48822857D02*
X127034342Y-48870476D01*
X127034342Y-48870476D02*
X126748628Y-48870476D01*
X126748628Y-48870476D02*
X126653390Y-48822857D01*
X126653390Y-48822857D02*
X126605771Y-48775238D01*
X126605771Y-48775238D02*
X126558152Y-48680000D01*
X126558152Y-48680000D02*
X126558152Y-48537143D01*
X126558152Y-48537143D02*
X126605771Y-48441905D01*
X126605771Y-48441905D02*
X126653390Y-48394286D01*
X126653390Y-48394286D02*
X126748628Y-48346667D01*
X126748628Y-48346667D02*
X127034342Y-48346667D01*
X127034342Y-48346667D02*
X127129580Y-48394286D01*
X127129580Y-48394286D02*
X127177200Y-48441905D01*
X127177200Y-48441905D02*
X127224819Y-48537143D01*
X127224819Y-48537143D02*
X127224819Y-48680000D01*
X126558152Y-47918095D02*
X127224819Y-47918095D01*
X126653390Y-47918095D02*
X126605771Y-47870476D01*
X126605771Y-47870476D02*
X126558152Y-47775238D01*
X126558152Y-47775238D02*
X126558152Y-47632381D01*
X126558152Y-47632381D02*
X126605771Y-47537143D01*
X126605771Y-47537143D02*
X126701009Y-47489524D01*
X126701009Y-47489524D02*
X127224819Y-47489524D01*
X126558152Y-47013333D02*
X127224819Y-47013333D01*
X126653390Y-47013333D02*
X126605771Y-46965714D01*
X126605771Y-46965714D02*
X126558152Y-46870476D01*
X126558152Y-46870476D02*
X126558152Y-46727619D01*
X126558152Y-46727619D02*
X126605771Y-46632381D01*
X126605771Y-46632381D02*
X126701009Y-46584762D01*
X126701009Y-46584762D02*
X127224819Y-46584762D01*
X127177200Y-45727619D02*
X127224819Y-45822857D01*
X127224819Y-45822857D02*
X127224819Y-46013333D01*
X127224819Y-46013333D02*
X127177200Y-46108571D01*
X127177200Y-46108571D02*
X127081961Y-46156190D01*
X127081961Y-46156190D02*
X126701009Y-46156190D01*
X126701009Y-46156190D02*
X126605771Y-46108571D01*
X126605771Y-46108571D02*
X126558152Y-46013333D01*
X126558152Y-46013333D02*
X126558152Y-45822857D01*
X126558152Y-45822857D02*
X126605771Y-45727619D01*
X126605771Y-45727619D02*
X126701009Y-45680000D01*
X126701009Y-45680000D02*
X126796247Y-45680000D01*
X126796247Y-45680000D02*
X126891485Y-46156190D01*
X127177200Y-44822857D02*
X127224819Y-44918095D01*
X127224819Y-44918095D02*
X127224819Y-45108571D01*
X127224819Y-45108571D02*
X127177200Y-45203809D01*
X127177200Y-45203809D02*
X127129580Y-45251428D01*
X127129580Y-45251428D02*
X127034342Y-45299047D01*
X127034342Y-45299047D02*
X126748628Y-45299047D01*
X126748628Y-45299047D02*
X126653390Y-45251428D01*
X126653390Y-45251428D02*
X126605771Y-45203809D01*
X126605771Y-45203809D02*
X126558152Y-45108571D01*
X126558152Y-45108571D02*
X126558152Y-44918095D01*
X126558152Y-44918095D02*
X126605771Y-44822857D01*
X126558152Y-44537142D02*
X126558152Y-44156190D01*
X126224819Y-44394285D02*
X127081961Y-44394285D01*
X127081961Y-44394285D02*
X127177200Y-44346666D01*
X127177200Y-44346666D02*
X127224819Y-44251428D01*
X127224819Y-44251428D02*
X127224819Y-44156190D01*
X127224819Y-43679999D02*
X127177200Y-43775237D01*
X127177200Y-43775237D02*
X127129580Y-43822856D01*
X127129580Y-43822856D02*
X127034342Y-43870475D01*
X127034342Y-43870475D02*
X126748628Y-43870475D01*
X126748628Y-43870475D02*
X126653390Y-43822856D01*
X126653390Y-43822856D02*
X126605771Y-43775237D01*
X126605771Y-43775237D02*
X126558152Y-43679999D01*
X126558152Y-43679999D02*
X126558152Y-43537142D01*
X126558152Y-43537142D02*
X126605771Y-43441904D01*
X126605771Y-43441904D02*
X126653390Y-43394285D01*
X126653390Y-43394285D02*
X126748628Y-43346666D01*
X126748628Y-43346666D02*
X127034342Y-43346666D01*
X127034342Y-43346666D02*
X127129580Y-43394285D01*
X127129580Y-43394285D02*
X127177200Y-43441904D01*
X127177200Y-43441904D02*
X127224819Y-43537142D01*
X127224819Y-43537142D02*
X127224819Y-43679999D01*
X127224819Y-42918094D02*
X126558152Y-42918094D01*
X126748628Y-42918094D02*
X126653390Y-42870475D01*
X126653390Y-42870475D02*
X126605771Y-42822856D01*
X126605771Y-42822856D02*
X126558152Y-42727618D01*
X126558152Y-42727618D02*
X126558152Y-42632380D01*
X127320057Y-42537142D02*
X127320057Y-41775237D01*
X126272438Y-41013332D02*
X126224819Y-41108570D01*
X126224819Y-41108570D02*
X126224819Y-41251427D01*
X126224819Y-41251427D02*
X126272438Y-41394284D01*
X126272438Y-41394284D02*
X126367676Y-41489522D01*
X126367676Y-41489522D02*
X126462914Y-41537141D01*
X126462914Y-41537141D02*
X126653390Y-41584760D01*
X126653390Y-41584760D02*
X126796247Y-41584760D01*
X126796247Y-41584760D02*
X126986723Y-41537141D01*
X126986723Y-41537141D02*
X127081961Y-41489522D01*
X127081961Y-41489522D02*
X127177200Y-41394284D01*
X127177200Y-41394284D02*
X127224819Y-41251427D01*
X127224819Y-41251427D02*
X127224819Y-41156189D01*
X127224819Y-41156189D02*
X127177200Y-41013332D01*
X127177200Y-41013332D02*
X127129580Y-40965713D01*
X127129580Y-40965713D02*
X126796247Y-40965713D01*
X126796247Y-40965713D02*
X126796247Y-41156189D01*
X126748628Y-40346665D02*
X127224819Y-40346665D01*
X126224819Y-40679998D02*
X126748628Y-40346665D01*
X126748628Y-40346665D02*
X126224819Y-40013332D01*
X127320057Y-39918094D02*
X127320057Y-39156189D01*
X126224819Y-38441903D02*
X126224819Y-38918093D01*
X126224819Y-38918093D02*
X126701009Y-38965712D01*
X126701009Y-38965712D02*
X126653390Y-38918093D01*
X126653390Y-38918093D02*
X126605771Y-38822855D01*
X126605771Y-38822855D02*
X126605771Y-38584760D01*
X126605771Y-38584760D02*
X126653390Y-38489522D01*
X126653390Y-38489522D02*
X126701009Y-38441903D01*
X126701009Y-38441903D02*
X126796247Y-38394284D01*
X126796247Y-38394284D02*
X127034342Y-38394284D01*
X127034342Y-38394284D02*
X127129580Y-38441903D01*
X127129580Y-38441903D02*
X127177200Y-38489522D01*
X127177200Y-38489522D02*
X127224819Y-38584760D01*
X127224819Y-38584760D02*
X127224819Y-38822855D01*
X127224819Y-38822855D02*
X127177200Y-38918093D01*
X127177200Y-38918093D02*
X127129580Y-38965712D01*
X126320057Y-38013331D02*
X126272438Y-37965712D01*
X126272438Y-37965712D02*
X126224819Y-37870474D01*
X126224819Y-37870474D02*
X126224819Y-37632379D01*
X126224819Y-37632379D02*
X126272438Y-37537141D01*
X126272438Y-37537141D02*
X126320057Y-37489522D01*
X126320057Y-37489522D02*
X126415295Y-37441903D01*
X126415295Y-37441903D02*
X126510533Y-37441903D01*
X126510533Y-37441903D02*
X126653390Y-37489522D01*
X126653390Y-37489522D02*
X127224819Y-38060950D01*
X127224819Y-38060950D02*
X127224819Y-37441903D01*
X127224819Y-36489522D02*
X127224819Y-37060950D01*
X127224819Y-36775236D02*
X126224819Y-36775236D01*
X126224819Y-36775236D02*
X126367676Y-36870474D01*
X126367676Y-36870474D02*
X126462914Y-36965712D01*
X126462914Y-36965712D02*
X126510533Y-37060950D01*
X138096666Y-42634819D02*
X138096666Y-43349104D01*
X138096666Y-43349104D02*
X138049047Y-43491961D01*
X138049047Y-43491961D02*
X137953809Y-43587200D01*
X137953809Y-43587200D02*
X137810952Y-43634819D01*
X137810952Y-43634819D02*
X137715714Y-43634819D01*
X139096666Y-43634819D02*
X138525238Y-43634819D01*
X138810952Y-43634819D02*
X138810952Y-42634819D01*
X138810952Y-42634819D02*
X138715714Y-42777676D01*
X138715714Y-42777676D02*
X138620476Y-42872914D01*
X138620476Y-42872914D02*
X138525238Y-42920533D01*
X116124819Y-84558094D02*
X116124819Y-83939047D01*
X116124819Y-83939047D02*
X116505771Y-84272380D01*
X116505771Y-84272380D02*
X116505771Y-84129523D01*
X116505771Y-84129523D02*
X116553390Y-84034285D01*
X116553390Y-84034285D02*
X116601009Y-83986666D01*
X116601009Y-83986666D02*
X116696247Y-83939047D01*
X116696247Y-83939047D02*
X116934342Y-83939047D01*
X116934342Y-83939047D02*
X117029580Y-83986666D01*
X117029580Y-83986666D02*
X117077200Y-84034285D01*
X117077200Y-84034285D02*
X117124819Y-84129523D01*
X117124819Y-84129523D02*
X117124819Y-84415237D01*
X117124819Y-84415237D02*
X117077200Y-84510475D01*
X117077200Y-84510475D02*
X117029580Y-84558094D01*
X117124819Y-83510475D02*
X116124819Y-83510475D01*
X116743866Y-83415237D02*
X117124819Y-83129523D01*
X116458152Y-83129523D02*
X116839104Y-83510475D01*
X114754819Y-84462857D02*
X114278628Y-84796190D01*
X114754819Y-85034285D02*
X113754819Y-85034285D01*
X113754819Y-85034285D02*
X113754819Y-84653333D01*
X113754819Y-84653333D02*
X113802438Y-84558095D01*
X113802438Y-84558095D02*
X113850057Y-84510476D01*
X113850057Y-84510476D02*
X113945295Y-84462857D01*
X113945295Y-84462857D02*
X114088152Y-84462857D01*
X114088152Y-84462857D02*
X114183390Y-84510476D01*
X114183390Y-84510476D02*
X114231009Y-84558095D01*
X114231009Y-84558095D02*
X114278628Y-84653333D01*
X114278628Y-84653333D02*
X114278628Y-85034285D01*
X114754819Y-83510476D02*
X114754819Y-84081904D01*
X114754819Y-83796190D02*
X113754819Y-83796190D01*
X113754819Y-83796190D02*
X113897676Y-83891428D01*
X113897676Y-83891428D02*
X113992914Y-83986666D01*
X113992914Y-83986666D02*
X114040533Y-84081904D01*
X114754819Y-82558095D02*
X114754819Y-83129523D01*
X114754819Y-82843809D02*
X113754819Y-82843809D01*
X113754819Y-82843809D02*
X113897676Y-82939047D01*
X113897676Y-82939047D02*
X113992914Y-83034285D01*
X113992914Y-83034285D02*
X114040533Y-83129523D01*
X105441905Y-139420057D02*
X105489524Y-139372438D01*
X105489524Y-139372438D02*
X105584762Y-139324819D01*
X105584762Y-139324819D02*
X105822857Y-139324819D01*
X105822857Y-139324819D02*
X105918095Y-139372438D01*
X105918095Y-139372438D02*
X105965714Y-139420057D01*
X105965714Y-139420057D02*
X106013333Y-139515295D01*
X106013333Y-139515295D02*
X106013333Y-139610533D01*
X106013333Y-139610533D02*
X105965714Y-139753390D01*
X105965714Y-139753390D02*
X105394286Y-140324819D01*
X105394286Y-140324819D02*
X106013333Y-140324819D01*
X106394286Y-139420057D02*
X106441905Y-139372438D01*
X106441905Y-139372438D02*
X106537143Y-139324819D01*
X106537143Y-139324819D02*
X106775238Y-139324819D01*
X106775238Y-139324819D02*
X106870476Y-139372438D01*
X106870476Y-139372438D02*
X106918095Y-139420057D01*
X106918095Y-139420057D02*
X106965714Y-139515295D01*
X106965714Y-139515295D02*
X106965714Y-139610533D01*
X106965714Y-139610533D02*
X106918095Y-139753390D01*
X106918095Y-139753390D02*
X106346667Y-140324819D01*
X106346667Y-140324819D02*
X106965714Y-140324819D01*
X107584762Y-139324819D02*
X107680000Y-139324819D01*
X107680000Y-139324819D02*
X107775238Y-139372438D01*
X107775238Y-139372438D02*
X107822857Y-139420057D01*
X107822857Y-139420057D02*
X107870476Y-139515295D01*
X107870476Y-139515295D02*
X107918095Y-139705771D01*
X107918095Y-139705771D02*
X107918095Y-139943866D01*
X107918095Y-139943866D02*
X107870476Y-140134342D01*
X107870476Y-140134342D02*
X107822857Y-140229580D01*
X107822857Y-140229580D02*
X107775238Y-140277200D01*
X107775238Y-140277200D02*
X107680000Y-140324819D01*
X107680000Y-140324819D02*
X107584762Y-140324819D01*
X107584762Y-140324819D02*
X107489524Y-140277200D01*
X107489524Y-140277200D02*
X107441905Y-140229580D01*
X107441905Y-140229580D02*
X107394286Y-140134342D01*
X107394286Y-140134342D02*
X107346667Y-139943866D01*
X107346667Y-139943866D02*
X107346667Y-139705771D01*
X107346667Y-139705771D02*
X107394286Y-139515295D01*
X107394286Y-139515295D02*
X107441905Y-139420057D01*
X107441905Y-139420057D02*
X107489524Y-139372438D01*
X107489524Y-139372438D02*
X107584762Y-139324819D01*
X106513333Y-142694819D02*
X106180000Y-142218628D01*
X105941905Y-142694819D02*
X105941905Y-141694819D01*
X105941905Y-141694819D02*
X106322857Y-141694819D01*
X106322857Y-141694819D02*
X106418095Y-141742438D01*
X106418095Y-141742438D02*
X106465714Y-141790057D01*
X106465714Y-141790057D02*
X106513333Y-141885295D01*
X106513333Y-141885295D02*
X106513333Y-142028152D01*
X106513333Y-142028152D02*
X106465714Y-142123390D01*
X106465714Y-142123390D02*
X106418095Y-142171009D01*
X106418095Y-142171009D02*
X106322857Y-142218628D01*
X106322857Y-142218628D02*
X105941905Y-142218628D01*
X107370476Y-142028152D02*
X107370476Y-142694819D01*
X107132381Y-141647200D02*
X106894286Y-142361485D01*
X106894286Y-142361485D02*
X107513333Y-142361485D01*
X99210952Y-135229580D02*
X99163333Y-135277200D01*
X99163333Y-135277200D02*
X99020476Y-135324819D01*
X99020476Y-135324819D02*
X98925238Y-135324819D01*
X98925238Y-135324819D02*
X98782381Y-135277200D01*
X98782381Y-135277200D02*
X98687143Y-135181961D01*
X98687143Y-135181961D02*
X98639524Y-135086723D01*
X98639524Y-135086723D02*
X98591905Y-134896247D01*
X98591905Y-134896247D02*
X98591905Y-134753390D01*
X98591905Y-134753390D02*
X98639524Y-134562914D01*
X98639524Y-134562914D02*
X98687143Y-134467676D01*
X98687143Y-134467676D02*
X98782381Y-134372438D01*
X98782381Y-134372438D02*
X98925238Y-134324819D01*
X98925238Y-134324819D02*
X99020476Y-134324819D01*
X99020476Y-134324819D02*
X99163333Y-134372438D01*
X99163333Y-134372438D02*
X99210952Y-134420057D01*
X99687143Y-135324819D02*
X99877619Y-135324819D01*
X99877619Y-135324819D02*
X99972857Y-135277200D01*
X99972857Y-135277200D02*
X100020476Y-135229580D01*
X100020476Y-135229580D02*
X100115714Y-135086723D01*
X100115714Y-135086723D02*
X100163333Y-134896247D01*
X100163333Y-134896247D02*
X100163333Y-134515295D01*
X100163333Y-134515295D02*
X100115714Y-134420057D01*
X100115714Y-134420057D02*
X100068095Y-134372438D01*
X100068095Y-134372438D02*
X99972857Y-134324819D01*
X99972857Y-134324819D02*
X99782381Y-134324819D01*
X99782381Y-134324819D02*
X99687143Y-134372438D01*
X99687143Y-134372438D02*
X99639524Y-134420057D01*
X99639524Y-134420057D02*
X99591905Y-134515295D01*
X99591905Y-134515295D02*
X99591905Y-134753390D01*
X99591905Y-134753390D02*
X99639524Y-134848628D01*
X99639524Y-134848628D02*
X99687143Y-134896247D01*
X99687143Y-134896247D02*
X99782381Y-134943866D01*
X99782381Y-134943866D02*
X99972857Y-134943866D01*
X99972857Y-134943866D02*
X100068095Y-134896247D01*
X100068095Y-134896247D02*
X100115714Y-134848628D01*
X100115714Y-134848628D02*
X100163333Y-134753390D01*
X101020476Y-134658152D02*
X101020476Y-135324819D01*
X100782381Y-134277200D02*
X100544286Y-134991485D01*
X100544286Y-134991485D02*
X101163333Y-134991485D01*
X102020476Y-134324819D02*
X101544286Y-134324819D01*
X101544286Y-134324819D02*
X101496667Y-134801009D01*
X101496667Y-134801009D02*
X101544286Y-134753390D01*
X101544286Y-134753390D02*
X101639524Y-134705771D01*
X101639524Y-134705771D02*
X101877619Y-134705771D01*
X101877619Y-134705771D02*
X101972857Y-134753390D01*
X101972857Y-134753390D02*
X102020476Y-134801009D01*
X102020476Y-134801009D02*
X102068095Y-134896247D01*
X102068095Y-134896247D02*
X102068095Y-135134342D01*
X102068095Y-135134342D02*
X102020476Y-135229580D01*
X102020476Y-135229580D02*
X101972857Y-135277200D01*
X101972857Y-135277200D02*
X101877619Y-135324819D01*
X101877619Y-135324819D02*
X101639524Y-135324819D01*
X101639524Y-135324819D02*
X101544286Y-135277200D01*
X101544286Y-135277200D02*
X101496667Y-135229580D01*
X100234761Y-132630057D02*
X100139523Y-132582438D01*
X100139523Y-132582438D02*
X100044285Y-132487200D01*
X100044285Y-132487200D02*
X99901428Y-132344342D01*
X99901428Y-132344342D02*
X99806190Y-132296723D01*
X99806190Y-132296723D02*
X99710952Y-132296723D01*
X99758571Y-132534819D02*
X99663333Y-132487200D01*
X99663333Y-132487200D02*
X99568095Y-132391961D01*
X99568095Y-132391961D02*
X99520476Y-132201485D01*
X99520476Y-132201485D02*
X99520476Y-131868152D01*
X99520476Y-131868152D02*
X99568095Y-131677676D01*
X99568095Y-131677676D02*
X99663333Y-131582438D01*
X99663333Y-131582438D02*
X99758571Y-131534819D01*
X99758571Y-131534819D02*
X99949047Y-131534819D01*
X99949047Y-131534819D02*
X100044285Y-131582438D01*
X100044285Y-131582438D02*
X100139523Y-131677676D01*
X100139523Y-131677676D02*
X100187142Y-131868152D01*
X100187142Y-131868152D02*
X100187142Y-132201485D01*
X100187142Y-132201485D02*
X100139523Y-132391961D01*
X100139523Y-132391961D02*
X100044285Y-132487200D01*
X100044285Y-132487200D02*
X99949047Y-132534819D01*
X99949047Y-132534819D02*
X99758571Y-132534819D01*
X100568095Y-131630057D02*
X100615714Y-131582438D01*
X100615714Y-131582438D02*
X100710952Y-131534819D01*
X100710952Y-131534819D02*
X100949047Y-131534819D01*
X100949047Y-131534819D02*
X101044285Y-131582438D01*
X101044285Y-131582438D02*
X101091904Y-131630057D01*
X101091904Y-131630057D02*
X101139523Y-131725295D01*
X101139523Y-131725295D02*
X101139523Y-131820533D01*
X101139523Y-131820533D02*
X101091904Y-131963390D01*
X101091904Y-131963390D02*
X100520476Y-132534819D01*
X100520476Y-132534819D02*
X101139523Y-132534819D01*
X179649523Y-86318152D02*
X179649523Y-86984819D01*
X179411428Y-85937200D02*
X179173333Y-86651485D01*
X179173333Y-86651485D02*
X179792380Y-86651485D01*
X180173333Y-86984819D02*
X180173333Y-85984819D01*
X180268571Y-86603866D02*
X180554285Y-86984819D01*
X180554285Y-86318152D02*
X180173333Y-86699104D01*
X180887619Y-85984819D02*
X181554285Y-85984819D01*
X181554285Y-85984819D02*
X181125714Y-86984819D01*
X180173333Y-89354819D02*
X179840000Y-88878628D01*
X179601905Y-89354819D02*
X179601905Y-88354819D01*
X179601905Y-88354819D02*
X179982857Y-88354819D01*
X179982857Y-88354819D02*
X180078095Y-88402438D01*
X180078095Y-88402438D02*
X180125714Y-88450057D01*
X180125714Y-88450057D02*
X180173333Y-88545295D01*
X180173333Y-88545295D02*
X180173333Y-88688152D01*
X180173333Y-88688152D02*
X180125714Y-88783390D01*
X180125714Y-88783390D02*
X180078095Y-88831009D01*
X180078095Y-88831009D02*
X179982857Y-88878628D01*
X179982857Y-88878628D02*
X179601905Y-88878628D01*
X180649524Y-89354819D02*
X180840000Y-89354819D01*
X180840000Y-89354819D02*
X180935238Y-89307200D01*
X180935238Y-89307200D02*
X180982857Y-89259580D01*
X180982857Y-89259580D02*
X181078095Y-89116723D01*
X181078095Y-89116723D02*
X181125714Y-88926247D01*
X181125714Y-88926247D02*
X181125714Y-88545295D01*
X181125714Y-88545295D02*
X181078095Y-88450057D01*
X181078095Y-88450057D02*
X181030476Y-88402438D01*
X181030476Y-88402438D02*
X180935238Y-88354819D01*
X180935238Y-88354819D02*
X180744762Y-88354819D01*
X180744762Y-88354819D02*
X180649524Y-88402438D01*
X180649524Y-88402438D02*
X180601905Y-88450057D01*
X180601905Y-88450057D02*
X180554286Y-88545295D01*
X180554286Y-88545295D02*
X180554286Y-88783390D01*
X180554286Y-88783390D02*
X180601905Y-88878628D01*
X180601905Y-88878628D02*
X180649524Y-88926247D01*
X180649524Y-88926247D02*
X180744762Y-88973866D01*
X180744762Y-88973866D02*
X180935238Y-88973866D01*
X180935238Y-88973866D02*
X181030476Y-88926247D01*
X181030476Y-88926247D02*
X181078095Y-88878628D01*
X181078095Y-88878628D02*
X181125714Y-88783390D01*
X194247319Y-137802857D02*
X194247319Y-138279047D01*
X194247319Y-138279047D02*
X193247319Y-138279047D01*
X193723509Y-137469523D02*
X193723509Y-137136190D01*
X194247319Y-136993333D02*
X194247319Y-137469523D01*
X194247319Y-137469523D02*
X193247319Y-137469523D01*
X193247319Y-137469523D02*
X193247319Y-136993333D01*
X194247319Y-136564761D02*
X193247319Y-136564761D01*
X193247319Y-136564761D02*
X193247319Y-136326666D01*
X193247319Y-136326666D02*
X193294938Y-136183809D01*
X193294938Y-136183809D02*
X193390176Y-136088571D01*
X193390176Y-136088571D02*
X193485414Y-136040952D01*
X193485414Y-136040952D02*
X193675890Y-135993333D01*
X193675890Y-135993333D02*
X193818747Y-135993333D01*
X193818747Y-135993333D02*
X194009223Y-136040952D01*
X194009223Y-136040952D02*
X194104461Y-136088571D01*
X194104461Y-136088571D02*
X194199700Y-136183809D01*
X194199700Y-136183809D02*
X194247319Y-136326666D01*
X194247319Y-136326666D02*
X194247319Y-136564761D01*
X180047319Y-137898094D02*
X179047319Y-137898094D01*
X179047319Y-137898094D02*
X179047319Y-137659999D01*
X179047319Y-137659999D02*
X179094938Y-137517142D01*
X179094938Y-137517142D02*
X179190176Y-137421904D01*
X179190176Y-137421904D02*
X179285414Y-137374285D01*
X179285414Y-137374285D02*
X179475890Y-137326666D01*
X179475890Y-137326666D02*
X179618747Y-137326666D01*
X179618747Y-137326666D02*
X179809223Y-137374285D01*
X179809223Y-137374285D02*
X179904461Y-137421904D01*
X179904461Y-137421904D02*
X179999700Y-137517142D01*
X179999700Y-137517142D02*
X180047319Y-137659999D01*
X180047319Y-137659999D02*
X180047319Y-137898094D01*
X180047319Y-136374285D02*
X180047319Y-136945713D01*
X180047319Y-136659999D02*
X179047319Y-136659999D01*
X179047319Y-136659999D02*
X179190176Y-136755237D01*
X179190176Y-136755237D02*
X179285414Y-136850475D01*
X179285414Y-136850475D02*
X179333033Y-136945713D01*
X114180952Y-139984819D02*
X113609524Y-139984819D01*
X113895238Y-139984819D02*
X113895238Y-138984819D01*
X113895238Y-138984819D02*
X113800000Y-139127676D01*
X113800000Y-139127676D02*
X113704762Y-139222914D01*
X113704762Y-139222914D02*
X113609524Y-139270533D01*
X114609524Y-139984819D02*
X114609524Y-138984819D01*
X114704762Y-139603866D02*
X114990476Y-139984819D01*
X114990476Y-139318152D02*
X114609524Y-139699104D01*
X114133333Y-137614819D02*
X113800000Y-137138628D01*
X113561905Y-137614819D02*
X113561905Y-136614819D01*
X113561905Y-136614819D02*
X113942857Y-136614819D01*
X113942857Y-136614819D02*
X114038095Y-136662438D01*
X114038095Y-136662438D02*
X114085714Y-136710057D01*
X114085714Y-136710057D02*
X114133333Y-136805295D01*
X114133333Y-136805295D02*
X114133333Y-136948152D01*
X114133333Y-136948152D02*
X114085714Y-137043390D01*
X114085714Y-137043390D02*
X114038095Y-137091009D01*
X114038095Y-137091009D02*
X113942857Y-137138628D01*
X113942857Y-137138628D02*
X113561905Y-137138628D01*
X114990476Y-136614819D02*
X114800000Y-136614819D01*
X114800000Y-136614819D02*
X114704762Y-136662438D01*
X114704762Y-136662438D02*
X114657143Y-136710057D01*
X114657143Y-136710057D02*
X114561905Y-136852914D01*
X114561905Y-136852914D02*
X114514286Y-137043390D01*
X114514286Y-137043390D02*
X114514286Y-137424342D01*
X114514286Y-137424342D02*
X114561905Y-137519580D01*
X114561905Y-137519580D02*
X114609524Y-137567200D01*
X114609524Y-137567200D02*
X114704762Y-137614819D01*
X114704762Y-137614819D02*
X114895238Y-137614819D01*
X114895238Y-137614819D02*
X114990476Y-137567200D01*
X114990476Y-137567200D02*
X115038095Y-137519580D01*
X115038095Y-137519580D02*
X115085714Y-137424342D01*
X115085714Y-137424342D02*
X115085714Y-137186247D01*
X115085714Y-137186247D02*
X115038095Y-137091009D01*
X115038095Y-137091009D02*
X114990476Y-137043390D01*
X114990476Y-137043390D02*
X114895238Y-136995771D01*
X114895238Y-136995771D02*
X114704762Y-136995771D01*
X114704762Y-136995771D02*
X114609524Y-137043390D01*
X114609524Y-137043390D02*
X114561905Y-137091009D01*
X114561905Y-137091009D02*
X114514286Y-137186247D01*
X173240237Y-63589580D02*
X173192618Y-63637200D01*
X173192618Y-63637200D02*
X173049761Y-63684819D01*
X173049761Y-63684819D02*
X172954523Y-63684819D01*
X172954523Y-63684819D02*
X172811666Y-63637200D01*
X172811666Y-63637200D02*
X172716428Y-63541961D01*
X172716428Y-63541961D02*
X172668809Y-63446723D01*
X172668809Y-63446723D02*
X172621190Y-63256247D01*
X172621190Y-63256247D02*
X172621190Y-63113390D01*
X172621190Y-63113390D02*
X172668809Y-62922914D01*
X172668809Y-62922914D02*
X172716428Y-62827676D01*
X172716428Y-62827676D02*
X172811666Y-62732438D01*
X172811666Y-62732438D02*
X172954523Y-62684819D01*
X172954523Y-62684819D02*
X173049761Y-62684819D01*
X173049761Y-62684819D02*
X173192618Y-62732438D01*
X173192618Y-62732438D02*
X173240237Y-62780057D01*
X173811666Y-63684819D02*
X173716428Y-63637200D01*
X173716428Y-63637200D02*
X173668809Y-63589580D01*
X173668809Y-63589580D02*
X173621190Y-63494342D01*
X173621190Y-63494342D02*
X173621190Y-63208628D01*
X173621190Y-63208628D02*
X173668809Y-63113390D01*
X173668809Y-63113390D02*
X173716428Y-63065771D01*
X173716428Y-63065771D02*
X173811666Y-63018152D01*
X173811666Y-63018152D02*
X173954523Y-63018152D01*
X173954523Y-63018152D02*
X174049761Y-63065771D01*
X174049761Y-63065771D02*
X174097380Y-63113390D01*
X174097380Y-63113390D02*
X174144999Y-63208628D01*
X174144999Y-63208628D02*
X174144999Y-63494342D01*
X174144999Y-63494342D02*
X174097380Y-63589580D01*
X174097380Y-63589580D02*
X174049761Y-63637200D01*
X174049761Y-63637200D02*
X173954523Y-63684819D01*
X173954523Y-63684819D02*
X173811666Y-63684819D01*
X174573571Y-63018152D02*
X174573571Y-63684819D01*
X174573571Y-63113390D02*
X174621190Y-63065771D01*
X174621190Y-63065771D02*
X174716428Y-63018152D01*
X174716428Y-63018152D02*
X174859285Y-63018152D01*
X174859285Y-63018152D02*
X174954523Y-63065771D01*
X174954523Y-63065771D02*
X175002142Y-63161009D01*
X175002142Y-63161009D02*
X175002142Y-63684819D01*
X175478333Y-63018152D02*
X175478333Y-63684819D01*
X175478333Y-63113390D02*
X175525952Y-63065771D01*
X175525952Y-63065771D02*
X175621190Y-63018152D01*
X175621190Y-63018152D02*
X175764047Y-63018152D01*
X175764047Y-63018152D02*
X175859285Y-63065771D01*
X175859285Y-63065771D02*
X175906904Y-63161009D01*
X175906904Y-63161009D02*
X175906904Y-63684819D01*
X176145000Y-63780057D02*
X176906904Y-63780057D01*
X177002143Y-62684819D02*
X177335476Y-63684819D01*
X177335476Y-63684819D02*
X177668809Y-62684819D01*
X178478333Y-63684819D02*
X178002143Y-63684819D01*
X178002143Y-63684819D02*
X178002143Y-62684819D01*
X179287857Y-62684819D02*
X178811667Y-62684819D01*
X178811667Y-62684819D02*
X178764048Y-63161009D01*
X178764048Y-63161009D02*
X178811667Y-63113390D01*
X178811667Y-63113390D02*
X178906905Y-63065771D01*
X178906905Y-63065771D02*
X179145000Y-63065771D01*
X179145000Y-63065771D02*
X179240238Y-63113390D01*
X179240238Y-63113390D02*
X179287857Y-63161009D01*
X179287857Y-63161009D02*
X179335476Y-63256247D01*
X179335476Y-63256247D02*
X179335476Y-63494342D01*
X179335476Y-63494342D02*
X179287857Y-63589580D01*
X179287857Y-63589580D02*
X179240238Y-63637200D01*
X179240238Y-63637200D02*
X179145000Y-63684819D01*
X179145000Y-63684819D02*
X178906905Y-63684819D01*
X178906905Y-63684819D02*
X178811667Y-63637200D01*
X178811667Y-63637200D02*
X178764048Y-63589580D01*
X179668810Y-62684819D02*
X180287857Y-62684819D01*
X180287857Y-62684819D02*
X179954524Y-63065771D01*
X179954524Y-63065771D02*
X180097381Y-63065771D01*
X180097381Y-63065771D02*
X180192619Y-63113390D01*
X180192619Y-63113390D02*
X180240238Y-63161009D01*
X180240238Y-63161009D02*
X180287857Y-63256247D01*
X180287857Y-63256247D02*
X180287857Y-63494342D01*
X180287857Y-63494342D02*
X180240238Y-63589580D01*
X180240238Y-63589580D02*
X180192619Y-63637200D01*
X180192619Y-63637200D02*
X180097381Y-63684819D01*
X180097381Y-63684819D02*
X179811667Y-63684819D01*
X179811667Y-63684819D02*
X179716429Y-63637200D01*
X179716429Y-63637200D02*
X179668810Y-63589580D01*
X181192619Y-63684819D02*
X180716429Y-63684819D01*
X180716429Y-63684819D02*
X180716429Y-62684819D01*
X181716429Y-62684819D02*
X181811667Y-62684819D01*
X181811667Y-62684819D02*
X181906905Y-62732438D01*
X181906905Y-62732438D02*
X181954524Y-62780057D01*
X181954524Y-62780057D02*
X182002143Y-62875295D01*
X182002143Y-62875295D02*
X182049762Y-63065771D01*
X182049762Y-63065771D02*
X182049762Y-63303866D01*
X182049762Y-63303866D02*
X182002143Y-63494342D01*
X182002143Y-63494342D02*
X181954524Y-63589580D01*
X181954524Y-63589580D02*
X181906905Y-63637200D01*
X181906905Y-63637200D02*
X181811667Y-63684819D01*
X181811667Y-63684819D02*
X181716429Y-63684819D01*
X181716429Y-63684819D02*
X181621191Y-63637200D01*
X181621191Y-63637200D02*
X181573572Y-63589580D01*
X181573572Y-63589580D02*
X181525953Y-63494342D01*
X181525953Y-63494342D02*
X181478334Y-63303866D01*
X181478334Y-63303866D02*
X181478334Y-63065771D01*
X181478334Y-63065771D02*
X181525953Y-62875295D01*
X181525953Y-62875295D02*
X181573572Y-62780057D01*
X181573572Y-62780057D02*
X181621191Y-62732438D01*
X181621191Y-62732438D02*
X181716429Y-62684819D01*
X183192619Y-62637200D02*
X182335477Y-63922914D01*
X184049762Y-63684819D02*
X183478334Y-63684819D01*
X183764048Y-63684819D02*
X183764048Y-62684819D01*
X183764048Y-62684819D02*
X183668810Y-62827676D01*
X183668810Y-62827676D02*
X183573572Y-62922914D01*
X183573572Y-62922914D02*
X183478334Y-62970533D01*
X184383096Y-63684819D02*
X184906905Y-63018152D01*
X184383096Y-63018152D02*
X184906905Y-63684819D01*
X185145001Y-62684819D02*
X185478334Y-63684819D01*
X185478334Y-63684819D02*
X185811667Y-62684819D01*
X186097382Y-62780057D02*
X186145001Y-62732438D01*
X186145001Y-62732438D02*
X186240239Y-62684819D01*
X186240239Y-62684819D02*
X186478334Y-62684819D01*
X186478334Y-62684819D02*
X186573572Y-62732438D01*
X186573572Y-62732438D02*
X186621191Y-62780057D01*
X186621191Y-62780057D02*
X186668810Y-62875295D01*
X186668810Y-62875295D02*
X186668810Y-62970533D01*
X186668810Y-62970533D02*
X186621191Y-63113390D01*
X186621191Y-63113390D02*
X186049763Y-63684819D01*
X186049763Y-63684819D02*
X186668810Y-63684819D01*
X177484819Y-54943333D02*
X178199104Y-54943333D01*
X178199104Y-54943333D02*
X178341961Y-54990952D01*
X178341961Y-54990952D02*
X178437200Y-55086190D01*
X178437200Y-55086190D02*
X178484819Y-55229047D01*
X178484819Y-55229047D02*
X178484819Y-55324285D01*
X177580057Y-54514761D02*
X177532438Y-54467142D01*
X177532438Y-54467142D02*
X177484819Y-54371904D01*
X177484819Y-54371904D02*
X177484819Y-54133809D01*
X177484819Y-54133809D02*
X177532438Y-54038571D01*
X177532438Y-54038571D02*
X177580057Y-53990952D01*
X177580057Y-53990952D02*
X177675295Y-53943333D01*
X177675295Y-53943333D02*
X177770533Y-53943333D01*
X177770533Y-53943333D02*
X177913390Y-53990952D01*
X177913390Y-53990952D02*
X178484819Y-54562380D01*
X178484819Y-54562380D02*
X178484819Y-53943333D01*
D11*
%TO.C,R7*%
X111760000Y-50800000D02*
X111760000Y-55270000D01*
X113010000Y-55270000D02*
X110510000Y-55270000D01*
X110510000Y-55270000D02*
X110510000Y-61570000D01*
X113010000Y-61570000D02*
X113010000Y-55270000D01*
X110510000Y-61570000D02*
X113010000Y-61570000D01*
X111760000Y-66040000D02*
X111760000Y-61570000D01*
%TO.C,R14*%
X81280000Y-66040000D02*
X85750000Y-66040000D01*
X85750000Y-64790000D02*
X85750000Y-67290000D01*
X85750000Y-67290000D02*
X92050000Y-67290000D01*
X92050000Y-64790000D02*
X85750000Y-64790000D01*
X92050000Y-67290000D02*
X92050000Y-64790000D01*
X96520000Y-66040000D02*
X92050000Y-66040000D01*
%TO.C,R3*%
X157480000Y-127000000D02*
X161950000Y-127000000D01*
X161950000Y-125750000D02*
X161950000Y-128250000D01*
X161950000Y-128250000D02*
X168250000Y-128250000D01*
X168250000Y-125750000D02*
X161950000Y-125750000D01*
X168250000Y-128250000D02*
X168250000Y-125750000D01*
X172720000Y-127000000D02*
X168250000Y-127000000D01*
%TO.C,R8*%
X106680000Y-50800000D02*
X106680000Y-55270000D01*
X107930000Y-55270000D02*
X105430000Y-55270000D01*
X105430000Y-55270000D02*
X105430000Y-61570000D01*
X107930000Y-61570000D02*
X107930000Y-55270000D01*
X105430000Y-61570000D02*
X107930000Y-61570000D01*
X106680000Y-66040000D02*
X106680000Y-61570000D01*
%TO.C,R5*%
X157480000Y-119380000D02*
X161950000Y-119380000D01*
X161950000Y-118130000D02*
X161950000Y-120630000D01*
X161950000Y-120630000D02*
X168250000Y-120630000D01*
X168250000Y-118130000D02*
X161950000Y-118130000D01*
X168250000Y-120630000D02*
X168250000Y-118130000D01*
X172720000Y-119380000D02*
X168250000Y-119380000D01*
%TO.C,R1*%
X81280000Y-96520000D02*
X85750000Y-96520000D01*
X85750000Y-95270000D02*
X85750000Y-97770000D01*
X85750000Y-97770000D02*
X92050000Y-97770000D01*
X92050000Y-95270000D02*
X85750000Y-95270000D01*
X92050000Y-97770000D02*
X92050000Y-95270000D01*
X96520000Y-96520000D02*
X92050000Y-96520000D01*
%TO.C,U2*%
X109855000Y-108950000D02*
X110855000Y-107950000D01*
X109855000Y-128270000D02*
X109855000Y-108950000D01*
X110855000Y-107950000D02*
X116205000Y-107950000D01*
X116205000Y-107950000D02*
X116205000Y-128270000D01*
X116205000Y-128270000D02*
X109855000Y-128270000D01*
%TO.C,R10*%
X187960000Y-96520000D02*
X183490000Y-96520000D01*
X183490000Y-97770000D02*
X183490000Y-95270000D01*
X183490000Y-95270000D02*
X177190000Y-95270000D01*
X177190000Y-97770000D02*
X183490000Y-97770000D01*
X177190000Y-95270000D02*
X177190000Y-97770000D01*
X172720000Y-96520000D02*
X177190000Y-96520000D01*
%TO.C,R12*%
X109220000Y-91440000D02*
X109220000Y-86970000D01*
X107970000Y-86970000D02*
X110470000Y-86970000D01*
X110470000Y-86970000D02*
X110470000Y-80670000D01*
X107970000Y-80670000D02*
X107970000Y-86970000D01*
X110470000Y-80670000D02*
X107970000Y-80670000D01*
X109220000Y-76200000D02*
X109220000Y-80670000D01*
%TO.C,Q4*%
X108720000Y-100810000D02*
X112220000Y-100810000D01*
X110490000Y-96580000D02*
G75*
G03*
X108736375Y-100813625I0J-2480000D01*
G01*
X112243625Y-100813625D02*
G75*
G03*
X110490000Y-96580000I-1753625J1753625D01*
G01*
%TO.C,U4*%
X101670000Y-101680000D02*
X101670000Y-111680000D01*
X95270000Y-101680000D02*
X101670000Y-101680000D01*
X95270000Y-101680000D02*
X95270000Y-111680000D01*
X86020000Y-101680000D02*
X95270000Y-101680000D01*
X86020000Y-104140000D02*
X82210000Y-104140000D01*
X86020000Y-106680000D02*
X82210000Y-106680000D01*
X86020000Y-109220000D02*
X82210000Y-109220000D01*
X101670000Y-111680000D02*
X95270000Y-111680000D01*
X95270000Y-111680000D02*
X95270000Y-101680000D01*
X95270000Y-111680000D02*
X86020000Y-111680000D01*
X86020000Y-111680000D02*
X86020000Y-101680000D01*
X100720000Y-106680000D02*
G75*
G03*
X100720000Y-106680000I-1850000J0D01*
G01*
%TO.C,M1*%
X94190000Y-114620000D02*
X80690000Y-114620000D01*
X80690000Y-114620000D02*
X80690000Y-126020000D01*
X94190000Y-115970000D02*
X92690000Y-116920000D01*
X94190000Y-117870000D02*
X92690000Y-116920000D01*
X94190000Y-126020000D02*
X94190000Y-114620000D01*
X80690000Y-126020000D02*
X94190000Y-126020000D01*
%TO.C,R13*%
X81280000Y-71120000D02*
X85750000Y-71120000D01*
X85750000Y-69870000D02*
X85750000Y-72370000D01*
X85750000Y-72370000D02*
X92050000Y-72370000D01*
X92050000Y-69870000D02*
X85750000Y-69870000D01*
X92050000Y-72370000D02*
X92050000Y-69870000D01*
X96520000Y-71120000D02*
X92050000Y-71120000D01*
%TO.C,J3*%
X175645000Y-69540000D02*
X175645000Y-70180000D01*
X175645000Y-69540000D02*
X177465000Y-69540000D01*
X175645000Y-70180000D02*
X177465000Y-70180000D01*
X175645000Y-72080000D02*
X175645000Y-72720000D01*
X175645000Y-72080000D02*
X177465000Y-72080000D01*
X175645000Y-72720000D02*
X177465000Y-72720000D01*
X175645000Y-74620000D02*
X175645000Y-75260000D01*
X175645000Y-74620000D02*
X177465000Y-74620000D01*
X175645000Y-75260000D02*
X177465000Y-75260000D01*
X175645000Y-77160000D02*
X175645000Y-77800000D01*
X175645000Y-77160000D02*
X177465000Y-77160000D01*
X175645000Y-77800000D02*
X177465000Y-77800000D01*
X177465000Y-69225000D02*
X178100000Y-68590000D01*
X177465000Y-78750000D02*
X177465000Y-69225000D01*
X178100000Y-68590000D02*
X180005000Y-68590000D01*
X180005000Y-68590000D02*
X180005000Y-78750000D01*
X180005000Y-69540000D02*
X186005000Y-69540000D01*
X180005000Y-70180000D02*
X186005000Y-70180000D01*
X180005000Y-72080000D02*
X186005000Y-72080000D01*
X180005000Y-72720000D02*
X186005000Y-72720000D01*
X180005000Y-74620000D02*
X186005000Y-74620000D01*
X180005000Y-75260000D02*
X186005000Y-75260000D01*
X180005000Y-77160000D02*
X186005000Y-77160000D01*
X180005000Y-77800000D02*
X186005000Y-77800000D01*
X180005000Y-78750000D02*
X177465000Y-78750000D01*
X186005000Y-69540000D02*
X186005000Y-70180000D01*
X186005000Y-72080000D02*
X186005000Y-72720000D01*
X186005000Y-74620000D02*
X186005000Y-75260000D01*
X186005000Y-77160000D02*
X186005000Y-77800000D01*
%TO.C,R2*%
X96520000Y-91440000D02*
X92050000Y-91440000D01*
X92050000Y-92690000D02*
X92050000Y-90190000D01*
X92050000Y-90190000D02*
X85750000Y-90190000D01*
X85750000Y-92690000D02*
X92050000Y-92690000D01*
X85750000Y-90190000D02*
X85750000Y-92690000D01*
X81280000Y-91440000D02*
X85750000Y-91440000D01*
%TO.C,U3*%
X101670000Y-76280000D02*
X101670000Y-86280000D01*
X95270000Y-76280000D02*
X101670000Y-76280000D01*
X95270000Y-76280000D02*
X95270000Y-86280000D01*
X86020000Y-76280000D02*
X95270000Y-76280000D01*
X86020000Y-78740000D02*
X82210000Y-78740000D01*
X86020000Y-81280000D02*
X82210000Y-81280000D01*
X86020000Y-83820000D02*
X82210000Y-83820000D01*
X101670000Y-86280000D02*
X95270000Y-86280000D01*
X95270000Y-86280000D02*
X95270000Y-76280000D01*
X95270000Y-86280000D02*
X86020000Y-86280000D01*
X86020000Y-86280000D02*
X86020000Y-76280000D01*
X100720000Y-81280000D02*
G75*
G03*
X100720000Y-81280000I-1850000J0D01*
G01*
%TO.C,Q1*%
X166850000Y-140200000D02*
X166850000Y-136700000D01*
X162620000Y-138430000D02*
G75*
G03*
X166853625Y-140183625I2480000J0D01*
G01*
X166853625Y-136676375D02*
G75*
G03*
X162620000Y-138430000I-1753625J-1753625D01*
G01*
%TO.C,U5*%
X101670000Y-50880000D02*
X101670000Y-60880000D01*
X95270000Y-50880000D02*
X101670000Y-50880000D01*
X95270000Y-50880000D02*
X95270000Y-60880000D01*
X86020000Y-50880000D02*
X95270000Y-50880000D01*
X86020000Y-53340000D02*
X82210000Y-53340000D01*
X86020000Y-55880000D02*
X82210000Y-55880000D01*
X86020000Y-58420000D02*
X82210000Y-58420000D01*
X101670000Y-60880000D02*
X95270000Y-60880000D01*
X95270000Y-60880000D02*
X95270000Y-50880000D01*
X95270000Y-60880000D02*
X86020000Y-60880000D01*
X86020000Y-60880000D02*
X86020000Y-50880000D01*
X100720000Y-55880000D02*
G75*
G03*
X100720000Y-55880000I-1850000J0D01*
G01*
D12*
%TO.C,BT1*%
X81150000Y-41630000D02*
X81150000Y-44730000D01*
X81150000Y-44730000D02*
X83900000Y-47230000D01*
X83900000Y-39130000D02*
X81150000Y-41630000D01*
X83900000Y-47230000D02*
X96650000Y-47230000D01*
X96650000Y-39130000D02*
X83900000Y-39130000D01*
X96650000Y-47230000D02*
X96650000Y-39130000D01*
D11*
%TO.C,U1*%
X125730000Y-90170000D02*
X127635000Y-90170000D01*
X125730000Y-140970000D02*
X125730000Y-90170000D01*
X127635000Y-90170000D02*
X128270000Y-90805000D01*
X128270000Y-90805000D02*
X128270000Y-140970000D01*
X128270000Y-140970000D02*
X125730000Y-140970000D01*
X151130000Y-90170000D02*
X153035000Y-90170000D01*
X151130000Y-140970000D02*
X151130000Y-90170000D01*
X153035000Y-90170000D02*
X153670000Y-90805000D01*
X153670000Y-90805000D02*
X153670000Y-140970000D01*
X153670000Y-140970000D02*
X151130000Y-140970000D01*
%TO.C,D3*%
X94190000Y-129860000D02*
X80690000Y-129860000D01*
X80690000Y-129860000D02*
X80690000Y-141260000D01*
X94190000Y-131210000D02*
X92690000Y-132160000D01*
X94190000Y-133110000D02*
X92690000Y-132160000D01*
X94190000Y-141260000D02*
X94190000Y-129860000D01*
X80690000Y-141260000D02*
X94190000Y-141260000D01*
%TO.C,SW2*%
X111520000Y-45330000D02*
X109720000Y-45330000D01*
X111520000Y-41030000D02*
X111520000Y-45330000D01*
X109720000Y-45330000D02*
X109220000Y-44830000D01*
X109220000Y-44830000D02*
X108720000Y-45330000D01*
X109220000Y-44180000D02*
X109220000Y-42180000D01*
X109220000Y-44180000D02*
X105220000Y-44180000D01*
X109220000Y-42180000D02*
X105220000Y-42180000D01*
X108720000Y-45330000D02*
X102920000Y-45330000D01*
X108560000Y-44180000D02*
X108560000Y-42180000D01*
X107880000Y-44180000D02*
X107880000Y-42180000D01*
X107220000Y-44180000D02*
X107220000Y-42180000D01*
X105220000Y-44180000D02*
X105220000Y-42180000D01*
X102920000Y-45330000D02*
X102920000Y-41030000D01*
X102920000Y-41030000D02*
X111520000Y-41030000D01*
%TO.C,M2*%
X180725000Y-119075000D02*
X180725000Y-119715000D01*
X180725000Y-119075000D02*
X182545000Y-119075000D01*
X180725000Y-119715000D02*
X182545000Y-119715000D01*
X180725000Y-121615000D02*
X180725000Y-122255000D01*
X180725000Y-121615000D02*
X182545000Y-121615000D01*
X180725000Y-122255000D02*
X182545000Y-122255000D01*
X180725000Y-124155000D02*
X180725000Y-124795000D01*
X180725000Y-124155000D02*
X182545000Y-124155000D01*
X180725000Y-124795000D02*
X182545000Y-124795000D01*
X182545000Y-118760000D02*
X183180000Y-118125000D01*
X182545000Y-125745000D02*
X182545000Y-118760000D01*
X183180000Y-118125000D02*
X185085000Y-118125000D01*
X185085000Y-118125000D02*
X185085000Y-125745000D01*
X185085000Y-119075000D02*
X191085000Y-119075000D01*
X185085000Y-119715000D02*
X191085000Y-119715000D01*
X185085000Y-121615000D02*
X191085000Y-121615000D01*
X185085000Y-122255000D02*
X191085000Y-122255000D01*
X185085000Y-124155000D02*
X191085000Y-124155000D01*
X185085000Y-124795000D02*
X191085000Y-124795000D01*
X185085000Y-125745000D02*
X182545000Y-125745000D01*
X191085000Y-119075000D02*
X191085000Y-119715000D01*
X191085000Y-121615000D02*
X191085000Y-122255000D01*
X191085000Y-124155000D02*
X191085000Y-124795000D01*
%TO.C,J1*%
X148590000Y-41910000D02*
X148590000Y-43815000D01*
X128270000Y-41910000D02*
X148590000Y-41910000D01*
X148590000Y-43815000D02*
X147955000Y-44450000D01*
X147955000Y-44450000D02*
X128270000Y-44450000D01*
X128270000Y-44450000D02*
X128270000Y-41910000D01*
%TO.C,R11*%
X114300000Y-91440000D02*
X114300000Y-86970000D01*
X113050000Y-86970000D02*
X115550000Y-86970000D01*
X115550000Y-86970000D02*
X115550000Y-80670000D01*
X113050000Y-80670000D02*
X113050000Y-86970000D01*
X115550000Y-80670000D02*
X113050000Y-80670000D01*
X114300000Y-76200000D02*
X114300000Y-80670000D01*
%TO.C,R4*%
X114300000Y-142240000D02*
X109830000Y-142240000D01*
X109830000Y-143490000D02*
X109830000Y-140990000D01*
X109830000Y-140990000D02*
X103530000Y-140990000D01*
X103530000Y-143490000D02*
X109830000Y-143490000D01*
X103530000Y-140990000D02*
X103530000Y-143490000D01*
X99060000Y-142240000D02*
X103530000Y-142240000D01*
%TO.C,Q2*%
X98560000Y-133830000D02*
X102060000Y-133830000D01*
X100330000Y-129600000D02*
G75*
G03*
X98576375Y-133833625I0J-2480000D01*
G01*
X102083625Y-133833625D02*
G75*
G03*
X100330000Y-129600000I-1753625J1753625D01*
G01*
%TO.C,R9*%
X187960000Y-88900000D02*
X183490000Y-88900000D01*
X183490000Y-90150000D02*
X183490000Y-87650000D01*
X183490000Y-87650000D02*
X177190000Y-87650000D01*
X177190000Y-90150000D02*
X183490000Y-90150000D01*
X177190000Y-87650000D02*
X177190000Y-90150000D01*
X172720000Y-88900000D02*
X177190000Y-88900000D01*
%TO.C,D1*%
X178892500Y-142860000D02*
X192392500Y-142860000D01*
X192392500Y-142860000D02*
X192392500Y-131460000D01*
X178892500Y-141510000D02*
X180392500Y-140560000D01*
X178892500Y-139610000D02*
X180392500Y-140560000D01*
X178892500Y-131460000D02*
X178892500Y-142860000D01*
X192392500Y-131460000D02*
X178892500Y-131460000D01*
%TO.C,R6*%
X106680000Y-137160000D02*
X111150000Y-137160000D01*
X111150000Y-135910000D02*
X111150000Y-138410000D01*
X111150000Y-138410000D02*
X117450000Y-138410000D01*
X117450000Y-135910000D02*
X111150000Y-135910000D01*
X117450000Y-138410000D02*
X117450000Y-135910000D01*
X121920000Y-137160000D02*
X117450000Y-137160000D01*
%TO.C,J2*%
X174940000Y-47940000D02*
X174940000Y-48580000D01*
X174940000Y-47940000D02*
X176760000Y-47940000D01*
X174940000Y-48580000D02*
X176760000Y-48580000D01*
X174940000Y-50480000D02*
X174940000Y-51120000D01*
X174940000Y-50480000D02*
X176760000Y-50480000D01*
X174940000Y-51120000D02*
X176760000Y-51120000D01*
X174940000Y-53020000D02*
X174940000Y-53660000D01*
X174940000Y-53020000D02*
X176760000Y-53020000D01*
X174940000Y-53660000D02*
X176760000Y-53660000D01*
X174940000Y-55560000D02*
X174940000Y-56200000D01*
X174940000Y-55560000D02*
X176760000Y-55560000D01*
X174940000Y-56200000D02*
X176760000Y-56200000D01*
X174940000Y-58100000D02*
X174940000Y-58740000D01*
X174940000Y-58100000D02*
X176760000Y-58100000D01*
X174940000Y-58740000D02*
X176760000Y-58740000D01*
X174940000Y-60640000D02*
X174940000Y-61280000D01*
X174940000Y-60640000D02*
X176760000Y-60640000D01*
X174940000Y-61280000D02*
X176760000Y-61280000D01*
X176760000Y-47625000D02*
X177395000Y-46990000D01*
X176760000Y-62230000D02*
X176760000Y-47625000D01*
X177395000Y-46990000D02*
X179300000Y-46990000D01*
X179300000Y-46990000D02*
X179300000Y-62230000D01*
X179300000Y-47940000D02*
X185300000Y-47940000D01*
X179300000Y-48580000D02*
X185300000Y-48580000D01*
X179300000Y-50480000D02*
X185300000Y-50480000D01*
X179300000Y-51120000D02*
X185300000Y-51120000D01*
X179300000Y-53020000D02*
X185300000Y-53020000D01*
X179300000Y-53660000D02*
X185300000Y-53660000D01*
X179300000Y-55560000D02*
X185300000Y-55560000D01*
X179300000Y-56200000D02*
X185300000Y-56200000D01*
X179300000Y-58100000D02*
X185300000Y-58100000D01*
X179300000Y-58740000D02*
X185300000Y-58740000D01*
X179300000Y-60640000D02*
X185300000Y-60640000D01*
X179300000Y-61280000D02*
X185300000Y-61280000D01*
X179300000Y-62230000D02*
X176760000Y-62230000D01*
X185300000Y-47940000D02*
X185300000Y-48580000D01*
X185300000Y-50480000D02*
X185300000Y-51120000D01*
X185300000Y-53020000D02*
X185300000Y-53660000D01*
X185300000Y-55560000D02*
X185300000Y-56200000D01*
X185300000Y-58100000D02*
X185300000Y-58740000D01*
X185300000Y-60640000D02*
X185300000Y-61280000D01*
%TD*%
M02*
