%TF.GenerationSoftware,KiCad,Pcbnew,7.0.9-7.0.9~ubuntu22.04.1*%
%TF.CreationDate,2024-01-11T12:11:02+01:00*%
%TF.ProjectId,circuit,63697263-7569-4742-9e6b-696361645f70,rev?*%
%TF.SameCoordinates,Original*%
%TF.FileFunction,Copper,L2,Bot*%
%TF.FilePolarity,Positive*%
%FSLAX46Y46*%
G04 Gerber Fmt 4.6, Leading zero omitted, Abs format (unit mm)*
G04 Created by KiCad (PCBNEW 7.0.9-7.0.9~ubuntu22.04.1) date 2024-01-11 12:11:02*
%MOMM*%
%LPD*%
G01*
G04 APERTURE LIST*
G04 Aperture macros list*
%AMRoundRect*
0 Rectangle with rounded corners*
0 $1 Rounding radius*
0 $2 $3 $4 $5 $6 $7 $8 $9 X,Y pos of 4 corners*
0 Add a 4 corners polygon primitive as box body*
4,1,4,$2,$3,$4,$5,$6,$7,$8,$9,$2,$3,0*
0 Add four circle primitives for the rounded corners*
1,1,$1+$1,$2,$3*
1,1,$1+$1,$4,$5*
1,1,$1+$1,$6,$7*
1,1,$1+$1,$8,$9*
0 Add four rect primitives between the rounded corners*
20,1,$1+$1,$2,$3,$4,$5,0*
20,1,$1+$1,$4,$5,$6,$7,0*
20,1,$1+$1,$6,$7,$8,$9,0*
20,1,$1+$1,$8,$9,$2,$3,0*%
G04 Aperture macros list end*
%TA.AperFunction,ComponentPad*%
%ADD10C,1.600000*%
%TD*%
%TA.AperFunction,ComponentPad*%
%ADD11O,1.600000X1.600000*%
%TD*%
%TA.AperFunction,ComponentPad*%
%ADD12R,1.600000X1.600000*%
%TD*%
%TA.AperFunction,ComponentPad*%
%ADD13R,1.300000X1.300000*%
%TD*%
%TA.AperFunction,ComponentPad*%
%ADD14C,1.300000*%
%TD*%
%TA.AperFunction,ComponentPad*%
%ADD15R,2.000000X1.905000*%
%TD*%
%TA.AperFunction,ComponentPad*%
%ADD16O,2.000000X1.905000*%
%TD*%
%TA.AperFunction,ComponentPad*%
%ADD17RoundRect,0.250000X-1.400000X0.650000X-1.400000X-0.650000X1.400000X-0.650000X1.400000X0.650000X0*%
%TD*%
%TA.AperFunction,ComponentPad*%
%ADD18O,3.300000X1.800000*%
%TD*%
%TA.AperFunction,ComponentPad*%
%ADD19R,1.700000X1.700000*%
%TD*%
%TA.AperFunction,ComponentPad*%
%ADD20O,1.700000X1.700000*%
%TD*%
%TA.AperFunction,ComponentPad*%
%ADD21RoundRect,1.500000X-1.500000X-1.500000X1.500000X-1.500000X1.500000X1.500000X-1.500000X1.500000X0*%
%TD*%
%TA.AperFunction,ComponentPad*%
%ADD22C,6.000000*%
%TD*%
%TA.AperFunction,ComponentPad*%
%ADD23O,2.200000X3.500000*%
%TD*%
%TA.AperFunction,ComponentPad*%
%ADD24R,1.500000X2.500000*%
%TD*%
%TA.AperFunction,ComponentPad*%
%ADD25O,1.500000X2.500000*%
%TD*%
%TA.AperFunction,ComponentPad*%
%ADD26RoundRect,0.250000X1.400000X-0.650000X1.400000X0.650000X-1.400000X0.650000X-1.400000X-0.650000X0*%
%TD*%
%TA.AperFunction,ViaPad*%
%ADD27C,0.800000*%
%TD*%
%TA.AperFunction,Conductor*%
%ADD28C,1.000000*%
%TD*%
G04 APERTURE END LIST*
D10*
%TO.P,R7,1*%
%TO.N,/ESP Power*%
X111760000Y-50800000D03*
D11*
%TO.P,R7,2*%
%TO.N,Net-(U5-ADJ)*%
X111760000Y-66040000D03*
%TD*%
D10*
%TO.P,R14,1*%
%TO.N,Net-(U3-ADJ)*%
X81280000Y-66040000D03*
D11*
%TO.P,R14,2*%
%TO.N,GND*%
X96520000Y-66040000D03*
%TD*%
D10*
%TO.P,R3,1*%
%TO.N,/ESP Power*%
X157480000Y-127000000D03*
D11*
%TO.P,R3,2*%
%TO.N,Net-(D1-A)*%
X172720000Y-127000000D03*
%TD*%
D10*
%TO.P,R8,1*%
%TO.N,Net-(U5-ADJ)*%
X106680000Y-50800000D03*
D11*
%TO.P,R8,2*%
%TO.N,GND*%
X106680000Y-66040000D03*
%TD*%
D10*
%TO.P,R5,1*%
%TO.N,Net-(Q1-B)*%
X157480000Y-119380000D03*
D11*
%TO.P,R5,2*%
%TO.N,Net-(U1-32)*%
X172720000Y-119380000D03*
%TD*%
D10*
%TO.P,R1,1*%
%TO.N,/MotorDrive*%
X81280000Y-96520000D03*
D11*
%TO.P,R1,2*%
%TO.N,Net-(U4-ADJ)*%
X96520000Y-96520000D03*
%TD*%
D12*
%TO.P,U2,1,EN1\u002C2*%
%TO.N,Net-(Q4-C)*%
X109220000Y-109220000D03*
D11*
%TO.P,U2,2,1A*%
%TO.N,Net-(U1-32)*%
X109220000Y-111760000D03*
%TO.P,U2,3,1Y*%
%TO.N,Net-(M1-+)*%
X109220000Y-114300000D03*
%TO.P,U2,4,GND*%
%TO.N,GND*%
X109220000Y-116840000D03*
%TO.P,U2,5,GND*%
X109220000Y-119380000D03*
%TO.P,U2,6,2Y*%
%TO.N,Net-(M1--)*%
X109220000Y-121920000D03*
%TO.P,U2,7,2A*%
%TO.N,Net-(U1-5)*%
X109220000Y-124460000D03*
%TO.P,U2,8,VCC2*%
%TO.N,/MotorDrive*%
X109220000Y-127000000D03*
%TO.P,U2,9,EN3\u002C4*%
%TO.N,unconnected-(U2-EN3\u002C4-Pad9)*%
X116840000Y-127000000D03*
%TO.P,U2,10,3A*%
%TO.N,unconnected-(U2-3A-Pad10)*%
X116840000Y-124460000D03*
%TO.P,U2,11,3Y*%
%TO.N,unconnected-(U2-3Y-Pad11)*%
X116840000Y-121920000D03*
%TO.P,U2,12,GND*%
%TO.N,GND*%
X116840000Y-119380000D03*
%TO.P,U2,13,GND*%
X116840000Y-116840000D03*
%TO.P,U2,14,4Y*%
%TO.N,unconnected-(U2-4Y-Pad14)*%
X116840000Y-114300000D03*
%TO.P,U2,15,4A*%
%TO.N,unconnected-(U2-4A-Pad15)*%
X116840000Y-111760000D03*
%TO.P,U2,16,VCC1*%
%TO.N,/DriverPower*%
X116840000Y-109220000D03*
%TD*%
D10*
%TO.P,R10,1*%
%TO.N,Net-(J1-SDA)*%
X187960000Y-96520000D03*
D11*
%TO.P,R10,2*%
%TO.N,/ESP Power*%
X172720000Y-96520000D03*
%TD*%
D10*
%TO.P,R12,1*%
%TO.N,Net-(U1-18)*%
X109220000Y-91440000D03*
D11*
%TO.P,R12,2*%
%TO.N,Net-(Q4-B)*%
X109220000Y-76200000D03*
%TD*%
D13*
%TO.P,Q4,1,B*%
%TO.N,Net-(Q4-B)*%
X109220000Y-99060000D03*
D14*
%TO.P,Q4,2,C*%
%TO.N,Net-(Q4-C)*%
X110490000Y-97790000D03*
%TO.P,Q4,3,E*%
%TO.N,GND*%
X111760000Y-99060000D03*
%TD*%
D15*
%TO.P,U4,1,ADJ*%
%TO.N,Net-(U4-ADJ)*%
X82210000Y-104140000D03*
D16*
%TO.P,U4,2,VO*%
%TO.N,/MotorDrive*%
X82210000Y-106680000D03*
%TO.P,U4,3,VI*%
%TO.N,Net-(SW2A-B)*%
X82210000Y-109220000D03*
%TD*%
D17*
%TO.P,M1,1,+*%
%TO.N,Net-(M1-+)*%
X91440000Y-116920000D03*
X83240000Y-116920000D03*
D18*
%TO.P,M1,2,-*%
%TO.N,Net-(M1--)*%
X91440000Y-121920000D03*
X83240000Y-121920000D03*
%TD*%
D10*
%TO.P,R13,1*%
%TO.N,/DriverPower*%
X81280000Y-71120000D03*
D11*
%TO.P,R13,2*%
%TO.N,Net-(U3-ADJ)*%
X96520000Y-71120000D03*
%TD*%
D19*
%TO.P,J3,1,Vcc*%
%TO.N,/ESP Power*%
X175965000Y-69860000D03*
D20*
%TO.P,J3,2,Trig*%
%TO.N,Net-(J3-Trig)*%
X175965000Y-72400000D03*
%TO.P,J3,3,Echo*%
%TO.N,Net-(J3-Echo)*%
X175965000Y-74940000D03*
%TO.P,J3,4,Grnd*%
%TO.N,GND*%
X175965000Y-77480000D03*
%TD*%
D10*
%TO.P,R2,1*%
%TO.N,Net-(U4-ADJ)*%
X96520000Y-91440000D03*
D11*
%TO.P,R2,2*%
%TO.N,GND*%
X81280000Y-91440000D03*
%TD*%
D15*
%TO.P,U3,1,ADJ*%
%TO.N,Net-(U3-ADJ)*%
X82210000Y-78740000D03*
D16*
%TO.P,U3,2,VO*%
%TO.N,/DriverPower*%
X82210000Y-81280000D03*
%TO.P,U3,3,VI*%
%TO.N,/MotorDrive*%
X82210000Y-83820000D03*
%TD*%
D13*
%TO.P,Q1,1,B*%
%TO.N,Net-(Q1-B)*%
X165100000Y-139700000D03*
D14*
%TO.P,Q1,2,C*%
%TO.N,Net-(D1-K)*%
X163830000Y-138430000D03*
%TO.P,Q1,3,E*%
%TO.N,GND*%
X165100000Y-137160000D03*
%TD*%
D15*
%TO.P,U5,1,ADJ*%
%TO.N,Net-(U5-ADJ)*%
X82210000Y-53340000D03*
D16*
%TO.P,U5,2,VO*%
%TO.N,/ESP Power*%
X82210000Y-55880000D03*
%TO.P,U5,3,VI*%
%TO.N,Net-(SW2A-B)*%
X82210000Y-58420000D03*
%TD*%
D21*
%TO.P,BT1,1,+*%
%TO.N,Net-(BT1-+)*%
X85300000Y-43180000D03*
D22*
%TO.P,BT1,2,-*%
%TO.N,GND*%
X92500000Y-43180000D03*
%TD*%
D20*
%TO.P,U1,1,GND*%
%TO.N,unconnected-(U1-GND-Pad1)*%
X152400000Y-139700000D03*
D19*
%TO.P,U1,2,3V3*%
%TO.N,Net-(J1-VCC)*%
X127000000Y-91440000D03*
D20*
%TO.P,U1,3,VP*%
%TO.N,unconnected-(U1-VP-Pad3)*%
X127000000Y-96520000D03*
%TO.P,U1,4,VN*%
%TO.N,unconnected-(U1-VN-Pad4)*%
X127000000Y-99060000D03*
%TO.P,U1,5,34*%
%TO.N,unconnected-(U1-34-Pad5)*%
X127000000Y-101600000D03*
%TO.P,U1,6,35*%
%TO.N,Net-(J3-Echo)*%
X127000000Y-104140000D03*
%TO.P,U1,7,32*%
%TO.N,Net-(U1-32)*%
X127000000Y-106680000D03*
%TO.P,U1,8,33*%
%TO.N,Net-(M2-PWM)*%
X127000000Y-109220000D03*
%TO.P,U1,9,25*%
%TO.N,unconnected-(U1-25-Pad9)*%
X127000000Y-111760000D03*
%TO.P,U1,10,26*%
%TO.N,unconnected-(U1-26-Pad10)*%
X127000000Y-114300000D03*
%TO.P,U1,11,27*%
%TO.N,unconnected-(U1-27-Pad11)*%
X127000000Y-116840000D03*
%TO.P,U1,12,14*%
%TO.N,unconnected-(U1-14-Pad12)*%
X127000000Y-119380000D03*
%TO.P,U1,13,12*%
%TO.N,unconnected-(U1-12-Pad13)*%
X127000000Y-121920000D03*
%TO.P,U1,14,GND*%
%TO.N,unconnected-(U1-GND-Pad14)*%
X127000000Y-124460000D03*
%TO.P,U1,15,13*%
%TO.N,unconnected-(U1-13-Pad15)*%
X127000000Y-127000000D03*
%TO.P,U1,16,SD2*%
%TO.N,unconnected-(U1-SD2-Pad16)*%
X127000000Y-129540000D03*
%TO.P,U1,17,SD3*%
%TO.N,unconnected-(U1-SD3-Pad17)*%
X127000000Y-132080000D03*
%TO.P,U1,18,CMD*%
%TO.N,unconnected-(U1-CMD-Pad18)*%
X127000000Y-134620000D03*
%TO.P,U1,19,VCC*%
%TO.N,/ESP Power*%
X127000000Y-137160000D03*
%TO.P,U1,20,VCC*%
%TO.N,unconnected-(U1-VCC-Pad20)*%
X127000000Y-139700000D03*
%TO.P,U1,21,CLK*%
%TO.N,unconnected-(U1-CLK-Pad21)*%
X152400000Y-137160000D03*
%TO.P,U1,22,SD0*%
%TO.N,unconnected-(U1-SD0-Pad22)*%
X152400000Y-134620000D03*
%TO.P,U1,23,SD1*%
%TO.N,unconnected-(U1-SD1-Pad23)*%
X152400000Y-132080000D03*
%TO.P,U1,24,15*%
%TO.N,unconnected-(U1-15-Pad24)*%
X152400000Y-129540000D03*
%TO.P,U1,25,2*%
%TO.N,unconnected-(U1-2-Pad25)*%
X152400000Y-127000000D03*
%TO.P,U1,26,0*%
%TO.N,unconnected-(U1-0-Pad26)*%
X152400000Y-124460000D03*
%TO.P,U1,27,4*%
%TO.N,unconnected-(U1-4-Pad27)*%
X152400000Y-121920000D03*
%TO.P,U1,28,GND*%
%TO.N,unconnected-(U1-GND-Pad28)*%
X152400000Y-119380000D03*
%TO.P,U1,29,GND*%
%TO.N,GND*%
X152400000Y-116840000D03*
%TO.P,U1,30,5*%
%TO.N,Net-(U1-5)*%
X152400000Y-114300000D03*
%TO.P,U1,31,18*%
%TO.N,Net-(U1-18)*%
X152400000Y-111760000D03*
%TO.P,U1,32,19*%
%TO.N,Net-(J1-INT)*%
X152400000Y-109220000D03*
%TO.P,U1,33,GND*%
%TO.N,unconnected-(U1-GND-Pad33)*%
X152400000Y-106680000D03*
%TO.P,U1,34,21*%
%TO.N,Net-(J1-SDA)*%
X152400000Y-104140000D03*
%TO.P,U1,35,RX*%
%TO.N,unconnected-(U1-RX-Pad35)*%
X152400000Y-101600000D03*
%TO.P,U1,36,TX*%
%TO.N,unconnected-(U1-TX-Pad36)*%
X152400000Y-99060000D03*
%TO.P,U1,37,22*%
%TO.N,Net-(J1-SCL)*%
X152400000Y-96520000D03*
%TO.P,U1,38,23*%
%TO.N,Net-(J3-Trig)*%
X152400000Y-93980000D03*
D19*
%TO.P,U1,39,GND*%
%TO.N,unconnected-(U1-GND-Pad39)*%
X152400000Y-91440000D03*
D20*
%TO.P,U1,40,EN*%
%TO.N,unconnected-(U1-EN-Pad40)*%
X127000000Y-93980000D03*
%TD*%
D17*
%TO.P,D3,1,K*%
%TO.N,Net-(D3-K)*%
X91440000Y-132160000D03*
X83240000Y-132160000D03*
D18*
%TO.P,D3,2,A*%
%TO.N,Net-(D3-A)*%
X91440000Y-137160000D03*
X83240000Y-137160000D03*
%TD*%
D23*
%TO.P,SW2,*%
%TO.N,*%
X111320000Y-43180000D03*
X103120000Y-43180000D03*
D24*
%TO.P,SW2,1,A*%
%TO.N,Net-(BT1-+)*%
X109220000Y-43180000D03*
D25*
%TO.P,SW2,2,B*%
%TO.N,Net-(SW2A-B)*%
X107220000Y-43180000D03*
%TO.P,SW2,3,C*%
%TO.N,unconnected-(SW2A-C-Pad3)*%
X105220000Y-43180000D03*
%TD*%
D19*
%TO.P,M2,1,PWM*%
%TO.N,Net-(M2-PWM)*%
X181045000Y-119395000D03*
D20*
%TO.P,M2,2,+*%
%TO.N,/ESP Power*%
X181045000Y-121935000D03*
%TO.P,M2,3,-*%
%TO.N,GND*%
X181045000Y-124475000D03*
%TD*%
D19*
%TO.P,J1,1,VCC*%
%TO.N,Net-(J1-VCC)*%
X147320000Y-43180000D03*
D20*
%TO.P,J1,2,GND*%
%TO.N,GND*%
X144780000Y-43180000D03*
%TO.P,J1,3,SCL*%
%TO.N,Net-(J1-SCL)*%
X142240000Y-43180000D03*
%TO.P,J1,4,SDA*%
%TO.N,Net-(J1-SDA)*%
X139700000Y-43180000D03*
%TO.P,J1,5,XDA*%
%TO.N,unconnected-(J1-XDA-Pad5)*%
X137160000Y-43180000D03*
%TO.P,J1,6,XCL*%
%TO.N,unconnected-(J1-XCL-Pad6)*%
X134620000Y-43180000D03*
%TO.P,J1,7,ADC*%
%TO.N,unconnected-(J1-ADC-Pad7)*%
X132080000Y-43180000D03*
%TO.P,J1,8,INT*%
%TO.N,Net-(J1-INT)*%
X129540000Y-43180000D03*
%TD*%
D10*
%TO.P,R11,1*%
%TO.N,Net-(Q4-C)*%
X114300000Y-91440000D03*
D11*
%TO.P,R11,2*%
%TO.N,Net-(J1-VCC)*%
X114300000Y-76200000D03*
%TD*%
D10*
%TO.P,R4,1*%
%TO.N,/ESP Power*%
X114300000Y-142240000D03*
D11*
%TO.P,R4,2*%
%TO.N,Net-(D3-A)*%
X99060000Y-142240000D03*
%TD*%
D13*
%TO.P,Q2,1,B*%
%TO.N,Net-(Q2-B)*%
X99060000Y-132080000D03*
D14*
%TO.P,Q2,2,C*%
%TO.N,Net-(D3-K)*%
X100330000Y-130810000D03*
%TO.P,Q2,3,E*%
%TO.N,GND*%
X101600000Y-132080000D03*
%TD*%
D10*
%TO.P,R9,1*%
%TO.N,Net-(J1-SCL)*%
X187960000Y-88900000D03*
D11*
%TO.P,R9,2*%
%TO.N,/ESP Power*%
X172720000Y-88900000D03*
%TD*%
D26*
%TO.P,D1,1,K*%
%TO.N,Net-(D1-K)*%
X181642500Y-140560000D03*
X189842500Y-140560000D03*
D18*
%TO.P,D1,2,A*%
%TO.N,Net-(D1-A)*%
X181642500Y-135560000D03*
X189842500Y-135560000D03*
%TD*%
D10*
%TO.P,R6,1*%
%TO.N,Net-(Q2-B)*%
X106680000Y-137160000D03*
D11*
%TO.P,R6,2*%
%TO.N,Net-(U1-5)*%
X121920000Y-137160000D03*
%TD*%
D19*
%TO.P,J2,1,VIN*%
%TO.N,Net-(J1-VCC)*%
X175260000Y-48260000D03*
D20*
%TO.P,J2,2,GND*%
%TO.N,GND*%
X175260000Y-50800000D03*
%TO.P,J2,3,SCL*%
%TO.N,Net-(J1-SCL)*%
X175260000Y-53340000D03*
%TO.P,J2,4,SDA*%
%TO.N,Net-(J1-SDA)*%
X175260000Y-55880000D03*
%TO.P,J2,5,GPIO1*%
%TO.N,unconnected-(J2-GPIO1-Pad5)*%
X175260000Y-58420000D03*
%TO.P,J2,6,XSHUT*%
%TO.N,unconnected-(J2-XSHUT-Pad6)*%
X175260000Y-60960000D03*
%TD*%
D27*
%TO.N,Net-(Q4-C)*%
X112844000Y-106655500D03*
%TO.N,Net-(U1-32)*%
X112749400Y-110179800D03*
%TO.N,Net-(J1-VCC)*%
X117005500Y-74203200D03*
%TO.N,Net-(Q1-B)*%
X167157800Y-131535000D03*
%TD*%
D28*
%TO.N,Net-(Q4-C)*%
X114808000Y-96012000D02*
X114300000Y-95504000D01*
X114808000Y-104691500D02*
X114808000Y-96012000D01*
X114300000Y-91440000D02*
X114300000Y-95504000D01*
X112776000Y-95504000D02*
X110490000Y-97790000D01*
X112844000Y-106655500D02*
X114808000Y-104691500D01*
X114300000Y-95504000D02*
X112776000Y-95504000D01*
%TO.N,Net-(U1-32)*%
X151257000Y-144399000D02*
X164757800Y-130898200D01*
X127000000Y-106680000D02*
X128778000Y-106680000D01*
X146885100Y-124787100D02*
X146885100Y-140027100D01*
X172720000Y-120396000D02*
X172720000Y-119380000D01*
X164757800Y-128358200D02*
X172720000Y-120396000D01*
X164757800Y-130898200D02*
X164757800Y-128358200D01*
X116249200Y-106680000D02*
X127000000Y-106680000D01*
X112749400Y-110179800D02*
X116249200Y-106680000D01*
X128778000Y-106680000D02*
X146885100Y-124787100D01*
X146885100Y-140027100D02*
X151257000Y-144399000D01*
%TO.N,Net-(M1-+)*%
X105099700Y-116920000D02*
X107719700Y-114300000D01*
X109220000Y-114300000D02*
X107719700Y-114300000D01*
X91440000Y-116920000D02*
X105099700Y-116920000D01*
%TO.N,GND*%
X144780000Y-45974000D02*
X139986800Y-50767200D01*
X158189600Y-111050400D02*
X152400000Y-116840000D01*
X144780000Y-43180000D02*
X144780000Y-45974000D01*
X175965000Y-77480000D02*
X175965000Y-79030300D01*
X103124000Y-132080000D02*
X104140000Y-131064000D01*
X110720300Y-116840000D02*
X110720300Y-116797100D01*
X178044000Y-77480000D02*
X175965000Y-77480000D01*
X139986800Y-50767200D02*
X126778800Y-50767200D01*
X126778800Y-50767200D02*
X124714000Y-52832000D01*
X175965000Y-79030300D02*
X158189600Y-96805700D01*
X109220000Y-116840000D02*
X110720300Y-116840000D01*
X111760000Y-99060000D02*
X111497400Y-99322600D01*
X101600000Y-132080000D02*
X103124000Y-132080000D01*
X179832000Y-55372000D02*
X179832000Y-75692000D01*
X116840000Y-119380000D02*
X116840000Y-116840000D01*
X104140000Y-124460000D02*
X109220000Y-119380000D01*
X175260000Y-50800000D02*
X179832000Y-55372000D01*
X92500000Y-60519700D02*
X92500000Y-43180000D01*
X109220000Y-69342000D02*
X106680000Y-66802000D01*
X110720300Y-116797100D02*
X111497400Y-116020000D01*
X106680000Y-66802000D02*
X106680000Y-66040000D01*
X124714000Y-52832000D02*
X124714000Y-59436000D01*
X109220000Y-119380000D02*
X109220000Y-116840000D01*
X111497400Y-116020000D02*
X114519700Y-116020000D01*
X96520000Y-64539700D02*
X92500000Y-60519700D01*
X96520000Y-66040000D02*
X96520000Y-64539700D01*
X104140000Y-131064000D02*
X104140000Y-124460000D01*
X116840000Y-116840000D02*
X115339700Y-116840000D01*
X179832000Y-75692000D02*
X178044000Y-77480000D01*
X124714000Y-59436000D02*
X114808000Y-69342000D01*
X158189600Y-96805700D02*
X158189600Y-111050400D01*
X114519700Y-116020000D02*
X115339700Y-116840000D01*
X114808000Y-69342000D02*
X109220000Y-69342000D01*
X111497400Y-99322600D02*
X111497400Y-116020000D01*
%TO.N,/MotorDrive*%
X79502000Y-98298000D02*
X79502000Y-105664000D01*
X83820000Y-87082800D02*
X83820000Y-93980000D01*
X82210000Y-83820000D02*
X82210000Y-85472800D01*
X79502000Y-105664000D02*
X80518000Y-106680000D01*
X81280000Y-96520000D02*
X79502000Y-98298000D01*
X80518000Y-106680000D02*
X82210000Y-106680000D01*
X82210000Y-85472800D02*
X83820000Y-87082800D01*
X83820000Y-93980000D02*
X81280000Y-96520000D01*
%TO.N,Net-(U1-5)*%
X121920000Y-137160000D02*
X121920000Y-135659700D01*
X109220000Y-124460000D02*
X110720300Y-124460000D01*
X110720300Y-124460000D02*
X121920000Y-135659700D01*
%TO.N,/DriverPower*%
X79248000Y-81280000D02*
X79248000Y-73152000D01*
X79248000Y-73152000D02*
X81280000Y-71120000D01*
X82210000Y-81280000D02*
X79248000Y-81280000D01*
%TO.N,Net-(U3-ADJ)*%
X84328000Y-70866000D02*
X84328000Y-69088000D01*
X82210000Y-77087200D02*
X84074000Y-75223200D01*
X82210000Y-78740000D02*
X82210000Y-77087200D01*
X84328000Y-69088000D02*
X81280000Y-66040000D01*
X84074000Y-71120000D02*
X96520000Y-71120000D01*
X84074000Y-75223200D02*
X84074000Y-71120000D01*
X84074000Y-71120000D02*
X84328000Y-70866000D01*
%TO.N,Net-(U4-ADJ)*%
X96520000Y-91440000D02*
X96520000Y-96520000D01*
%TO.N,Net-(U5-ADJ)*%
X110259700Y-66040000D02*
X111760000Y-66040000D01*
X91300000Y-59804000D02*
X91300000Y-61016756D01*
X82210000Y-53340000D02*
X84836000Y-53340000D01*
X84836000Y-53340000D02*
X91300000Y-59804000D01*
X106680000Y-63246000D02*
X106680000Y-50800000D01*
X106680000Y-63754000D02*
X107973700Y-63754000D01*
X101598800Y-68327200D02*
X106426000Y-63500000D01*
X106426000Y-63500000D02*
X106680000Y-63246000D01*
X106426000Y-63500000D02*
X106680000Y-63754000D01*
X91300000Y-61016756D02*
X93218000Y-62934756D01*
X93218000Y-62934756D02*
X93218000Y-68327200D01*
X93218000Y-68327200D02*
X101598800Y-68327200D01*
X107973700Y-63754000D02*
X110259700Y-66040000D01*
%TO.N,/ESP Power*%
X184658000Y-121935000D02*
X181045000Y-121935000D01*
X172818700Y-97793200D02*
X172818700Y-111661300D01*
X172720000Y-96520000D02*
X172720000Y-97694500D01*
X127000000Y-137160000D02*
X125449700Y-137160000D01*
X172720000Y-88900000D02*
X172720000Y-96520000D01*
X172818700Y-111661300D02*
X179479300Y-111661300D01*
X172720000Y-97694500D02*
X172818700Y-97793200D01*
X179479300Y-111661300D02*
X184658000Y-116840000D01*
X120369700Y-142240000D02*
X125449700Y-137160000D01*
X114300000Y-142240000D02*
X120369700Y-142240000D01*
X172818700Y-111661300D02*
X157480000Y-127000000D01*
X184658000Y-116840000D02*
X184658000Y-121935000D01*
%TO.N,Net-(D1-A)*%
X179292200Y-135072500D02*
X172720000Y-128500300D01*
X181642500Y-135560000D02*
X179292200Y-135560000D01*
X179292200Y-135560000D02*
X179292200Y-135072500D01*
X172720000Y-127000000D02*
X172720000Y-128500300D01*
%TO.N,Net-(J1-VCC)*%
X126489400Y-89889700D02*
X127000000Y-89889700D01*
X114300000Y-77700300D02*
X126489400Y-89889700D01*
X127000000Y-91440000D02*
X127000000Y-89889700D01*
X114300000Y-76200000D02*
X114300000Y-77700300D01*
X147320000Y-46736000D02*
X119852800Y-74203200D01*
X147320000Y-43180000D02*
X147320000Y-46736000D01*
X119852800Y-74203200D02*
X117005500Y-74203200D01*
%TO.N,Net-(J1-SCL)*%
X187960000Y-55880000D02*
X187960000Y-88900000D01*
X172212000Y-52324000D02*
X172212000Y-46990000D01*
X173228000Y-53340000D02*
X172212000Y-52324000D01*
X175260000Y-53340000D02*
X173228000Y-53340000D01*
X173736000Y-45466000D02*
X177546000Y-45466000D01*
X172212000Y-46990000D02*
X173736000Y-45466000D01*
X177546000Y-45466000D02*
X187960000Y-55880000D01*
%TO.N,Net-(J1-INT)*%
X148082000Y-90932000D02*
X148082000Y-106934000D01*
X129540000Y-43180000D02*
X129540000Y-41656000D01*
X150368000Y-109220000D02*
X152400000Y-109220000D01*
X148082000Y-106934000D02*
X150368000Y-109220000D01*
X151384000Y-87630000D02*
X148082000Y-90932000D01*
X131064000Y-40132000D02*
X149352000Y-40132000D01*
X149352000Y-40132000D02*
X151384000Y-42164000D01*
X151384000Y-42164000D02*
X151384000Y-87630000D01*
X129540000Y-41656000D02*
X131064000Y-40132000D01*
%TO.N,Net-(J3-Trig)*%
X154940000Y-93726000D02*
X154686000Y-93980000D01*
X175965000Y-72400000D02*
X174414700Y-72400000D01*
X174414700Y-72400000D02*
X154940000Y-91874700D01*
X154686000Y-93980000D02*
X152400000Y-93980000D01*
X154940000Y-91874700D02*
X154940000Y-93726000D01*
%TO.N,Net-(M2-PWM)*%
X130302000Y-110744000D02*
X128778000Y-109220000D01*
X165957800Y-132746200D02*
X152044000Y-146660000D01*
X152044000Y-146660000D02*
X151486000Y-146660000D01*
X181045000Y-119395000D02*
X176515000Y-119395000D01*
X151486000Y-146660000D02*
X130302000Y-125476000D01*
X130302000Y-125476000D02*
X130302000Y-110744000D01*
X165957800Y-129952200D02*
X165957800Y-132746200D01*
X176515000Y-119395000D02*
X165957800Y-129952200D01*
X128778000Y-109220000D02*
X127000000Y-109220000D01*
%TO.N,Net-(Q1-B)*%
X165100000Y-139700000D02*
X167132000Y-139700000D01*
X168656000Y-133033200D02*
X167157800Y-131535000D01*
X167132000Y-139700000D02*
X168656000Y-138176000D01*
X168656000Y-138176000D02*
X168656000Y-133033200D01*
%TO.N,Net-(Q4-B)*%
X109220000Y-76200000D02*
X109220000Y-77700300D01*
X106680000Y-96520000D02*
X109220000Y-99060000D01*
X106680000Y-80240300D02*
X106680000Y-96520000D01*
X109220000Y-77700300D02*
X106680000Y-80240300D01*
%TO.N,Net-(U1-18)*%
X129794000Y-89572679D02*
X129794000Y-91440000D01*
X114006821Y-73785500D02*
X129794000Y-89572679D01*
X109220000Y-91440000D02*
X112396500Y-88263500D01*
X129794000Y-91440000D02*
X150114000Y-111760000D01*
X150114000Y-111760000D02*
X152400000Y-111760000D01*
X112396500Y-88263500D02*
X112396500Y-73785500D01*
X112396500Y-73785500D02*
X114006821Y-73785500D01*
%TO.N,Net-(SW2A-B)*%
X82210000Y-58420000D02*
X82210000Y-60072800D01*
X82210000Y-60072800D02*
X77978000Y-64304800D01*
X79502000Y-109220000D02*
X82210000Y-109220000D01*
X77978000Y-107696000D02*
X79502000Y-109220000D01*
X77978000Y-64304800D02*
X77978000Y-107696000D01*
%TD*%
M02*
