%TF.GenerationSoftware,KiCad,Pcbnew,7.0.9-7.0.9~ubuntu22.04.1*%
%TF.CreationDate,2024-01-11T12:11:02+01:00*%
%TF.ProjectId,circuit,63697263-7569-4742-9e6b-696361645f70,rev?*%
%TF.SameCoordinates,Original*%
%TF.FileFunction,Other,User*%
%FSLAX46Y46*%
G04 Gerber Fmt 4.6, Leading zero omitted, Abs format (unit mm)*
G04 Created by KiCad (PCBNEW 7.0.9-7.0.9~ubuntu22.04.1) date 2024-01-11 12:11:02*
%MOMM*%
%LPD*%
G01*
G04 APERTURE LIST*
%ADD10C,0.050000*%
G04 APERTURE END LIST*
D10*
%TO.C,R7*%
X113260000Y-49750000D02*
X110260000Y-49750000D01*
X110260000Y-49750000D02*
X110260000Y-67090000D01*
X113260000Y-67090000D02*
X113260000Y-49750000D01*
X110260000Y-67090000D02*
X113260000Y-67090000D01*
%TO.C,R14*%
X80230000Y-64540000D02*
X80230000Y-67540000D01*
X80230000Y-67540000D02*
X97570000Y-67540000D01*
X97570000Y-64540000D02*
X80230000Y-64540000D01*
X97570000Y-67540000D02*
X97570000Y-64540000D01*
%TO.C,R3*%
X156430000Y-125500000D02*
X156430000Y-128500000D01*
X156430000Y-128500000D02*
X173770000Y-128500000D01*
X173770000Y-125500000D02*
X156430000Y-125500000D01*
X173770000Y-128500000D02*
X173770000Y-125500000D01*
%TO.C,R8*%
X108180000Y-49750000D02*
X105180000Y-49750000D01*
X105180000Y-49750000D02*
X105180000Y-67090000D01*
X108180000Y-67090000D02*
X108180000Y-49750000D01*
X105180000Y-67090000D02*
X108180000Y-67090000D01*
%TO.C,R5*%
X156430000Y-117880000D02*
X156430000Y-120880000D01*
X156430000Y-120880000D02*
X173770000Y-120880000D01*
X173770000Y-117880000D02*
X156430000Y-117880000D01*
X173770000Y-120880000D02*
X173770000Y-117880000D01*
%TO.C,R1*%
X80230000Y-95020000D02*
X80230000Y-98020000D01*
X80230000Y-98020000D02*
X97570000Y-98020000D01*
X97570000Y-95020000D02*
X80230000Y-95020000D01*
X97570000Y-98020000D02*
X97570000Y-95020000D01*
%TO.C,U2*%
X108120000Y-107670000D02*
X108120000Y-128520000D01*
X108120000Y-128520000D02*
X117920000Y-128520000D01*
X117920000Y-107670000D02*
X108120000Y-107670000D01*
X117920000Y-128520000D02*
X117920000Y-107670000D01*
%TO.C,R10*%
X189010000Y-98020000D02*
X189010000Y-95020000D01*
X189010000Y-95020000D02*
X171670000Y-95020000D01*
X171670000Y-98020000D02*
X189010000Y-98020000D01*
X171670000Y-95020000D02*
X171670000Y-98020000D01*
%TO.C,R12*%
X107720000Y-92490000D02*
X110720000Y-92490000D01*
X110720000Y-92490000D02*
X110720000Y-75150000D01*
X107720000Y-75150000D02*
X107720000Y-92490000D01*
X110720000Y-75150000D02*
X107720000Y-75150000D01*
%TO.C,Q4*%
X107760000Y-96330000D02*
X107760000Y-101070000D01*
X107760000Y-96330000D02*
X113220000Y-96330000D01*
X113220000Y-101070000D02*
X107760000Y-101070000D01*
X113220000Y-101070000D02*
X113220000Y-96330000D01*
%TO.C,U4*%
X101920000Y-101430000D02*
X80960000Y-101430000D01*
X80960000Y-101430000D02*
X80960000Y-111930000D01*
X101920000Y-111930000D02*
X101920000Y-101430000D01*
X80960000Y-111930000D02*
X101920000Y-111930000D01*
%TO.C,M1*%
X94690000Y-114120000D02*
X80190000Y-114120000D01*
X80190000Y-114120000D02*
X80190000Y-126520000D01*
X94690000Y-126520000D02*
X94690000Y-114120000D01*
X80190000Y-126520000D02*
X94690000Y-126520000D01*
%TO.C,R13*%
X80230000Y-69620000D02*
X80230000Y-72620000D01*
X80230000Y-72620000D02*
X97570000Y-72620000D01*
X97570000Y-69620000D02*
X80230000Y-69620000D01*
X97570000Y-72620000D02*
X97570000Y-69620000D01*
%TO.C,J3*%
X174165000Y-68060000D02*
X174165000Y-79260000D01*
X174165000Y-79260000D02*
X186515000Y-79260000D01*
X186515000Y-68060000D02*
X174165000Y-68060000D01*
X186515000Y-79260000D02*
X186515000Y-68060000D01*
%TO.C,R2*%
X97570000Y-92940000D02*
X97570000Y-89940000D01*
X97570000Y-89940000D02*
X80230000Y-89940000D01*
X80230000Y-92940000D02*
X97570000Y-92940000D01*
X80230000Y-89940000D02*
X80230000Y-92940000D01*
%TO.C,U3*%
X101920000Y-76030000D02*
X80960000Y-76030000D01*
X80960000Y-76030000D02*
X80960000Y-86530000D01*
X101920000Y-86530000D02*
X101920000Y-76030000D01*
X80960000Y-86530000D02*
X101920000Y-86530000D01*
%TO.C,Q1*%
X162370000Y-141160000D02*
X167110000Y-141160000D01*
X162370000Y-141160000D02*
X162370000Y-135700000D01*
X167110000Y-135700000D02*
X167110000Y-141160000D01*
X167110000Y-135700000D02*
X162370000Y-135700000D01*
%TO.C,U5*%
X101920000Y-50630000D02*
X80960000Y-50630000D01*
X80960000Y-50630000D02*
X80960000Y-61130000D01*
X101920000Y-61130000D02*
X101920000Y-50630000D01*
X80960000Y-61130000D02*
X101920000Y-61130000D01*
%TO.C,BT1*%
X80650000Y-41330000D02*
X83700000Y-38580000D01*
X80650000Y-45030000D02*
X80650000Y-41330000D01*
X83700000Y-38580000D02*
X97150000Y-38580000D01*
X83700000Y-47780000D02*
X80650000Y-45030000D01*
X97150000Y-38580000D02*
X97150000Y-47780000D01*
X97150000Y-47780000D02*
X83700000Y-47780000D01*
%TO.C,U1*%
X125200000Y-89640000D02*
X128750000Y-89640000D01*
X125200000Y-141440000D02*
X125200000Y-89640000D01*
X128750000Y-89640000D02*
X128750000Y-141440000D01*
X128750000Y-141440000D02*
X125200000Y-141440000D01*
X150600000Y-89640000D02*
X154150000Y-89640000D01*
X150600000Y-141440000D02*
X150600000Y-89640000D01*
X154150000Y-89640000D02*
X154150000Y-141440000D01*
X154150000Y-141440000D02*
X150600000Y-141440000D01*
%TO.C,D3*%
X94690000Y-129360000D02*
X80190000Y-129360000D01*
X80190000Y-129360000D02*
X80190000Y-141760000D01*
X94690000Y-141760000D02*
X94690000Y-129360000D01*
X80190000Y-141760000D02*
X94690000Y-141760000D01*
%TO.C,M2*%
X179245000Y-117595000D02*
X179245000Y-126245000D01*
X179245000Y-126245000D02*
X191595000Y-126245000D01*
X191595000Y-117595000D02*
X179245000Y-117595000D01*
X191595000Y-126245000D02*
X191595000Y-117595000D01*
%TO.C,J1*%
X149120000Y-41380000D02*
X149120000Y-44930000D01*
X127770000Y-41380000D02*
X149120000Y-41380000D01*
X149120000Y-44930000D02*
X127770000Y-44930000D01*
X127770000Y-44930000D02*
X127770000Y-41380000D01*
%TO.C,R11*%
X112800000Y-92490000D02*
X115800000Y-92490000D01*
X115800000Y-92490000D02*
X115800000Y-75150000D01*
X112800000Y-75150000D02*
X112800000Y-92490000D01*
X115800000Y-75150000D02*
X112800000Y-75150000D01*
%TO.C,R4*%
X115350000Y-143740000D02*
X115350000Y-140740000D01*
X115350000Y-140740000D02*
X98010000Y-140740000D01*
X98010000Y-143740000D02*
X115350000Y-143740000D01*
X98010000Y-140740000D02*
X98010000Y-143740000D01*
%TO.C,Q2*%
X97600000Y-129350000D02*
X97600000Y-134090000D01*
X97600000Y-129350000D02*
X103060000Y-129350000D01*
X103060000Y-134090000D02*
X97600000Y-134090000D01*
X103060000Y-134090000D02*
X103060000Y-129350000D01*
%TO.C,R9*%
X189010000Y-90400000D02*
X189010000Y-87400000D01*
X189010000Y-87400000D02*
X171670000Y-87400000D01*
X171670000Y-90400000D02*
X189010000Y-90400000D01*
X171670000Y-87400000D02*
X171670000Y-90400000D01*
%TO.C,D1*%
X178392500Y-143360000D02*
X192892500Y-143360000D01*
X192892500Y-143360000D02*
X192892500Y-130960000D01*
X178392500Y-130960000D02*
X178392500Y-143360000D01*
X192892500Y-130960000D02*
X178392500Y-130960000D01*
%TO.C,R6*%
X105630000Y-135660000D02*
X105630000Y-138660000D01*
X105630000Y-138660000D02*
X122970000Y-138660000D01*
X122970000Y-135660000D02*
X105630000Y-135660000D01*
X122970000Y-138660000D02*
X122970000Y-135660000D01*
%TO.C,J2*%
X173460000Y-46460000D02*
X173460000Y-62760000D01*
X173460000Y-62760000D02*
X185810000Y-62760000D01*
X185810000Y-46460000D02*
X173460000Y-46460000D01*
X185810000Y-62760000D02*
X185810000Y-46460000D01*
%TD*%
M02*
